<?xml version="1.0" encoding="UTF-8"?>
<svg version="1.1" xmlns="http://www.w3.org/2000/svg" width="350" height="350">
<path d="M0 0 C115.5 0 231 0 350 0 C350 115.5 350 231 350 350 C234.5 350 119 350 0 350 C0 234.5 0 119 0 0 Z " fill="#3BC8D5" transform="translate(0,0)"/>
<path d="M0 0 C4.3527679 0.43527679 6.38214719 1.64864296 9.75 4.375 C10.245 5.365 10.245 5.365 10.75 6.375 C18.34 6.705 25.93 7.035 33.75 7.375 C34.08 5.395 34.41 3.415 34.75 1.375 C35.75 0.375 35.75 0.375 39 0.1875 C42.56368215 0.36568411 44.70990598 0.55094359 47.75 2.375 C49.0625 5 49.0625 5 49.75 7.375 C50.760625 7.313125 51.77125 7.25125 52.8125 7.1875 C58.64700454 7.46533355 62.91404045 9.01011919 66.91015625 13.328125 C71.82219974 20.12953372 70.64163804 29.10985946 70.625 37.125 C70.64190671 38.88975512 70.66128115 40.6544883 70.68310547 42.41918945 C70.72927221 46.66188378 70.74320346 50.90387263 70.74536133 55.14678955 C70.75167625 58.18019594 70.78876404 61.21295661 70.828125 64.24609375 C70.95402202 76.96390116 70.95402202 76.96390116 69.75 81.375 C70.08 81.705 70.41 82.035 70.75 82.375 C70.79063832 84.04117115 70.792721 85.70888095 70.75 87.375 C66.79 88.365 66.79 88.365 62.75 89.375 C62.9665625 91.3240625 62.9665625 91.3240625 63.1875 93.3125 C63.26871094 94.04339844 63.34992188 94.77429688 63.43359375 95.52734375 C63.56886614 97.38640229 63.56886614 97.38640229 64.75 98.375 C64.875 101.375 64.875 101.375 64.75 104.375 C63.75 105.375 63.75 105.375 61 105.625 C57.33163711 105.34281824 55.63586235 104.6195596 52.75 102.375 C51.4375 100.1875 51.4375 100.1875 50.75 98.375 C49.533125 98.601875 48.31625 98.82875 47.0625 99.0625 C42.97322955 99.60436446 41.17078651 98.72068218 37.75 96.375 C36.265 96.87 36.265 96.87 34.75 97.375 C33.09571851 97.49673203 31.43718929 97.56440414 29.77880859 97.59960938 C28.26110367 97.63338684 28.26110367 97.63338684 26.71273804 97.66784668 C22.07566003 97.73906613 17.43873867 97.79639312 12.80126953 97.83496094 C10.3609654 97.86153883 7.92077298 97.90243114 5.48095703 97.95800781 C1.95299097 98.03739542 -1.57283241 98.0703164 -5.1015625 98.09375 C-6.72392319 98.14323792 -6.72392319 98.14323792 -8.37905884 98.19372559 C-15.43445807 98.17525072 -19.26704964 96.71583174 -24.61068726 92.07629395 C-28.32485972 88.22169137 -27.41815951 83.76406019 -27.40234375 78.703125 C-27.40040512 77.72297424 -27.39846649 76.74282349 -27.39646912 75.73297119 C-27.31852663 64.83228925 -26.59844685 53.99347009 -25.8125 43.125 C-25.67577869 41.14197204 -25.53970944 39.15889901 -25.40429688 37.17578125 C-24.72374188 27.35412951 -24.72374188 27.35412951 -24.44412231 23.85290527 C-24.30789331 22.11398846 -24.19008268 20.37357737 -24.08590698 18.63244629 C-24.02138336 17.74214722 -23.95685974 16.85184814 -23.89038086 15.93457031 C-23.83917587 15.13190735 -23.78797089 14.32924438 -23.73521423 13.5022583 C-23.14321892 10.90685434 -22.33624306 9.99276634 -20.25 8.375 C-17.28650719 7.38716906 -15.2787337 7.24089475 -12.1875 7.25 C-11.30964844 7.24742188 -10.43179688 7.24484375 -9.52734375 7.2421875 C-7.25 7.375 -7.25 7.375 -5.25 8.375 C-5.29125 7.42625 -5.3325 6.4775 -5.375 5.5 C-5.19890815 1.09770365 -4.33316709 0.49998082 0 0 Z " fill="#0465B5" transform="translate(63.25,36.625)"/>
<path d="M0 0 C3.1793909 0.07569978 5.30889688 0.36768037 7.69921875 2.5546875 C12.2096604 7.81868962 13.16765999 11.0908585 13.31640625 18.0234375 C13.33727798 18.83315506 13.35814972 19.64287262 13.37965393 20.47712708 C13.44579926 23.10965465 13.50459344 25.74227921 13.5625 28.375 C13.6045947 30.16707498 13.64674959 31.95914856 13.68896484 33.7512207 C13.89822415 42.89550767 14.09542449 52.04060049 14.125 61.1875 C14.13188843 62.33968018 14.13188843 62.33968018 14.13891602 63.51513672 C14.12918261 66.84863393 13.87668677 69.78813846 13 73 C13.33 73.33 13.66 73.66 14 74 C14.04063832 75.66617115 14.042721 77.33388095 14 79 C12.515 78.505 12.515 78.505 11 78 C10.9690625 77.27683594 10.938125 76.55367188 10.90625 75.80859375 C9.61726451 71.81384994 6.85999194 70.27617237 3.5 68.0625 C2.54867187 67.41498779 2.54867187 67.41498779 1.578125 66.75439453 C0.30856296 65.89221482 -0.96482923 65.03564516 -2.2421875 64.18505859 C-3.75755348 63.16344936 -5.24155302 62.09559284 -6.71875 61.01953125 C-7.4715625 60.47683594 -8.224375 59.93414062 -9 59.375 C-9.639375 58.90835938 -10.27875 58.44171875 -10.9375 57.9609375 C-13.52721784 56.57767851 -13.52721784 56.57767851 -19 57 C-19.33 65.25 -19.66 73.5 -20 82 C-21.65 82 -23.3 82 -25 82 C-25 81.01 -25 80.02 -25 79 C-41.17 79 -57.34 79 -74 79 C-74 68.88397805 -73.88171978 59.09648976 -73.0625 49.0625 C-72.97548828 47.92232422 -72.88847656 46.78214844 -72.79882812 45.60742188 C-72.31388603 39.38220222 -71.69016986 33.21152871 -71 27 C-46.91 27 -22.82 27 2 27 C3.16071429 51.375 3.16071429 51.375 3 62 C5.97 62.99 8.94 63.98 12 65 C11.8438623 63.56503174 11.68772461 62.13006348 11.52685547 60.65161133 C10.9920055 55.29328547 10.74567081 49.9545471 10.5703125 44.57421875 C10.49675261 42.62432399 10.42251425 40.67445473 10.34765625 38.72460938 C10.2337626 35.69212922 10.12410102 32.65974003 10.02587891 29.62670898 C9.92839649 26.67108958 9.81332637 23.71658019 9.6953125 20.76171875 C9.67018585 19.85644943 9.6450592 18.95118011 9.61917114 18.01847839 C9.37477352 12.35222751 8.63807231 8.5417923 4.39453125 4.453125 C3.87246094 4.05609375 3.35039063 3.6590625 2.8125 3.25 C1.884375 2.5075 0.95625 1.765 0 1 C0 0.67 0 0.34 0 0 Z " fill="#3BBBCC" transform="translate(120,45)"/>
<path d="M0 0 C24.09 0 48.18 0 73 0 C74.16071429 24.375 74.16071429 24.375 74 34 C73.67 34 73.34 34 73 34 C72.01 27.07 72.01 27.07 71 20 C69.68 21.65 68.36 23.3 67 25 C64.03327323 25.37233017 61.68143759 25.4808246 58.75 25.3125 C58.00492188 25.28994141 57.25984375 25.26738281 56.4921875 25.24414062 C54.660591 25.18543561 52.83003347 25.09575757 51 25 C51 23.68 51 22.36 51 21 C50.01 21 49.02 21 48 21 C47.690625 21.639375 47.38125 22.27875 47.0625 22.9375 C46 25 46 25 45 26 C42.7109392 26.12586907 40.41748882 26.17577971 38.125 26.1875 C36.86945313 26.20167969 35.61390625 26.21585938 34.3203125 26.23046875 C31 26 31 26 28 24 C28 23.01 28 22.02 28 21 C27.31164062 21.48726562 26.62328125 21.97453125 25.9140625 22.4765625 C22.48218499 24.27070758 20.22632 24.40156083 16.375 24.375 C15.24835938 24.38273437 14.12171875 24.39046875 12.9609375 24.3984375 C9.69273056 23.9586524 9.04011816 23.44186451 7 21 C4.39388923 20.27802838 4.39388923 20.27802838 2 20 C0.94830169 25.32860477 0.714838 30.58926523 0.5 36 C0.285162 41.41073477 0.05169831 46.67139523 -1 52 C-1.66 52 -2.32 52 -3 52 C-3.47925881 34.61355548 -1.9185283 17.26675472 0 0 Z " fill="#30B0C6" transform="translate(49,72)"/>
<path d="M0 0 C25.41 0 50.82 0 77 0 C77 1.32 77 2.64 77 4 C53.24 4 29.48 4 5 4 C5 6.97 5 9.94 5 13 C4.93046631 14.65741527 4.8431502 16.31436174 4.72460938 17.96899414 C4.66454712 18.8292067 4.60448486 19.68941925 4.54260254 20.57569885 C4.4769812 21.46981979 4.41135986 22.36394073 4.34375 23.28515625 C4.27716187 24.22685165 4.21057373 25.16854706 4.14196777 26.13877869 C3.93094062 29.1135724 3.71554476 32.08803056 3.5 35.0625 C3.35517854 37.09307828 3.21064452 39.12367708 3.06640625 41.15429688 C2.71425883 46.10310795 2.35819605 51.0516232 2 56 C0.68 55.34 -0.64 54.68 -2 54 C-1.87847081 49.68473684 -1.75417212 45.36956338 -1.62768555 41.05444336 C-1.58532227 39.5974322 -1.54361867 38.14040165 -1.50268555 36.68334961 C-1.15809082 24.44385526 -0.58259021 12.23439435 0 0 Z " fill="#17667C" transform="translate(44,68)"/>
<path d="M0 0 C14 0 14 0 19 3 C21.41486943 5.41486943 21.2961925 6.12707789 21.3125 9.4375 C21.32925781 10.21996094 21.34601562 11.00242188 21.36328125 11.80859375 C20.92353251 14.46127163 20.04371546 15.322967 18 17 C19.2125738 20.72433382 20.50859979 24.37802806 22 28 C19.25 28.375 19.25 28.375 16 28 C13.58616217 25.06425129 12.1995243 22.59857289 11 19 C9.35 18.67 7.7 18.34 6 18 C6 21.3 6 24.6 6 28 C4.02 28 2.04 28 0 28 C0 18.76 0 9.52 0 0 Z " fill="#F2FCFC" transform="translate(39,221)"/>
<path d="M0 0 C2.46615278 1.84961459 3.49544028 3.48974064 4.75 6.3125 C5.31176034 10.72633123 5.05079277 12.77107301 2.875 16.6875 C0.74264646 19.32158379 0.03101673 20.13632874 -3.23828125 20.5859375 C-7.37614244 20.7667516 -9.6778326 20.65112968 -13.3125 18.5 C-16.15321863 13.82655968 -16.36781589 9.63809425 -15.25 4.3125 C-11.79151098 -1.37452244 -5.95537042 -1.81969652 0 0 Z " fill="#F6FBFB" transform="translate(239.25,228.6875)"/>
<path d="M0 0 C4.62 0 9.24 0 14 0 C14.33 1.32 14.66 2.64 15 4 C17.475 4.495 17.475 4.495 20 5 C20.02686553 6.97909398 20.04633375 8.95828971 20.0625 10.9375 C20.07410156 12.03964844 20.08570312 13.14179687 20.09765625 14.27734375 C20 17 20 17 19 18 C16.46950598 18.07313567 13.96695163 18.09247527 11.4375 18.0625 C10.72658203 18.05798828 10.01566406 18.05347656 9.28320312 18.04882812 C7.52209987 18.03700864 5.76103964 18.01907263 4 18 C3.8453125 17.0409375 3.8453125 17.0409375 3.6875 16.0625 C3.460625 15.381875 3.23375 14.70125 3 14 C2.01 13.67 1.02 13.34 0 13 C0 8.71 0 4.42 0 0 Z " fill="#0668B6" transform="translate(75,100)"/>
<path d="M0 0 C8.12424356 0.10766072 8.12424356 0.10766072 11.1875 1.6875 C14.0011638 5.16320235 13.91489803 7.60618716 13.81640625 11.97265625 C13.3125 14.3125 13.3125 14.3125 12.1953125 16.109375 C9.35429549 17.92479666 6.95157293 17.5988091 3.625 17.5 C2.44550781 17.47292969 1.26601562 17.44585937 0.05078125 17.41796875 C-0.85285156 17.38316406 -1.75648437 17.34835938 -2.6875 17.3125 C-3.0175 15.9925 -3.3475 14.6725 -3.6875 13.3125 C-5.0075 12.9825 -6.3275 12.6525 -7.6875 12.3125 C-7.71437279 10.50007948 -7.73383715 8.68754767 -7.75 6.875 C-7.76160156 5.86566406 -7.77320312 4.85632813 -7.78515625 3.81640625 C-7.59203735 -1.13516239 -4.26423701 0.08466092 0 0 Z " fill="#0566B4" transform="translate(104.6875,78.6875)"/>
<path d="M0 0 C4.62 0 9.24 0 14 0 C14.33 0.99 14.66 1.98 15 3 C17.475 3.495 17.475 3.495 20 4 C20.02686553 5.97909398 20.04633375 7.95828971 20.0625 9.9375 C20.07410156 11.03964844 20.08570312 12.14179687 20.09765625 13.27734375 C20 16 20 16 19 17 C16.87880076 17.15193163 14.75144685 17.22183514 12.625 17.25 C11.46226563 17.27578125 10.29953125 17.3015625 9.1015625 17.328125 C5.68729193 16.96691753 5.09526328 16.54516644 3 14 C2.01 13.67 1.02 13.34 0 13 C0 8.71 0 4.42 0 0 Z " fill="#0466B6" transform="translate(53,79)"/>
<path d="M0 0 C1.77503906 0.03480469 1.77503906 0.03480469 3.5859375 0.0703125 C5.36871094 0.09738281 5.36871094 0.09738281 7.1875 0.125 C8.10273437 0.14820312 9.01796875 0.17140625 9.9609375 0.1953125 C10.2909375 1.5153125 10.6209375 2.8353125 10.9609375 4.1953125 C12.2809375 4.5253125 13.6009375 4.8553125 14.9609375 5.1953125 C14.98781029 7.00773302 15.00727465 8.82026483 15.0234375 10.6328125 C15.03503906 11.64214844 15.04664062 12.65148437 15.05859375 13.69140625 C14.9609375 16.1953125 14.9609375 16.1953125 13.9609375 17.1953125 C11.98380943 17.29431449 10.00303712 17.32502023 8.0234375 17.3203125 C6.40115234 17.32417969 6.40115234 17.32417969 4.74609375 17.328125 C1.9609375 17.1953125 1.9609375 17.1953125 -0.0390625 16.1953125 C-0.0390625 15.5353125 -0.0390625 14.8753125 -0.0390625 14.1953125 C-0.6784375 14.0509375 -1.3178125 13.9065625 -1.9765625 13.7578125 C-4.0390625 13.1953125 -4.0390625 13.1953125 -5.0390625 12.1953125 C-5.1636111 10.55300886 -5.21474774 8.90478974 -5.2265625 7.2578125 C-5.24074219 6.36191406 -5.25492188 5.46601562 -5.26953125 4.54296875 C-4.89801225 0.75851247 -3.68156475 0.23660442 0 0 Z " fill="#0668B6" transform="translate(57.0390625,99.8046875)"/>
<path d="M0 0 C3.35365608 0.72478282 4.84243548 1.90552549 7.1328125 4.4609375 C7.73947422 7.40235029 7.60631239 10.22377024 7.4453125 13.2109375 C7.42275391 14.00371094 7.40019531 14.79648438 7.37695312 15.61328125 C7.31821721 17.5633137 7.22853904 19.51237062 7.1328125 21.4609375 C5.4828125 21.4609375 3.8328125 21.4609375 2.1328125 21.4609375 C2.1328125 20.8009375 2.1328125 20.1409375 2.1328125 19.4609375 C1.1428125 20.1209375 0.1528125 20.7809375 -0.8671875 21.4609375 C-7.18976815 21.9125504 -7.18976815 21.9125504 -10.8671875 19.4609375 C-11.53184462 13.36824722 -11.53184462 13.36824722 -9.63671875 10.78125 C-7.42325286 9.1297015 -5.91558757 8.97169113 -3.1796875 8.7734375 C-1.96732422 8.67482422 -1.96732422 8.67482422 -0.73046875 8.57421875 C-0.11558594 8.53683594 0.49929687 8.49945313 1.1328125 8.4609375 C0.8028125 7.4709375 0.4728125 6.4809375 0.1328125 5.4609375 C-3.1671875 5.7909375 -6.4671875 6.1209375 -9.8671875 6.4609375 C-8.34873329 0.38712064 -5.84873944 0.25229856 0 0 Z " fill="#F6FCFC" transform="translate(179.8671875,227.5390625)"/>
<path d="M0 0 C3.77323546 2.7068863 4.83964191 4.24755052 5.8125 8.8125 C5.874375 9.864375 5.93625 10.91625 6 12 C1.38 12 -3.24 12 -8 12 C-7.34 13.32 -6.68 14.64 -6 16 C-4.33388095 16.042721 -2.66617115 16.04063832 -1 16 C-0.67 15.67 -0.34 15.34 0 15 C1.99958364 14.95919217 4.00045254 14.95745644 6 15 C3.25 19.875 3.25 19.875 1 21 C-2.05920574 21.42071592 -4.9467746 21.48514117 -8 21 C-10.75569447 18.81840855 -12.43588747 17.12822506 -14 14 C-14.3751455 9.02932218 -14.15878799 5.94848498 -11 2 C-7.57840405 -0.56619697 -4.15155867 -0.50984054 0 0 Z " fill="#F2FAFB" transform="translate(284,228)"/>
<path d="M0 0 C2.15602322 1.59705424 2.83736429 2.69959286 3.6875 5.25 C3.6875 7.23 3.6875 9.21 3.6875 11.25 C-0.9325 11.25 -5.5525 11.25 -10.3125 11.25 C-9.6525 12.57 -8.9925 13.89 -8.3125 15.25 C-2.3725 14.755 -2.3725 14.755 3.6875 14.25 C1.6875 19.25 1.6875 19.25 -0.3125 20.25 C-2.5546875 20.453125 -2.5546875 20.453125 -5.1875 20.5 C-6.05117187 20.52578125 -6.91484375 20.5515625 -7.8046875 20.578125 C-10.82283741 20.18322688 -12.1311724 19.34329196 -14.3125 17.25 C-15.66270977 13.1993707 -15.86978804 9.48538911 -15.3125 5.25 C-11.50228201 -0.84634879 -6.99692566 -2.26927319 0 0 Z " fill="#F7FCFC" transform="translate(79.3125,228.75)"/>
<path d="M0 0 C2.75329021 1.79562405 4.52627461 3.05254922 6 6 C6 7.98 6 9.96 6 12 C1.38 12 -3.24 12 -8 12 C-7.34 13.32 -6.68 14.64 -6 16 C-4.00045254 16.04254356 -1.99958364 16.04080783 0 16 C0.33 15.67 0.66 15.34 1 15 C2.66617115 14.95936168 4.33388095 14.957279 6 15 C5.6875 16.875 5.6875 16.875 5 19 C0.77845244 21.81436504 -3.03975968 21.68304949 -8 21 C-10.57637471 19.11484777 -11.59667428 17.80665143 -13 15 C-13.55512815 10.36786507 -13.6364242 7.01827873 -11.125 3 C-7.4943374 -0.41709421 -4.9378642 -0.41846307 0 0 Z " fill="#F8FCFD" transform="translate(121,228)"/>
<path d="M0 0 C1.09570312 0.00902344 2.19140625 0.01804687 3.3203125 0.02734375 C4.16335937 0.03894531 5.00640625 0.05054687 5.875 0.0625 C6.205 1.0525 6.535 2.0425 6.875 3.0625 C8.19803717 3.4346042 9.53237935 3.76880173 10.875 4.0625 C11.98945498 6.29140995 12.03980286 7.59305106 12.0625 10.0625 C12.07667969 10.76375 12.09085938 11.465 12.10546875 12.1875 C11.875 14.0625 11.875 14.0625 9.875 16.0625 C4.39088807 16.76853836 -0.65322924 16.57761977 -5.875 14.75 C-9.01097753 11.00424906 -8.59688146 8.07481987 -8.3359375 3.328125 C-8.26632813 2.58046875 -8.19671875 1.8328125 -8.125 1.0625 C-5.36047967 -0.31976016 -3.0788637 -0.03275387 0 0 Z " fill="#0466B7" transform="translate(83.125,78.9375)"/>
<path d="M0 0 C1.98 0 3.96 0 6 0 C6.33 0.66 6.66 1.32 7 2 C7.66 1.34 8.32 0.68 9 0 C12.11753833 -0.33886286 14.28760016 -0.30896194 17.1796875 0.9453125 C20.13139249 4.27706535 19.4221672 7.90649634 19.25 12.1875 C19.23195313 13.03248047 19.21390625 13.87746094 19.1953125 14.74804688 C19.14820586 16.83251573 19.07646233 18.91640144 19 21 C17.35 21 15.7 21 14 21 C13.67 16.38 13.34 11.76 13 7 C11.35 6.67 9.7 6.34 8 6 C6.05909174 7.94090826 6.60080565 11.47293902 6.4375 14.0625 C6.35371094 15.35285156 6.26992187 16.64320313 6.18359375 17.97265625 C6.12300781 18.97167969 6.06242188 19.97070312 6 21 C4.02 21 2.04 21 0 21 C0 14.07 0 7.14 0 0 Z " fill="#EBF9FA" transform="translate(247,228)"/>
<path d="M0 0 C24.75 0 49.5 0 75 0 C75 0.33 75 0.66 75 1 C74.1127272 1.01030746 73.22545441 1.02061493 72.31129456 1.03123474 C63.96748429 1.12903425 55.62374785 1.23152315 47.28006077 1.33933926 C42.9900379 1.39460736 38.70000826 1.44803343 34.40991211 1.49731445 C30.27314564 1.54490086 26.13646464 1.59724132 21.99979973 1.65294075 C20.41810153 1.67339034 18.83637988 1.69209903 17.25464058 1.70907402 C15.04670822 1.7330607 12.8389388 1.76312256 10.63110352 1.79467773 C9.37201675 1.81022202 8.11292999 1.8257663 6.81568909 1.84178162 C4.09702459 1.68086804 4.09702459 1.68086804 3 3 C2.85167301 5.47740487 2.76473591 7.93020892 2.71875 10.41015625 C2.70034058 11.16985214 2.68193115 11.92954803 2.66296387 12.71226501 C2.60405625 15.16226201 2.55151143 17.61233714 2.5 20.0625 C2.24641809 31.7331927 1.826623 43.35404566 1 55 C-0.32 54.34 -1.64 53.68 -3 53 C-2.90402308 48.66621293 -2.79751931 44.33282855 -2.68261719 39.99951172 C-2.64512455 38.53571029 -2.61015996 37.07184119 -2.578125 35.60791016 C-2.31287893 23.61381461 -1.19935096 11.99350957 0 0 Z " fill="#134F5A" transform="translate(45,69)"/>
<path d="M0 0 C3 2.4375 3 2.4375 5 5 C5 5.33 5 5.66 5 6 C1.16774573 6.08912219 -2.26562152 5.87867729 -6 5 C-6 5.66 -6 6.32 -6 7 C-5.37351562 7.19335938 -4.74703125 7.38671875 -4.1015625 7.5859375 C-2.87566406 7.97652344 -2.87566406 7.97652344 -1.625 8.375 C-0.81289063 8.63023437 -0.00078125 8.88546875 0.8359375 9.1484375 C3 10 3 10 5 12 C5.375 14.9375 5.375 14.9375 5 18 C2.12175603 20.79938797 -0.03256882 21.43145209 -4 21.4375 C-7.52477004 21.33872326 -8.68811198 21.22277715 -11.625 19.125 C-13 17 -13 17 -13 15 C-8.53160785 14.78721942 -5.17737474 15.40861915 -1 17 C-1.33 16.01 -1.66 15.02 -2 14 C-4.03538947 13.08595895 -4.03538947 13.08595895 -6.4375 12.5 C-10.78082192 11.32876712 -10.78082192 11.32876712 -13 8 C-12.84946418 4.98928361 -12.41319987 3.47931185 -10.4375 1.1875 C-6.96431607 -0.50456397 -3.7355641 -0.82108439 0 0 Z " fill="#F4FAFB" transform="translate(306,228)"/>
<path d="M0 0 C1.5625 1.25 1.5625 1.25 2.5625 5.25 C-0.7375 4.92 -4.0375 4.59 -7.4375 4.25 C-7.7675 5.24 -8.0975 6.23 -8.4375 7.25 C-7.365 7.37375 -6.2925 7.4975 -5.1875 7.625 C-2.05886385 8.14643936 -0.10269576 8.65088254 2.5625 10.25 C3.04202345 16.60368578 3.04202345 16.60368578 1.125 19.1875 C-2.74408156 20.79175333 -6.31494443 20.93220226 -10.4375 20.25 C-13.5 18.375 -13.5 18.375 -15.4375 16.25 C-15.4375 15.59 -15.4375 14.93 -15.4375 14.25 C-13.43795254 14.20745644 -11.43708364 14.20919217 -9.4375 14.25 C-9.1075 14.58 -8.7775 14.91 -8.4375 15.25 C-6.77132885 15.29063832 -5.10361905 15.292721 -3.4375 15.25 C-3.1075 14.59 -2.7775 13.93 -2.4375 13.25 C-3.05238281 13.12882813 -3.66726562 13.00765625 -4.30078125 12.8828125 C-5.51314453 12.63144531 -5.51314453 12.63144531 -6.75 12.375 C-7.55050781 12.21257812 -8.35101563 12.05015625 -9.17578125 11.8828125 C-11.4375 11.25 -11.4375 11.25 -14.4375 9.25 C-14.875 5.8125 -14.875 5.8125 -14.4375 2.25 C-10.99427217 -2.19750261 -4.92080495 -1.51409383 0 0 Z " fill="#F4FBFC" transform="translate(101.4375,228.75)"/>
<path d="M0 0 C1.65 0 3.3 0 5 0 C5.125 2.375 5.125 2.375 5 5 C2.46752573 7.53247427 1.57246065 7.26103794 -1.93701172 7.29052734 C-3.47903763 7.3096669 -3.47903763 7.3096669 -5.05221558 7.32919312 C-6.16678131 7.33141876 -7.28134705 7.33364441 -8.4296875 7.3359375 C-9.57156525 7.3425943 -10.71344299 7.3492511 -11.8899231 7.35610962 C-14.30924871 7.36625012 -16.72860237 7.37092621 -19.14794922 7.37060547 C-22.85300783 7.37497407 -26.55687145 7.41126834 -30.26171875 7.44921875 C-32.60937091 7.45508743 -34.95702875 7.45905648 -37.3046875 7.4609375 C-38.41520477 7.47530853 -39.52572205 7.48967957 -40.66989136 7.50448608 C-41.70421295 7.49833282 -42.73853455 7.49217957 -43.80419922 7.48583984 C-45.16748856 7.4901149 -45.16748856 7.4901149 -46.55831909 7.49447632 C-49 7 -49 7 -53 3 C-35.51 3 -18.02 3 0 3 C0 2.01 0 1.02 0 0 Z " fill="#30838B" transform="translate(95,127)"/>
<path d="M0 0 C2.875 1.1875 2.875 1.1875 5 3 C5.8125 5.6875 5.8125 5.6875 6 8 C3.625 8.125 3.625 8.125 1 8 C0.34 7.34 -0.32 6.68 -1 6 C-3.57061311 5.35232207 -3.57061311 5.35232207 -6 5 C-6 8.3 -6 11.6 -6 15 C-4.35 15.33 -2.7 15.66 -1 16 C-0.34 15.01 0.32 14.02 1 13 C3.625 12.8125 3.625 12.8125 6 13 C5.69209738 15.84809926 5.34521809 17.58286148 3.5 19.8125 C-0.29085615 21.61315667 -3.88197356 21.70400084 -8 21 C-10.50160818 19.12379387 -11.61945652 17.76108697 -13 15 C-13.55512815 10.36786507 -13.6364242 7.01827873 -11.125 3 C-7.48309983 -0.42767075 -4.9451721 -0.3352659 0 0 Z " fill="#F3FAFB" transform="translate(204,228)"/>
<path d="M0 0 C3.1793909 0.07569978 5.30889688 0.36768037 7.69921875 2.5546875 C12.2096604 7.81868962 13.16765999 11.0908585 13.31640625 18.0234375 C13.34771385 19.23801384 13.34771385 19.23801384 13.37965393 20.47712708 C13.44579926 23.10965465 13.50459344 25.74227921 13.5625 28.375 C13.6045947 30.16707498 13.64674959 31.95914856 13.68896484 33.7512207 C13.89822415 42.89550767 14.09542449 52.04060049 14.125 61.1875 C14.12959229 61.95562012 14.13418457 62.72374023 14.13891602 63.51513672 C14.12918261 66.84863393 13.87668677 69.78813846 13 73 C13.33 73.33 13.66 73.66 14 74 C14.04063832 75.66617115 14.042721 77.33388095 14 79 C13.01 78.67 12.02 78.34 11 78 C10.938125 77.278125 10.87625 76.55625 10.8125 75.8125 C9.75543353 72.15342375 7.79449929 70.50788398 5 68 C6.65 68.66 8.3 69.32 10 70 C9.34 68.35 8.68 66.7 8 65 C9.32 65 10.64 65 12 65 C11.93279755 64.39908035 11.86559509 63.79816071 11.7963562 63.17903137 C11.13483326 56.9751657 10.7734941 50.80821868 10.5703125 44.57421875 C10.49675261 42.62432399 10.42251425 40.67445473 10.34765625 38.72460938 C10.2337626 35.69212922 10.12410102 32.65974003 10.02587891 29.62670898 C9.92839649 26.67108958 9.81332637 23.71658019 9.6953125 20.76171875 C9.67018585 19.85644943 9.6450592 18.95118011 9.61917114 18.01847839 C9.37477352 12.35222751 8.63807231 8.5417923 4.39453125 4.453125 C3.87246094 4.05609375 3.35039063 3.6590625 2.8125 3.25 C1.884375 2.5075 0.95625 1.765 0 1 C0 0.67 0 0.34 0 0 Z " fill="#3AAAB6" transform="translate(120,45)"/>
<path d="M0 0 C24.09 0 48.18 0 73 0 C73 5.28 73 10.56 73 16 C72.67 16 72.34 16 72 16 C72 11.05 72 6.1 72 1 C69.45877441 1.24447876 69.45877441 1.24447876 66.86621094 1.49389648 C59.94765567 2.06799556 53.07935775 2.12733345 46.140625 2.09765625 C44.87023376 2.0962413 43.59984253 2.09482635 42.29095459 2.09336853 C38.95708199 2.08876005 35.62328153 2.07981826 32.28942871 2.06866455 C28.87004205 2.05832882 25.45064786 2.05384519 22.03125 2.04882812 C15.35414722 2.03786793 8.67707776 2.02118228 2 2 C1.93941406 3.19238281 1.87882812 4.38476562 1.81640625 5.61328125 C1.73198851 7.17969925 1.64734113 8.74610488 1.5625 10.3125 C1.52318359 11.09818359 1.48386719 11.88386719 1.44335938 12.69335938 C1.40146484 13.45068359 1.35957031 14.20800781 1.31640625 14.98828125 C1.27974854 15.68477783 1.24309082 16.38127441 1.20532227 17.09887695 C1 19 1 19 0 22 C-0.13616589 23.60503782 -0.22421784 25.21442532 -0.28125 26.82421875 C-0.31863281 27.77103516 -0.35601562 28.71785156 -0.39453125 29.69335938 C-0.42933594 30.68142578 -0.46414062 31.66949219 -0.5 32.6875 C-0.7334203 39.18436511 -1.08337482 45.56070813 -2 52 C-2.33 52 -2.66 52 -3 52 C-3.47925881 34.61355548 -1.9185283 17.26675472 0 0 Z " fill="#299AAE" transform="translate(49,72)"/>
<path d="M0 0 C1.98 0 3.96 0 6 0 C7.32 4.62 8.64 9.24 10 14 C11.32 9.38 12.64 4.76 14 0 C15.98 0 17.96 0 20 0 C18.55613874 7.21930632 16.42211826 14.05110733 14 21 C11.69 21 9.38 21 7 21 C5.65605607 17.67083939 4.3243571 14.33700016 3 11 C2.53787109 9.84177734 2.53787109 9.84177734 2.06640625 8.66015625 C0.88871097 5.63421191 0 3.27669121 0 0 Z " fill="#F3FBFC" transform="translate(146,228)"/>
<path d="M0 0 C4.875 3.625 4.875 3.625 6 7 C6.14020065 8.4034786 6.23410558 9.81189166 6.29711914 11.22094727 C6.33708511 12.06935684 6.37705109 12.91776642 6.41822815 13.79188538 C6.45681442 14.70747726 6.4954007 15.62306915 6.53515625 16.56640625 C6.57813339 17.51507065 6.62111053 18.46373505 6.66539001 19.44114685 C6.75561477 21.45261727 6.84373882 23.46418285 6.92993164 25.47583008 C7.06095158 28.52644721 7.1988495 31.5766922 7.33789062 34.62695312 C7.42489096 36.58591925 7.51149188 38.54490317 7.59765625 40.50390625 C7.63826675 41.40532852 7.67887726 42.30675079 7.72071838 43.23548889 C7.97129835 49.16053459 8.04612615 55.06992878 8 61 C7.01 61 6.02 61 5 61 C4.95210831 60.39802292 4.90421661 59.79604584 4.85487366 59.17582703 C4.35263693 52.86447346 3.84953438 46.55318932 3.34594727 40.24194336 C3.1585543 37.89202588 2.97137612 35.54209125 2.78442383 33.19213867 C2.51441113 29.79861913 2.24360528 26.40516364 1.97265625 23.01171875 C1.89032242 21.97480392 1.80798859 20.9378891 1.72315979 19.86955261 C1.19302019 13.2420569 0.6158228 6.62008241 0 0 Z " fill="#1A5D6D" transform="translate(124,49)"/>
<path d="M0 0 C0.33 0 0.66 0 1 0 C1 6.93 1 13.86 1 21 C0.34 20.01 -0.32 19.02 -1 18 C-1.99 19.2375 -1.99 19.2375 -3 20.5 C-7.02366618 23.85305515 -8.90700467 23.43160977 -14 23 C-13.443125 22.731875 -12.88625 22.46375 -12.3125 22.1875 C-11.549375 21.795625 -10.78625 21.40375 -10 21 C-9.13375 20.566875 -8.2675 20.13375 -7.375 19.6875 C-4.5940664 17.71157349 -3.95745218 16.22052097 -3 13 C-5.43717258 13.27034634 -5.43717258 13.27034634 -8 14 C-8.99 15.485 -8.99 15.485 -10 17 C-14.875 16.125 -14.875 16.125 -16 15 C-16.23880597 7.47761194 -16.23880597 7.47761194 -15 5 C-10.48279689 4.63374029 -10.48279689 4.63374029 -8.1875 6.375 C-7 8 -7 8 -7 10 C-5.02 10 -3.04 10 -1 10 C-0.67 6.7 -0.34 3.4 0 0 Z " fill="#40CFD8" transform="translate(213,228)"/>
<path d="M0 0 C4.33333333 0 8.66666667 0 13 0 C12.8125 2.375 12.8125 2.375 12 5 C10.35 5.66 8.7 6.32 7 7 C6.67 11.62 6.34 16.24 6 21 C4.02 21 2.04 21 0 21 C0 14.07 0 7.14 0 0 Z " fill="#F3FAFB" transform="translate(131,228)"/>
<path d="M0 0 C0.99 0 1.98 0 3 0 C3.99 3.63 4.98 7.26 6 11 C8.95749791 7.53258866 11.07848152 4.13126473 13 0 C13.99 0 14.98 0 16 0 C15.85764543 1.72945653 15.71095618 3.45855654 15.5625 5.1875 C15.48128906 6.15042969 15.40007813 7.11335938 15.31640625 8.10546875 C15.02333849 10.78649602 14.57296246 13.3662986 14 16 C13.34 16 12.68 16 12 16 C12 13.36 12 10.72 12 8 C11.67386719 8.5775 11.34773438 9.155 11.01171875 9.75 C10.57472656 10.4925 10.13773438 11.235 9.6875 12 C9.25824219 12.7425 8.82898437 13.485 8.38671875 14.25 C7.92910156 14.8275 7.47148438 15.405 7 16 C6.01 16 5.02 16 4 16 C3.34 13.03 2.68 10.06 2 7 C1.34 9.97 0.68 12.94 0 16 C-0.66 16 -1.32 16 -2 16 C-1.85833643 14.08302063 -1.71150416 12.16642277 -1.5625 10.25 C-1.48128906 9.18265625 -1.40007813 8.1153125 -1.31640625 7.015625 C-1.05909227 4.56320038 -0.68187782 2.36078709 0 0 Z " fill="#DDF3F5" transform="translate(38,265)"/>
<path d="M0 0 C3.04603275 -0.20768405 5.35650657 -0.2757829 8.1875 0.9375 C11.12467189 4.27979904 10.42217595 7.90627866 10.25 12.1875 C10.23195313 13.03248047 10.21390625 13.87746094 10.1953125 14.74804688 C10.14820586 16.83251573 10.07646233 18.91640144 10 21 C8.35 21 6.7 21 5 21 C4.67 16.38 4.34 11.76 4 7 C2.35 6.67 0.7 6.34 -1 6 C-1 3 -1 3 0 0 Z " fill="#F9FCFD" transform="translate(256,228)"/>
<path d="M0 0 C0.99 0 1.98 0 3 0 C3 1.32 3 2.64 3 4 C-15.15 4 -33.3 4 -52 4 C-52.33 3.34 -52.66 2.68 -53 2 C-35.51 2 -18.02 2 0 2 C0 1.34 0 0.68 0 0 Z " fill="#1A5F77" transform="translate(95,128)"/>
<path d="M0 0 C2 2 2 2 2.3125 4.875 C1.96494766 8.35052338 1.63661642 9.71493243 -1 12 C-4.0625 12.375 -4.0625 12.375 -7 12 C-9 10 -9 10 -9.375 7.125 C-9 4 -9 4 -7.3125 1.625 C-4.57772115 -0.29673649 -3.27359086 -0.51688277 0 0 Z " fill="#E5F6F8" transform="translate(98,269)"/>
<path d="M0 0 C1.65 0.33 3.3 0.66 5 1 C5.02686553 2.97909398 5.04633375 4.95828971 5.0625 6.9375 C5.07410156 8.03964844 5.08570312 9.14179687 5.09765625 10.27734375 C5 13 5 13 4 14 C1.87880076 14.15193163 -0.24855315 14.22183514 -2.375 14.25 C-3.53773437 14.27578125 -4.70046875 14.3015625 -5.8984375 14.328125 C-9 14 -9 14 -10.9140625 12.546875 C-12 11 -12 11 -12 10 C-6.555 9.505 -6.555 9.505 -1 9 C-0.67 6.03 -0.34 3.06 0 0 Z " fill="#238190" transform="translate(68,82)"/>
<path d="M0 0 C1.32 0 2.64 0 4 0 C4.33 3.63 4.66 7.26 5 11 C6.65 11 8.3 11 10 11 C10.66 8.69 11.32 6.38 12 4 C12.99 4.66 13.98 5.32 15 6 C15.5 9.4375 15.5 9.4375 15 13 C12.9375 15 12.9375 15 10 16 C6.66213732 15.77370423 4.00171497 15.50085749 1 14 C-0.04976964 10.85069107 -0.10131595 8.61185544 -0.0625 5.3125 C-0.05347656 4.31863281 -0.04445312 3.32476562 -0.03515625 2.30078125 C-0.02355469 1.54152344 -0.01195312 0.78226563 0 0 Z " fill="#0D5674" transform="translate(55,47)"/>
<path d="M0 0 C2 2 2 2 2.3125 5.4375 C2 9 2 9 0.875 10.9375 C-1.87801549 12.49754211 -3.9003407 12.39570119 -7 12 C-9 9 -9 9 -8.8125 6 C-7.40417412 0.80002753 -5.41325314 -0.69400681 0 0 Z " fill="#E5F4F7" transform="translate(173,269)"/>
<path d="M0 0 C4.875 1.875 4.875 1.875 6 3 C6.203125 5.1796875 6.203125 5.1796875 6.25 7.875 C6.27578125 8.75929688 6.3015625 9.64359375 6.328125 10.5546875 C6 13 6 13 4.90234375 14.80859375 C2.04471798 16.59827724 -0.35803997 16.28639485 -3.6875 16.1875 C-5.45673828 16.14689453 -5.45673828 16.14689453 -7.26171875 16.10546875 C-8.16535156 16.07066406 -9.06898437 16.03585938 -10 16 C-10.33 15.01 -10.66 14.02 -11 13 C-10.28972656 12.93941406 -9.57945313 12.87882812 -8.84765625 12.81640625 C-7.92855469 12.73261719 -7.00945312 12.64882812 -6.0625 12.5625 C-5.14597656 12.48128906 -4.22945313 12.40007812 -3.28515625 12.31640625 C-1.03840268 12.23955024 -1.03840268 12.23955024 0 11 C0.07226502 9.14712498 0.0838122 7.29166122 0.0625 5.4375 C0.05347656 4.42558594 0.04445313 3.41367188 0.03515625 2.37109375 C0.02355469 1.58863281 0.01195313 0.80617188 0 0 Z " fill="#298793" transform="translate(112,80)"/>
<path d="M0 0 C1.65 0 3.3 0 5 0 C5 6.93 5 13.86 5 21 C3.35 21 1.7 21 0 21 C0 14.07 0 7.14 0 0 Z " fill="#FCFEFE" transform="translate(214,228)"/>
<path d="M0 0 C0.99 0.66 1.98 1.32 3 2 C2.8125 4.375 2.8125 4.375 2 7 C-0.5625 8.3125 -0.5625 8.3125 -3 9 C-2.855625 10.299375 -2.71125 11.59875 -2.5625 12.9375 C-2.44068359 14.03384766 -2.44068359 14.03384766 -2.31640625 15.15234375 C-2.18113386 17.01140229 -2.18113386 17.01140229 -1 18 C-0.875 21 -0.875 21 -1 24 C-2 25 -2 25 -5.0625 25.0625 C-6.031875 25.041875 -7.00125 25.02125 -8 25 C-8.33 24.01 -8.66 23.02 -9 22 C-7.68 21.34 -6.36 20.68 -5 20 C-5.12375 18.741875 -5.2475 17.48375 -5.375 16.1875 C-5.44460937 15.47980469 -5.51421875 14.77210938 -5.5859375 14.04296875 C-5.92665391 11.70011858 -5.92665391 11.70011858 -8 9 C-8 8.01 -8 7.02 -8 6 C-6.865625 5.566875 -5.73125 5.13375 -4.5625 4.6875 C-2.7990625 3.8521875 -2.7990625 3.8521875 -1 3 C-0.67 2.01 -0.34 1.02 0 0 Z " fill="#266D79" transform="translate(129,117)"/>
<path d="M0 0 C3.47417927 0.31583448 5.53412708 0.63485636 8.3125 2.8125 C11.68282783 7.18144348 11.28511225 12.42954603 11.53515625 17.76171875 C11.57813339 18.62577835 11.62111053 19.48983795 11.66539001 20.38008118 C11.75555091 22.21496114 11.84367944 24.04994192 11.92993164 25.88500977 C12.05990572 28.63265692 12.19838841 31.37977535 12.33789062 34.12695312 C12.87659432 45.09397887 13.12186563 56.02035835 13 67 C11.35 66.67 9.7 66.34 8 66 C9.98 65.505 9.98 65.505 12 65 C11.93279755 64.39908035 11.86559509 63.79816071 11.7963562 63.17903137 C11.13483326 56.9751657 10.7734941 50.80821868 10.5703125 44.57421875 C10.49675261 42.62432399 10.42251425 40.67445473 10.34765625 38.72460938 C10.2337626 35.69212922 10.12410102 32.65974003 10.02587891 29.62670898 C9.92839649 26.67108958 9.81332637 23.71658019 9.6953125 20.76171875 C9.67018585 19.85644943 9.6450592 18.95118011 9.61917114 18.01847839 C9.37477352 12.35222751 8.63807231 8.5417923 4.39453125 4.453125 C3.87246094 4.05609375 3.35039063 3.6590625 2.8125 3.25 C1.884375 2.5075 0.95625 1.765 0 1 C0 0.67 0 0.34 0 0 Z " fill="#2D868E" transform="translate(120,45)"/>
<path d="M0 0 C2 2 2 2 2.3125 5.4375 C2 9 2 9 0.8125 10.9375 C-1.62103204 12.36405327 -3.22542896 12.35571424 -6 12 C-8 10 -8 10 -8.3125 6.5625 C-8 3 -8 3 -6.8125 1.0625 C-4.37896796 -0.36405327 -2.77457104 -0.35571424 0 0 Z " fill="#DAEDF2" transform="translate(236,269)"/>
<path d="M0 0 C0.99 0 1.98 0 3 0 C3.33 2.97 3.66 5.94 4 9 C7.47147842 9.74957157 7.47147842 9.74957157 11 10 C11 7.69 11 5.38 11 3 C11.99 3.33 12.98 3.66 14 4 C14.47945205 10.23287671 14.47945205 10.23287671 12.4375 13.5 C10 15 10 15 6.4375 15 C2.60507021 13.88511133 1.92318114 13.35977428 0 10 C-0.29296875 7.421875 -0.29296875 7.421875 -0.1875 4.75 C-0.16042969 3.85796875 -0.13335937 2.9659375 -0.10546875 2.046875 C-0.07066406 1.37140625 -0.03585938 0.6959375 0 0 Z " fill="#1B7990" transform="translate(95,48)"/>
<path d="M0 0 C0.33 0 0.66 0 1 0 C1.07541016 1.16595703 1.07541016 1.16595703 1.15234375 2.35546875 C1.7385387 5.23116451 1.7385387 5.23116451 4.50390625 6.36328125 C5.51324219 6.67652344 6.52257812 6.98976562 7.5625 7.3125 C8.57441406 7.63863281 9.58632812 7.96476563 10.62890625 8.30078125 C11.41136719 8.53152344 12.19382812 8.76226562 13 9 C12.67 9.99 12.34 10.98 12 12 C7.66831683 12.26252625 4.1196377 11.29243536 0 10 C0.33 10.99 0.66 11.98 1 13 C-0.32 12.67 -1.64 12.34 -3 12 C-3 11.34 -3 10.68 -3 10 C-4.051875 10.33 -5.10375 10.66 -6.1875 11 C-9.38873357 11.83966782 -11.7411008 12.19750904 -15 12 C-15 11.01 -15 10.02 -15 9 C-10.38 9 -5.76 9 -1 9 C-0.67 6.03 -0.34 3.06 0 0 Z " fill="#4DD5DD" transform="translate(86,233)"/>
<path d="M0 0 C0.33 0 0.66 0 1 0 C1.13430792 10.3864793 0.76214036 20.64305688 0 31 C-1.32 30.34 -2.64 29.68 -4 29 C-4.31167131 22.45490242 -3.70997252 16.42462611 -2.5625 10 C-2.42803467 9.245979 -2.29356934 8.49195801 -2.1550293 7.71508789 C-1.14355522 2.28711043 -1.14355522 2.28711043 0 0 Z " fill="#22666E" transform="translate(46,93)"/>
<path d="M0 0 C2.5625 0.1875 2.5625 0.1875 4.5625 2.1875 C4.87787716 6.52393601 5.01147847 8.51403229 2.5625 12.1875 C0.1875 11.875 0.1875 11.875 -2.4375 11.1875 C-4.4375 8.1875 -4.4375 8.1875 -4.125 4.5625 C-3.2464725 0.24972865 -3.2464725 0.24972865 0 0 Z " fill="#35C4D1" transform="translate(233.4375,232.8125)"/>
<path d="M0 0 C0.94875 0.350625 1.8975 0.70125 2.875 1.0625 C5.87060172 2.35026777 5.87060172 2.35026777 8 1 C8.01417969 1.75925781 8.02835938 2.51851563 8.04296875 3.30078125 C8.09066406 4.29464844 8.13835937 5.28851563 8.1875 6.3125 C8.22230469 7.29863281 8.25710937 8.28476563 8.29296875 9.30078125 C8.76579452 12.15593964 8.76579452 12.15593964 11.16015625 13.83984375 C14.4079198 15.16664674 16.75342374 15.33612257 20.25 15.25 C21.83554688 15.22679688 21.83554688 15.22679688 23.453125 15.203125 C25.933851 15.28236635 25.933851 15.28236635 27 14 C27.37052339 8.82264323 27.37052339 8.82264323 26 4 C25.01 3.67 24.02 3.34 23 3 C22.67 2.01 22.34 1.02 22 0 C25.65316671 1.24976756 26.78065836 1.67098753 29 5 C29.265625 7.41015625 29.265625 7.41015625 29.25 10.0625 C29.25515625 10.94035156 29.2603125 11.81820312 29.265625 12.72265625 C29 15 29 15 27 17 C23.8125 17.23046875 23.8125 17.23046875 20 17.1875 C18.741875 17.18105469 17.48375 17.17460938 16.1875 17.16796875 C13 17 13 17 11 16 C11 15.34 11 14.68 11 14 C9.35 14.66 7.7 15.32 6 16 C6 12.04 6 8.08 6 4 C4.35 3.67 2.7 3.34 1 3 C0.67 2.01 0.34 1.02 0 0 Z " fill="#2791A4" transform="translate(67,79)"/>
<path d="M0 0 C1 1 1 1 1.0625 4.0625 C1.041875 5.031875 1.02125 6.00125 1 7 C-1.97 7 -4.94 7 -8 7 C-7.67 7.66 -7.34 8.32 -7 9 C-4.69 9 -2.38 9 0 9 C0 9.66 0 10.32 0 11 C-2.78863007 12.39431504 -4.92078868 12.25660094 -8 12 C-10 9 -10 9 -9.8125 6 C-8.22856609 0.15162865 -5.89551974 -0.51265389 0 0 Z " fill="#D9F0F3" transform="translate(65,269)"/>
<path d="M0 0 C1.32 0.33 2.64 0.66 4 1 C5.11445498 3.22890995 5.16480286 4.53055106 5.1875 7 C5.20167969 7.70125 5.21585938 8.4025 5.23046875 9.125 C5 11 5 11 3 13 C0.25 13.30078125 0.25 13.30078125 -3 13.3125 C-4.0725 13.32925781 -5.145 13.34601563 -6.25 13.36328125 C-7.1575 13.24339844 -8.065 13.12351562 -9 13 C-9.66 12.01 -10.32 11.02 -11 10 C-7.37 10 -3.74 10 0 10 C0 6.7 0 3.4 0 0 Z " fill="#165969" transform="translate(90,82)"/>
<path d="M0 0 C0.886875 0.309375 1.77375 0.61875 2.6875 0.9375 C8.80055629 2.94105567 8.80055629 2.94105567 15 2 C15.495 3.485 15.495 3.485 16 5 C14.37509046 5.02698189 12.75005367 5.04638757 11.125 5.0625 C9.76761719 5.07990234 9.76761719 5.07990234 8.3828125 5.09765625 C6 5 6 5 4 4 C2.18281916 3.88042526 0.36142165 3.8227532 -1.45947266 3.79467773 C-2.60050446 3.77473251 -3.74153625 3.75478729 -4.91714478 3.73423767 C-6.77186905 3.70916893 -6.77186905 3.70916893 -8.6640625 3.68359375 C-9.92640717 3.66281265 -11.18875183 3.64203156 -12.48934937 3.62062073 C-15.84632045 3.56622074 -19.20330189 3.51599764 -22.56036377 3.46777344 C-25.98561065 3.41754958 -29.41076829 3.36186814 -32.8359375 3.30664062 C-39.55722061 3.19938141 -46.27857044 3.0976256 -53 3 C-53 2.67 -53 2.34 -53 2 C-52.02614098 1.9845388 -52.02614098 1.9845388 -51.03260803 1.96876526 C-44.30100948 1.86093864 -37.5695513 1.74632219 -30.83813477 1.62768555 C-28.32286504 1.58425994 -25.80756437 1.54259071 -23.29223633 1.50268555 C-19.68561456 1.44516707 -16.07914969 1.38142033 -12.47265625 1.31640625 C-11.34038101 1.29969376 -10.20810577 1.28298126 -9.04151917 1.26576233 C-8.00051559 1.24581711 -6.95951202 1.22587189 -5.88696289 1.20532227 C-4.96540909 1.18977798 -4.04385529 1.1742337 -3.09437561 1.15821838 C-1.01249529 1.22977244 -1.01249529 1.22977244 0 0 Z " fill="#42B1BB" transform="translate(99,132)"/>
<path d="M0 0 C3.0625 -0.25 3.0625 -0.25 6 0 C6.33 0.33 6.66 0.66 7 1 C6.91015699 2.85772162 6.75388139 4.71247985 6.5625 6.5625 C6.46066406 7.57441406 6.35882813 8.58632813 6.25390625 9.62890625 C6.17011719 10.41136719 6.08632812 11.19382812 6 12 C3.03 12 0.06 12 -3 12 C-3.125 9.625 -3.125 9.625 -3 7 C-1 5 -1 5 2.125 4.875 C3.07375 4.91625 4.0225 4.9575 5 5 C5 4.01 5 3.02 5 2 C2.69 2.33 0.38 2.66 -2 3 C-1.34 2.01 -0.68 1.02 0 0 Z " fill="#BBE2E8" transform="translate(119,269)"/>
<path d="M0 0 C1.88059033 1.88059033 1.12361218 4.49890038 1.1328125 6.9921875 C1 9 1 9 0 12 C-2.64 12 -5.28 12 -8 12 C-8.625 9.625 -8.625 9.625 -9 7 C-7 5 -7 5 -3.875 4.875 C-2.92625 4.91625 -1.9775 4.9575 -1 5 C-1 4.01 -1 3.02 -1 2 C-2.98 2.33 -4.96 2.66 -7 3 C-7 2.34 -7 1.68 -7 1 C-4.51588385 -0.24205807 -2.74800896 -0.14092354 0 0 Z " fill="#D7EAF0" transform="translate(263,269)"/>
<path d="M0 0 C1 1 1 1 1.1328125 2.99609375 C1.13023438 3.80175781 1.12765625 4.60742188 1.125 5.4375 C1.12757812 6.24058594 1.13015625 7.04367187 1.1328125 7.87109375 C1 10 1 10 0 12 C-2.64 12 -5.28 12 -8 12 C-8.33 10.35 -8.66 8.7 -9 7 C-6 5 -6 5 -3.375 4.5 C-2.59125 4.335 -1.8075 4.17 -1 4 C-0.67 3.34 -0.34 2.68 0 2 C-2.31 2.33 -4.62 2.66 -7 3 C-7 2.34 -7 1.68 -7 1 C-4.51588385 -0.24205807 -2.74800896 -0.14092354 0 0 Z " fill="#D2EDF1" transform="translate(90,298)"/>
<path d="M0 0 C1.32 0.33 2.64 0.66 4 1 C4.02687279 2.81242052 4.04633715 4.62495233 4.0625 6.4375 C4.07410156 7.44683594 4.08570312 8.45617187 4.09765625 9.49609375 C4 12 4 12 3 13 C1.02287193 13.09900199 -0.95790038 13.12970773 -2.9375 13.125 C-4.55978516 13.12886719 -4.55978516 13.12886719 -6.21484375 13.1328125 C-9 13 -9 13 -11 12 C-11 11.34 -11 10.68 -11 10 C-7.7 9.67 -4.4 9.34 -1 9 C-0.67 6.03 -0.34 3.06 0 0 Z " fill="#24747E" transform="translate(68,104)"/>
<path d="M0 0 C0.66 0 1.32 0 2 0 C2.31375831 10.45861049 2.31697334 19.93061665 -1 30 C-1.33 30 -1.66 30 -2 30 C-2.26213592 6.78640777 -2.26213592 6.78640777 0 0 Z " fill="#185562" transform="translate(45,75)"/>
<path d="M0 0 C3.375 -0.125 3.375 -0.125 7 0 C9 2 9 2 9.25 4.5 C9 7 9 7 7 9 C3.375 9.125 3.375 9.125 0 9 C0 6.03 0 3.06 0 0 Z " fill="#5AC6D1" transform="translate(45,226)"/>
<path d="M0 0 C3 3 3 3 3.5 6.4375 C3 10 3 10 0.5 12.4375 C-0.325 12.953125 -1.15 13.46875 -2 14 C-1.67 14.680625 -1.34 15.36125 -1 16.0625 C0.22538323 19.66206323 0.48092611 22.22129483 0 26 C-2.64695225 28.79400515 -5.11534727 30.59813937 -9 31 C-9.66 30.67 -10.32 30.34 -11 30 C-11 29.34 -11 28.68 -11 28 C-9.865625 27.855625 -8.73125 27.71125 -7.5625 27.5625 C-4.19222799 27.38828522 -4.19222799 27.38828522 -3 26 C-2.75266863 21.85723125 -2.75266863 21.85723125 -4 18 C-4.45528455 12.6504065 -4.45528455 12.6504065 -2.6875 10.125 C-1 9 -1 9 2 9 C1.34 6.03 0.68 3.06 0 0 Z " fill="#4BC7CE" transform="translate(132,115)"/>
<path d="M0 0 C0 0.66 0 1.32 0 2 C2.64 1.67 5.28 1.34 8 1 C7.67 1.99 7.34 2.98 7 4 C5.865625 4.268125 4.73125 4.53625 3.5625 4.8125 C1.7990625 5.4003125 1.7990625 5.4003125 0 6 C-1.53146378 9.00594421 -1.53146378 9.00594421 -2 12 C-3.32 11.67 -4.64 11.34 -6 11 C-5.01 11 -4.02 11 -3 11 C-3 10.34 -3 9.68 -3 9 C-3.66 9 -4.32 9 -5 9 C-5 6.36 -5 3.72 -5 1 C-2 0 -2 0 0 0 Z " fill="#34B3C5" transform="translate(82,299)"/>
<path d="M0 0 C1.875 1.375 1.875 1.375 3 3 C3 3.66 3 4.32 3 5 C2.34 5 1.68 5 1 5 C0.67 4.34 0.34 3.68 0 3 C-2.91634129 2.7497843 -2.91634129 2.7497843 -6 3 C-8.4294516 6.6441774 -8.16179575 8.71241272 -8 13 C-4.05272412 13.17942163 -1.4019487 13.09350689 2 11 C0.25 14.875 0.25 14.875 -2 16 C-7.17431193 16.44036697 -7.17431193 16.44036697 -9.875 15 C-11.70155697 11.75278761 -11.73424358 8.56038868 -11 5 C-7.85107955 0.55446525 -5.44419378 -0.94681631 0 0 Z " fill="#E3F3F5" transform="translate(160,265)"/>
<path d="M0 0 C2.1875 0.1875 2.1875 0.1875 5 1 C5.639375 1.825 6.27875 2.65 6.9375 3.5 C11.5588904 7.27256359 16.01482398 6.78062518 21.8125 6.8125 C22.88693359 6.83763672 23.96136719 6.86277344 25.06835938 6.88867188 C27.71260771 6.94743295 30.35520488 6.98379376 33 7 C33.33 5.02 33.66 3.04 34 1 C34.99 1 35.98 1 37 1 C36.67 1.33 36.34 1.66 36 2 C35.76924918 3.34747084 35.58846937 4.70377565 35.4375 6.0625 C35.293125 7.361875 35.14875 8.66125 35 10 C33.68 10 32.36 10 31 10 C31 9.34 31 8.68 31 8 C30.3294458 8.02618408 29.6588916 8.05236816 28.96801758 8.0793457 C25.91641872 8.18357238 22.86519458 8.24840623 19.8125 8.3125 C18.75740234 8.35439453 17.70230469 8.39628906 16.61523438 8.43945312 C8.73219645 8.56379126 8.73219645 8.56379126 4.875 5.59375 C4.25625 4.7378125 3.6375 3.881875 3 3 C2.401875 2.401875 1.80375 1.80375 1.1875 1.1875 C0.795625 0.795625 0.40375 0.40375 0 0 Z " fill="#1287BA" transform="translate(64,37)"/>
<path d="M0 0 C0.66 0 1.32 0 2 0 C1.8125 2.375 1.8125 2.375 1 5 C-0.65 5.66 -2.3 6.32 -4 7 C-4.33 11.62 -4.66 16.24 -5 21 C-6.98 21 -8.96 21 -11 21 C-11 20.34 -11 19.68 -11 19 C-9.68 19 -8.36 19 -7 19 C-7.02320313 18.01257813 -7.04640625 17.02515625 -7.0703125 16.0078125 C-7.08835938 14.72648438 -7.10640625 13.44515625 -7.125 12.125 C-7.14820313 10.84882813 -7.17140625 9.57265625 -7.1953125 8.2578125 C-7 5 -7 5 -5 3 C-4.319375 2.835 -3.63875 2.67 -2.9375 2.5 C-2.298125 2.335 -1.65875 2.17 -1 2 C-0.67 1.34 -0.34 0.68 0 0 Z " fill="#2694AA" transform="translate(144,230)"/>
<path d="M0 0 C1.32 0.33 2.64 0.66 4 1 C4.02686553 2.97909398 4.04633375 4.95828971 4.0625 6.9375 C4.07410156 8.03964844 4.08570312 9.14179687 4.09765625 10.27734375 C4 13 4 13 3 14 C0.46950598 14.07313567 -2.03304837 14.09247527 -4.5625 14.0625 C-5.62887695 14.05573242 -5.62887695 14.05573242 -6.71679688 14.04882812 C-8.47790013 14.03700864 -10.23896036 14.01907263 -12 14 C-12.33 12.68 -12.66 11.36 -13 10 C-12.01 10.33 -11.02 10.66 -10 11 C-8.10529184 11.0685495 -6.2083166 11.08480372 -4.3125 11.0625 C-3.31863281 11.05347656 -2.32476562 11.04445313 -1.30078125 11.03515625 C-0.54152344 11.02355469 0.21773437 11.01195313 1 11 C1.33 7.7 1.66 4.4 2 1 C1.34 0.67 0.68 0.34 0 0 Z " fill="#2A8995" transform="translate(91,104)"/>
<path d="M0 0 C0.66 0 1.32 0 2 0 C2 2.97 2 5.94 2 9 C3.32 9.33 4.64 9.66 6 10 C6.66 6.7 7.32 3.4 8 0 C8.66 0 9.32 0 10 0 C9.85904936 1.6254308 9.71207913 3.25034051 9.5625 4.875 C9.48128906 5.77992188 9.40007813 6.68484375 9.31640625 7.6171875 C9 10 9 10 8 12 C1.84765625 12.09765625 1.84765625 12.09765625 0 12 C-0.33 11.67 -0.66 11.34 -1 11 C-0.91015699 9.14227838 -0.75388139 7.28752015 -0.5625 5.4375 C-0.46066406 4.42558594 -0.35882813 3.41367187 -0.25390625 2.37109375 C-0.17011719 1.58863281 -0.08632813 0.80617188 0 0 Z " fill="#D8F1F4" transform="translate(49,298)"/>
<path d="M0 0 C0.66 0 1.32 0 2 0 C1.26951699 4.68803656 -0.36636885 8.90885555 -2.0625 13.3125 C-2.34416016 14.05306641 -2.62582031 14.79363281 -2.91601562 15.55664062 C-3.60718575 17.37242655 -4.30311689 19.18639899 -5 21 C-7.31 21 -9.62 21 -12 21 C-12 20.34 -12 19.68 -12 19 C-10.02 19 -8.04 19 -6 19 C-5.814375 17.71029297 -5.814375 17.71029297 -5.625 16.39453125 C-5.00363808 13.01975935 -4.10004853 9.93506974 -3 6.6875 C-2.649375 5.63949219 -2.29875 4.59148437 -1.9375 3.51171875 C-1 1 -1 1 0 0 Z " fill="#2C93A9" transform="translate(166,230)"/>
<path d="M0 0 C0.33 0 0.66 0 1 0 C1.78545181 9.96651077 1.78545181 9.96651077 -1.375 14.125 C-5.20475858 16.86054184 -7.26896921 17.3862066 -12 17 C-13.69140625 15.484375 -13.69140625 15.484375 -15 14 C-14.09507812 13.96132812 -14.09507812 13.96132812 -13.171875 13.921875 C-9.4967971 13.66106302 -6.73570442 13.45274118 -3.5625 11.5 C-1.30893721 7.89429953 -0.6756181 4.16038514 0 0 Z " fill="#278FA8" transform="translate(244,235)"/>
<path d="M0 0 C0.94875 0.04125 1.8975 0.0825 2.875 0.125 C3.205 1.115 3.535 2.105 3.875 3.125 C1.895 3.125 -0.085 3.125 -2.125 3.125 C0.64760299 5.06298263 0.64760299 5.06298263 2.875 6.125 C2 11 2 11 0.875 12.125 C-1.12458364 12.16580783 -3.12545254 12.16754356 -5.125 12.125 C-5.455 11.135 -5.785 10.145 -6.125 9.125 C-3.815 9.455 -1.505 9.785 0.875 10.125 C0.875 9.135 0.875 8.145 0.875 7.125 C-0.775 6.795 -2.425 6.465 -4.125 6.125 C-4.75 4.25 -4.75 4.25 -5.125 2.125 C-3.125 0.125 -3.125 0.125 0 0 Z " fill="#E1F3F6" transform="translate(196.125,268.875)"/>
<path d="M0 0 C6.15234375 -0.09765625 6.15234375 -0.09765625 8 0 C9.88059033 1.88059033 9.12361218 4.49890038 9.1328125 6.9921875 C9 9 9 9 8 12 C7.34 12 6.68 12 6 12 C6.33 8.7 6.66 5.4 7 2 C5.35 2.66 3.7 3.32 2 4 C1.87625 5.134375 1.7525 6.26875 1.625 7.4375 C1.41875 8.613125 1.2125 9.78875 1 11 C0.01 11.495 0.01 11.495 -1 12 C-1.08159574 7.83861737 -0.98248524 4.0527516 0 0 Z " fill="#DEF1F4" transform="translate(62,298)"/>
<path d="M0 0 C0.66 0 1.32 0 2 0 C1.67 3.3 1.34 6.6 1 10 C3.51686936 9.59688639 3.51686936 9.59688639 6 8 C7.08241903 5.33474712 7.49272107 2.8592085 8 0 C8.66 0 9.32 0 10 0 C9.34 3.96 8.68 7.92 8 12 C1.84765625 12.09765625 1.84765625 12.09765625 0 12 C-0.33 11.67 -0.66 11.34 -1 11 C-0.91015699 9.14227838 -0.75388139 7.28752015 -0.5625 5.4375 C-0.46066406 4.42558594 -0.35882813 3.41367187 -0.25390625 2.37109375 C-0.17011719 1.58863281 -0.08632812 0.80617188 0 0 Z " fill="#DEF0F4" transform="translate(203,269)"/>
<path d="M0 0 C0.66 0.33 1.32 0.66 2 1 C1.34 1.66 0.68 2.32 0 3 C-0.28602162 7.14509433 -0.28602162 7.14509433 1 11 C1.1875 14 1.1875 14 1 17 C-1 19 -1 19 -2.9453125 19.1953125 C-4.96354167 19.13020833 -6.98177083 19.06510417 -9 19 C-9 18.01 -9 17.02 -9 16 C-8.67 16.33 -8.34 16.66 -8 17 C-6.00041636 17.04080783 -3.99954746 17.04254356 -2 17 C-1.85008399 13.77680586 -1.81594273 11.44390284 -3.0625 8.4375 C-4.18299353 5.52421683 -3.84427369 3.95495793 -3 1 C-2.01 0.67 -1.02 0.34 0 0 Z " fill="#3B9DA2" transform="translate(129,124)"/>
<path d="M0 0 C2.33294775 -0.04241723 4.66702567 -0.04092937 7 0 C8 1 8 1 8.25 4.375 C8 8 8 8 6.8125 9.875 C4.51411726 11.30158239 2.69385039 11.79278074 0 12 C-0.66 11.34 -1.32 10.68 -2 10 C-1.030625 9.7525 -0.06125 9.505 0.9375 9.25 C1.948125 8.8375 2.95875 8.425 4 8 C4.96877057 5.96756452 4.96877057 5.96756452 5 4 C3.02 3.34 1.04 2.68 -1 2 C-0.67 1.34 -0.34 0.68 0 0 Z " fill="#25AEC2" transform="translate(194,271)"/>
<path d="M0 0 C2.05078125 0.03255208 4.1015625 0.06510417 6.15234375 0.09765625 C6.15234375 4.05765625 6.15234375 8.01765625 6.15234375 12.09765625 C5.49234375 12.09765625 4.83234375 12.09765625 4.15234375 12.09765625 C4.48234375 8.79765625 4.81234375 5.49765625 5.15234375 2.09765625 C3.50234375 2.42765625 1.85234375 2.75765625 0.15234375 3.09765625 C-0.50765625 6.06765625 -1.16765625 9.03765625 -1.84765625 12.09765625 C-2.50765625 12.09765625 -3.16765625 12.09765625 -3.84765625 12.09765625 C-3.70728104 10.28472536 -3.56020736 8.47231195 -3.41015625 6.66015625 C-3.32894531 5.65082031 -3.24773437 4.64148438 -3.1640625 3.6015625 C-2.72716536 0.14414193 -2.72716536 0.14414193 0 0 Z " fill="#E4F4F6" transform="translate(180.84765625,268.90234375)"/>
<path d="M0 0 C2.97 0 5.94 0 9 0 C9 3.96 9 7.92 9 12 C8.34 12 7.68 12 7 12 C7.33 8.7 7.66 5.4 8 2 C6.35 2.33 4.7 2.66 3 3 C2.34 5.97 1.68 8.94 1 12 C0.34 12 -0.32 12 -1 12 C-0.67 8.04 -0.34 4.08 0 0 Z " fill="#E0F4F6" transform="translate(69,269)"/>
<path d="M0 0 C0.99 0.33 1.98 0.66 3 1 C3.02688151 2.64574566 3.04634123 4.29161413 3.0625 5.9375 C3.07410156 6.85402344 3.08570312 7.77054687 3.09765625 8.71484375 C3 11 3 11 2 12 C0.14712498 12.07226502 -1.70833878 12.0838122 -3.5625 12.0625 C-4.57441406 12.05347656 -5.58632812 12.04445313 -6.62890625 12.03515625 C-7.41136719 12.02355469 -8.19382812 12.01195313 -9 12 C-9.33 11.34 -9.66 10.68 -10 10 C-5.545 9.505 -5.545 9.505 -1 9 C-0.67 6.03 -0.34 3.06 0 0 Z " fill="#185867" transform="translate(90,104)"/>
<path d="M0 0 C0.9075 0.165 1.815 0.33 2.75 0.5 C6.11087503 1.10137146 6.11087503 1.10137146 10 1 C10 1.99 10 2.98 10 4 C8.865625 4.268125 7.73125 4.53625 6.5625 4.8125 C4.7990625 5.4003125 4.7990625 5.4003125 3 6 C2.67 6.99 2.34 7.98 2 9 C1.34 9 0.68 9 0 9 C0 9.99 0 10.98 0 12 C-0.99 11.67 -1.98 11.34 -3 11 C-2.34 11 -1.68 11 -1 11 C-0.67 7.37 -0.34 3.74 0 0 Z " fill="#1B91AF" transform="translate(252,270)"/>
<path d="M0 0 C1.65 0.33 3.3 0.66 5 1 C6.6662553 1.0370279 8.33401319 1.04759962 10 1 C10 1.99 10 2.98 10 4 C8.88625 4.2475 7.7725 4.495 6.625 4.75 C2.95384802 5.61005339 2.95384802 5.61005339 1.5625 8.125 C1.376875 8.74375 1.19125 9.3625 1 10 C0.34 10 -0.32 10 -1 10 C-1 10.66 -1 11.32 -1 12 C-1.66 11.67 -2.32 11.34 -3 11 C-2.01 7.37 -1.02 3.74 0 0 Z " fill="#37B2C3" transform="translate(114,270)"/>
<path d="M0 0 C0.33 0 0.66 0 1 0 C1.375 2.75 1.375 2.75 1 6 C-1.63399992 8.63399992 -3.53440961 9.96563105 -7.33203125 10.0546875 C-10.46351909 9.74103282 -13.17095901 9.4145205 -16 8 C-15.67 7.34 -15.34 6.68 -15 6 C-14.32453125 6.04640625 -13.6490625 6.0928125 -12.953125 6.140625 C-7.32865686 6.50815305 -7.32865686 6.50815305 -2.4375 4.125 C-0.98240961 2.07376616 -0.98240961 2.07376616 0 0 Z " fill="#2489A5" transform="translate(312,242)"/>
<path d="M0 0 C2.625 0.375 2.625 0.375 5 1 C4.35546875 1.17273438 3.7109375 1.34546875 3.046875 1.5234375 C0.59554118 2.92982628 0.59554118 2.92982628 0.390625 6.4765625 C0.32418219 7.858573 0.2780748 9.2416781 0.25 10.625 C0.22035156 11.33140625 0.19070312 12.0378125 0.16015625 12.765625 C0.08944643 14.50980047 0.04245965 16.25490827 0 18 C-1.98 18 -3.96 18 -6 18 C-6 17.34 -6 16.68 -6 16 C-4.68 16 -3.36 16 -2 16 C-2.02320313 15.01257813 -2.04640625 14.02515625 -2.0703125 13.0078125 C-2.08835938 11.72648438 -2.10640625 10.44515625 -2.125 9.125 C-2.14820313 7.84882813 -2.17140625 6.57265625 -2.1953125 5.2578125 C-2 2 -2 2 0 0 Z " fill="#2E8DA6" transform="translate(255,233)"/>
<path d="M0 0 C1.423125 0.2784375 1.423125 0.2784375 2.875 0.5625 C5.89868793 1.28686632 5.89868793 1.28686632 8 0 C8.05423638 1.91635217 8.09289963 3.83314925 8.125 5.75 C8.14820312 6.81734375 8.17140625 7.8846875 8.1953125 8.984375 C8.00487687 11.92470106 7.52670104 13.52361878 6 16 C5.34 15.67 4.68 15.34 4 15 C4 11.37 4 7.74 4 4 C3.01 3.67 2.02 3.34 1 3 C0.67 2.01 0.34 1.02 0 0 Z " fill="#2C9CB2" transform="translate(67,101)"/>
<path d="M0 0 C0.78375 0.04125 1.5675 0.0825 2.375 0.125 C2.5 3 2.5 3 2.375 6.125 C0.375 8.125 0.375 8.125 -2.25 8.25 C-3.03375 8.20875 -3.8175 8.1675 -4.625 8.125 C-4.75 5.25 -4.75 5.25 -4.625 2.125 C-2.625 0.125 -2.625 0.125 0 0 Z " fill="#3CBCCB" transform="translate(95.625,270.875)"/>
<path d="M0 0 C1.79206547 0.14084796 3.58364917 0.28783701 5.375 0.4375 C6.87160156 0.55931641 6.87160156 0.55931641 8.3984375 0.68359375 C11 1 11 1 13 2 C13 2.99 13 3.98 13 5 C7.34264585 6.55577239 4.20333134 5.24281523 -1 3 C-0.67 2.01 -0.34 1.02 0 0 Z " fill="#3EA4B9" transform="translate(300,232)"/>
<path d="M0 0 C2.625 -0.1875 2.625 -0.1875 5 0 C5.125 5.75 5.125 5.75 4 8 C2.35 8 0.7 8 -1 8 C-1.625 5.6875 -1.625 5.6875 -2 3 C-1.34 2.01 -0.68 1.02 0 0 Z " fill="#2EB2C4" transform="translate(168,271)"/>
<path d="M0 0 C0.66 0 1.32 0 2 0 C1.91291962 2.10494301 1.80474307 4.20902142 1.6875 6.3125 C1.62949219 7.48425781 1.57148437 8.65601563 1.51171875 9.86328125 C1 13 1 13 -0.375 14.90625 C-2.6234871 16.41965478 -4.35369681 16.21456512 -7 16 C-7.66 14.68 -8.32 13.36 -9 12 C-8.01 12 -7.02 12 -6 12 C-6 12.66 -6 13.32 -6 14 C-4.68 13.67 -3.36 13.34 -2 13 C-1.34 8.71 -0.68 4.42 0 0 Z " fill="#DBF3F5" transform="translate(44,294)"/>
<path d="M0 0 C1.2065625 0.0309375 1.2065625 0.0309375 2.4375 0.0625 C2.47991723 2.39544775 2.47842937 4.72952567 2.4375 7.0625 C1.4375 8.0625 1.4375 8.0625 -1.125 8.125 C-1.929375 8.104375 -2.73375 8.08375 -3.5625 8.0625 C-3.60491723 5.72955225 -3.60342937 3.39547433 -3.5625 1.0625 C-2.5625 0.0625 -2.5625 0.0625 0 0 Z " fill="#1DA5C0" transform="translate(233.5625,270.9375)"/>
<path d="M0 0 C-0.1875 1.8125 -0.1875 1.8125 -1 4 C-3.73336216 6.18668973 -5.5806095 6.94864606 -9.0625 7.375 C-12.33599313 6.95710726 -13.49489362 6.03640906 -16 4 C-15.32453125 3.96261719 -14.6490625 3.92523438 -13.953125 3.88671875 C-13.06109375 3.82097656 -12.1690625 3.75523437 -11.25 3.6875 C-10.36828125 3.62949219 -9.4865625 3.57148438 -8.578125 3.51171875 C-5.17391951 2.83603554 -3.32887203 0 0 0 Z " fill="#288DA9" transform="translate(291,245)"/>
<path d="M0 0 C0.99 0 1.98 0 3 0 C3 3.63 3 7.26 3 11 C-0.96 11 -4.92 11 -9 11 C-9 10.67 -9 10.34 -9 10 C-7.865625 9.855625 -6.73125 9.71125 -5.5625 9.5625 C-2.19222799 9.38828522 -2.19222799 9.38828522 -1 8 C-0.76924918 6.65252916 -0.58846937 5.29622435 -0.4375 3.9375 C-0.293125 2.638125 -0.14875 1.33875 0 0 Z " fill="#1A5962" transform="translate(113,83)"/>
<path d="M0 0 C0.66 0 1.32 0 2 0 C2 0.99 2 1.98 2 3 C2.66 3 3.32 3 4 3 C4 3.66 4 4.32 4 5 C3.01 5 2.02 5 1 5 C0.67 7.64 0.34 10.28 0 13 C0.66 13 1.32 13 2 13 C2 13.66 2 14.32 2 15 C0.68 14.67 -0.64 14.34 -2 14 C-2 10.37 -2 6.74 -2 3 C-1.34 3 -0.68 3 0 3 C0 2.01 0 1.02 0 0 Z " fill="#D7F0F3" transform="translate(84,266)"/>
<path d="M0 0 C0.66 0.33 1.32 0.66 2 1 C2 6.61 2 12.22 2 18 C0.02 18 -1.96 18 -4 18 C-4 17.34 -4 16.68 -4 16 C-2.68 16 -1.36 16 0 16 C0 10.72 0 5.44 0 0 Z " fill="#2995AA" transform="translate(187,233)"/>
<path d="M0 0 C0.99 0.33 1.98 0.66 3 1 C3 4.3 3 7.6 3 11 C-0.63 11 -4.26 11 -8 11 C-8 10.67 -8 10.34 -8 10 C-5.69 9.34 -3.38 8.68 -1 8 C-0.67 5.36 -0.34 2.72 0 0 Z " fill="#15535F" transform="translate(68,83)"/>
<path d="M0 0 C0.94875 0.350625 1.8975 0.70125 2.875 1.0625 C5.87060172 2.35026777 5.87060172 2.35026777 8 1 C8.06058594 1.77085938 8.12117188 2.54171875 8.18359375 3.3359375 C8.26738281 4.33882813 8.35117188 5.34171875 8.4375 6.375 C8.51871094 7.37273437 8.59992188 8.37046875 8.68359375 9.3984375 C8.84965626 11.97927613 8.84965626 11.97927613 10 14 C8.02 14.99 8.02 14.99 6 16 C6 12.04 6 8.08 6 4 C4.35 3.67 2.7 3.34 1 3 C0.67 2.01 0.34 1.02 0 0 Z " fill="#269DB8" transform="translate(67,79)"/>
<path d="M0 0 C0.66 0 1.32 0 2 0 C2 0.99 2 1.98 2 3 C2.66 3 3.32 3 4 3 C4 3.66 4 4.32 4 5 C3.01 5 2.02 5 1 5 C1 7.64 1 10.28 1 13 C1.66 13 2.32 13 3 13 C3 13.66 3 14.32 3 15 C1.68 15 0.36 15 -1 15 C-1.33 11.04 -1.66 7.08 -2 3 C-1.34 3 -0.68 3 0 3 C0 2.01 0 1.02 0 0 Z " fill="#CFEAEE" transform="translate(76,295)"/>
<path d="M0 0 C2 2 2 2 2 8 C-3.28 8 -8.56 8 -14 8 C-14 7.34 -14 6.68 -14 6 C-9.38 6 -4.76 6 0 6 C0 4.02 0 2.04 0 0 Z " fill="#2284A0" transform="translate(290,234)"/>
<path d="M0 0 C2.01822917 0.26041667 4.03645833 0.52083333 6.0546875 0.78125 C8.00498344 1.0372485 8.00498344 1.0372485 10 1 C10.33 3.97 10.66 6.94 11 10 C10.34 10 9.68 10 9 10 C8.67 9.34 8.34 8.68 8 8 C7.34 8.66 6.68 9.32 6 10 C5.67 8.02 5.34 6.04 5 4 C3.02 3.34 1.04 2.68 -1 2 C-0.67 1.34 -0.34 0.68 0 0 Z " fill="#54D4DC" transform="translate(98,235)"/>
<path d="M0 0 C0.33 0 0.66 0 1 0 C1.74805717 7.02639415 2.13794954 13.93391809 2 21 C1.01 21 0.02 21 -1 21 C-1.13794954 13.93391809 -0.74805717 7.02639415 0 0 Z " fill="#205F67" transform="translate(130,89)"/>
<path d="M0 0 C3.47417927 0.31583448 5.53412708 0.63485636 8.3125 2.8125 C10.99720276 6.29267025 11.12584926 9.44225025 11.0625 13.75 C11.05347656 14.54921875 11.04445312 15.3484375 11.03515625 16.171875 C11.02355469 16.77515625 11.01195312 17.3784375 11 18 C10.67 18 10.34 18 10 18 C9.9484375 17.35933594 9.896875 16.71867187 9.84375 16.05859375 C9.12679762 10.59183186 8.15695117 7.56883668 3.875 3.9375 C3.15054688 3.38964844 2.42609375 2.84179688 1.6796875 2.27734375 C1.12539062 1.85582031 0.57109375 1.43429688 0 1 C0 0.67 0 0.34 0 0 Z " fill="#2C9BAC" transform="translate(120,45)"/>
<path d="M0 0 C0.33 0 0.66 0 1 0 C1.25 2.8125 1.25 2.8125 1 6 C-1.1805039 8.1805039 -2.49687871 8.94282713 -5.578125 9.29296875 C-6.45984375 9.25816406 -7.3415625 9.22335938 -8.25 9.1875 C-9.14203125 9.16042969 -10.0340625 9.13335937 -10.953125 9.10546875 C-11.62859375 9.07066406 -12.3040625 9.03585938 -13 9 C-13.33 8.34 -13.66 7.68 -14 7 C-13.39671875 6.96261719 -12.7934375 6.92523438 -12.171875 6.88671875 C-5.95694557 6.48699966 -5.95694557 6.48699966 -1 3 C-0.67 2.01 -0.34 1.02 0 0 Z " fill="#3696AC" transform="translate(105,242)"/>
<path d="M0 0 C5.94 0 11.88 0 18 0 C17.34 1.65 16.68 3.3 16 5 C15.67 4.34 15.34 3.68 15 3 C11.51745287 2.25248627 11.51745287 2.25248627 8 2 C7.67 2.33 7.34 2.66 7 3 C4.5625 3.25 4.5625 3.25 2 3 C1.34 2.01 0.68 1.02 0 0 Z " fill="#2AAEC4" transform="translate(276,242)"/>
<path d="M0 0 C0.99 0.66 1.98 1.32 3 2 C3 3.32 3 4.64 3 6 C1.73160474 6.50615298 0.46016898 7.00469099 -0.8125 7.5 C-1.87404297 7.91765625 -1.87404297 7.91765625 -2.95703125 8.34375 C-5 9 -5 9 -8 9 C-8 8.01 -8 7.02 -8 6 C-6.865625 5.566875 -5.73125 5.13375 -4.5625 4.6875 C-2.7990625 3.8521875 -2.7990625 3.8521875 -1 3 C-0.67 2.01 -0.34 1.02 0 0 Z " fill="#1D5C69" transform="translate(129,117)"/>
<path d="M0 0 C0.99 0 1.98 0 3 0 C3.33 4.62 3.66 9.24 4 14 C0 10 0 10 -0.390625 7.421875 C-0.34421875 6.54015625 -0.2978125 5.6584375 -0.25 4.75 C-0.21390625 3.85796875 -0.1778125 2.9659375 -0.140625 2.046875 C-0.09421875 1.37140625 -0.0478125 0.6959375 0 0 Z " fill="#0E5168" transform="translate(95,48)"/>
<path d="M0 0 C3.63 0.33 7.26 0.66 11 1 C11.33 2.32 11.66 3.64 12 5 C8.95613276 5.08226668 6.92824652 4.97608217 4 4 C2.33378384 3.96125079 0.66605828 3.9549714 -1 4 C-0.67 2.68 -0.34 1.36 0 0 Z " fill="#42ACBC" transform="translate(94,232)"/>
<path d="M0 0 C0.99 0 1.98 0 3 0 C3.66 1.65 4.32 3.3 5 5 C2.42786866 6.61949011 1.32330841 7.04408751 -1.75 6.625 C-2.4925 6.41875 -3.235 6.2125 -4 6 C-2.84826645 3.53199953 -1.95216435 1.95216435 0 0 Z " fill="#1A596D" transform="translate(109,129)"/>
<path d="M0 0 C0.66 0 1.32 0 2 0 C2 0.99 2 1.98 2 3 C2.66 3 3.32 3 4 3 C4 3.66 4 4.32 4 5 C3.01 5 2.02 5 1 5 C1.33 8.3 1.66 11.6 2 15 C1.01 15 0.02 15 -1 15 C-0.98259766 14.07767578 -0.98259766 14.07767578 -0.96484375 13.13671875 C-0.95582031 12.32847656 -0.94679687 11.52023437 -0.9375 10.6875 C-0.92589844 9.88699219 -0.91429687 9.08648437 -0.90234375 8.26171875 C-0.90342145 5.83138666 -0.90342145 5.83138666 -2 3 C-1.34 3 -0.68 3 0 3 C0 2.01 0 1.02 0 0 Z " fill="#DEEEF2" transform="translate(222,266)"/>
<path d="M0 0 C0.99 0.33 1.98 0.66 3 1 C3 3.97 3 6.94 3 10 C-0.63 10 -4.26 10 -8 10 C-8 9.67 -8 9.34 -8 9 C-4.535 8.505 -4.535 8.505 -1 8 C-0.67 5.36 -0.34 2.72 0 0 Z " fill="#185460" transform="translate(68,105)"/>
<path d="M0 0 C0.33 0 0.66 0 1 0 C1 1.98 1 3.96 1 6 C-3.95 6.33 -8.9 6.66 -14 7 C-14.33 6.01 -14.66 5.02 -15 4 C-10.05 4 -5.1 4 0 4 C0 2.68 0 1.36 0 0 Z " fill="#3596AC" transform="translate(128,236)"/>
<path d="M0 0 C0.33 0 0.66 0 1 0 C1 1.98 1 3.96 1 6 C-3.95 6.33 -8.9 6.66 -14 7 C-14.33 6.01 -14.66 5.02 -15 4 C-10.05 4 -5.1 4 0 4 C0 2.68 0 1.36 0 0 Z " fill="#3C98AD" transform="translate(84,236)"/>
<path d="M0 0 C0.66 0.33 1.32 0.66 2 1 C2.22839101 4.27360453 2.08376242 6.74312859 1.0625 9.875 C-1 12 -1 12 -3.203125 12.30859375 C-5.48990554 12.31218932 -7.72400094 12.21471689 -10 12 C-10 11.67 -10 11.34 -10 11 C-4.25 9.875 -4.25 9.875 -2 11 C-1.93941406 10.28972656 -1.87882813 9.57945312 -1.81640625 8.84765625 C-1.73261719 7.92855469 -1.64882812 7.00945312 -1.5625 6.0625 C-1.48128906 5.14597656 -1.40007812 4.22945313 -1.31640625 3.28515625 C-1 1 -1 1 0 0 Z " fill="#289CB5" transform="translate(213,270)"/>
<path d="M0 0 C1.65 0 3.3 0 5 0 C5 0.66 5 1.32 5 2 C4.01 2 3.02 2 2 2 C2 5.3 2 8.6 2 12 C0.35 12 -1.3 12 -3 12 C-3 11.34 -3 10.68 -3 10 C-2.01 10 -1.02 10 0 10 C0 6.7 0 3.4 0 0 Z " fill="#53A3B5" transform="translate(45,239)"/>
<path d="M0 0 C4.95 0 9.9 0 15 0 C15.33 1.32 15.66 2.64 16 4 C14.68 3.67 13.36 3.34 12 3 C12 2.34 12 1.68 12 1 C10.948125 1.33 9.89625 1.66 8.8125 2 C5.61126643 2.83966782 3.2588992 3.19750904 0 3 C0 2.01 0 1.02 0 0 Z " fill="#50D3DB" transform="translate(71,242)"/>
<path d="M0 0 C1.4540625 0.0309375 1.4540625 0.0309375 2.9375 0.0625 C2.9375 0.7225 2.9375 1.3825 2.9375 2.0625 C1.6175 2.3925 0.2975 2.7225 -1.0625 3.0625 C-1.7225 6.0325 -2.3825 9.0025 -3.0625 12.0625 C-3.7225 12.0625 -4.3825 12.0625 -5.0625 12.0625 C-4.92212479 10.24956911 -4.77505111 8.4371557 -4.625 6.625 C-4.54378906 5.61566406 -4.46257812 4.60632813 -4.37890625 3.56640625 C-3.91554584 -0.10043357 -3.78745586 0.07729502 0 0 Z " fill="#D8F1F4" transform="translate(107.0625,268.9375)"/>
<path d="M0 0 C0.99 0 1.98 0 3 0 C1.63016497 3.16115776 1.0109362 3.9927092 -2 6 C-4.19140625 6.265625 -4.19140625 6.265625 -6.5625 6.25 C-7.74005859 6.25773438 -7.74005859 6.25773438 -8.94140625 6.265625 C-11 6 -11 6 -13 4 C-12.31292969 3.96261719 -11.62585938 3.92523438 -10.91796875 3.88671875 C-10.01691406 3.82097656 -9.11585937 3.75523437 -8.1875 3.6875 C-7.29417969 3.62949219 -6.40085937 3.57148438 -5.48046875 3.51171875 C-2.63572985 2.92485136 -1.93011924 2.0628495 0 0 Z " fill="#439DB0" transform="translate(82,245)"/>
<path d="M0 0 C0.99 0.33 1.98 0.66 3 1 C0.87178791 3.74608011 -0.73613153 5.77555439 -4.265625 6.40234375 C-6.59068071 6.43609456 -8.71282338 6.42687972 -11 6 C-11.66 5.34 -12.32 4.68 -13 4 C-12.31292969 3.93941406 -11.62585938 3.87882813 -10.91796875 3.81640625 C-10.01691406 3.73261719 -9.11585937 3.64882812 -8.1875 3.5625 C-7.29417969 3.48128906 -6.40085937 3.40007812 -5.48046875 3.31640625 C-2.87256441 3.06510233 -2.87256441 3.06510233 0 2 C0 1.34 0 0.68 0 0 Z " fill="#3496AB" transform="translate(126,245)"/>
<path d="M0 0 C2.02558881 3.34939881 2.21738987 5.86962551 2.125 9.75 C2.10695312 10.73484375 2.08890625 11.7196875 2.0703125 12.734375 C2.04710937 13.48203125 2.02390625 14.2296875 2 15 C1.01 14.34 0.02 13.68 -1 13 C-1.328125 10.72265625 -1.328125 10.72265625 -1.25 8.0625 C-1.23453125 7.18722656 -1.2190625 6.31195313 -1.203125 5.41015625 C-1 3 -1 3 0 0 Z " fill="#1C5864" transform="translate(43,109)"/>
<path d="M0 0 C1.58894072 1.58894072 1.16998411 3.24801424 1.1875 5.4375 C1.20167969 6.24058594 1.21585938 7.04367187 1.23046875 7.87109375 C1 10 1 10 -1 12 C-1 10.02 -1 8.04 -1 6 C-1.99 5.67 -2.98 5.34 -4 5 C-3.01 4.67 -2.02 4.34 -1 4 C-0.67 3.34 -0.34 2.68 0 2 C-2.31 2.33 -4.62 2.66 -7 3 C-7 2.34 -7 1.68 -7 1 C-4.51588385 -0.24205807 -2.74800896 -0.14092354 0 0 Z " fill="#E9F5F7" transform="translate(90,298)"/>
<path d="M0 0 C0.66 0 1.32 0 2 0 C1.68762196 2.88949684 1.35661121 4.58633099 -0.5625 6.8125 C-4.1419213 8.55632063 -7.04179842 8.19791008 -11 8 C-10.443125 7.731875 -9.88625 7.46375 -9.3125 7.1875 C-3.92804958 4.46422643 -3.92804958 4.46422643 0 0 Z " fill="#2891A8" transform="translate(210,243)"/>
<path d="M0 0 C1.32 0.33 2.64 0.66 4 1 C5.60725635 4.21451269 5.05748185 7.43612536 5 11 C4.01 11.495 4.01 11.495 3 12 C2.67 9.36 2.34 6.72 2 4 C1.67 5.65 1.34 7.3 1 9 C0.67 9 0.34 9 0 9 C0 6.03 0 3.06 0 0 Z " fill="#1A6A7E" transform="translate(90,82)"/>
<path d="M0 0 C3.375 0.6875 3.375 0.6875 7 2 C8.4375 4.625 8.4375 4.625 9 7 C11.31 7 13.62 7 16 7 C16 7.33 16 7.66 16 8 C12.7 8 9.4 8 6 8 C5.67 6.35 5.34 4.7 5 3 C3.68 3 2.36 3 1 3 C0.67 2.01 0.34 1.02 0 0 Z " fill="#1D8FB1" transform="translate(104,37)"/>
<path d="M0 0 C1.98 0 3.96 0 6 0 C6.33 1.32 6.66 2.64 7 4 C4.03 4 1.06 4 -2 4 C-1.34 2.68 -0.68 1.36 0 0 Z " fill="#5CBCC9" transform="translate(71,233)"/>
<path d="M0 0 C1.98 0 3.96 0 6 0 C6.33 1.32 6.66 2.64 7 4 C4.03 4 1.06 4 -2 4 C-1.34 2.68 -0.68 1.36 0 0 Z " fill="#54B9C7" transform="translate(115,233)"/>
<path d="M0 0 C0.99 0.66 1.98 1.32 3 2 C3.1875 5.625 3.1875 5.625 3 9 C1.35 9.33 -0.3 9.66 -2 10 C-1.34 6.7 -0.68 3.4 0 0 Z " fill="#0C4D66" transform="translate(67,51)"/>
<path d="M0 0 C0.99 0.33 1.98 0.66 3 1 C2.01 2.485 2.01 2.485 1 4 C4.93075644 3.42547254 4.93075644 3.42547254 8 1 C8 2.65 8 4.3 8 6 C5.36 6 2.72 6 0 6 C-0.38218767 4.34385343 -0.71395102 2.67542976 -1 1 C-0.67 0.67 -0.34 0.34 0 0 Z " fill="#E3F1F5" transform="translate(255,275)"/>
<path d="M0 0 C1.2065625 0.0309375 1.2065625 0.0309375 2.4375 0.0625 C2.1075 1.7125 1.7775 3.3625 1.4375 5.0625 C-0.2125 5.0625 -1.8625 5.0625 -3.5625 5.0625 C-3.5625 0.08689024 -3.5625 0.08689024 0 0 Z " fill="#36AABB" transform="translate(178.5625,239.9375)"/>
<path d="M0 0 C0.66 0.66 1.32 1.32 2 2 C1.78857741 4.74849361 1.35866941 6.49786283 -0.25 8.75 C-2.50213717 10.35866941 -4.25150639 10.78857741 -7 11 C-7.66 10.34 -8.32 9.68 -9 9 C-8.071875 8.814375 -7.14375 8.62875 -6.1875 8.4375 C-2.76212803 6.89272441 -2.4794021 6.61378762 -1.125 3.375 C-0.75375 2.26125 -0.3825 1.1475 0 0 Z " fill="#1E8DAB" transform="translate(239,272)"/>
<path d="M0 0 C2.475 0.495 2.475 0.495 5 1 C5.125 8.625 5.125 8.625 4 12 C3.34 12 2.68 12 2 12 C2.02320312 11.30132812 2.04640625 10.60265625 2.0703125 9.8828125 C2.08835937 8.97273438 2.10640625 8.06265625 2.125 7.125 C2.15980469 5.76761719 2.15980469 5.76761719 2.1953125 4.3828125 C2.24324836 1.81193006 2.24324836 1.81193006 0 0 Z " fill="#E8F5F7" transform="translate(66,298)"/>
<path d="M0 0 C1.98 0 3.96 0 6 0 C6 0.66 6 1.32 6 2 C4.35 2.33 2.7 2.66 1 3 C0.67 5.97 0.34 8.94 0 12 C-0.33 12 -0.66 12 -1 12 C-1.08159574 7.83861737 -0.98248524 4.0527516 0 0 Z " fill="#E5F1F5" transform="translate(242,269)"/>
<path d="M0 0 C2.64 0.33 5.28 0.66 8 1 C8.33 2.32 8.66 3.64 9 5 C7.35 5 5.7 5 4 5 C3.67 4.01 3.34 3.02 3 2 C2.01 1.67 1.02 1.34 0 1 C0 0.67 0 0.34 0 0 Z " fill="#219AB3" transform="translate(296,240)"/>
<path d="M0 0 C4.455 0.99 4.455 0.99 9 2 C8.67 2.99 8.34 3.98 8 5 C5.6875 5.3125 5.6875 5.3125 3 5 C1.1875 2.5 1.1875 2.5 0 0 Z " fill="#3FB9C7" transform="translate(90,240)"/>
<path d="M0 0 C1.65 0.33 3.3 0.66 5 1 C4.67 2.32 4.34 3.64 4 5 C2.35 5 0.7 5 -1 5 C-0.67 3.35 -0.34 1.7 0 0 Z " fill="#EFF9FB" transform="translate(215,220)"/>
<path d="M0 0 C0.99 0.33 1.98 0.66 3 1 C3 3.31 3 5.62 3 8 C1.68 8.33 0.36 8.66 -1 9 C-0.67 6.03 -0.34 3.06 0 0 Z " fill="#0E4E68" transform="translate(106,51)"/>
<path d="M0 0 C0.66 0 1.32 0 2 0 C1.85904936 1.6254308 1.71207913 3.25034051 1.5625 4.875 C1.48128906 5.77992188 1.40007812 6.68484375 1.31640625 7.6171875 C1 10 1 10 0 12 C-0.66 12 -1.32 12 -2 12 C-1.85904936 10.3745692 -1.71207913 8.74965949 -1.5625 7.125 C-1.48128906 6.22007812 -1.40007812 5.31515625 -1.31640625 4.3828125 C-1 2 -1 2 0 0 Z " fill="#D6EEF2" transform="translate(112,269)"/>
<path d="M0 0 C0.66 0 1.32 0 2 0 C1.96519531 1.04800781 1.96519531 1.04800781 1.9296875 2.1171875 C1.91164062 3.02726562 1.89359375 3.93734375 1.875 4.875 C1.85179687 5.77992188 1.82859375 6.68484375 1.8046875 7.6171875 C1.75675164 10.18806994 1.75675164 10.18806994 4 12 C2.35 11.67 0.7 11.34 -1 11 C-0.67 7.37 -0.34 3.74 0 0 Z " fill="#E8F5F7" transform="translate(203,269)"/>
<path d="M0 0 C0.33 0 0.66 0 1 0 C1.3125 3.1875 1.3125 3.1875 1 7 C-1.5 9.9375 -1.5 9.9375 -4 12 C-4 7.56914289 -3.54309315 7.25515923 -1 4 C-0.29485154 1.85266073 -0.29485154 1.85266073 0 0 Z " fill="#3598AC" transform="translate(61,229)"/>
<path d="M0 0 C1.58246707 -0.08153933 3.16616273 -0.13943557 4.75 -0.1875 C6.07257812 -0.23970703 6.07257812 -0.23970703 7.421875 -0.29296875 C10 0 10 0 14 3 C9.71 3 5.42 3 1 3 C0.67 2.01 0.34 1.02 0 0 Z " fill="#19677E" transform="translate(56,92)"/>
<path d="M0 0 C0.33 0 0.66 0 1 0 C1.05423638 1.91635217 1.09289963 3.83314925 1.125 5.75 C1.14820313 6.81734375 1.17140625 7.8846875 1.1953125 8.984375 C1.00487687 11.92470106 0.52670104 13.52361878 -1 16 C-1.66 15.67 -2.32 15.34 -3 15 C-2.01 10.05 -1.02 5.1 0 0 Z " fill="#3CA8BA" transform="translate(54,266)"/>
<path d="M0 0 C1.4540625 0.0309375 1.4540625 0.0309375 2.9375 0.0625 C3.2675 1.3825 3.5975 2.7025 3.9375 4.0625 C2.9475 4.5575 2.9475 4.5575 1.9375 5.0625 C1.9375 4.0725 1.9375 3.0825 1.9375 2.0625 C-0.53516765 2.40694881 -0.53516765 2.40694881 -3.0625 3.0625 C-3.3925 3.7225 -3.7225 4.3825 -4.0625 5.0625 C-4.7225 5.0625 -5.3825 5.0625 -6.0625 5.0625 C-3.64893617 0.07446809 -3.64893617 0.07446809 0 0 Z " fill="#DDF4F6" transform="translate(62.0625,268.9375)"/>
<path d="M0 0 C1.2065625 0.0309375 1.2065625 0.0309375 2.4375 0.0625 C1.4784375 0.866875 1.4784375 0.866875 0.5 1.6875 C-1.94779404 4.50617193 -2.22964612 6.40110732 -2.5625 10.0625 C-3.2225 9.4025 -3.8825 8.7425 -4.5625 8.0625 C-3.86352916 0.09423242 -3.86352916 0.09423242 0 0 Z " fill="#3696AC" transform="translate(233.5625,232.9375)"/>
<path d="M0 0 C0.639375 0.2475 1.27875 0.495 1.9375 0.75 C2.2675 1.74 2.5975 2.73 2.9375 3.75 C0.2975 3.75 -2.3425 3.75 -5.0625 3.75 C-4.7325 2.76 -4.4025 1.77 -4.0625 0.75 C-2.0625 -0.25 -2.0625 -0.25 0 0 Z " fill="#2D97AF" transform="translate(281.0625,232.25)"/>
<path d="M0 0 C2.23551759 3.35327639 2.17283528 3.90743657 1.625 7.6875 C1.51414063 8.49574219 1.40328125 9.30398438 1.2890625 10.13671875 C1.19367187 10.75160156 1.09828125 11.36648438 1 12 C0.34 12 -0.32 12 -1 12 C-1.08159574 7.83861737 -0.98248524 4.0527516 0 0 Z " fill="#D3EDF1" transform="translate(51,269)"/>
<path d="M0 0 C0.33 0 0.66 0 1 0 C1.36923077 5.41538462 1.36923077 5.41538462 -0.5 8.375 C-0.995 8.91125 -1.49 9.4475 -2 10 C-3.65 9.67 -5.3 9.34 -7 9 C-6.401875 8.814375 -5.80375 8.62875 -5.1875 8.4375 C-1.90018201 6.27726247 -1.35145313 3.64892345 0 0 Z " fill="#D7EFF2" transform="translate(99,271)"/>
<path d="M0 0 C0.66 0 1.32 0 2 0 C1.67 1.32 1.34 2.64 1 4 C-1.64 4 -4.28 4 -7 4 C-7.33 3.34 -7.66 2.68 -8 2 C-6.865625 1.855625 -5.73125 1.71125 -4.5625 1.5625 C-1.19222799 1.38828522 -1.19222799 1.38828522 0 0 Z " fill="#3E9CB0" transform="translate(180,247)"/>
<path d="M0 0 C-0.57344937 2.86724686 -0.8614515 3.8614515 -3 6 C-5.125 5.625 -5.125 5.625 -7 5 C-2.25 0 -2.25 0 0 0 Z " fill="#1A7D9C" transform="translate(291,245)"/>
<path d="M0 0 C1.65 0 3.3 0 5 0 C5.33 0.66 5.66 1.32 6 2 C5.38125 2.04125 4.7625 2.0825 4.125 2.125 C3.42375 2.41375 2.7225 2.7025 2 3 C0.6954344 5.99615946 0.6954344 5.99615946 0 9 C-0.33 9 -0.66 9 -1 9 C-1.125 2.25 -1.125 2.25 0 0 Z " fill="#2691A7" transform="translate(198,233)"/>
<path d="M0 0 C0.9075 0.185625 1.815 0.37125 2.75 0.5625 C5.68314324 0.95734621 7.2644657 0.94691572 10 0 C10.33 0.99 10.66 1.98 11 3 C7.7 3 4.4 3 1 3 C0.67 2.01 0.34 1.02 0 0 Z " fill="#3EAAB5" transform="translate(104,134)"/>
<path d="M0 0 C1.65 0 3.3 0 5 0 C5 0.66 5 1.32 5 2 C5.66 2.33 6.32 2.66 7 3 C5.02 3.33 3.04 3.66 1 4 C0.67 2.68 0.34 1.36 0 0 Z " fill="#1A7D95" transform="translate(60,59)"/>
<path d="M0 0 C4.83256305 0.41421969 6.82679218 2.46413986 10 6 C9.01 6.33 8.02 6.66 7 7 C4.66666667 4.66666667 2.33333333 2.33333333 0 0 Z " fill="#1991AC" transform="translate(64,37)"/>
<path d="M0 0 C0.33 0 0.66 0 1 0 C1.1875 2.875 1.1875 2.875 1 6 C-2 8 -2 8 -5 8 C-5 6 -5 6 -3.0625 4 C-2.381875 3.34 -1.70125 2.68 -1 2 C-0.67 1.34 -0.34 0.68 0 0 Z " fill="#1C83A0" transform="translate(312,242)"/>
<path d="M0 0 C0.66 0 1.32 0 2 0 C2 0.99 2 1.98 2 3 C2.66 3 3.32 3 4 3 C4 3.66 4 4.32 4 5 C3.01 5 2.02 5 1 5 C0.67 5.99 0.34 6.98 0 8 C0 6.68 0 5.36 0 4 C-0.66 3.67 -1.32 3.34 -2 3 C-1.34 3 -0.68 3 0 3 C0 2.01 0 1.02 0 0 Z " fill="#E8F5F7" transform="translate(76,295)"/>
<path d="M0 0 C2.26609984 4.53219967 1.92735976 6.17772925 1 11 C0.34 11 -0.32 11 -1 11 C-0.67 7.37 -0.34 3.74 0 0 Z " fill="#CFEDF1" transform="translate(178,270)"/>
<path d="M0 0 C1.65 0.33 3.3 0.66 5 1 C2.44931155 3.35448165 1.28982642 3.98327924 -2.25 4.1875 C-3.1575 4.125625 -4.065 4.06375 -5 4 C-4.0409375 3.8453125 -4.0409375 3.8453125 -3.0625 3.6875 C-2.381875 3.460625 -1.70125 3.23375 -1 3 C-0.67 2.01 -0.34 1.02 0 0 Z " fill="#3B99AE" transform="translate(176,232)"/>
<path d="M0 0 C1.125 1.75 1.125 1.75 2 4 C1.3125 6.1875 1.3125 6.1875 0 8 C-0.99 8.33 -1.98 8.66 -3 9 C-3.66 8.34 -4.32 7.68 -5 7 C-3.68 7 -2.36 7 -1 7 C-0.67 4.69 -0.34 2.38 0 0 Z " fill="#CCEBF0" transform="translate(173,272)"/>
<path d="M0 0 C0.33 0.66 0.66 1.32 1 2 C0.38125 2.433125 -0.2375 2.86625 -0.875 3.3125 C-3.2197245 4.99740483 -3.2197245 4.99740483 -5 8 C-5 6.02 -5 4.04 -5 2 C-3.35 1.34 -1.7 0.68 0 0 Z " fill="#30A2B6" transform="translate(110,270)"/>
<path d="M0 0 C0.66 0.33 1.32 0.66 2 1 C2 1.99 2 2.98 2 4 C0.02 4.33 -1.96 4.66 -4 5 C-4 4.01 -4 3.02 -4 2 C-2.68 2 -1.36 2 0 2 C0 1.34 0 0.68 0 0 Z " fill="#229AB2" transform="translate(311,233)"/>
<path d="M0 0 C0.33 1.32 0.66 2.64 1 4 C-0.65 4.33 -2.3 4.66 -4 5 C-4 4.01 -4 3.02 -4 2 C-2.68 1.34 -1.36 0.68 0 0 Z " fill="#205C64" transform="translate(126,136)"/>
<path d="M0 0 C0.33 0.99 0.66 1.98 1 3 C0 4 0 4 -2.5625 4.0625 C-3.7690625 4.0315625 -3.7690625 4.0315625 -5 4 C-4.67 3.01 -4.34 2.02 -4 1 C-1.9375 0.3125 -1.9375 0.3125 0 0 Z " fill="#35A9BD" transform="translate(88,304)"/>
<path d="M0 0 C0.89694794 3.58779175 1.08304117 6.34618837 1 10 C-0.98 10.99 -0.98 10.99 -3 12 C-2.01 8.04 -1.02 4.08 0 0 Z " fill="#38A7BA" transform="translate(59,299)"/>
<path d="M0 0 C0.33 0 0.66 0 1 0 C1 1.65 1 3.3 1 5 C-0.98 5.66 -2.96 6.32 -5 7 C-5.66 6.34 -6.32 5.68 -7 5 C-5.5459375 4.5978125 -5.5459375 4.5978125 -4.0625 4.1875 C-3.051875 3.795625 -2.04125 3.40375 -1 3 C-0.67 2.01 -0.34 1.02 0 0 Z " fill="#2D93AD" transform="translate(199,276)"/>
<path d="M0 0 C0.33 0.99 0.66 1.98 1 3 C0 4 0 4 -2.5625 4.0625 C-3.7690625 4.0315625 -3.7690625 4.0315625 -5 4 C-4.67 3.01 -4.34 2.02 -4 1 C-1.9375 0.3125 -1.9375 0.3125 0 0 Z " fill="#2391AF" transform="translate(261,275)"/>
<path d="M0 0 C2.0625 0.4375 2.0625 0.4375 4 1 C3.319375 1.61875 3.319375 1.61875 2.625 2.25 C0.94049626 4.06408095 0.00734029 5.75285627 -1 8 C-1.04241723 5.66705225 -1.04092937 3.33297433 -1 1 C-0.67 0.67 -0.34 0.34 0 0 Z " fill="#2390AD" transform="translate(231,271)"/>
<path d="M0 0 C1.65 0 3.3 0 5 0 C5 0.99 5 1.98 5 3 C3.02 3 1.04 3 -1 3 C-0.67 2.01 -0.34 1.02 0 0 Z " fill="#44B9C7" transform="translate(59,271)"/>
<path d="M0 0 C1.98 0 3.96 0 6 0 C6.33 0.99 6.66 1.98 7 3 C4.69 3 2.38 3 0 3 C0 2.01 0 1.02 0 0 Z " fill="#CFEAEF" transform="translate(193,269)"/>
<path d="M0 0 C0.66 0 1.32 0 2 0 C2 0.99 2 1.98 2 3 C2.66 3 3.32 3 4 3 C4 3.66 4 4.32 4 5 C2.68 5.33 1.36 5.66 0 6 C0 5.34 0 4.68 0 4 C-0.66 3.67 -1.32 3.34 -2 3 C-1.34 3 -0.68 3 0 3 C0 2.01 0 1.02 0 0 Z " fill="#E5F3F5" transform="translate(84,266)"/>
<path d="M0 0 C-1.04874998 2.62187494 -1.64931313 3.79371361 -4.125 5.25 C-4.74375 5.4975 -5.3625 5.745 -6 6 C-6 3 -6 3 -4.6875 1.3125 C-3 0 -3 0 0 0 Z " fill="#3093A9" transform="translate(85,245)"/>
<path d="M0 0 C0.33 0.66 0.66 1.32 1 2 C4.465 1.505 4.465 1.505 8 1 C6.3125 2.5625 6.3125 2.5625 4 4 C1.25 3.6875 1.25 3.6875 -1 3 C-0.67 2.01 -0.34 1.02 0 0 Z " fill="#2A7680" transform="translate(106,132)"/>
<path d="M0 0 C0.99 0 1.98 0 3 0 C3.33 1.65 3.66 3.3 4 5 C2.68 5 1.36 5 0 5 C0 3.35 0 1.7 0 0 Z " fill="#0F6183" transform="translate(106,40)"/>
</svg>
