<?xml version="1.0" encoding="UTF-8"?>
<svg version="1.1" xmlns="http://www.w3.org/2000/svg" width="350" height="350">
<path d="M0 0 C115.5 0 231 0 350 0 C350 115.5 350 231 350 350 C234.5 350 119 350 0 350 C0 234.5 0 119 0 0 Z " fill="#0A498C" transform="translate(0,0)"/>
<path d="M0 0 C1.96453125 0.02320313 1.96453125 0.02320313 3.96875 0.046875 C10.55701445 0.42584596 10.55701445 0.42584596 13.421875 2.9296875 C17.90047879 8.30783992 19.23790553 11.95872924 18.84375 18.96484375 C18.5 21.25 18.5 21.25 17.5 23.25 C18.63179688 23.31058594 19.76359375 23.37117188 20.9296875 23.43359375 C22.41147145 23.51799917 23.8932416 23.60264717 25.375 23.6875 C26.12136719 23.72681641 26.86773437 23.76613281 27.63671875 23.80664062 C33.2734375 24.13671875 33.2734375 24.13671875 35.5 25.25 C35.5 25.91 35.5 26.57 35.5 27.25 C36.098125 27.435625 36.69625 27.62125 37.3125 27.8125 C40.54635272 29.93760321 41.56144331 32.63555827 42.5 36.25 C43.22749661 40.67980608 43.43650473 44.48306713 41.29296875 48.52734375 C38.69161602 52.06386632 35.72675361 55.27145821 32.5 58.25 C33.7742414 62.31923123 33.7742414 62.31923123 35.5390625 66.1875 C37.24253322 69.84372984 37.24208485 73.32017678 36.5 77.25 C33.98487457 82.03630892 30.17576391 86.53153261 25.5 89.25 C20.02966005 90.55295432 14.97802731 90.29898395 9.5 89.25 C9.04560547 90.15492188 9.04560547 90.15492188 8.58203125 91.078125 C4.88043433 98.13963297 1.20396508 102.18546502 -6.46484375 104.765625 C-10.81024639 105.79984751 -14.00165656 105.04424384 -17.90234375 102.9765625 C-24.22804151 99.03924035 -24.22804151 99.03924035 -25.2578125 96.05078125 C-25.33773437 95.45652344 -25.41765625 94.86226563 -25.5 94.25 C-24.63375 95.03375 -23.7675 95.8175 -22.875 96.625 C-18.22933551 100.45658777 -13.59945017 101.7567239 -7.52734375 101.55859375 C-3.68778935 100.97415291 -1.59024014 99.66038731 1.5 97.25 C3.03644413 94.04221481 3.03644413 94.04221481 3.5 90.25 C3.73203125 89.12271484 3.73203125 89.12271484 3.96875 87.97265625 C4.69151403 83.79591412 4.97358896 81.99195603 2.625 78.3125 C1.92375 77.631875 1.2225 76.95125 0.5 76.25 C-0.9783226 73.29335481 -0.56032783 70.50770263 -0.5 67.25 C-1.799375 67.12625 -3.09875 67.0025 -4.4375 66.875 C-6.65234375 66.6640625 -6.65234375 66.6640625 -8.5 66.25 C-8.83 65.59 -9.16 64.93 -9.5 64.25 C-8.80132812 64.15203125 -8.10265625 64.0540625 -7.3828125 63.953125 C-6.47273438 63.80359375 -5.56265625 63.6540625 -4.625 63.5 C-3.72007813 63.36078125 -2.81515625 63.2215625 -1.8828125 63.078125 C0.62972097 62.48043461 0.62972097 62.48043461 1.71875 60.34375 C1.9765625 59.6528125 2.234375 58.961875 2.5 58.25 C3.48879205 56.57665961 4.48648336 54.90848177 5.5 53.25 C4.51 52.92 3.52 52.59 2.5 52.25 C2.83 51.26 3.16 50.27 3.5 49.25 C3.72560676 46.85745424 3.90848595 44.46071877 4.0625 42.0625 C4.14628906 40.79019531 4.23007813 39.51789063 4.31640625 38.20703125 C4.40728516 36.74330078 4.40728516 36.74330078 4.5 35.25 C2.52 35.25 0.54 35.25 -1.5 35.25 C-1.5 34.26 -1.5 33.27 -1.5 32.25 C-4.47 31.26 -7.44 30.27 -10.5 29.25 C-10.5 29.91 -10.5 30.57 -10.5 31.25 C-13.47 31.25 -16.44 31.25 -19.5 31.25 C-19.5 31.91 -19.5 32.57 -19.5 33.25 C-22.47 33.745 -22.47 33.745 -25.5 34.25 C-25.4175 35.136875 -25.335 36.02375 -25.25 36.9375 C-25.55391197 40.96433365 -26.68236593 42.43236593 -29.5 45.25 C-30.16 45.25 -30.82 45.25 -31.5 45.25 C-31.83 47.56 -32.16 49.87 -32.5 52.25 C-33.16 52.25 -33.82 52.25 -34.5 52.25 C-34.231875 53.4875 -33.96375 54.725 -33.6875 56 C-33.53667969 56.69609375 -33.38585937 57.3921875 -33.23046875 58.109375 C-32.60562393 60.34358645 -32.60562393 60.34358645 -30.95703125 62.15234375 C-28.08621245 66.28539923 -28.83375427 71.4480025 -29.5 76.25 C-31.18329823 80.364729 -33.6649544 82.62857071 -37.1875 85.25 C-41.8581269 86.66000057 -45.83171318 86.77078712 -50.5 85.25 C-53.61221119 82.73894027 -55.72042156 79.80915689 -57.5 76.25 C-58.60069549 65.60470215 -58.60069549 65.60470215 -55.0625 61.25 C-54.216875 60.59 -53.37125 59.93 -52.5 59.25 C-52.355625 58.528125 -52.21125 57.80625 -52.0625 57.0625 C-51.876875 56.464375 -51.69125 55.86625 -51.5 55.25 C-49.50945124 54.55562253 -47.50744615 53.89389782 -45.5 53.25 C-40.11334893 49.80254331 -38.41282027 46.4642593 -36.359375 40.45703125 C-35.5 38.25 -35.5 38.25 -33.5 36.25 C-34.28375 36.1675 -35.0675 36.085 -35.875 36 C-38.5 35.25 -38.5 35.25 -39.625 33.375 C-40.058125 32.323125 -40.058125 32.323125 -40.5 31.25 C-41.015625 30.755 -41.53125 30.26 -42.0625 29.75 C-43.78866289 27.94878655 -43.97430111 26.65319494 -44.5 24.25 C-45.16 23.26 -45.82 22.27 -46.5 21.25 C-47.23925113 16.38800218 -47.61597115 11.39136023 -45.296875 6.94140625 C-42.00912312 2.94795005 -39.5669901 1.54978099 -34.421875 1.046875 C-27.50273111 0.89754096 -22.34245889 2.35502741 -16.5 6.25 C-16.5 6.91 -16.5 7.57 -16.5 8.25 C-15.7575 7.486875 -15.015 6.72375 -14.25 5.9375 C-9.28548146 1.08581143 -7.1586035 -0.14091739 0 0 Z " fill="#258CA9" transform="translate(104.5,39.75)"/>
<path d="M0 0 C3.02346601 -0.2519555 4.6402007 -0.20421041 7.3125 1.3125 C9 3 9 3 9 6 C9.61875 5.814375 10.2375 5.62875 10.875 5.4375 C13 5 13 5 15 6 C15.05398987 8.27057377 15.09278742 10.54151288 15.125 12.8125 C15.14820313 14.07707031 15.17140625 15.34164062 15.1953125 16.64453125 C15 20 15 20 13 23 C14.32 23.33 15.64 23.66 17 24 C14.61565968 28.39220586 11.93896488 32.81463787 7.12109375 34.7578125 C5.43266233 35.24217061 3.71704665 35.6296566 2 36 C4.64 36.66 7.28 37.32 10 38 C10.14695312 38.87011719 10.14695312 38.87011719 10.296875 39.7578125 C11.08668077 43.88386679 11.61073976 46.50261192 14.25 49.875 C16.62201282 54.11073718 15.78099613 56.70388137 14.7734375 61.31640625 C12.71047957 68.47424512 12.71047957 68.47424512 8.875 71.3125 C3.57611715 74.01690909 -0.88155777 73.56743988 -6.5 72.0625 C-11.41580157 69.74651034 -14.65789362 65.14073959 -18 61 C-19.155 61.350625 -20.31 61.70125 -21.5 62.0625 C-27.61818266 63.56237194 -32.49784588 63.04837587 -38 59.9375 C-39.485 58.9784375 -39.485 58.9784375 -41 58 C-40.67 57.01 -40.34 56.02 -40 55 C-39.35933594 55.11859375 -38.71867187 55.2371875 -38.05859375 55.359375 C-33.63977247 56.01791766 -30.10283897 56.54256382 -26.0625 54.375 C-22.21655741 51.39243228 -20.29428244 48.96983654 -19.56640625 44.09765625 C-19.55812124 37.66020451 -20.00017963 34.24976423 -24 29 C-24.25 25.625 -24.25 25.625 -24 23 C-23.34 23 -22.68 23 -22 23 C-21.67 20.69 -21.34 18.38 -21 16 C-20.34 16 -19.68 16 -19 16 C-17.03698408 12.49461443 -16.04097612 8.86648272 -15 5 C-13.02 4.67 -11.04 4.34 -9 4 C-9 3.34 -9 2.68 -9 2 C-6.03 2 -3.06 2 0 2 C0 1.34 0 0.68 0 0 Z " fill="#4777D9" transform="translate(94,69)"/>
<path d="M0 0 C1.22203125 0.07927734 1.22203125 0.07927734 2.46875 0.16015625 C8.41729006 0.58364503 8.41729006 0.58364503 10.75 1.75 C10.75 2.41 10.75 3.07 10.75 3.75 C11.348125 3.935625 11.94625 4.12125 12.5625 4.3125 C15.79635272 6.43760321 16.81144331 9.13555827 17.75 12.75 C18.47749661 17.17980608 18.68650473 20.98306713 16.54296875 25.02734375 C13.94161602 28.56386632 10.97675361 31.77145821 7.75 34.75 C9.0242414 38.81923123 9.0242414 38.81923123 10.7890625 42.6875 C12.49253322 46.34372984 12.49208485 49.82017678 11.75 53.75 C9.23487457 58.53630892 5.42576391 63.03153261 0.75 65.75 C-4.72033995 67.05295432 -9.77197269 66.79898395 -15.25 65.75 C-15.55292969 66.35328125 -15.85585937 66.9565625 -16.16796875 67.578125 C-19.86956567 74.63963297 -23.54603492 78.68546502 -31.21484375 81.265625 C-35.56024639 82.29984751 -38.75165656 81.54424384 -42.65234375 79.4765625 C-48.97804151 75.53924035 -48.97804151 75.53924035 -50.0078125 72.55078125 C-50.08773437 71.95652344 -50.16765625 71.36226563 -50.25 70.75 C-49.38375 71.53375 -48.5175 72.3175 -47.625 73.125 C-42.97933551 76.95658777 -38.34945017 78.2567239 -32.27734375 78.05859375 C-28.43778935 77.47415291 -26.34024014 76.16038731 -23.25 73.75 C-21.71355587 70.54221481 -21.71355587 70.54221481 -21.25 66.75 C-21.0953125 65.99847656 -20.940625 65.24695313 -20.78125 64.47265625 C-20.05848597 60.29591412 -19.77641104 58.49195603 -22.125 54.8125 C-22.82625 54.131875 -23.5275 53.45125 -24.25 52.75 C-25.7283226 49.79335481 -25.31032783 47.00770263 -25.25 43.75 C-27.1990625 43.564375 -27.1990625 43.564375 -29.1875 43.375 C-31.40234375 43.1640625 -31.40234375 43.1640625 -33.25 42.75 C-33.58 42.09 -33.91 41.43 -34.25 40.75 C-33.55132812 40.65203125 -32.85265625 40.5540625 -32.1328125 40.453125 C-31.22273438 40.30359375 -30.31265625 40.1540625 -29.375 40 C-28.47007813 39.86078125 -27.56515625 39.7215625 -26.6328125 39.578125 C-24.12027903 38.98043461 -24.12027903 38.98043461 -23.03125 36.84375 C-22.7734375 36.1528125 -22.515625 35.461875 -22.25 34.75 C-21.26120795 33.07665961 -20.26351664 31.40848177 -19.25 29.75 C-20.24 29.42 -21.23 29.09 -22.25 28.75 C-21.92 27.76 -21.59 26.77 -21.25 25.75 C-21.05555578 22.35082702 -20.90509591 18.95813579 -20.8203125 15.5546875 C-20.5817876 10.16800012 -20.5817876 10.16800012 -18.76171875 7.875 C-18.26285156 7.50375 -17.76398438 7.1325 -17.25 6.75 C-16.981875 6.09 -16.71375 5.43 -16.4375 4.75 C-12.85254323 -1.28782193 -6.06416907 -0.51838865 0 0 Z " fill="#1A4DB8" transform="translate(129.25,63.25)"/>
<path d="M0 0 C3.02346601 -0.2519555 4.6402007 -0.20421041 7.3125 1.3125 C9 3 9 3 9 6 C9.61875 5.814375 10.2375 5.62875 10.875 5.4375 C13 5 13 5 15 6 C15.05398987 8.27057377 15.09278742 10.54151288 15.125 12.8125 C15.14820313 14.07707031 15.17140625 15.34164062 15.1953125 16.64453125 C15 20 15 20 13 23 C14.32 23.33 15.64 23.66 17 24 C14.61565968 28.39220586 11.93896488 32.81463787 7.12109375 34.7578125 C5.43266233 35.24217061 3.71704665 35.6296566 2 36 C2.33 36.99 2.66 37.98 3 39 C-3.625 39.25 -3.625 39.25 -7 37 C-8.7015625 36.566875 -8.7015625 36.566875 -10.4375 36.125 C-14.14208019 34.95513257 -15.71972478 34.1011743 -18 31 C-18 29.68 -18 28.36 -18 27 C-19.98 27 -21.96 27 -24 27 C-24 25.68 -24 24.36 -24 23 C-23.34 23 -22.68 23 -22 23 C-21.67 20.69 -21.34 18.38 -21 16 C-20.34 16 -19.68 16 -19 16 C-17.03698408 12.49461443 -16.04097612 8.86648272 -15 5 C-13.02 4.67 -11.04 4.34 -9 4 C-9 3.34 -9 2.68 -9 2 C-6.03 2 -3.06 2 0 2 C0 1.34 0 0.68 0 0 Z " fill="#052B92" transform="translate(94,69)"/>
<path d="M0 0 C1.96453125 0.02320313 1.96453125 0.02320313 3.96875 0.046875 C10.55701445 0.42584596 10.55701445 0.42584596 13.421875 2.9296875 C17.84494803 8.24115554 19.25590608 11.94790614 19.0390625 18.8671875 C18.41463135 21.62735417 17.72151355 22.54438296 15.5 24.25 C14.51 24.70375 13.52 25.1575 12.5 25.625 C9.10633694 27.46323416 8.19697599 28.85604801 6.5 32.25 C5.84 33.24 5.18 34.23 4.5 35.25 C1.375 35.4375 1.375 35.4375 -1.5 35.25 C-1.83 34.363125 -2.16 33.47625 -2.5 32.5625 C-5.10410373 28.2494532 -8.20842923 26.66521135 -12.5 24.25 C-12.83 23.92 -13.16 23.59 -13.5 23.25 C-13.83 24.9 -14.16 26.55 -14.5 28.25 C-16.98046875 26.796875 -16.98046875 26.796875 -19.5 24.25 C-20.1295563 21.31455404 -19.97339855 18.48528703 -19.8125 15.5 C-19.78994141 14.70722656 -19.76738281 13.91445313 -19.74414062 13.09765625 C-19.68540471 11.1476238 -19.59572654 9.19856688 -19.5 7.25 C-17.52 8.24 -17.52 8.24 -15.5 9.25 C-14.9225 8.321875 -14.345 7.39375 -13.75 6.4375 C-9.65900517 0.64192399 -7.11496087 -0.14005828 0 0 Z " fill="#DF50E1" transform="translate(104.5,39.75)"/>
<path d="M0 0 C3.8169929 2.31186952 7.96463125 4.92926249 10 9 C10.52657873 14.28305214 10.64191122 18.66862857 8.3125 23.5 C5.21674789 26.84675904 3.19200174 28.78183869 -1.47265625 29.24609375 C-4.03725143 29.30882486 -6.45705625 29.34656048 -9 29 C-9.66 28.34 -10.32 27.68 -11 27 C-13.5 26.66666667 -13.5 26.66666667 -16 27 C-16.66 27.66 -17.32 28.32 -18 29 C-18.99 29 -19.98 29 -21 29 C-20.505 27.515 -20.505 27.515 -20 26 C-19.80555578 22.60082702 -19.65509591 19.20813579 -19.5703125 15.8046875 C-19.3317876 10.41800012 -19.3317876 10.41800012 -17.51171875 8.125 C-17.01285156 7.75375 -16.51398438 7.3825 -16 7 C-15.731875 6.34 -15.46375 5.68 -15.1875 5 C-12.16622616 -0.08846121 -5.46181027 -1.41967632 0 0 Z " fill="#3DBB35" transform="translate(128,63)"/>
<path d="M0 0 C0.33 0 0.66 0 1 0 C1.10957031 0.60328125 1.21914062 1.2065625 1.33203125 1.828125 C1.49058594 2.62734375 1.64914063 3.4265625 1.8125 4.25 C1.96332031 5.03890625 2.11414063 5.8278125 2.26953125 6.640625 C2.86518169 9.07209383 2.86518169 9.07209383 4.54296875 10.93359375 C7.43214847 15.03111673 6.66289653 20.222142 6 25 C4.31670177 29.114729 1.8350456 31.37857071 -1.6875 34 C-6.3581269 35.41000057 -10.33171318 35.52078712 -15 34 C-18.7304779 30.99009731 -21.70024735 27.24473861 -22.34375 22.42578125 C-22.60943255 17.1320564 -22.79862049 12.94460723 -19.25 8.75 C-15.01502383 5.14372132 -10.72153851 5.43269278 -5.37890625 5.75390625 C-4.59386719 5.83511719 -3.80882813 5.91632813 -3 6 C-2.690625 5.195625 -2.38125 4.39125 -2.0625 3.5625 C-1 1 -1 1 0 0 Z " fill="#F9AF09" transform="translate(69,91)"/>
<path d="M0 0 C4.59975571 3.07596833 4.59975571 3.07596833 5.5859375 6.19140625 C5.6890625 6.7946875 5.7921875 7.39796875 5.8984375 8.01953125 C7.8784375 8.01953125 9.8584375 8.01953125 11.8984375 8.01953125 C10.92339502 9.9696162 9.94692547 11.91869387 8.9609375 13.86328125 C8.10776259 15.59472444 7.33338677 17.36489012 6.5859375 19.14453125 C4.29963546 23.0397125 1.89794389 25.84069568 -2.1015625 28.01953125 C-7.04817529 29.05268455 -10.87806737 28.56330686 -15.4765625 26.51953125 C-19.36531792 22.81595466 -21.8353095 19.1666417 -22.296875 13.7109375 C-21.96839736 7.98190107 -20.27354206 4.90705766 -16.1015625 1.01953125 C-11.4138269 -1.84519606 -5.01015306 -2.33745059 0 0 Z " fill="#D32B0B" transform="translate(60.1015625,66.98046875)"/>
<path d="M0 0 C3.3396725 2.83011422 5.6954025 4.83021156 6.16796875 9.33984375 C6.47604325 18.86645516 6.47604325 18.86645516 3.76953125 22.29296875 C-0.81720344 26.18172208 -4.0350921 28.02838802 -10.10546875 27.85546875 C-14.11258613 27.32964792 -16.02177239 26.34725322 -18.66796875 23.29296875 C-21.88524471 18.92731667 -22.20702624 16.21457299 -22.10546875 10.73046875 C-23.40484375 10.60671875 -24.70421875 10.48296875 -26.04296875 10.35546875 C-28.2578125 10.14453125 -28.2578125 10.14453125 -30.10546875 9.73046875 C-30.43546875 9.07046875 -30.76546875 8.41046875 -31.10546875 7.73046875 C-27.80546875 7.07046875 -24.50546875 6.41046875 -21.10546875 5.73046875 C-20.77546875 4.74046875 -20.44546875 3.75046875 -20.10546875 2.73046875 C-14.54956117 -1.17368252 -6.24875004 -3.76779919 0 0 Z " fill="#F87A0A" transform="translate(126.10546875,96.26953125)"/>
<path d="M0 0 C3.90771693 2.00170806 6.34311063 4.96648651 8 9 C8.63501259 13.53580418 8.46672847 17.08449416 6.375 21.1875 C4.62376367 24.01250165 4.62376367 24.01250165 5.8125 27.375 C6.204375 28.24125 6.59625 29.1075 7 30 C5.02 30 3.04 30 1 30 C1 29.34 1 28.68 1 28 C-0.17755859 28.13921875 -0.17755859 28.13921875 -1.37890625 28.28125 C-9.54089001 28.84207342 -9.54089001 28.84207342 -13.35546875 26.640625 C-17.25438102 22.74975173 -18.46201791 19.35489806 -18.6875 13.875 C-18.36692317 8.69343165 -17.56946523 5.76776885 -14 2 C-9.5570978 -0.71300624 -5.06187463 -0.79041891 0 0 Z " fill="#EFF6FB" transform="translate(76,226)"/>
<path d="M0 0 C0.33 0 0.66 0 1 0 C1.16918268 1.58306647 1.33523936 3.16646719 1.5 4.75 C1.5928125 5.63171875 1.685625 6.5134375 1.78125 7.421875 C2.18752614 12.21012953 1.52941131 15.50735427 0 20 C0 20.99 0 21.98 0 23 C-0.41437931 25.48627584 -1.05028709 27.08228796 -2.375 29.25 C-3.74215301 31.56364356 -4.57403797 33.48982622 -5.4375 36 C-6.71879681 39.60661324 -8.54285587 42.05142704 -11 45 C-11.10183594 45.60585938 -11.20367187 46.21171875 -11.30859375 46.8359375 C-12.62616576 50.95986346 -16.5368569 53.5072154 -19.65234375 56.3671875 C-22.16290962 58.80316311 -22.16290962 58.80316311 -22.828125 61.8359375 C-24.60637071 66.63720092 -28.07459003 69.36158294 -31.8125 72.75 C-32.52470703 73.42160156 -33.23691406 74.09320313 -33.97070312 74.78515625 C-37.55617619 78.09533397 -40.38169712 80.30256617 -45 82 C-47.12406831 83.29740389 -49.17142372 84.6765878 -51.23046875 86.07421875 C-52.10638672 86.53248047 -52.10638672 86.53248047 -53 87 C-53.66 86.67 -54.32 86.34 -55 86 C-54.38125 85.4225 -53.7625 84.845 -53.125 84.25 C-50.97835189 82.20350686 -50.97835189 82.20350686 -50.0625 80.0625 C-47.57179246 75.22759714 -42.74766492 71.88105179 -38.640625 68.42578125 C-36.83571384 66.89715243 -36.83571384 66.89715243 -34.6875 64.625 C-33 63 -33 63 -31 63 C-30.34 61.68 -29.68 60.36 -29 59 C-28.34 59 -27.68 59 -27 59 C-26.814375 58.319375 -26.62875 57.63875 -26.4375 56.9375 C-25.06620034 54.13527895 -24.09641929 53.00205369 -21.875 50.9375 C-13.31844693 42.66676082 -8.93389798 33.37604559 -6 22 C-5.48629581 20.31031612 -4.96595625 18.62262836 -4.4375 16.9375 C-2.75984967 11.34225962 -1.37509366 5.67591851 0 0 Z " fill="#076FB2" transform="translate(285,227)"/>
<path d="M0 0 C2.31 0 4.62 0 7 0 C7 9.24 7 18.48 7 28 C5.02 28 3.04 28 1 28 C0.67 27.34 0.34 26.68 0 26 C-0.66 26.66 -1.32 27.32 -2 28 C-8.95327103 28.78504673 -8.95327103 28.78504673 -12.5 26.125 C-14.6385289 21.66973145 -14.88198851 17.85093678 -14 13 C-12.67404442 10.02540053 -11.65251512 9.1445867 -9 7 C-5.25 6.5625 -5.25 6.5625 -2 7 C-1.67 7.33 -1.34 7.66 -1 8 C-0.67 5.36 -0.34 2.72 0 0 Z " fill="#E5F1F7" transform="translate(209,226)"/>
<path d="M0 0 C1.98 0 3.96 0 6 0 C6 9.24 6 18.48 6 28 C3 28 0 28 -3 28 C-4.134375 28.103125 -5.26875 28.20625 -6.4375 28.3125 C-10 28 -10 28 -12.4375 26.1875 C-14.75115771 21.46763828 -14.88893079 17.1557986 -14 12 C-11.875 8.8125 -11.875 8.8125 -9 7 C-5.8125 6.5625 -5.8125 6.5625 -3 7 C-2.34 7.66 -1.68 8.32 -1 9 C-0.67 6.03 -0.34 3.06 0 0 Z " fill="#F0F3F8" transform="translate(51,278)"/>
<path d="M0 0 C3.05448544 0.17967561 4.62545344 0.61085596 7.1875 2.1875 C7.8475 1.5275 8.5075 0.8675 9.1875 0.1875 C12.61887763 -0.26007099 14.46734988 -0.30034363 17.3671875 1.6640625 C20.02839886 5.35320957 19.62827613 8.51296132 19.4375 12.9375 C19.41945313 13.73027344 19.40140625 14.52304687 19.3828125 15.33984375 C19.33583082 17.28958348 19.26409044 19.23869878 19.1875 21.1875 C17.2075 21.1875 15.2275 21.1875 13.1875 21.1875 C12.8575 16.2375 12.5275 11.2875 12.1875 6.1875 C10.8675 6.1875 9.5475 6.1875 8.1875 6.1875 C7.8575 11.1375 7.5275 16.0875 7.1875 21.1875 C5.2075 21.1875 3.2275 21.1875 1.1875 21.1875 C0.8575 16.2375 0.5275 11.2875 0.1875 6.1875 C-1.1325 6.1875 -2.4525 6.1875 -3.8125 6.1875 C-4.1425 11.1375 -4.4725 16.0875 -4.8125 21.1875 C-6.7925 21.1875 -8.7725 21.1875 -10.8125 21.1875 C-10.8125 14.5875 -10.8125 7.9875 -10.8125 1.1875 C-8.47916667 1.1875 -6.14583333 1.1875 -3.8125 1.1875 C-2.8125 0.1875 -2.8125 0.1875 0 0 Z " fill="#F2F5F9" transform="translate(103.8125,284.8125)"/>
<path d="M0 0 C1.84121215 1.09097798 3.67281256 2.19819251 5.5 3.3125 C6.5209375 3.92738281 7.541875 4.54226562 8.59375 5.17578125 C9.3878125 5.77777344 10.181875 6.37976563 11 7 C11 7.99 11 8.98 11 10 C10.34 9.34 9.68 8.68 9 8 C6.42938689 7.35232207 6.42938689 7.35232207 4 7 C4 7.66 4 8.32 4 9 C1.03 9 -1.94 9 -5 9 C-5 9.66 -5 10.32 -5 11 C-6.98 11.33 -8.96 11.66 -11 12 C-10.87625 13.3303125 -10.87625 13.3303125 -10.75 14.6875 C-11.05391197 18.71433365 -12.18236593 20.18236593 -15 23 C-15.66 23 -16.32 23 -17 23 C-17.33 25.31 -17.66 27.62 -18 30 C-18.928125 30.12375 -18.928125 30.12375 -19.875 30.25 C-20.57625 30.4975 -21.2775 30.745 -22 31 C-22.2371875 31.66 -22.474375 32.32 -22.71875 33 C-23.1415625 33.66 -23.564375 34.32 -24 35 C-27.0390625 35.609375 -27.0390625 35.609375 -30.625 35.75 C-32.40777344 35.83507812 -32.40777344 35.83507812 -34.2265625 35.921875 C-35.14179687 35.94765625 -36.05703125 35.9734375 -37 36 C-37 35.01 -37 34.02 -37 33 C-36.13375 32.773125 -35.2675 32.54625 -34.375 32.3125 C-29.40740047 30.38065574 -26.12269516 28.32977591 -23.8046875 23.51953125 C-23.12007751 21.76236562 -22.4693509 19.9914783 -21.859375 18.20703125 C-21 16 -21 16 -19 14 C-21.475 13.505 -21.475 13.505 -24 13 C-22.68 12.67 -21.36 12.34 -20 12 C-20 11.34 -20 10.68 -20 10 C-18.84371094 9.92652344 -18.84371094 9.92652344 -17.6640625 9.8515625 C-16.66117188 9.77679688 -15.65828125 9.70203125 -14.625 9.625 C-13.62726563 9.55539063 -12.62953125 9.48578125 -11.6015625 9.4140625 C-8.84491121 9.23636036 -8.84491121 9.23636036 -7 7 C-6.01 7 -5.02 7 -4 7 C-3.67 6.34 -3.34 5.68 -3 5 C-2.01 5.33 -1.02 5.66 0 6 C0 4.02 0 2.04 0 0 Z " fill="#3F4982" transform="translate(90,62)"/>
<path d="M0 0 C2.89305092 1.28580041 4.49900353 2.28429075 6.3125 4.875 C7 7 7 7 7 12 C2.38 12 -2.24 12 -7 12 C-6.34 13.32 -5.68 14.64 -5 16 C-3.33388095 16.042721 -1.66617115 16.04063832 0 16 C0.33 15.67 0.66 15.34 1 15 C2.66617115 14.95936168 4.33388095 14.957279 6 15 C5.6875 16.875 5.6875 16.875 5 19 C0.74070434 21.83953044 -3.00382943 21.73987876 -8 21 C-11.125 19.125 -11.125 19.125 -13 16 C-13.90577606 11.02231176 -13.7892183 7.28905656 -11.125 2.9375 C-7.45699529 -0.40685724 -4.91549687 -0.33325402 0 0 Z " fill="#F1F6FA" transform="translate(124,233)"/>
<path d="M0 0 C2.94445338 1.28019712 4.47843534 2.25490763 6.3125 4.875 C7 7 7 7 7 12 C2.38 12 -2.24 12 -7 12 C-6.34 13.32 -5.68 14.64 -5 16 C-3.33388095 16.042721 -1.66617115 16.04063832 0 16 C0.33 15.67 0.66 15.34 1 15 C2.66617115 14.95936168 4.33388095 14.957279 6 15 C5.6875 16.875 5.6875 16.875 5 19 C1.66602694 21.22264871 0.40485109 21.29675463 -3.5 21.3125 C-4.4590625 21.32925781 -5.418125 21.34601563 -6.40625 21.36328125 C-9 21 -9 21 -10.79296875 19.75 C-13.03200516 16.50375951 -13.00658708 12.8534438 -13 9 C-12.31959858 5.93819362 -11.47415958 3.79026597 -9.875 1.125 C-6.75201224 -0.74879265 -3.48788669 -0.50410862 0 0 Z " fill="#F1F8FC" transform="translate(265,233)"/>
<path d="M0 0 C1.98 0 3.96 0 6 0 C6.33 5.28 6.66 10.56 7 16 C8.65 15.67 10.3 15.34 12 15 C12.33 10.05 12.66 5.1 13 0 C15.31 0 17.62 0 20 0 C20 6.93 20 13.86 20 21 C18.02 21 16.04 21 14 21 C13.67 20.34 13.34 19.68 13 19 C12.34 19.66 11.68 20.32 11 21 C5.31651376 21.5412844 5.31651376 21.5412844 3 21 C0.90240721 19.22221957 0.0984775 17.81708305 -0.23168945 15.07763672 C-0.2956771 12.79396596 -0.26133779 10.53329172 -0.1875 8.25 C-0.17396484 7.45722656 -0.16042969 6.66445312 -0.14648438 5.84765625 C-0.11125223 3.89814436 -0.05744821 1.94898374 0 0 Z " fill="#E4EDF6" transform="translate(88,233)"/>
<path d="M0 0 C3.0625 2.0625 3.0625 2.0625 5 5 C5 7.31 5 9.62 5 12 C0.38 12 -4.24 12 -9 12 C-8.34 13.32 -7.68 14.64 -7 16 C-1.06 15.505 -1.06 15.505 5 15 C3 20 3 20 1 21 C-0.80843663 21.14716542 -2.62331566 21.2210887 -4.4375 21.25 C-5.88962891 21.28867188 -5.88962891 21.28867188 -7.37109375 21.328125 C-10 21 -10 21 -11.78515625 19.671875 C-14.87969542 15.41315228 -14.67947794 10.02014288 -14 5 C-10.56978004 -0.53261284 -6.0805673 -1.35245891 0 0 Z " fill="#EDF5FA" transform="translate(178,233)"/>
<path d="M0 0 C2.8100346 1.79363911 4.50940468 3.01880935 6 6 C6 7.98 6 9.96 6 12 C1.38 12 -3.24 12 -8 12 C-7.34 13.32 -6.68 14.64 -6 16 C-4.33388095 16.042721 -2.66617115 16.04063832 -1 16 C-0.67 15.67 -0.34 15.34 0 15 C1.99958364 14.95919217 4.00045254 14.95745644 6 15 C4.84826645 17.46800047 3.95216435 19.04783565 2 21 C-2.87792668 21.82018236 -6.82370013 21.68225393 -11.125 19.1875 C-13.88703338 14.49204325 -13.97173162 10.31266388 -13 5 C-9.73232243 -0.20786113 -5.80755856 -1.30230101 0 0 Z " fill="#F6F8FB" transform="translate(74,285)"/>
<path d="M0 0 C3 1.3125 3 1.3125 5 3 C5 3.99 5 4.98 5 6 C1.50765756 6.09978121 -1.59437148 5.77842938 -5 5 C-5.33 5.99 -5.66 6.98 -6 8 C-4.14375 8.1546875 -4.14375 8.1546875 -2.25 8.3125 C1.25057843 8.76558905 3.6109504 9.21277547 6 12 C6.6444576 15.14173081 6.2663334 16.53074591 4.6875 19.3125 C0.38183825 22.01605506 -4.06103577 21.76445273 -9 21 C-11.6875 19.125 -11.6875 19.125 -13 17 C-13 16.34 -13 15.68 -13 15 C-11.00045254 14.95745644 -8.99958364 14.95919217 -7 15 C-6.67 15.33 -6.34 15.66 -6 16 C-4.33382885 16.04063832 -2.66611905 16.042721 -1 16 C-1 15.34 -1 14.68 -1 14 C-1.62648437 13.89042969 -2.25296875 13.78085938 -2.8984375 13.66796875 C-3.71570313 13.50941406 -4.53296875 13.35085937 -5.375 13.1875 C-6.59316406 12.96126953 -6.59316406 12.96126953 -7.8359375 12.73046875 C-10 12 -10 12 -12 9 C-12.375 6 -12.375 6 -12 3 C-8.92635324 -0.84205845 -4.56414345 -0.67784309 0 0 Z " fill="#F0F6FA" transform="translate(155,233)"/>
<path d="M0 0 C-2.28083419 2.65735285 -3.88059909 3.46840623 -7.3125 4.0625 C-8.64667969 4.29453125 -8.64667969 4.29453125 -10.0078125 4.53125 C-10.99523437 4.6859375 -11.98265625 4.840625 -13 5 C-14.06992187 5.1753125 -15.13984375 5.350625 -16.2421875 5.53125 C-23.66825397 6.6763124 -31.02100211 7.32953219 -38.52734375 7.65625 C-42.04727751 7.89552538 -42.04727751 7.89552538 -45.5 9.03125 C-49.22778885 10.0630487 -52.21035163 10.13651024 -56.0625 10 C-60.93356403 9.82776348 -64.42683802 10.33939083 -69 12 C-69.99 12 -70.98 12 -72 12 C-72.99 12.495 -72.99 12.495 -74 13 C-76.625 12.0625 -76.625 12.0625 -79 11 C-76.37685341 7.61409448 -73.7518504 7.3355028 -69.625 6.75 C-68.50351562 6.57984375 -67.38203125 6.4096875 -66.2265625 6.234375 C-63 6 -63 6 -60.46875 6.578125 C-57.11730848 7.15083969 -55.02750323 6.20095361 -51.875 5 C-46.31855309 2.89381564 -46.31855309 2.89381564 -43 4 C-43.33 4.33 -43.66 4.66 -44 5 C-42.56208484 4.85831863 -41.1246763 4.71148957 -39.6875 4.5625 C-38.88699219 4.48128906 -38.08648437 4.40007812 -37.26171875 4.31640625 C-34.83912821 4.04734307 -34.83912821 4.04734307 -32 3 C-30.824375 3.04125 -29.64875 3.0825 -28.4375 3.125 C-25.07434753 3.18603725 -22.54080876 2.61611709 -19.375 1.5 C-12.9972659 -0.62258963 -6.64676025 -0.25859154 0 0 Z " fill="#068FD0" transform="translate(344,64)"/>
<path d="M0 0 C2.9375 1.1875 2.9375 1.1875 5 3 C5.8125 5.6875 5.8125 5.6875 6 8 C3.625 8.125 3.625 8.125 1 8 C0.34 7.34 -0.32 6.68 -1 6 C-3.58354218 5.83312552 -3.58354218 5.83312552 -6 6 C-6 8.97 -6 11.94 -6 15 C-4.35 15.33 -2.7 15.66 -1 16 C-0.34 15.01 0.32 14.02 1 13 C3.625 12.8125 3.625 12.8125 6 13 C5.67913025 15.96804523 5.47344077 17.55215063 3.265625 19.640625 C0.63060123 21.22163926 -0.94677431 21.43284569 -4 21.4375 C-5.2684375 21.46650391 -5.2684375 21.46650391 -6.5625 21.49609375 C-9.87114575 20.8226995 -11.01173834 19.70511791 -13 17 C-14.09687969 11.50047216 -13.95416942 6.55052531 -11 1.75 C-7.13020909 -0.50737803 -4.37138645 -0.80362862 0 0 Z " fill="#EDF6FB" transform="translate(243,233)"/>
<path d="M0 0 C4 0 4 0 6.25 1.75 C8.87806275 6.63068797 8.80234747 11.56427657 8 17 C5.7822131 21.44843054 3.03877927 24.09207892 -1 27 C-3.875 27.8125 -3.875 27.8125 -6 28 C-5.67 29.32 -5.34 30.64 -5 32 C-5.9590625 31.2575 -5.9590625 31.2575 -6.9375 30.5 C-11.04763611 28.48687211 -14.49702039 28.50057862 -19 29 C-21.78566059 29.91257306 -21.78566059 29.91257306 -24 31 C-24.99 31 -25.98 31 -27 31 C-26.319375 29.88625 -26.319375 29.88625 -25.625 28.75 C-24.31359204 26.53069422 -23.11719197 24.32032178 -22 22 C-19.625 21.875 -19.625 21.875 -17 22 C-16.34 22.66 -15.68 23.32 -15 24 C-10.49353347 24.61415562 -6.28768477 24.52055342 -2.0625 22.8125 C1.21863504 19.9290783 2.79596364 17.85589237 3.28515625 13.40625 C3.4468752 8.17499337 3.48563839 4.21181306 0 0 Z " fill="#95B8C5" transform="translate(134,67)"/>
<path d="M0 0 C2.38671875 0.34375 2.38671875 0.34375 5.01171875 1.90625 C6.97245349 5.38209795 7.0757242 7.41641893 6.38671875 11.34375 C3.44921875 14.03125 3.44921875 14.03125 0.38671875 16.34375 C-0.55764474 18.50906168 -0.55764474 18.50906168 -0.61328125 20.34375 C-2.26328125 20.34375 -3.91328125 20.34375 -5.61328125 20.34375 C-5.92578125 17.65625 -5.92578125 17.65625 -5.61328125 14.34375 C-3.11328125 11.65625 -3.11328125 11.65625 -0.61328125 9.34375 C-0.61328125 8.35375 -0.61328125 7.36375 -0.61328125 6.34375 C-1.93328125 6.34375 -3.25328125 6.34375 -4.61328125 6.34375 C-4.94328125 7.00375 -5.27328125 7.66375 -5.61328125 8.34375 C-7.59328125 8.34375 -9.57328125 8.34375 -11.61328125 8.34375 C-10.57599147 0.66780564 -7.20095346 -0.25229618 0 0 Z " fill="#EBF3F9" transform="translate(148.61328125,277.65625)"/>
<path d="M0 0 C3.3376405 1.23347584 4.3564082 1.85658397 5.875 5.0625 C6.13774852 8.8066664 6.06323797 11.49778609 4.875 15.0625 C2.565 14.7325 0.255 14.4025 -2.125 14.0625 C-1.465 15.3825 -0.805 16.7025 -0.125 18.0625 C-3.42633235 17.7948244 -4.75003298 17.5021165 -6.9375 14.9375 C-8.43995373 11.29998045 -8.68264485 8.96601394 -8.125 5.0625 C-5.59951332 1.49710704 -4.44248757 0.08884975 0 0 Z " fill="#1A7DD6" transform="translate(72.125,230.9375)"/>
<path d="M0 0 C4.23144173 -0.07423582 6.74425938 -0.01163403 10.08984375 2.68359375 C14.55568618 7.80698354 15.75026752 11.87782728 15.5390625 18.6171875 C14.91463135 21.37735417 14.22151355 22.29438296 12 24 C10.515 24.680625 10.515 24.680625 9 25.375 C5.60633694 27.21323416 4.69697599 28.60604801 3 32 C2.34 32.99 1.68 33.98 1 35 C-0.32 34.67 -1.64 34.34 -3 34 C-3 32.02 -3 30.04 -3 28 C-1.9275 27.608125 -0.855 27.21625 0.25 26.8125 C3.94831514 25.19542293 5.93659451 23.57127873 8 20 C9.44773642 14.01602279 9.251842 10.45470271 6 5 C2.95202627 2.63297941 2.95202627 2.63297941 0 1 C0 0.67 0 0.34 0 0 Z " fill="#C1B5D7" transform="translate(108,40)"/>
<path d="M0 0 C1.65 0 3.3 0 5 0 C5.3125 2.1875 5.3125 2.1875 5 5 C3.3540349 6.68711423 1.68762851 8.3545622 0 10 C0 11.32 0 12.64 0 14 C1.32 14 2.64 14 4 14 C4.33 13.01 4.66 12.02 5 11 C6.98 11 8.96 11 11 11 C10.65002406 13.58982197 10.35941651 15.50829012 8.80078125 17.640625 C6.32336464 19.51077897 4.57669073 19.43336466 1.5 19.4375 C0.5409375 19.45683594 -0.418125 19.47617187 -1.40625 19.49609375 C-4 19 -4 19 -5.80859375 17.1875 C-7.6133893 13.87377702 -7.58520019 11.70626786 -7 8 C-5.18474007 5.98484537 -3.20676669 4.62129798 -1 3 C-0.67 2.01 -0.34 1.02 0 0 Z " fill="#EFF4FA" transform="translate(44,242)"/>
<path d="M0 0 C3.02346601 -0.2519555 4.6402007 -0.20421041 7.3125 1.3125 C9 3 9 3 9 6 C9.61875 5.814375 10.2375 5.62875 10.875 5.4375 C13 5 13 5 15 6 C15 7.98 15 9.96 15 12 C12.1875 11.375 12.1875 11.375 9 10 C7.125 6.875 7.125 6.875 6 4 C4.62476865 4.14363527 3.24982598 4.29003517 1.875 4.4375 C1.10929687 4.51871094 0.34359375 4.59992188 -0.4453125 4.68359375 C-1.70988281 4.84021484 -1.70988281 4.84021484 -3 5 C-4.50240234 5.12181641 -4.50240234 5.12181641 -6.03515625 5.24609375 C-11.50528766 6.63704943 -14.1142077 11.41145348 -17 16 C-18.97562582 21.92687745 -17.24048613 26.41777185 -15 32 C-15.99 32.495 -15.99 32.495 -17 33 C-17.33 31.02 -17.66 29.04 -18 27 C-19.98 27 -21.96 27 -24 27 C-24 25.68 -24 24.36 -24 23 C-23.34 23 -22.68 23 -22 23 C-21.67 20.69 -21.34 18.38 -21 16 C-20.34 16 -19.68 16 -19 16 C-17.03698408 12.49461443 -16.04097612 8.86648272 -15 5 C-13.02 4.67 -11.04 4.34 -9 4 C-9 3.34 -9 2.68 -9 2 C-6.03 2 -3.06 2 0 2 C0 1.34 0 0.68 0 0 Z " fill="#1B3079" transform="translate(94,69)"/>
<path d="M0 0 C3.1813212 0.30298297 3.45110269 1.07610269 5.625 3.25 C8.73339021 3.9769226 8.73339021 3.9769226 11.625 4.25 C12.285 2.93 12.945 1.61 13.625 0.25 C14.40791815 10.18436141 14.40791815 10.18436141 11.375 14.3125 C6.85171281 17.49936143 4.30083408 18.74355079 -1.375 18.25 C-2.035 17.59 -2.695 16.93 -3.375 16.25 C-2.68792969 16.17523438 -2.00085938 16.10046875 -1.29296875 16.0234375 C1.47018161 15.62023101 3.98512483 15.16821745 6.625 14.25 C8.84825679 11.31337328 8.84825679 11.31337328 9.625 8.25 C7.18782742 8.52034634 7.18782742 8.52034634 4.625 9.25 C3.635 10.735 3.635 10.735 2.625 12.25 C-2.25 11.375 -2.25 11.375 -3.375 10.25 C-3.4729057 8.75261876 -3.50474864 7.25057108 -3.5 5.75 C-3.50257813 4.9353125 -3.50515625 4.120625 -3.5078125 3.28125 C-3.31440249 0.32321449 -2.95570984 0.31112735 0 0 Z " fill="#13A2DF" transform="translate(239.375,237.75)"/>
<path d="M0 0 C2.97 0.495 2.97 0.495 6 1 C6.14695312 1.87011719 6.14695312 1.87011719 6.296875 2.7578125 C7.08668077 6.88386679 7.61073976 9.50261192 10.25 12.875 C12.62790287 17.12125513 11.96694308 19.80113844 10.90234375 24.4375 C9.40739619 28.68289221 6.9258781 30.8321803 3.1640625 33.11328125 C0.54970182 34.18450846 -1.43539916 34.19906844 -4.25 34.125 C-5.58804688 34.09792969 -5.58804688 34.09792969 -6.953125 34.0703125 C-7.62859375 34.04710937 -8.3040625 34.02390625 -9 34 C-9 33.34 -9 32.68 -9 32 C-8.22914062 31.84144531 -7.45828125 31.68289062 -6.6640625 31.51953125 C-5.66117187 31.28621094 -4.65828125 31.05289063 -3.625 30.8125 C-2.62726563 30.59207031 -1.62953125 30.37164062 -0.6015625 30.14453125 C2.2223491 29.23096337 2.2223491 29.23096337 3.2890625 26.44921875 C3.52367188 25.64097656 3.75828125 24.83273438 4 24 C4.33 23.67 4.66 23.34 5 23 C5.08685603 21.43827255 5.10702219 19.87270656 5.09765625 18.30859375 C5.09443359 17.36435547 5.09121094 16.42011719 5.08789062 15.44726562 C5.07951172 14.45404297 5.07113281 13.46082031 5.0625 12.4375 C5.05798828 11.44041016 5.05347656 10.44332031 5.04882812 9.41601562 C5.03700007 6.94395151 5.02051849 4.47200482 5 2 C3.35 1.67 1.7 1.34 0 1 C0 0.67 0 0.34 0 0 Z " fill="#9AB0E0" transform="translate(98,106)"/>
<path d="M0 0 C3.90368082 1.53358889 5.9450049 3.33036589 8 7 C8.90179281 11.99891447 9.13604652 16.69709893 6.84765625 21.3359375 C4.12978364 24.5920685 2.10618754 25.85260017 -2.13671875 26.41796875 C-5.1268862 26.43566205 -8.02697732 26.30755407 -11 26 C-8.00148306 24.0009887 -4.93730443 22.15642479 -1.83984375 20.31640625 C0.2795637 18.96404982 0.2795637 18.96404982 2 16 C2.31806878 13.16334671 2.31806878 13.16334671 2.25 10.0625 C2.25515625 9.02222656 2.2603125 7.98195313 2.265625 6.91015625 C2.00629936 4.06901505 1.46519702 2.41292366 0 0 Z " fill="#C5BCC3" transform="translate(129,99)"/>
<path d="M0 0 C7.75 -0.125 7.75 -0.125 10 1 C10 1.66 10 2.32 10 3 C10.598125 3.185625 11.19625 3.37125 11.8125 3.5625 C15.04635272 5.68760321 16.06144331 8.38555827 17 12 C17.71950295 16.3811318 17.95312609 20.20494586 15.828125 24.20703125 C14.31386098 26.24816548 12.7124784 28.12309159 11 30 C10.0378545 31.16352479 9.07912947 32.3298928 8.125 33.5 C7.42375 34.325 6.7225 35.15 6 36 C5.34 35.67 4.68 35.34 4 35 C4 34.01 4 33.02 4 32 C5.4609375 30.5703125 5.4609375 30.5703125 7.375 29.125 C11.1539374 26.00260526 12.66561532 23.85553902 13.24609375 18.8984375 C13.55268716 13.34259336 12.51325862 10.47142007 9 6 C8.67 5.01 8.34 4.02 8 3 C7.05125 3.061875 6.1025 3.12375 5.125 3.1875 C4.09375 3.125625 3.0625 3.06375 2 3 C1.34 2.01 0.68 1.02 0 0 Z " fill="#244DAA" transform="translate(130,64)"/>
<path d="M0 0 C1.98 0 3.96 0 6 0 C6 6.93 6 13.86 6 21 C4.02 21 2.04 21 0 21 C0 14.07 0 7.14 0 0 Z " fill="#F1F7FB" transform="translate(127,285)"/>
<path d="M0 0 C1.98 0 3.96 0 6 0 C6 6.93 6 13.86 6 21 C4.02 21 2.04 21 0 21 C0 14.07 0 7.14 0 0 Z " fill="#F2F8FB" transform="translate(220,233)"/>
<path d="M0 0 C4.24876341 1.74949081 5.39064853 3.86146475 7.23828125 7.921875 C9.12346901 13.0650539 7.83731155 17.08759076 5.94921875 21.97265625 C5.63597656 22.64167969 5.32273437 23.31070313 5 24 C4.5978125 24.89976563 4.195625 25.79953125 3.78125 26.7265625 C2 29 2 29 -0.91796875 29.48828125 C-1.99691406 29.43027344 -3.07585937 29.37226562 -4.1875 29.3125 C-5.27417969 29.26738281 -6.36085938 29.22226563 -7.48046875 29.17578125 C-8.31191406 29.11777344 -9.14335938 29.05976562 -10 29 C-7.31511489 27.21007659 -4.59889272 25.73935621 -1.71875 24.29296875 C0.6801849 22.48831545 1.71248392 20.70609667 3 18 C3.47064339 15.01677836 3.47064339 15.01677836 3.375 11.9375 C3.38273437 10.91527344 3.39046875 9.89304687 3.3984375 8.83984375 C2.95354476 5.66889254 2.02643215 4.40705829 0 2 C0 1.34 0 0.68 0 0 Z " fill="#9EB0DC" transform="translate(71,98)"/>
<path d="M0 0 C2.38370909 2.38370909 2.29588602 2.9936599 2.3125 6.25 C2.16279694 12.08841931 0.31863198 15.52055925 -3.5625 19.875 C-6 22 -6 22 -8 22 C-7.24849977 25.27773504 -7.24849977 25.27773504 -4 27 C-3.77862607 29.62697064 -3.71837975 32.00893964 -3.8125 34.625 C-3.82603516 35.33140625 -3.83957031 36.0378125 -3.85351562 36.765625 C-3.8888896 38.51074128 -3.94269779 40.25546608 -4 42 C-4.33 42 -4.66 42 -5 42 C-5.01417969 41.34773438 -5.02835938 40.69546875 -5.04296875 40.0234375 C-5.46309558 32.32489724 -7.32311314 29.55009765 -12.8125 24.25 C-14 23 -14 23 -14 21 C-12.88625 20.7525 -11.7725 20.505 -10.625 20.25 C-6.95791272 19.40634018 -6.95791272 19.40634018 -5.6875 16.9375 C-5.460625 16.298125 -5.23375 15.65875 -5 15 C-4.34 14.67 -3.68 14.34 -3 14 C-1.09632646 10.95960053 -0.65481749 8.29435486 -0.375 4.75 C-0.30023438 3.85796875 -0.22546875 2.9659375 -0.1484375 2.046875 C-0.09945312 1.37140625 -0.05046875 0.6959375 0 0 Z " fill="#3762BE" transform="translate(142,74)"/>
<path d="M0 0 C-0.48828125 6.0546875 -0.48828125 6.0546875 -1 8 C-1.99 8.66 -2.98 9.32 -4 10 C-5.00805555 12.17897492 -5.00805555 12.17897492 -5.6875 14.625 C-6.120625 16.06875 -6.55375 17.5125 -7 19 C-13.435 19.495 -13.435 19.495 -20 20 C-20 19.01 -20 18.02 -20 17 C-19.13375 16.773125 -18.2675 16.54625 -17.375 16.3125 C-12.5576356 14.43908051 -9.19762846 12.29741146 -6.8046875 7.70703125 C-6.12171085 6.1159486 -5.47086152 4.51052788 -4.859375 2.890625 C-3.70081347 0.34178964 -2.76032623 0 0 0 Z " fill="#B0B4CD" transform="translate(73,78)"/>
<path d="M0 0 C2.23930586 3.84880695 2.28565885 6.53284926 1.65625 10.8671875 C1 13 1 13 -1.5 15.625 C-6.02012322 17.40076269 -9.32447601 16.95588491 -14 16 C-14 15.67 -14 15.34 -14 15 C-13.38511719 14.96261719 -12.77023438 14.92523438 -12.13671875 14.88671875 C-11.32847656 14.82097656 -10.52023438 14.75523437 -9.6875 14.6875 C-8.88699219 14.62949219 -8.08648437 14.57148438 -7.26171875 14.51171875 C-4.59936152 13.90935468 -3.68806452 13.10358809 -2 11 C-1.67 10.34 -1.34 9.68 -1 9 C-2.051875 9.33 -3.10375 9.66 -4.1875 10 C-7.38873357 10.83966782 -9.7411008 11.19750904 -13 11 C-13.66 9.35 -14.32 7.7 -15 6 C-10.38 6 -5.76 6 -1 6 C-1 4.35 -1 2.7 -1 1 C-0.67 0.67 -0.34 0.34 0 0 Z " fill="#2280BB" transform="translate(184,239)"/>
<path d="M0 0 C0.33 0.66 0.66 1.32 1 2 C-0.36328125 4.53125 -0.36328125 4.53125 -2.3125 7.5 C-2.94800781 8.4796875 -3.58351563 9.459375 -4.23828125 10.46875 C-6 13 -6 13 -8 15 C-8.268125 15.763125 -8.53625 16.52625 -8.8125 17.3125 C-9.98859894 19.9741976 -11.26501867 21.51150398 -13.3828125 23.47265625 C-14.66935848 24.68772745 -15.90336633 25.95836834 -17.1171875 27.24609375 C-17.88289063 28.05175781 -18.64859375 28.85742188 -19.4375 29.6875 C-20.15808594 30.45449219 -20.87867188 31.22148437 -21.62109375 32.01171875 C-24.30788871 34.25733227 -26.6423212 35.096567 -30 36 C-27.38148094 31.53881938 -25.79526482 29.76667651 -21 28 C-19.65589738 25.98264795 -19.65589738 25.98264795 -19 24 C-18.34 24 -17.68 24 -17 24 C-16.814375 23.319375 -16.62875 22.63875 -16.4375 21.9375 C-15.06620034 19.13527895 -14.09641929 18.00205369 -11.875 15.9375 C-6.98208121 11.30210325 -3.5823636 5.66664788 0 0 Z " fill="#068BCF" transform="translate(275,262)"/>
<path d="M0 0 C3.54091616 3.54091616 3.65205706 5.12879878 4 10 C3.67 10.99 3.34 11.98 3 13 C2.9175 13.66 2.835 14.32 2.75 15 C2 17 2 17 0 18.8125 C-4.19631345 20.47354074 -7.63746748 19.78886754 -12 19 C-12 18.67 -12 18.34 -12 18 C-11.38511719 17.95101562 -10.77023437 17.90203125 -10.13671875 17.8515625 C-9.32847656 17.77679688 -8.52023437 17.70203125 -7.6875 17.625 C-6.88699219 17.55539063 -6.08648437 17.48578125 -5.26171875 17.4140625 C-2.72775559 17.10435574 -2.72775559 17.10435574 0 15 C0.33 14.01 0.66 13.02 1 12 C0.113125 12.33 -0.77375 12.66 -1.6875 13 C-4.73949862 13.92135807 -6.8545268 14.34949702 -10 14 C-10.66 13.34 -11.32 12.68 -12 12 C-12 11.01 -12 10.02 -12 9 C-7.38 9 -2.76 9 2 9 C1.34 6.03 0.68 3.06 0 0 Z " fill="#179BD9" transform="translate(270,236)"/>
<path d="M0 0 C2.475 0.495 2.475 0.495 5 1 C4.54367188 1.41378906 4.08734375 1.82757813 3.6171875 2.25390625 C1.91641964 4.09024256 1.11563439 5.6537809 0.125 7.9375 C-2.39359239 13.10724227 -5.64862712 15.55244686 -10.875 17.8125 C-14.97251914 19.19110457 -17.77770651 19.25928051 -22 18 C-30.48175448 13.50398055 -30.48175448 13.50398055 -31.7578125 9.80078125 C-31.83773437 9.20652344 -31.91765625 8.61226562 -32 8 C-31.13375 8.78375 -30.2675 9.5675 -29.375 10.375 C-24.72032583 14.21401865 -20.10177082 15.48333293 -14.0234375 15.3203125 C-9.63747321 14.62600927 -6.30975266 12.30975266 -3.1875 9.1875 C-1.58999025 6.24471888 -0.8093374 3.23734959 0 0 Z " fill="#1847AF" transform="translate(111,126)"/>
<path d="M0 0 C0.33 0 0.66 0 1 0 C1.16918268 1.58306647 1.33523936 3.16646719 1.5 4.75 C1.5928125 5.63171875 1.685625 6.5134375 1.78125 7.421875 C2.18549054 12.18613851 1.80051564 15.58873668 0 20 C-0.66 20.763125 -1.32 21.52625 -2 22.3125 C-4.41094806 25.55221145 -4.83026415 28.17392751 -5.41015625 32.109375 C-5.60480469 32.73328125 -5.79945313 33.3571875 -6 34 C-7.485 34.495 -7.485 34.495 -9 35 C-7.64094239 28.43122154 -5.8907394 22.0382566 -4.01953125 15.59765625 C-2.5547268 10.42874859 -1.26234383 5.22151309 0 0 Z " fill="#0389E3" transform="translate(285,227)"/>
<path d="M0 0 C1.65 0.33 3.3 0.66 5 1 C5.0825 1.94875 5.165 2.8975 5.25 3.875 C5.65519378 7.00568172 5.65519378 7.00568172 7.625 8.25 C13.69102602 10.16558717 19.78249653 11.67472715 26 13 C26.33 12.34 26.66 11.68 27 11 C28.32 11.66 29.64 12.32 31 13 C31 13.99 31 14.98 31 16 C23.30833544 16.34185176 15.11450389 16.03781951 9 11 C8.319375 10.71125 7.63875 10.4225 6.9375 10.125 C4.33059006 8.61131036 3.5109855 6.56210585 2 4 C1.01 3.67 0.02 3.34 -1 3 C-0.67 2.01 -0.34 1.02 0 0 Z " fill="#2C57BC" transform="translate(71,95)"/>
<path d="M0 0 C1.010625 0.309375 2.02125 0.61875 3.0625 0.9375 C9.55848891 2.59380097 16.33082492 2.67001477 23 3 C23 3.66 23 4.32 23 5 C18.79294672 7.80470219 15.02698193 8.32432141 10 8 C6.43054482 6.69232985 3.23401063 4.98857249 0 3 C0 2.01 0 1.02 0 0 Z " fill="#2E5AC1" transform="translate(53,124)"/>
<path d="M0 0 C1.2375 0.1546875 1.2375 0.1546875 2.5 0.3125 C4.5 3.3125 4.5 3.3125 4.25 6.875 C3.5 10.3125 3.5 10.3125 1.5 12.3125 C-0.5 12.125 -0.5 12.125 -2.5 11.3125 C-4.80163882 7.86004176 -4.84490322 6.36511287 -4.5 2.3125 C-2.5 0.3125 -2.5 0.3125 0 0 Z " fill="#149BDC" transform="translate(205.5,237.6875)"/>
<path d="M0 0 C0.66 0.33 1.32 0.66 2 1 C1.03200694 3.60613516 0.0331119 5.94673304 -1.4375 8.3125 C-2.76240912 10.59134369 -3.58619144 12.53398119 -4.4375 15 C-6.89370077 21.78318659 -12.05021649 27.03347766 -18 31 C-16.41138932 27.64008841 -14.5072351 24.5631733 -12.5 21.4375 C-11.8915625 20.48746094 -11.283125 19.53742188 -10.65625 18.55859375 C-9.45109559 16.69685758 -8.23019182 14.84528773 -7 13 C-6.34 13 -5.68 13 -5 13 C-4.97421875 12.39671875 -4.9484375 11.7934375 -4.921875 11.171875 C-4.45283019 4.5626072 -4.45283019 4.5626072 -1.9375 1.4375 C-1.298125 0.963125 -0.65875 0.48875 0 0 Z " fill="#046BC2" transform="translate(284,248)"/>
<path d="M0 0 C2.5625 0.1875 2.5625 0.1875 4.5625 2.1875 C4.5390625 4.3515625 4.5390625 4.3515625 4.1875 6.8125 C4.07664062 7.62976563 3.96578125 8.44703125 3.8515625 9.2890625 C3.75617187 9.91554688 3.66078125 10.54203125 3.5625 11.1875 C1.1875 11.8125 1.1875 11.8125 -1.4375 12.1875 C-3.4375 10.1875 -3.4375 10.1875 -3.66796875 8.05859375 C-3.64669922 6.85396484 -3.64669922 6.85396484 -3.625 5.625 C-3.61855469 4.81933594 -3.61210938 4.01367188 -3.60546875 3.18359375 C-3.35596077 0.21851053 -2.98521056 0.22963158 0 0 Z " fill="#10449D" transform="translate(46.4375,289.8125)"/>
<path d="M0 0 C0 3 0 3 -1.0390625 4.60546875 C-5.18434967 8.74054585 -8.33829849 9.41310291 -14.1875 9.4375 C-17.93081109 9.30366548 -21.40477054 9.07946095 -25 8 C-25.103125 9.11375 -25.20625 10.2275 -25.3125 11.375 C-25.6528125 13.169375 -25.6528125 13.169375 -26 15 C-26.99 15.66 -27.98 16.32 -29 17 C-28.34 12.71 -27.68 8.42 -27 4 C-25.7625 4.33 -24.525 4.66 -23.25 5 C-13.30202693 7.23659275 -13.30202693 7.23659275 -3.90234375 4.65625 C-2.04253341 2.86947422 -2.04253341 2.86947422 0 0 Z " fill="#5074C5" transform="translate(136,118)"/>
<path d="M0 0 C0.66 0.66 1.32 1.32 2 2 C1.91634792 6.43356024 1.51782101 8.43039689 -1.5 11.75 C-2.325 12.4925 -3.15 13.235 -4 14 C-4.33 14.99 -4.66 15.98 -5 17 C-5.66 17 -6.32 17 -7 17 C-7 19.31 -7 21.62 -7 24 C-8.65 24 -10.3 24 -12 24 C-12.625 21.6875 -12.625 21.6875 -13 19 C-12.01 17.515 -12.01 17.515 -11 16 C-9.68 16 -8.36 16 -7 16 C-6.938125 15.2575 -6.87625 14.515 -6.8125 13.75 C-6 11 -6 11 -3.5 9.125 C-0.62853572 7.12027696 -0.62853572 7.12027696 -0.1875 3.25 C-0.125625 2.1775 -0.06375 1.105 0 0 Z " fill="#0D68AA" transform="translate(155,282)"/>
<path d="M0 0 C1.8871875 0.061875 1.8871875 0.061875 3.8125 0.125 C3.8125 0.785 3.8125 1.445 3.8125 2.125 C-0.81402069 6.2729151 -6.36943584 5.40010986 -12.1875 5.125 C-12.1875 5.785 -12.1875 6.445 -12.1875 7.125 C-15.83322278 6.82118977 -16.92953039 6.4279751 -19.359375 3.57421875 C-19.96265625 2.76597656 -20.5659375 1.95773438 -21.1875 1.125 C-20.21167969 1.22039062 -19.23585937 1.31578125 -18.23046875 1.4140625 C-16.32201172 1.58035156 -16.32201172 1.58035156 -14.375 1.75 C-13.11042969 1.86601563 -11.84585938 1.98203125 -10.54296875 2.1015625 C-6.35609308 2.13080727 -4.24350065 -0.13913117 0 0 Z " fill="#7C82A3" transform="translate(82.1875,66.875)"/>
<path d="M0 0 C4.23144173 -0.07423582 6.74425938 -0.01163403 10.08984375 2.68359375 C14.55568618 7.80698354 15.75026752 11.87782728 15.5390625 18.6171875 C14.92868206 21.31524595 14.12284836 22.28582833 12 24 C11.34 23.67 10.68 23.34 10 23 C10.32871094 22.42894531 10.65742187 21.85789062 10.99609375 21.26953125 C12.70070555 17.41591468 12.26934834 13.96170299 11 10 C8.05100251 5.97793798 4.11119696 2.79561393 0 0 Z " fill="#797CA9" transform="translate(108,40)"/>
<path d="M0 0 C1.74670568 2.29917808 2.7780289 4.32106335 4 7 C3.6015625 9.22265625 3.6015625 9.22265625 3 11 C1.84906075 9.5665848 0.70441965 8.12811091 -0.4375 6.6875 C-1.07558594 5.88699219 -1.71367188 5.08648437 -2.37109375 4.26171875 C-4 2 -4 2 -5 -1 C-11.27 -1.33 -17.54 -1.66 -24 -2 C-18.18650363 -7.81349637 -5.73753341 -4.75395625 0 0 Z " fill="#2E346F" transform="translate(121,42)"/>
<path d="M0 0 C2.5 -0.3125 2.5 -0.3125 5 0 C5.66 0.66 6.32 1.32 7 2 C9.20250992 2.46006346 9.20250992 2.46006346 11.625 2.625 C12.44226563 2.69976562 13.25953125 2.77453125 14.1015625 2.8515625 C14.72804688 2.90054688 15.35453125 2.94953125 16 3 C16 3.33 16 3.66 16 4 C14.35 4.33 12.7 4.66 11 5 C11 5.33 11 5.66 11 6 C10.18015625 6.12117188 9.3603125 6.24234375 8.515625 6.3671875 C7.43796875 6.53476563 6.3603125 6.70234375 5.25 6.875 C4.18265625 7.03742188 3.1153125 7.19984375 2.015625 7.3671875 C-0.67708871 7.93223882 -2.63572439 8.63422914 -5 10 C-3.49760034 6.38058265 -2.17854707 3.2678206 0 0 Z " fill="#667C7B" transform="translate(112,89)"/>
<path d="M0 0 C2.97 0.495 2.97 0.495 6 1 C6.09796875 1.58007812 6.1959375 2.16015625 6.296875 2.7578125 C7.08668077 6.88386679 7.61073976 9.50261192 10.25 12.875 C12.62644091 17.11864448 11.96689765 19.7956674 10.90625 24.4296875 C9.59296546 28.15443416 8.21405719 29.72664248 5 32 C4.01 32 3.02 32 2 32 C2.78375 31.443125 3.5675 30.88625 4.375 30.3125 C7.2442034 27.78486843 8.10224285 26.67264288 9 23 C9.14688427 19.99140498 9.11800358 17.0090914 9 14 C8.34 14 7.68 14 7 14 C7 16.64 7 19.28 7 22 C6.67 22 6.34 22 6 22 C5.202163 15.30386804 4.87089147 8.74233419 5 2 C3.35 1.67 1.7 1.34 0 1 C0 0.67 0 0.34 0 0 Z " fill="#889CD0" transform="translate(98,106)"/>
<path d="M0 0 C1.84121215 1.09097798 3.67281256 2.19819251 5.5 3.3125 C6.5209375 3.92738281 7.541875 4.54226562 8.59375 5.17578125 C9.3878125 5.77777344 10.181875 6.37976563 11 7 C11 7.99 11 8.98 11 10 C10.34 9.34 9.68 8.68 9 8 C6.42938689 7.35232207 6.42938689 7.35232207 4 7 C4 7.66 4 8.32 4 9 C-2.435 9.495 -2.435 9.495 -9 10 C-8.34 9.01 -7.68 8.02 -7 7 C-6.01 7 -5.02 7 -4 7 C-3.67 6.34 -3.34 5.68 -3 5 C-2.01 5.33 -1.02 5.66 0 6 C0 4.02 0 2.04 0 0 Z " fill="#596299" transform="translate(90,62)"/>
<path d="M0 0 C0.94875 0.78375 1.8975 1.5675 2.875 2.375 C2.545 3.365 2.215 4.355 1.875 5.375 C1.215 5.375 0.555 5.375 -0.125 5.375 C-0.681875 4.75625 -1.23875 4.1375 -1.8125 3.5 C-7.22356904 -1.47233371 -15.13518971 -1.14468754 -22.125 -1.625 C-15.09191443 -6.31372371 -6.68073996 -4.7797164 0 0 Z " fill="#203963" transform="translate(88.125,42.625)"/>
<path d="M0 0 C1.25425781 0.00902344 2.50851562 0.01804688 3.80078125 0.02734375 C4.75339844 0.03894531 5.70601563 0.05054688 6.6875 0.0625 C3.17098621 4.18959818 -1.13910654 4.43124442 -6.3125 5.0625 C-9.65498709 5.20309308 -12.97003654 5.19050924 -16.3125 5.0625 C-11.53559365 -0.42209618 -6.9988175 -0.06540951 0 0 Z " fill="#0785C0" transform="translate(337.3125,63.9375)"/>
<path d="M0 0 C3.8375078 2.38982522 3.8375078 2.38982522 4.57421875 5.15625 C4.61160156 5.9296875 4.64898437 6.703125 4.6875 7.5 C4.8523346 10.32573594 5.0912849 12.27385471 6 15 C5.72428861 17.00875442 5.39764263 19.01178687 5 21 C2.51953125 19.546875 2.51953125 19.546875 0 17 C-0.6295563 14.06455404 -0.47339855 11.23528703 -0.3125 8.25 C-0.28994141 7.45722656 -0.26738281 6.66445313 -0.24414062 5.84765625 C-0.18540471 3.8976238 -0.09572654 1.94856688 0 0 Z " fill="#9A9CBF" transform="translate(85,47)"/>
<path d="M0 0 C0.66 0.33 1.32 0.66 2 1 C-0.97213342 5.86349105 -4.35929065 9.54530419 -8.5625 13.375 C-9.4277832 14.19291016 -9.4277832 14.19291016 -10.31054688 15.02734375 C-14.62670348 19 -14.62670348 19 -18 19 C-17.67 18.34 -17.34 17.68 -17 17 C-16.34 17 -15.68 17 -15 17 C-15 16.34 -15 15.68 -15 15 C-14.319375 14.46375 -13.63875 13.9275 -12.9375 13.375 C-9.76132956 10.80703241 -7.28230554 8.00697101 -4.6484375 4.90234375 C-3.16271808 3.18778129 -1.62548911 1.58115759 0 0 Z " fill="#0764A3" transform="translate(261,287)"/>
<path d="M0 0 C-0.33 1.32 -0.66 2.64 -1 4 C-2.8125 4.625 -2.8125 4.625 -5 5 C-5.99 4.34 -6.98 3.68 -8 3 C-8 11.58 -8 20.16 -8 29 C-8.33 29 -8.66 29 -9 29 C-9.11586755 24.56271849 -9.18714058 20.12582409 -9.25 15.6875 C-9.28351563 14.42486328 -9.31703125 13.16222656 -9.3515625 11.86132812 C-9.36445313 10.65283203 -9.37734375 9.44433594 -9.390625 8.19921875 C-9.41157227 7.08377686 -9.43251953 5.96833496 -9.45410156 4.8190918 C-9 2 -9 2 -7.14746094 0.09301758 C-4.37286667 -1.31919917 -2.9177081 -0.89152192 0 0 Z " fill="#088ECD" transform="translate(226,226)"/>
<path d="M0 0 C1.32 0 2.64 0 4 0 C4 0.66 4 1.32 4 2 C4.99 2 5.98 2 7 2 C7.33 2.66 7.66 3.32 8 4 C8.99 4.33 9.98 4.66 11 5 C12.01351664 6.65848177 13.01120795 8.32665961 14 10 C15.62836738 11.7041054 17.28769752 13.38025441 19 15 C18.67 15.99 18.34 16.98 18 18 C16.72799029 16.89718873 15.45744147 15.79269231 14.1875 14.6875 C13.47980469 14.07261719 12.77210938 13.45773438 12.04296875 12.82421875 C8.3771204 9.55088953 8.3771204 9.55088953 7 8 C7 7.34 7 6.68 7 6 C6.34 6 5.68 6 5 6 C3.2856382 4.04072937 1.61594832 2.04119788 0 0 Z " fill="#042687" transform="translate(312,190)"/>
<path d="M0 0 C0.99 0 1.98 0 3 0 C3.19491452 1.45736087 3.38069358 2.91594593 3.5625 4.375 C3.66691406 5.18710937 3.77132812 5.99921875 3.87890625 6.8359375 C4 9 4 9 3 11 C3.70125 10.79375 4.4025 10.5875 5.125 10.375 C8.60186072 9.92149643 10.77398123 10.72459723 14 12 C14 12.33 14 12.66 14 13 C8.87416389 13.10251672 4.05002222 13.03590199 -1 12 C-0.67 8.04 -0.34 4.08 0 0 Z " fill="#214089" transform="translate(123,51)"/>
<path d="M0 0 C4.62 0 9.24 0 14 0 C14.33 0.66 14.66 1.32 15 2 C14.01 3.485 14.01 3.485 13 5 C13 4.34 13 3.68 13 3 C12.113125 3.33 11.22625 3.66 10.3125 4 C7.26050138 4.92135807 5.1454732 5.34949702 2 5 C1.34 4.34 0.68 3.68 0 3 C0 2.01 0 1.02 0 0 Z " fill="#1E74BC" transform="translate(117,245)"/>
<path d="M0 0 C4 0 4 0 6.25 1.75 C8.90763176 6.68560185 8.31539293 11.50690649 8 17 C7.67 17 7.34 17 7 17 C6.67 14.03 6.34 11.06 6 8 C5.67 11.96 5.34 15.92 5 20 C3.68 20.33 2.36 20.66 1 21 C1.32355469 20.2884375 1.64710938 19.576875 1.98046875 18.84375 C3.97353154 13.2845557 4.01685649 7.16082004 1.5 1.8125 C1.005 1.214375 0.51 0.61625 0 0 Z " fill="#9BBCC4" transform="translate(134,67)"/>
<path d="M0 0 C2.38370909 2.38370909 2.29588602 2.9936599 2.3125 6.25 C2.18537709 11.52136323 0.84367326 15.15632674 -2.9375 18.9375 C-5 20 -5 20 -7.25 19.6875 C-7.8275 19.460625 -8.405 19.23375 -9 19 C-8.34 19 -7.68 19 -7 19 C-6.71125 18.360625 -6.4225 17.72125 -6.125 17.0625 C-5 15 -5 15 -3 14 C-1.09632646 10.95960053 -0.65481749 8.29435486 -0.375 4.75 C-0.30023438 3.85796875 -0.22546875 2.9659375 -0.1484375 2.046875 C-0.09945312 1.37140625 -0.05046875 0.6959375 0 0 Z " fill="#6785C9" transform="translate(142,74)"/>
<path d="M0 0 C4.62 0 9.24 0 14 0 C13.67 0.99 13.34 1.98 13 3 C9.29709744 4.59898065 6.03078149 5.44786461 2 5 C1.34 4.34 0.68 3.68 0 3 C0 2.01 0 1.02 0 0 Z " fill="#1D56A1" transform="translate(66,297)"/>
<path d="M0 0 C0.33 0 0.66 0 1 0 C1.72024027 3.372034 2.19003547 6.5476889 2 10 C-1.18915696 14.11233397 -3.65952275 15.19616836 -8.75 15.9375 C-11.046875 16.15234375 -11.046875 16.15234375 -13 16 C-13.66 15.34 -14.32 14.68 -15 14 C-14.38511719 13.96261719 -13.77023438 13.92523438 -13.13671875 13.88671875 C-12.32847656 13.82097656 -11.52023438 13.75523437 -10.6875 13.6875 C-9.88699219 13.62949219 -9.08648437 13.57148438 -8.26171875 13.51171875 C-5.58941558 12.90710439 -4.65522271 12.15178952 -3 10 C-2.27802838 7.39388923 -2.27802838 7.39388923 -2 5 C-1.67 5 -1.34 5 -1 5 C-0.67 3.35 -0.34 1.7 0 0 Z " fill="#1F7CBC" transform="translate(163,240)"/>
<path d="M0 0 C2.59180887 2.16760063 3.86899363 3.43016247 4.63671875 6.76953125 C4.72402976 12.00147532 4.71552681 16.10661953 1.25 20.25 C-2.98497617 23.85627868 -7.27846149 23.56730722 -12.62109375 23.24609375 C-13.40613281 23.16488281 -14.19117187 23.08367187 -15 23 C-15 22.67 -15 22.34 -15 22 C-14.41992188 21.97421875 -13.83984375 21.9484375 -13.2421875 21.921875 C-7.79133645 21.52610364 -4.28952531 20.66178989 0 17 C2.59229986 13.58287746 2.28759069 10.17006498 2 6 C1.08885464 2.67813829 1.08885464 2.67813829 0 0 Z " fill="#7997D5" transform="translate(133,102)"/>
<path d="M0 0 C3.34676814 1.03865218 4.02532602 2.04612953 5.75 5.1875 C7.14956762 8.88635728 7.44028626 12.03742369 7 16 C5.5 18.9375 5.5 18.9375 4 21 C2.59344251 18.18688501 3.01772153 15.88253136 3.125 12.75 C3.18266664 7.54270236 2.94168085 4.28995124 0 0 Z " fill="#A7B8DE" transform="translate(129,99)"/>
<path d="M0 0 C0.391875 0.433125 0.78375 0.86625 1.1875 1.3125 C4.75690387 4.63573809 8.17877242 6.3112532 13 7 C12.625 9.4375 12.625 9.4375 12 12 C11.01 12.495 11.01 12.495 10 13 C8.33333333 11.33333333 6.66666667 9.66666667 5 8 C4.071875 7.13375 3.14375 6.2675 2.1875 5.375 C0 3 0 3 0 0 Z " fill="#433C76" transform="translate(40,88)"/>
<path d="M0 0 C1.98 0 3.96 0 6 0 C6 1.32 6 2.64 6 4 C5.34 4 4.68 4 4 4 C3.7834375 5.60875 3.7834375 5.60875 3.5625 7.25 C3.16250558 9.91662949 2.72408076 12.41399729 2 15 C0.68 15 -0.64 15 -2 15 C-1.625 12.5625 -1.625 12.5625 -1 10 C-0.34 9.67 0.32 9.34 1 9 C1.68472665 7.11235097 1.68472665 7.11235097 2.125 4.9375 C2.37636719 3.83728516 2.37636719 3.83728516 2.6328125 2.71484375 C2.75398438 2.14894531 2.87515625 1.58304687 3 1 C1.68 1.33 0.36 1.66 -1 2 C-0.67 1.34 -0.34 0.68 0 0 Z " fill="#7A7D9F" transform="translate(70,77)"/>
<path d="M0 0 C0.33 0 0.66 0 1 0 C1.16918268 1.58306647 1.33523936 3.16646719 1.5 4.75 C1.5928125 5.63171875 1.685625 6.5134375 1.78125 7.421875 C2.18304245 12.15728606 1.75978679 15.60053303 0 20 C-0.66 20.33 -1.32 20.66 -2 21 C-1.85888117 18.24968413 -1.71228835 15.49984582 -1.5625 12.75 C-1.52318359 11.97269531 -1.48386719 11.19539062 -1.44335938 10.39453125 C-1.40146484 9.64042969 -1.35957031 8.88632813 -1.31640625 8.109375 C-1.27974854 7.41811523 -1.24309082 6.72685547 -1.20532227 6.01464844 C-0.99324476 3.93371671 -0.55491323 2.01427578 0 0 Z " fill="#0271D8" transform="translate(285,227)"/>
<path d="M0 0 C-9.04100228 8.81548975 -9.04100228 8.81548975 -16 10 C-12.78884483 5.66980591 -6.08054955 -3.04027478 0 0 Z " fill="#077FBC" transform="translate(251,297)"/>
<path d="M0 0 C0.66 0 1.32 0 2 0 C2.48792229 3.25281528 2.40014561 5.34713084 0.6640625 8.1796875 C-0.84217602 10.1667909 -2.38217825 12.1029114 -4 14 C-3.01 14.33 -2.02 14.66 -1 15 C-2.65 14.67 -4.3 14.34 -6 14 C-5.50712398 9.56411585 -4.08097175 8.08097175 -1 5 C-0.20318682 2.35815459 -0.20318682 2.35815459 0 0 Z " fill="#1D68B6" transform="translate(49,242)"/>
<path d="M0 0 C2 1 2 1 3 2 C3.66 2 4.32 2 5 2 C5 1.34 5 0.68 5 0 C5.99 0.33 6.98 0.66 8 1 C7.4140625 2.953125 7.4140625 2.953125 6 5 C2.9609375 5.609375 2.9609375 5.609375 -0.625 5.75 C-2.40777344 5.83507812 -2.40777344 5.83507812 -4.2265625 5.921875 C-5.14179687 5.94765625 -6.05703125 5.9734375 -7 6 C-7 5.01 -7 4.02 -7 3 C-5.5459375 2.5359375 -5.5459375 2.5359375 -4.0625 2.0625 C-1.15934208 1.30476658 -1.15934208 1.30476658 0 0 Z " fill="#A59494" transform="translate(60,92)"/>
<path d="M0 0 C0.33 0.66 0.66 1.32 1 2 C-2.51039141 8.85912006 -7.30880149 15.75929214 -13 21 C-13.66 21 -14.32 21 -15 21 C-13.54040103 17.67660543 -11.66678037 15.3857168 -9.1875 12.75 C-5.53391794 8.73704921 -2.72575574 4.68489268 0 0 Z " fill="#059AE5" transform="translate(275,262)"/>
<path d="M0 0 C3.63 0.33 7.26 0.66 11 1 C11.33 1.99 11.66 2.98 12 4 C10.68 4 9.36 4 8 4 C7.67 4.66 7.34 5.32 7 6 C4.36 5.34 1.72 4.68 -1 4 C-0.67 2.68 -0.34 1.36 0 0 Z " fill="#2B81BE" transform="translate(150,237)"/>
<path d="M0 0 C2 1.3125 2 1.3125 4 3 C4 3.99 4 4.98 4 6 C3.43152344 5.83757812 2.86304687 5.67515625 2.27734375 5.5078125 C-3.02361555 4.32578041 -8.76032866 4.64782675 -14 6 C-11.54908957 3.31566952 -9.71758616 2.08210259 -5.95703125 1.90234375 C-5.24933594 1.91394531 -4.54164062 1.92554688 -3.8125 1.9375 C-1.9253125 1.9684375 -1.9253125 1.9684375 0 2 C0 1.34 0 0.68 0 0 Z " fill="#362F5B" transform="translate(58,62)"/>
<path d="M0 0 C0.93423645 3.01031744 1.04449911 3.86650268 0 7 C1.32 7.33 2.64 7.66 4 8 C4.66 10.97 5.32 13.94 6 17 C5.34 17 4.68 17 4 17 C3.67 15.02 3.34 13.04 3 11 C1.02 11 -0.96 11 -3 11 C-3 9.68 -3 8.36 -3 7 C-2.34 7 -1.68 7 -1 7 C-0.67 4.69 -0.34 2.38 0 0 Z " fill="#30499B" transform="translate(73,85)"/>
<path d="M0 0 C1.9375 0.9375 1.9375 0.9375 4 3 C4.84818625 5.99655273 5.30942111 8.89453722 5 12 C3.62890625 13.78125 3.62890625 13.78125 2 15 C1.34 15 0.68 15 0 15 C0.08378906 14.33613281 0.16757813 13.67226563 0.25390625 12.98828125 C1.05425042 6.45279152 1.05425042 6.45279152 0 0 Z " fill="#C0B4D7" transform="translate(116,47)"/>
<path d="M0 0 C5 2 5 2 10 4 C6.94736336 4.98120464 5.05263664 4.98120464 2 4 C1.896875 5.11375 1.79375 6.2275 1.6875 7.375 C1.3471875 9.169375 1.3471875 9.169375 1 11 C0.01 11.66 -0.98 12.32 -2 13 C-1.34 8.71 -0.68 4.42 0 0 Z " fill="#4269C2" transform="translate(109,122)"/>
<path d="M0 0 C7.75 -0.125 7.75 -0.125 10 1 C10 1.66 10 2.32 10 3 C10.66 3 11.32 3 12 3 C12 4.65 12 6.3 12 8 C10 6.625 10 6.625 8 5 C8 4.34 8 3.68 8 3 C7.05125 3.061875 6.1025 3.12375 5.125 3.1875 C4.09375 3.125625 3.0625 3.06375 2 3 C1.34 2.01 0.68 1.02 0 0 Z " fill="#30599F" transform="translate(130,64)"/>
<path d="M0 0 C1.98 0 3.96 0 6 0 C4.79618552 2.49361571 3.54571278 4.68143083 2 7 C0.68 7 -0.64 7 -2 7 C-1.125 2.25 -1.125 2.25 0 0 Z " fill="#CBDFEF" transform="translate(121,224)"/>
<path d="M0 0 C1.2065625 0.0309375 1.2065625 0.0309375 2.4375 0.0625 C1.36348892 2.97767292 0.65939824 4.84060176 -1.5625 7.0625 C-2.8825 7.0625 -4.2025 7.0625 -5.5625 7.0625 C-3.33446653 0.08132845 -3.33446653 0.08132845 0 0 Z " fill="#D1E5F4" transform="translate(133.5625,275.9375)"/>
<path d="M0 0 C0.33 0 0.66 0 1 0 C1 2.97 1 5.94 1 9 C0.01 9 -0.98 9 -2 9 C-2 9.66 -2 10.32 -2 11 C-3.65 11.33 -5.3 11.66 -7 12 C-6.401875 11.13375 -5.80375 10.2675 -5.1875 9.375 C-3.17955466 6.37380056 -1.55344902 3.26224294 0 0 Z " fill="#BEB5C8" transform="translate(67,83)"/>
<path d="M0 0 C0.66 0.33 1.32 0.66 2 1 C2.05437607 2.58294782 2.09296271 4.16644256 2.125 5.75 C2.14820313 6.63171875 2.17140625 7.5134375 2.1953125 8.421875 C1.98760207 11.16365272 1.50913291 12.71590695 0 15 C-2.625 16.25 -2.625 16.25 -5 17 C-4.34 15.68 -3.68 14.36 -3 13 C-2.01 13 -1.02 13 0 13 C0 8.71 0 4.42 0 0 Z " fill="#B4C3E2" transform="translate(139,74)"/>
<path d="M0 0 C1.67542976 0.28604898 3.34385343 0.61781233 5 1 C5.33 2.32 5.66 3.64 6 5 C3.03 5 0.06 5 -3 5 C-1 1 -1 1 0 0 Z " fill="#3A6EB2" transform="translate(69,289)"/>
<path d="M0 0 C0.66 0 1.32 0 2 0 C2 4.29 2 8.58 2 13 C2.66 13 3.32 13 4 13 C4 15.64 4 18.28 4 21 C3.34 21 2.68 21 2 21 C1.24722485 18.26750659 0.83358297 15.71899317 0.68359375 12.890625 C0.64169922 12.13652344 0.59980469 11.38242187 0.55664062 10.60546875 C0.51732422 9.82816406 0.47800781 9.05085938 0.4375 8.25 C0.39431641 7.45722656 0.35113281 6.66445313 0.30664062 5.84765625 C0.20097009 3.89862185 0.10002034 1.94933252 0 0 Z " fill="#1C56AA" transform="translate(57,279)"/>
<path d="M0 0 C0.66 0 1.32 0 2 0 C2 2.31 2 4.62 2 7 C2.66 7 3.32 7 4 7 C4 8.98 4 10.96 4 13 C3.34 13 2.68 13 2 13 C2 15.64 2 18.28 2 21 C1.67 21 1.34 21 1 21 C0.67 14.07 0.34 7.14 0 0 Z " fill="#1093D0" transform="translate(226,234)"/>
<path d="M0 0 C1.67542976 0.28604898 3.34385343 0.61781233 5 1 C5.33 2.32 5.66 3.64 6 5 C3.36 5 0.72 5 -2 5 C-1.125 1.125 -1.125 1.125 0 0 Z " fill="#38A1D4" transform="translate(260,237)"/>
<path d="M0 0 C1.2065625 0.0309375 1.2065625 0.0309375 2.4375 0.0625 C2.4375 2.0425 2.4375 4.0225 2.4375 6.0625 C0.7875 6.0625 -0.8625 6.0625 -2.5625 6.0625 C-2.94468767 4.40635343 -3.27645102 2.73792976 -3.5625 1.0625 C-2.5625 0.0625 -2.5625 0.0625 0 0 Z " fill="#DBECF9" transform="translate(46.5625,232.9375)"/>
<path d="M0 0 C1.67542976 0.28604898 3.34385343 0.61781233 5 1 C5 2.65 5 4.3 5 6 C3.35 6 1.7 6 0 6 C-0.38218767 4.34385343 -0.71395102 2.67542976 -1 1 C-0.67 0.67 -0.34 0.34 0 0 Z " fill="#E8F1F7" transform="translate(143,300)"/>
<path d="M0 0 C0.33 0.99 0.66 1.98 1 3 C1.61875 2.814375 2.2375 2.62875 2.875 2.4375 C5 2 5 2 7 3 C7 4.98 7 6.96 7 9 C5.02 8.34 3.04 7.68 1 7 C0.67 4.69 0.34 2.38 0 0 Z " fill="#37479D" transform="translate(102,72)"/>
<path d="M0 0 C0 0.66 0 1.32 0 2 C-3.90028225 4.60018816 -7.47434569 4.15085514 -12 4 C-8.41084094 -0.78554541 -5.58334594 -0.37222306 0 0 Z " fill="#8CA4BE" transform="translate(86,67)"/>
<path d="M0 0 C0.6875 1.8125 0.6875 1.8125 1 4 C-0.58660724 6.10510634 -1.62822825 6.90125848 -4.19140625 7.58203125 C-4.97386719 7.65808594 -5.75632813 7.73414063 -6.5625 7.8125 C-7.74005859 7.94591797 -7.74005859 7.94591797 -8.94140625 8.08203125 C-11 8 -11 8 -13 6 C-11.96939453 5.85304687 -11.96939453 5.85304687 -10.91796875 5.703125 C-10.01691406 5.55359375 -9.11585938 5.4040625 -8.1875 5.25 C-7.29417969 5.11078125 -6.40085938 4.9715625 -5.48046875 4.828125 C-2.49427342 3.831159 -1.61619656 2.6417565 0 0 Z " fill="#1E95CD" transform="translate(249,248)"/>
<path d="M0 0 C0.66 0 1.32 0 2 0 C1.7041325 2.86005251 1.15920836 3.85571743 -1 5.8125 C-5.19631345 7.47354074 -8.63746748 6.78886754 -13 6 C-13 5.67 -13 5.34 -13 5 C-12.09507812 4.96132812 -12.09507812 4.96132812 -11.171875 4.921875 C-5.93018499 4.62611413 -5.93018499 4.62611413 -1.5625 1.9375 C-1.046875 1.298125 -0.53125 0.65875 0 0 Z " fill="#197CBB" transform="translate(183,249)"/>
<path d="M0 0 C0 1.32 0 2.64 0 4 C-4.08718695 4.24042276 -7.17679443 3.42258812 -11 2 C-7.374967 -1.625033 -4.81746234 -1.01907857 0 0 Z " fill="#2085CB" transform="translate(154,246)"/>
<path d="M0 0 C0.66 0.33 1.32 0.66 2 1 C1.47731534 3.76276177 0.89130413 6.3260876 0 9 C0.38932856 11.14255793 0.38932856 11.14255793 1 13 C-0.98 13 -2.96 13 -5 13 C-3.68 12.34 -2.36 11.68 -1 11 C-1.391875 10.29875 -1.78375 9.5975 -2.1875 8.875 C-3 6 -3 6 -1.625 2.6875 C-1.08875 1.800625 -0.5525 0.91375 0 0 Z " fill="#2C6CAE" transform="translate(83,244)"/>
<path d="M0 0 C1.32 0.33 2.64 0.66 4 1 C3.01 1.680625 3.01 1.680625 2 2.375 C-1.0151012 6.33232033 -0.33045517 10.19004145 0 15 C-2 14 -2 14 -3 11 C-3.45528455 4.7398374 -3.45528455 4.7398374 -1.5 1.5625 C-1.005 1.046875 -0.51 0.53125 0 0 Z " fill="#256DB1" transform="translate(67,232)"/>
<path d="M0 0 C0.7425 0.763125 1.485 1.52625 2.25 2.3125 C6.73519306 6.12599748 12.36439622 6.8783507 18 8 C18 8.33 18 8.66 18 9 C11.41676453 9.53740698 7.34317118 9.03463947 2 5 C0.5625 2.25 0.5625 2.25 0 0 Z " fill="#1E50B7" transform="translate(79,134)"/>
<path d="M0 0 C0.66 0 1.32 0 2 0 C1.7041325 2.86005251 1.15920836 3.85571743 -1 5.8125 C-5.19631345 7.47354074 -8.63746748 6.78886754 -13 6 C-13 5.67 -13 5.34 -13 5 C-12.09507812 4.96132812 -12.09507812 4.96132812 -11.171875 4.921875 C-5.93018499 4.62611413 -5.93018499 4.62611413 -1.5625 1.9375 C-1.046875 1.298125 -0.53125 0.65875 0 0 Z " fill="#1993CF" transform="translate(271,249)"/>
<path d="M0 0 C3.63 0 7.26 0 11 0 C8 2 8 2 4 2 C3.67 2.99 3.34 3.98 3 5 C0.69 4.34 -1.62 3.68 -4 3 C-2.68 2.67 -1.36 2.34 0 2 C0 1.34 0 0.68 0 0 Z " fill="#705878" transform="translate(70,72)"/>
<path d="M0 0 C1.98 0 3.96 0 6 0 C6.33 1.32 6.66 2.64 7 4 C4.36 4 1.72 4 -1 4 C-0.67 2.68 -0.34 1.36 0 0 Z " fill="#327EBE" transform="translate(118,238)"/>
<path d="M0 0 C1.67542976 0.28604898 3.34385343 0.61781233 5 1 C4.67 2.32 4.34 3.64 4 5 C2.68 5.33 1.36 5.66 0 6 C-0.38218767 4.34385343 -0.71395102 2.67542976 -1 1 C-0.67 0.67 -0.34 0.34 0 0 Z " fill="#E6F1F6" transform="translate(221,225)"/>
<path d="M0 0 C0.66 0 1.32 0 2 0 C2.19491452 1.45736087 2.38069358 2.91594593 2.5625 4.375 C2.66691406 5.18710938 2.77132812 5.99921875 2.87890625 6.8359375 C3 9 3 9 2 11 C1.01 11 0.02 11 -1 11 C-0.67 7.37 -0.34 3.74 0 0 Z " fill="#B3C3E7" transform="translate(105,120)"/>
<path d="M0 0 C0.66 0 1.32 0 2 0 C2 4.29 2 8.58 2 13 C1.01 13 0.02 13 -1 13 C-0.67 8.71 -0.34 4.42 0 0 Z " fill="#B1C1D1" transform="translate(86,51)"/>
<path d="M0 0 C0.99 0.66 1.98 1.32 3 2 C2.42655063 4.86724686 2.1385485 5.8614515 0 8 C-2.625 8.125 -2.625 8.125 -5 8 C-5 7.01 -5 6.02 -5 5 C-3.35 5 -1.7 5 0 5 C0 3.35 0 1.7 0 0 Z " fill="#3A89CD" transform="translate(49,234)"/>
<path d="M0 0 C1.65 0.33 3.3 0.66 5 1 C5.66 3.97 6.32 6.94 7 10 C4 7 4 7 2 4 C1.01 3.67 0.02 3.34 -1 3 C-0.67 2.01 -0.34 1.02 0 0 Z " fill="#5E75B9" transform="translate(71,95)"/>
<path d="M0 0 C0.33 0 0.66 0 1 0 C1.05423638 1.91635217 1.09289963 3.83314925 1.125 5.75 C1.14820312 6.81734375 1.17140625 7.8846875 1.1953125 8.984375 C1.00347734 11.94630989 0.65414136 13.56473633 -1 16 C-3.125 16.75 -3.125 16.75 -5 17 C-4.360625 16.05125 -3.72125 15.1025 -3.0625 14.125 C-0.44562504 9.6217558 -0.20600549 5.11923637 0 0 Z " fill="#D4C8AF" transform="translate(75,106)"/>
<path d="M0 0 C0.33 0 0.66 0 1 0 C1 5.28 1 10.56 1 16 C1.66 16.33 2.32 16.66 3 17 C2.34 17.66 1.68 18.32 1 19 C0.01 19 -0.98 19 -2 19 C-1.505 17.515 -1.505 17.515 -1 16 C-0.77202438 13.26710707 -0.58331813 10.54957796 -0.4375 7.8125 C-0.39431641 7.06291016 -0.35113281 6.31332031 -0.30664062 5.54101562 C-0.20077315 3.69421625 -0.0999024 1.84713166 0 0 Z " fill="#2B885F" transform="translate(109,73)"/>
<path d="M0 0 C1.09570312 0.00902344 2.19140625 0.01804688 3.3203125 0.02734375 C4.16335937 0.03894531 5.00640625 0.05054688 5.875 0.0625 C5.545 0.7225 5.215 1.3825 4.875 2.0625 C2.15234375 2.4765625 2.15234375 2.4765625 -1.1875 2.6875 C-2.29222656 2.76226562 -3.39695313 2.83703125 -4.53515625 2.9140625 C-5.38980469 2.96304688 -6.24445313 3.01203125 -7.125 3.0625 C-7.455 2.4025 -7.785 1.7425 -8.125 1.0625 C-5.36047967 -0.31976016 -3.0788637 -0.03275387 0 0 Z " fill="#2194D7" transform="translate(178.125,246.9375)"/>
<path d="M0 0 C1.32 0 2.64 0 4 0 C3.67 1.32 3.34 2.64 3 4 C2.34 4 1.68 4 1 4 C1 4.99 1 5.98 1 7 C0.01 7 -0.98 7 -2 7 C-2 5.68 -2 4.36 -2 3 C-1.34 3 -0.68 3 0 3 C0 2.01 0 1.02 0 0 Z " fill="#FFAE68" transform="translate(116,108)"/>
<path d="M0 0 C0.66 0.33 1.32 0.66 2 1 C2.35919668 2.66128463 2.68911632 4.32900023 3 6 C3.99083967 8.23408113 3.99083967 8.23408113 5 10 C3.8450079 9.26418258 2.70125815 8.51069961 1.5625 7.75 C0.60537109 7.12351562 0.60537109 7.12351562 -0.37109375 6.484375 C-2.29902057 4.72751123 -2.61479436 3.53910197 -3 1 C-2.01 0.67 -1.02 0.34 0 0 Z " fill="#5A7CC8" transform="translate(131,94)"/>
<path d="M0 0 C3.37462715 0.54723683 5.08235 1.0549 8 3 C8 3.66 8 4.32 8 5 C8.66 5.33 9.32 5.66 10 6 C4.68559972 6 3.78319167 4.52524678 0 1 C0 0.67 0 0.34 0 0 Z " fill="#667698" transform="translate(80,43)"/>
<path d="M0 0 C3.35595828 0.59927826 5.37801226 1.84622436 8 4 C7.67 4.99 7.34 5.98 7 7 C6.34 7 5.68 7 5 7 C0 1.4047619 0 1.4047619 0 0 Z " fill="#2B3565" transform="translate(83,41)"/>
<path d="M0 0 C0.66 0.33 1.32 0.66 2 1 C0.21475351 2.19713017 -1.5784028 3.38247279 -3.375 4.5625 C-4.87160156 5.55443359 -4.87160156 5.55443359 -6.3984375 6.56640625 C-7.25695312 7.03949219 -8.11546875 7.51257813 -9 8 C-9.66 7.67 -10.32 7.34 -11 7 C-9.54261898 6.01941648 -8.08406325 5.04057868 -6.625 4.0625 C-5.81289062 3.51722656 -5.00078125 2.97195313 -4.1640625 2.41015625 C-2 1 -2 1 0 0 Z " fill="#086BA4" transform="translate(241,306)"/>
<path d="M0 0 C0.66 0.33 1.32 0.66 2 1 C0.8141763 4.37503669 -0.27573689 6.64722731 -3 9 C-3.99 8.67 -4.98 8.34 -6 8 C-4.02 5.36 -2.04 2.72 0 0 Z " fill="#0D67B0" transform="translate(136,276)"/>
<path d="M0 0 C2.97 0.495 2.97 0.495 6 1 C6.66 4.63 7.32 8.26 8 12 C7.01 12 6.02 12 5 12 C5 8.7 5 5.4 5 2 C3.35 1.67 1.7 1.34 0 1 C0 0.67 0 0.34 0 0 Z " fill="#A67F75" transform="translate(98,106)"/>
<path d="M0 0 C0.99 0 1.98 0 3 0 C3 0.99 3 1.98 3 3 C3.99 3 4.98 3 6 3 C6 4.32 6 5.64 6 7 C5.01 6.67 4.02 6.34 3 6 C3 5.34 3 4.68 3 4 C2.01 4 1.02 4 0 4 C0 2.68 0 1.36 0 0 Z " fill="#FFD478" transform="translate(59,110)"/>
<path d="M0 0 C0.99 0.33 1.98 0.66 3 1 C3.33 3.31 3.66 5.62 4 8 C3.01 8 2.02 8 1 8 C0.67 5.36 0.34 2.72 0 0 Z " fill="#96DA90" transform="translate(122,71)"/>
<path d="M0 0 C2.125 0.375 2.125 0.375 4 1 C3.01 1.66 2.02 2.32 1 3 C0.26393501 6.56769552 0.26393501 6.56769552 0 10 C-2 8 -2 8 -2.25 5 C-2 2 -2 2 0 0 Z " fill="#2279AE" transform="translate(203,238)"/>
<path d="M0 0 C0.66 0.33 1.32 0.66 2 1 C-0.475 4.465 -0.475 4.465 -3 8 C-4.32 7.67 -5.64 7.34 -7 7 C-4.66666667 4.66666667 -2.33333333 2.33333333 0 0 Z " fill="#1060A4" transform="translate(127,225)"/>
<path d="M0 0 C2.97 0.33 5.94 0.66 9 1 C8.01 1.33 7.02 1.66 6 2 C6.33 3.32 6.66 4.64 7 6 C1.125 2.25 1.125 2.25 0 0 Z " fill="#8795BC" transform="translate(122,93)"/>
<path d="M0 0 C3.66881155 0.70554068 6.70450534 2.27735506 10 4 C6.93109813 5.53445094 4.29905734 4.54984289 1 4 C0.67 2.68 0.34 1.36 0 0 Z " fill="#667FB3" transform="translate(113,90)"/>
<path d="M0 0 C2 3 2 3 1.625 5.6875 C1.41875 6.450625 1.2125 7.21375 1 8 C-0.32 8 -1.64 8 -3 8 C-2.34 7.01 -1.68 6.02 -1 5 C-0.61500109 3.34450469 -0.27206865 1.6777567 0 0 Z " fill="#0F74A9" transform="translate(226,224)"/>
<path d="M0 0 C3.80666984 1.44390925 5.26602582 3.34952803 7 7 C6.67 7.66 6.34 8.32 6 9 C2.91910327 6.22719294 1.31224548 3.93673644 0 0 Z " fill="#97A6D0" transform="translate(71,98)"/>
<path d="M0 0 C0 3.51716303 -0.82445585 4.37121748 -3 7 C-4.32 6.67 -5.64 6.34 -7 6 C-6.67 5.01 -6.34 4.02 -6 3 C-3.5 1.875 -3.5 1.875 -1 1 C-0.67 0.67 -0.34 0.34 0 0 Z " fill="#7795AA" transform="translate(112,68)"/>
<path d="M0 0 C-0.33 0.99 -0.66 1.98 -1 3 C-4.96 3 -8.92 3 -13 3 C-9.51105881 -0.48894119 -4.73283796 -0.13920112 0 0 Z " fill="#0685CB" transform="translate(284,70)"/>
<path d="M0 0 C1.98 0 3.96 0 6 0 C6 0.99 6 1.98 6 3 C3.69 3 1.38 3 -1 3 C-0.67 2.01 -0.34 1.02 0 0 Z " fill="#0D75B6" transform="translate(171,238)"/>
<path d="M0 0 C0.66 0.33 1.32 0.66 2 1 C0.02 3.31 -1.96 5.62 -4 8 C-4.66 7.67 -5.32 7.34 -6 7 C-6 6.01 -6 5.02 -6 4 C-3 1.8125 -3 1.8125 0 0 Z " fill="#1445B1" transform="translate(140,92)"/>
<path d="M0 0 C2.02045442 0.60183749 4.02111039 1.27306096 6 2 C6.33 2.66 6.66 3.32 7 4 C5.68 4 4.36 4 3 4 C2.67 4.66 2.34 5.32 2 6 C1.34 6 0.68 6 0 6 C0 4.02 0 2.04 0 0 Z " fill="#5D5598" transform="translate(91,64)"/>
<path d="M0 0 C0.33 1.32 0.66 2.64 1 4 C-2.375 4.625 -2.375 4.625 -6 5 C-6.66 4.34 -7.32 3.68 -8 3 C-6.865625 2.690625 -5.73125 2.38125 -4.5625 2.0625 C-1.21224901 1.37075469 -1.21224901 1.37075469 0 0 Z " fill="#2A92CA" transform="translate(209,251)"/>
<path d="M0 0 C0 0.99 0 1.98 0 3 C-6.625 3.25 -6.625 3.25 -10 1 C-2.25 0 -2.25 0 0 0 Z " fill="#345FC1" transform="translate(102,108)"/>
<path d="M0 0 C-0.66 1.65 -1.32 3.3 -2 5 C-2.33 4.01 -2.66 3.02 -3 2 C-4.32 2 -5.64 2 -7 2 C-7 1.34 -7 0.68 -7 0 C-4.3333581 -1.33332095 -2.83319697 -0.67102033 0 0 Z " fill="#11489A" transform="translate(111,92)"/>
<path d="M0 0 C0.33 0 0.66 0 1 0 C1.3125 2.8125 1.3125 2.8125 1 6 C-1.375 7.9375 -1.375 7.9375 -4 9 C-4.66 8.67 -5.32 8.34 -6 8 C-5.071875 7.4121875 -5.071875 7.4121875 -4.125 6.8125 C-1.67503632 4.72282509 -0.98120002 3.02536673 0 0 Z " fill="#2653B5" transform="translate(143,85)"/>
<path d="M0 0 C1.32 0 2.64 0 4 0 C6.25 2.5 6.25 2.5 8 5 C7.67 5.66 7.34 6.32 7 7 C3.17053157 5.54744301 1.87949705 3.57104439 0 0 Z " fill="#6C8CB9" transform="translate(134,67)"/>
<path d="M0 0 C2.31 0 4.62 0 7 0 C5 3 5 3 2.375 3.6875 C1.199375 3.8421875 1.199375 3.8421875 0 4 C0 2.68 0 1.36 0 0 Z " fill="#B7A8D5" transform="translate(105,68)"/>
<path d="M0 0 C0.66 0 1.32 0 2 0 C1.50168276 3.68754757 0.89932357 5.60490662 -2 8 C-3 5 -3 5 -1.6875 2.3125 C-1.130625 1.549375 -0.57375 0.78625 0 0 Z " fill="#1358A9" transform="translate(55,254)"/>
<path d="M0 0 C-1.49097658 3.7952131 -3.75700849 5.61042731 -7 8 C-4.18918919 0 -4.18918919 0 0 0 Z " fill="#B8210D" transform="translate(46,68)"/>
<path d="M0 0 C0.66 0.33 1.32 0.66 2 1 C1.39816251 3.02045442 0.72693904 5.02111039 0 7 C-0.99 7.495 -0.99 7.495 -2 8 C-1.125 2.25 -1.125 2.25 0 0 Z " fill="#0369CD" transform="translate(285,240)"/>
<path d="M0 0 C3.77545388 1.09068668 6.47043472 1.9083091 9 5 C2.25 3.125 2.25 3.125 0 2 C0 1.34 0 0.68 0 0 Z " fill="#1371C8" transform="translate(0,181)"/>
<path d="M0 0 C0.33 0 0.66 0 1 0 C1.08121924 1.60332791 1.13929134 3.20784026 1.1875 4.8125 C1.23970703 6.15248047 1.23970703 6.15248047 1.29296875 7.51953125 C0.95081002 10.41647515 0.24606427 11.22555028 -2 13 C-1.855625 12.34 -1.71125 11.68 -1.5625 11 C-0.87700084 7.34400449 -0.43824485 3.69377805 0 0 Z " fill="#1040A8" transform="translate(146,76)"/>
</svg>
