<?xml version="1.0" encoding="UTF-8"?>
<svg version="1.1" xmlns="http://www.w3.org/2000/svg" width="525" height="525">
<path d="M0 0 C173.25 0 346.5 0 525 0 C525 173.25 525 346.5 525 525 C351.75 525 178.5 525 0 525 C0 351.75 0 178.5 0 0 Z " fill="#FBD761" transform="translate(0,0)"/>
<path d="M0 0 C1.03987061 -0.00539795 2.07974121 -0.0107959 3.15112305 -0.01635742 C12.63343258 0.06944521 23.04623737 0.49198743 31.4375 5.3125 C34.19535704 8.45075112 34.60983682 11.30458945 35.1875 15.3125 C35.79644279 19.00688142 35.79644279 19.00688142 38.046875 21.859375 C39.29282881 22.65225469 40.54932884 23.42883411 41.81640625 24.1875 C43.4375 25.3125 43.4375 25.3125 44.875 28.0625 C46.68365385 38.5125 46.68365385 38.5125 43.75 42.75 C41.38089881 44.35074405 39.09810601 45.29326287 36.4375 46.3125 C36.36233154 47.27736328 36.36233154 47.27736328 36.28564453 48.26171875 C35.39586795 59.57661004 34.45783529 70.84508377 32.93359375 82.09375 C32.50924755 85.4421972 32.22776254 88.79078859 31.97265625 92.15625 C31.89337891 93.18355225 31.81410156 94.21085449 31.73242188 95.26928711 C31.58118544 97.29016812 31.44002266 99.31183673 31.31054688 101.33422852 C30.8247525 107.78270317 30.13305401 113.23711792 25.71875 118.2734375 C24.83703125 118.97339844 24.83703125 118.97339844 23.9375 119.6875 C23.3496875 120.16960937 22.761875 120.65171875 22.15625 121.1484375 C17.07937124 124.58686902 10.20703923 123.88904232 4.3125 124.1875 C3.11367187 124.27257812 1.91484375 124.35765625 0.6796875 124.4453125 C-7.02095935 124.81683494 -12.40328862 124.17030994 -18.5625 119.3125 C-21.89007509 115.73535677 -23.58890264 113.14496178 -24.02734375 108.32519531 C-24.10412354 107.50384094 -24.18090332 106.68248657 -24.26000977 105.83624268 C-24.33920654 104.94668884 -24.41840332 104.05713501 -24.5 103.140625 C-24.58499756 102.22545105 -24.66999512 101.3102771 -24.75756836 100.36737061 C-25.02967317 97.43274895 -25.29645161 94.49767645 -25.5625 91.5625 C-25.82916775 88.64166979 -26.09701744 85.72096189 -26.36743164 82.80047607 C-26.53561659 80.98204605 -26.70156966 79.16340784 -26.86499023 77.34454346 C-27.26888901 72.95749502 -27.82077805 68.65762289 -28.5625 64.3125 C-28.62828002 61.85495859 -28.64819162 59.39581222 -28.625 56.9375 C-28.61597656 55.69226563 -28.60695313 54.44703125 -28.59765625 53.1640625 C-28.58605469 52.22304687 -28.57445313 51.28203125 -28.5625 50.3125 C-26.0875 49.8175 -26.0875 49.8175 -23.5625 49.3125 C-21.98328044 53.64709426 -21.08636902 57.73980717 -20.5 62.3125 C-20.37322876 63.30068726 -20.37322876 63.30068726 -20.24389648 64.30883789 C-19.73240477 68.45187115 -19.37993798 72.58431342 -19.125 76.75 C-18.68571425 83.46259459 -17.9720826 90.13178166 -17.1875 96.8125 C-17.0164978 98.37182251 -17.0164978 98.37182251 -16.84204102 99.96264648 C-16.20061293 105.23846745 -15.63652544 109.82529699 -12.5625 114.3125 C-9.59288092 116.17588481 -7.3003323 116.56849492 -3.82421875 116.578125 C-2.46973633 116.58199219 -2.46973633 116.58199219 -1.08789062 116.5859375 C-0.15138672 116.57820313 0.78511719 116.57046875 1.75 116.5625 C2.67490234 116.57023437 3.59980469 116.57796875 4.55273438 116.5859375 C9.87569105 116.57080472 14.46321277 116.28381594 19.4375 114.3125 C21.74340648 110.85364028 22.02532883 108.04517258 22.4375 104.03125 C22.51816711 103.30945053 22.59883423 102.58765106 22.6819458 101.84397888 C22.94180257 99.50095165 23.18993769 97.15685541 23.4375 94.8125 C23.61233048 93.20769543 23.787787 91.60295895 23.96386719 89.99829102 C24.30790371 86.85105402 24.64722411 83.70336606 24.98242188 80.55517578 C25.35365621 77.07538394 25.74178084 73.59784456 26.140625 70.12109375 C26.32322542 68.49743053 26.50555328 66.87373661 26.6875 65.25 C26.76742187 64.56421875 26.84734375 63.8784375 26.9296875 63.171875 C27.33017246 59.45626452 27.47061451 55.80070757 27.45605469 52.06860352 C27.45337585 51.17569107 27.45069702 50.28277863 27.44793701 49.36280823 C27.4444928 48.68620651 27.44104858 48.0096048 27.4375 47.3125 C26.22392822 47.32297363 25.01035645 47.33344727 23.76000977 47.34423828 C19.17328956 47.38097308 14.58658177 47.40359097 9.99975586 47.42236328 C8.03033243 47.43230096 6.06092327 47.44585576 4.09155273 47.46337891 C-30.42154536 47.76234587 -30.42154536 47.76234587 -38.5625 41.3125 C-40.47372214 36.94867949 -39.81482126 32.28555815 -38.3125 27.875 C-36.5625 24.3125 -36.5625 24.3125 -33.5625 22.3125 C-30.85546875 22.08203125 -30.85546875 22.08203125 -27.75 22.125 C-26.22439453 22.13466797 -26.22439453 22.13466797 -24.66796875 22.14453125 C-21.5625 22.3125 -21.5625 22.3125 -18.92724609 22.81469727 C-14.79639005 23.42584336 -10.79018829 23.45577747 -6.62109375 23.4453125 C-5.77579605 23.44626923 -4.93049835 23.44722595 -4.05958557 23.44821167 C-2.28036423 23.44888947 -0.50114036 23.44706318 1.27807617 23.44287109 C3.99468553 23.43751049 6.71113007 23.4428331 9.42773438 23.44921875 C11.1614587 23.44855803 12.89518292 23.44727699 14.62890625 23.4453125 C15.84157921 23.44834885 15.84157921 23.44834885 17.07875061 23.45144653 C18.22034889 23.44671829 18.22034889 23.44671829 19.38500977 23.44189453 C20.04864029 23.44109894 20.71227081 23.44030334 21.39601135 23.43948364 C23.95141179 23.32659797 23.95141179 23.32659797 28.4375 22.3125 C27.4475 16.8675 27.4475 16.8675 26.4375 11.3125 C16.4340856 8.28765803 7.50834116 7.94659016 -2.8125 8.125 C-4.34764298 8.1400886 -5.88280046 8.15376955 -7.41796875 8.16601562 C-11.1331202 8.19865722 -14.84771333 8.25020353 -18.5625 8.3125 C-18.5625 8.9725 -18.5625 9.6325 -18.5625 10.3125 C-17.39154785 10.30202637 -16.2205957 10.29155273 -15.01416016 10.28076172 C-10.67939295 10.24462503 -6.34463911 10.22162267 -2.00976562 10.20263672 C-0.13181318 10.19256466 1.74612353 10.17890638 3.62402344 10.16162109 C6.3197009 10.13742547 9.01517146 10.12602917 11.7109375 10.1171875 C12.55369232 10.10686493 13.39644714 10.09654236 14.26473999 10.08590698 C16.32371247 10.08550856 18.38217935 10.18992412 20.4375 10.3125 C21.0975 10.9725 21.7575 11.6325 22.4375 12.3125 C22.0625 14.9375 22.0625 14.9375 21.4375 17.3125 C16.35484888 19.00671704 10.94503471 18.4984169 5.62573242 18.49780273 C3.53868296 18.49996002 1.45218826 18.51804026 -0.63476562 18.53710938 C-22.3006483 18.63204595 -22.3006483 18.63204595 -28.3125 13.6875 C-29.055 12.90375 -29.7975 12.12 -30.5625 11.3125 C-30.07191089 6.77455069 -30.07191089 6.77455069 -27.83984375 4.75 C-19.68746061 -0.39592967 -9.29492684 0.02955571 0 0 Z " fill="#3B3832" transform="translate(111.5625,71.6875)"/>
<path d="M0 0 C0.495 1.485 0.495 1.485 1 3 C0.34 3 -0.32 3 -1 3 C-1.03738281 4.02351562 -1.07476562 5.04703125 -1.11328125 6.1015625 C-1.52917884 16.05461844 -2.23450098 25.98754319 -3.13241577 35.90814209 C-3.25216377 37.25757481 -3.36566289 38.60757709 -3.47280884 39.95806885 C-3.62698981 41.87849192 -3.80719746 43.79677044 -3.98828125 45.71484375 C-4.08665283 46.82980225 -4.18502441 47.94476074 -4.28637695 49.09350586 C-5.15185142 52.61847114 -6.04786506 53.90342108 -9 56 C-11.84082031 56.54589844 -11.84082031 56.54589844 -15.078125 56.609375 C-16.23828125 56.64160156 -17.3984375 56.67382812 -18.59375 56.70703125 C-19.8003125 56.72121094 -21.006875 56.73539063 -22.25 56.75 C-23.47203125 56.77964844 -24.6940625 56.80929688 -25.953125 56.83984375 C-28.96881644 56.91052402 -31.9837355 56.96323175 -35 57 C-37.97479799 49.52550758 -38.84085773 42.16002725 -39.50805664 34.19848633 C-39.68693311 32.06924795 -39.88211605 29.9419935 -40.08007812 27.81445312 C-40.73906669 20.52285787 -41.15031589 13.32253108 -41 6 C-39.87464844 6.05220703 -39.87464844 6.05220703 -38.7265625 6.10546875 C-30.16055495 6.33202562 -23.30469519 5.1523476 -15.625 1.3125 C-10.42347461 -0.57081092 -5.4745673 -0.24271481 0 0 Z " fill="#F0EFEE" transform="translate(135,126)"/>
<path d="M0 0 C1.16015625 0.19916016 1.16015625 0.19916016 2.34375 0.40234375 C3.90609375 0.66724609 3.90609375 0.66724609 5.5 0.9375 C6.5209375 1.11152344 7.541875 1.28554687 8.59375 1.46484375 C15.87934862 2.60948482 22.78461999 3.13072541 30.15234375 3.0625 C31.09308243 3.05871338 32.03382111 3.05492676 33.00306702 3.05102539 C35.98125987 3.03889218 38.95935192 3.02024148 41.9375 3 C45.8841116 2.97350632 49.83067732 2.95349986 53.77734375 2.9375 C54.68765854 2.92920166 55.59797333 2.92090332 56.53587341 2.91235352 C58.69076347 2.90382882 60.84575677 2.94652161 63 3 C64 4 64 4 64.13761902 5.84172058 C64.12593415 12.81820214 63.58289428 19.67675598 62.86328125 26.61328125 C62.74196335 27.78585983 62.62064545 28.95843842 62.49565125 30.16654968 C62.23739221 32.62838266 61.97585116 35.08987335 61.71118164 37.55102539 C61.44455304 40.06660829 61.18777496 42.58325403 60.94067383 45.10083008 C60.58209459 48.75339563 60.19479812 52.40188896 59.80078125 56.05078125 C59.64262688 57.73679192 59.64262688 57.73679192 59.48127747 59.4568634 C58.93504994 64.2394608 58.55700662 67.22884647 55.69995117 71.18432617 C50.20856534 74.87719501 43.97131032 74.24606451 37.5625 74.3125 C36.1693457 74.35600586 36.1693457 74.35600586 34.74804688 74.40039062 C29.02850116 74.45331169 25.38242868 74.07683936 21 70 C19.38199871 66.60355815 18.63851691 63.47444364 18.18359375 59.75390625 C18.05984375 58.75907227 17.93609375 57.76423828 17.80859375 56.73925781 C17.68613281 55.69092773 17.56367187 54.64259766 17.4375 53.5625 C17.30601563 52.47936523 17.17453125 51.39623047 17.0390625 50.28027344 C16.26088766 43.71884466 15.70096302 37.19630201 15.31640625 30.6015625 C14.62112897 22.68741862 13.25435207 14.84167269 12 7 C10.68 7 9.36 7 8 7 C7.67 9.97 7.34 12.94 7 16 C6.67 16 6.34 16 6 16 C5.98582031 15.38511719 5.97164063 14.77023438 5.95703125 14.13671875 C5.81118652 11.66524186 5.60910012 9.40208498 5 7 C2.53884453 5.15565651 2.53884453 5.15565651 0 4 C0 2.68 0 1.36 0 0 Z M37.69140625 14.80859375 C32.98715984 16.89102503 28.79518698 17.11862843 23.6875 17.0625 C22.61886719 17.05347656 21.55023438 17.04445312 20.44921875 17.03515625 C19.64097656 17.02355469 18.83273438 17.01195312 18 17 C17.83513132 25.03145995 18.37333059 32.94012071 19.11694336 40.93188477 C19.31237966 43.06118893 19.49135694 45.19148876 19.66992188 47.32226562 C20.31841756 54.60661996 21.28524183 61.17888493 24 68 C28.25099983 67.94818033 32.4999593 67.8531128 36.75 67.75 C37.9565625 67.73582031 39.163125 67.72164062 40.40625 67.70703125 C41.56640625 67.67480469 42.7265625 67.64257812 43.921875 67.609375 C44.99018555 67.58842773 46.05849609 67.56748047 47.15917969 67.54589844 C50.73809274 66.85816644 51.88913396 65.95276329 54 63 C54.80457698 60.04138651 54.80457698 60.04138651 55.01171875 56.71484375 C55.12926514 55.46977051 55.24681152 54.22469727 55.36791992 52.94189453 C55.47507999 51.60714705 55.58159523 50.27234767 55.6875 48.9375 C55.80780752 47.58176208 55.92931324 46.22612997 56.05200195 44.87060547 C56.96024199 34.59583709 57.6235121 24.30797901 58 14 C58.66 14 59.32 14 60 14 C59.505 12.515 59.505 12.515 59 11 C50.90303637 10.35396567 45.03716142 11.30062087 37.69140625 14.80859375 Z " fill="#E6A92F" transform="translate(76,115)"/>
<path d="M0 0 C1.03987061 -0.00539795 2.07974121 -0.0107959 3.15112305 -0.01635742 C12.63343258 0.06944521 23.04623737 0.49198743 31.4375 5.3125 C34.19535704 8.45075112 34.60983682 11.30458945 35.1875 15.3125 C35.79644279 19.00688142 35.79644279 19.00688142 38.046875 21.859375 C39.29282881 22.65225469 40.54932884 23.42883411 41.81640625 24.1875 C43.4375 25.3125 43.4375 25.3125 44.875 28.0625 C46.67414122 38.45753817 46.67414122 38.45753817 43.8125 42.75 C41.10754117 44.52957818 38.55295201 45.46283127 35.4375 46.3125 C35.4375 45.6525 35.4375 44.9925 35.4375 44.3125 C34.7775 43.6525 34.1175 42.9925 33.4375 42.3125 C35.7475 41.6525 38.0575 40.9925 40.4375 40.3125 C39.85575155 35.0038151 39.85575155 35.0038151 37.4375 30.3125 C35.13845589 29.90960671 35.13845589 29.90960671 32.5625 30.0625 C31.69882813 30.07796875 30.83515625 30.0934375 29.9453125 30.109375 C27.55238495 30.21409918 27.55238495 30.21409918 25.78735352 30.8125 C22.32128351 31.55000768 18.86040541 31.49582231 15.33203125 31.515625 C14.13582405 31.52417511 14.13582405 31.52417511 12.91545105 31.53289795 C11.22172362 31.5423399 9.52797788 31.54887874 7.83422852 31.55273438 C5.30384589 31.56229652 2.77432769 31.59326419 0.24414062 31.625 C-10.67381096 31.6939918 -20.888496 30.59923226 -31.5625 28.3125 C-31.5625 27.3225 -31.5625 26.3325 -31.5625 25.3125 C-27.7452033 25.24552988 -24.24360465 25.202984 -20.46655273 25.81030273 C-16.15954918 26.36433352 -11.99906581 26.45643825 -7.6640625 26.4453125 C-6.82966644 26.44626923 -5.99527039 26.44722595 -5.1355896 26.44821167 C-3.37912927 26.44888885 -1.62266638 26.44706696 0.13378906 26.44287109 C2.79758434 26.43752991 5.46120999 26.44282487 8.125 26.44921875 C9.8411462 26.44855762 11.5572923 26.44727575 13.2734375 26.4453125 C14.05810394 26.44733673 14.84277039 26.44936096 15.6512146 26.45144653 C20.98085805 26.4292695 26.14829494 25.97471926 31.4375 25.3125 C31.68780977 22.89630177 31.68780977 22.89630177 31.4375 20.3125 C30.4475 19.6525 29.4575 18.9925 28.4375 18.3125 C27.25 14.6875 27.25 14.6875 26.4375 11.3125 C16.56529759 8.13519828 7.41791676 7.94815327 -2.8125 8.125 C-4.34764298 8.1400886 -5.88280046 8.15376955 -7.41796875 8.16601562 C-11.1331202 8.19865722 -14.84771333 8.25020353 -18.5625 8.3125 C-18.5625 8.9725 -18.5625 9.6325 -18.5625 10.3125 C-17.39154785 10.30202637 -16.2205957 10.29155273 -15.01416016 10.28076172 C-10.67939295 10.24462503 -6.34463911 10.22162267 -2.00976562 10.20263672 C-0.13181318 10.19256466 1.74612353 10.17890638 3.62402344 10.16162109 C6.3197009 10.13742547 9.01517146 10.12602917 11.7109375 10.1171875 C12.55369232 10.10686493 13.39644714 10.09654236 14.26473999 10.08590698 C16.32371247 10.08550856 18.38217935 10.18992412 20.4375 10.3125 C21.0975 10.9725 21.7575 11.6325 22.4375 12.3125 C22.0625 14.9375 22.0625 14.9375 21.4375 17.3125 C16.35484888 19.00671704 10.94503471 18.4984169 5.62573242 18.49780273 C3.53868296 18.49996002 1.45218826 18.51804026 -0.63476562 18.53710938 C-22.3006483 18.63204595 -22.3006483 18.63204595 -28.3125 13.6875 C-29.055 12.90375 -29.7975 12.12 -30.5625 11.3125 C-30.07191089 6.77455069 -30.07191089 6.77455069 -27.83984375 4.75 C-19.68746061 -0.39592967 -9.29492684 0.02955571 0 0 Z " fill="#292522" transform="translate(111.5625,71.6875)"/>
<path d="M0 0 C4.516875 -0.1546875 4.516875 -0.1546875 9.125 -0.3125 C10.06230957 -0.35802002 10.99961914 -0.40354004 11.96533203 -0.45043945 C16.21213244 -0.52054106 19.15889355 -0.37915692 22.578125 2.30078125 C25 5 25 5 25.625 8.5 C24.9226872 12.43295171 23.75091768 14.16311615 21 17 C21.825 17.474375 22.65 17.94875 23.5 18.4375 C26.64130467 21.65733729 26.61886346 23.36034142 26.76171875 27.68359375 C25.81999832 30.54738971 24.34519249 32.19832386 21.96313477 34.02514648 C18.05338537 35.96664995 13.88616445 35.50852328 9.625 35.3125 C6.44875 35.209375 3.2725 35.10625 0 35 C0 23.45 0 11.9 0 0 Z " fill="#413E36" transform="translate(75,361)"/>
<path d="M0 0 C1.67542976 0.28604898 3.34385343 0.61781233 5 1 C8.0531491 20.08698242 8.0531491 20.08698242 8.5 27.75 C8.8955105 34.36293558 9.60070882 40.92245541 10.375 47.5 C10.48908203 48.53995117 10.60316406 49.57990234 10.72070312 50.65136719 C11.38206792 56.0925957 12.31832748 60.14602292 15 65 C15 66.32 15 67.64 15 69 C19.33327584 69.05848483 23.66644885 69.09375916 28 69.125 C29.22074219 69.14175781 30.44148438 69.15851563 31.69921875 69.17578125 C38.12079948 69.2104925 43.92604868 69.20805143 50 67 C53.70308305 62.79850127 54.34208987 58.48258444 55 53 C55.66 52.67 56.32 52.34 57 52 C58.03239711 63.64314516 58.03239711 63.64314516 54.375 68.0625 C48.01211085 74.67788475 40.33289993 74.67410986 31.6875 75 C30.50220703 75.07605469 29.31691406 75.15210938 28.09570312 75.23046875 C20.46894951 75.54349136 15.10381239 74.7803014 9 70 C5.67242491 66.42285677 3.97359736 63.83246178 3.53515625 59.01269531 C3.45837646 58.19134094 3.38159668 57.36998657 3.30249023 56.52374268 C3.22329346 55.63418884 3.14409668 54.74463501 3.0625 53.828125 C2.97750244 52.91295105 2.89250488 51.9977771 2.80493164 51.05487061 C2.53282683 48.12024895 2.26604839 45.18517645 2 42.25 C1.73333225 39.32916979 1.46548256 36.40846189 1.19506836 33.48797607 C1.02688341 31.66954605 0.86093034 29.85090784 0.69750977 28.03204346 C0.29362948 23.64519586 -0.25413946 19.34437442 -1 15 C-1.08954721 12.56378908 -1.13014858 10.12535066 -1.125 7.6875 C-1.12757812 6.45386719 -1.13015625 5.22023438 -1.1328125 3.94921875 C-1 1 -1 1 0 0 Z " fill="#2B2A2A" transform="translate(84,121)"/>
<path d="M0 0 C1.12728516 0.00386719 1.12728516 0.00386719 2.27734375 0.0078125 C3.37755859 0.00394531 3.37755859 0.00394531 4.5 0 C7.21484375 0.1328125 7.21484375 0.1328125 10.82495117 0.6328125 C15.28467249 1.19949311 19.67709264 1.27731908 24.16796875 1.265625 C24.99061218 1.26658173 25.81325562 1.26753845 26.66082764 1.26852417 C28.385214 1.26919998 30.109603 1.26738782 31.83398438 1.26318359 C34.47141189 1.25779909 37.10867126 1.26316303 39.74609375 1.26953125 C41.42838579 1.2688709 43.11067773 1.26759063 44.79296875 1.265625 C45.9711618 1.26866135 45.9711618 1.26866135 47.17315674 1.27175903 C50.7040599 1.2566093 53.81264754 1.01896216 57.21484375 0.1328125 C58.94215816 0.04259946 60.6726827 0.00270272 62.40234375 0.0078125 C63.28277344 0.00523438 64.16320312 0.00265625 65.0703125 0 C67.21484375 0.1328125 67.21484375 0.1328125 68.21484375 1.1328125 C68.25577312 3.46578683 68.25726098 5.79986475 68.21484375 8.1328125 C57.93851925 11.24645754 48.24849205 11.56882237 37.59594727 11.46899414 C34.91717138 11.44544286 32.23940009 11.44845034 29.56054688 11.45507812 C0.4885528 11.40652155 0.4885528 11.40652155 -2.78515625 8.1328125 C-2.91015625 4.6328125 -2.91015625 4.6328125 -2.78515625 1.1328125 C-1.78515625 0.1328125 -1.78515625 0.1328125 0 0 Z " fill="#E8AC32" transform="translate(81.78515625,100.8671875)"/>
<path d="M0 0 C1.03987061 -0.00539795 2.07974121 -0.0107959 3.15112305 -0.01635742 C12.76807653 0.07066356 22.8455866 0.64298185 31.4375 5.3125 C32.0975 6.3025 32.7575 7.2925 33.4375 8.3125 C32.69628906 8.09956299 31.95507812 7.88662598 31.19140625 7.66723633 C22.53709571 5.40236513 14.53457429 4.87345413 5.63232422 4.97631836 C3.41207501 5.00027433 1.19300516 4.99680634 -1.02734375 4.99023438 C-9.57799201 4.73049199 -9.57799201 4.73049199 -17.5625 7.3125 C-17.8925 8.3025 -18.2225 9.2925 -18.5625 10.3125 C-17.39154785 10.30202637 -16.2205957 10.29155273 -15.01416016 10.28076172 C-10.67939295 10.24462503 -6.34463911 10.22162267 -2.00976562 10.20263672 C-0.13181318 10.19256466 1.74612353 10.17890638 3.62402344 10.16162109 C6.3197009 10.13742547 9.01517146 10.12602917 11.7109375 10.1171875 C12.55369232 10.10686493 13.39644714 10.09654236 14.26473999 10.08590698 C16.32371247 10.08550856 18.38217935 10.18992412 20.4375 10.3125 C21.0975 10.9725 21.7575 11.6325 22.4375 12.3125 C22.0625 14.9375 22.0625 14.9375 21.4375 17.3125 C16.35484888 19.00671704 10.94503471 18.4984169 5.62573242 18.49780273 C3.53868296 18.49996002 1.45218826 18.51804026 -0.63476562 18.53710938 C-22.3006483 18.63204595 -22.3006483 18.63204595 -28.3125 13.6875 C-29.055 12.90375 -29.7975 12.12 -30.5625 11.3125 C-30.07191089 6.77455069 -30.07191089 6.77455069 -27.83984375 4.75 C-19.68746061 -0.39592967 -9.29492684 0.02955571 0 0 Z " fill="#2C2926" transform="translate(111.5625,71.6875)"/>
<path d="M0 0 C2.14809171 3.22213757 2.29386153 4.27775401 2 8 C-1.25119273 11.25119273 -10.38417859 10.12062905 -14.7862854 10.13894653 C-15.57095184 10.1369223 -16.35561829 10.13489807 -17.1640625 10.1328125 C-18.00037201 10.13376923 -18.83668152 10.13472595 -19.69833374 10.13571167 C-21.45123368 10.13638696 -23.20413623 10.13457856 -24.95703125 10.13037109 C-27.62505744 10.12499988 -30.29291636 10.13034531 -32.9609375 10.13671875 C-34.67447953 10.13605812 -36.38802147 10.13477726 -38.1015625 10.1328125 C-39.28463486 10.13584885 -39.28463486 10.13584885 -40.49160767 10.13894653 C-45.08602759 10.11966839 -49.45131798 9.73139048 -54 9 C-56.6793948 8.89248014 -59.31632049 8.9529179 -62 9 C-62 9.33 -62 9.66 -62 10 C-59.03 10.495 -59.03 10.495 -56 11 C-56 11.33 -56 11.66 -56 12 C-57.98 12.33 -59.96 12.66 -62 13 C-62.39739246 17.92290686 -62.39739246 17.92290686 -60.5625 22.375 C-54.33697726 26.32289247 -45.0009158 25.19448549 -37.83984375 25.31640625 C-36.80936417 25.33718735 -35.77888458 25.35796844 -34.71717834 25.37937927 C-31.4573469 25.444247 -28.19744175 25.50346491 -24.9375 25.5625 C-22.71418539 25.60574506 -20.49087796 25.64936117 -18.26757812 25.69335938 C-12.84512776 25.79986308 -7.42260569 25.90174056 -2 26 C-2.66 26.33 -3.32 26.66 -4 27 C-4 27.66 -4 28.32 -4 29 C-7.96459282 30.29949462 -11.98187716 30.16190872 -16.10546875 30.16796875 C-17.30167595 30.17296135 -17.30167595 30.17296135 -18.52204895 30.17805481 C-20.21578396 30.18311597 -21.90952892 30.18546339 -23.60327148 30.18530273 C-26.13348123 30.18745407 -28.66322881 30.20551873 -31.19335938 30.22460938 C-39.28262268 30.25484164 -47.312027 30.06449165 -55.36328125 29.23828125 C-56.04730515 29.17730759 -56.73132904 29.11633392 -57.43608093 29.05351257 C-62.19275567 28.48930852 -65.26993784 26.96788118 -69 24 C-70.91122214 19.63617949 -70.25232126 14.97305815 -68.75 10.5625 C-67 7 -67 7 -64 5 C-61.29296875 4.76953125 -61.29296875 4.76953125 -58.1875 4.8125 C-56.66189453 4.82216797 -56.66189453 4.82216797 -55.10546875 4.83203125 C-52 5 -52 5 -49.36474609 5.50219727 C-45.23389005 6.11334336 -41.22768829 6.14327747 -37.05859375 6.1328125 C-36.21329605 6.13376923 -35.36799835 6.13472595 -34.49708557 6.13571167 C-32.71786423 6.13638947 -30.93864036 6.13456318 -29.15942383 6.13037109 C-26.44281447 6.12501049 -23.72636993 6.1303331 -21.00976562 6.13671875 C-19.2760413 6.13605803 -17.54231708 6.13477699 -15.80859375 6.1328125 C-14.59592079 6.13584885 -14.59592079 6.13584885 -13.35874939 6.13894653 C-9.43841809 6.12270941 -5.82834482 5.9655963 -2 5 C-1.855625 4.360625 -1.71125 3.72125 -1.5625 3.0625 C-1 1 -1 1 0 0 Z " fill="#2B2623" transform="translate(142,89)"/>
<path d="M0 0 C3.70433057 2.11676033 5.37000556 4.13053495 7 8 C7.7823752 13.58839427 7.26305796 18.27419192 4 23 C0.21568446 26.44028686 -3.71595276 26.51227536 -8.625 26.3515625 C-12.08089231 25.83999949 -13.73468427 24.61927131 -16 22 C-18.56603318 17.72327804 -18.70909135 12.85257696 -18 8 C-13.68890933 -0.17620645 -8.6725338 -1.04121196 0 0 Z " fill="#3B3A35" transform="translate(351,370)"/>
<path d="M0 0 C1.65 0 3.3 0 5 0 C5.33 0.99 5.66 1.98 6 3 C6.33 2.505 6.66 2.01 7 1.5 C9.72377387 -0.5428304 11.79205702 -0.4149687 15.125 -0.3046875 C17 0 17 0 19 1.5 C19.33 1.995 19.66 2.49 20 3 C20.60521484 2.27103516 20.60521484 2.27103516 21.22265625 1.52734375 C23.43123982 -0.37058191 24.55943962 -0.43264661 27.4375 -0.4375 C28.19933594 -0.45683594 28.96117187 -0.47617187 29.74609375 -0.49609375 C33.14139187 0.2512249 34.0894083 1.04569907 36 4 C36.49125016 7.76138608 36.37488228 11.46510622 36.25 15.25 C36.23195312 16.28125 36.21390625 17.3125 36.1953125 18.375 C36.14822712 20.91761064 36.0824805 23.45833162 36 26 C34.02 26 32.04 26 30 26 C29.97494385 25.42967041 29.9498877 24.85934082 29.92407227 24.27172852 C29.80843451 21.70173843 29.68556376 19.13214473 29.5625 16.5625 C29.52318359 15.66466797 29.48386719 14.76683594 29.44335938 13.84179688 C29.40146484 12.98779297 29.35957031 12.13378906 29.31640625 11.25390625 C29.27974854 10.46314697 29.24309082 9.6723877 29.20532227 8.85766602 C29.19436743 6.98598559 29.19436743 6.98598559 28 6 C25.5 5.83333333 25.5 5.83333333 23 6 C21.45049732 7.54950268 21.78344807 9.09990594 21.68359375 11.25390625 C21.64169922 12.10791016 21.59980469 12.96191406 21.55664062 13.84179688 C21.51732422 14.73962891 21.47800781 15.63746094 21.4375 16.5625 C21.39431641 17.46419922 21.35113281 18.36589844 21.30664062 19.29492188 C21.20021858 21.52978485 21.09820012 23.76476308 21 26 C19.02 26 17.04 26 15 26 C14.97494385 25.42967041 14.9498877 24.85934082 14.92407227 24.27172852 C14.80843451 21.70173843 14.68556376 19.13214473 14.5625 16.5625 C14.52318359 15.66466797 14.48386719 14.76683594 14.44335938 13.84179688 C14.40146484 12.98779297 14.35957031 12.13378906 14.31640625 11.25390625 C14.27974854 10.46314697 14.24309082 9.6723877 14.20532227 8.85766602 C14.19436743 6.98598559 14.19436743 6.98598559 13 6 C10.5 5.83333333 10.5 5.83333333 8 6 C6.45049732 7.54950268 6.78344807 9.09990594 6.68359375 11.25390625 C6.64169922 12.10791016 6.59980469 12.96191406 6.55664062 13.84179688 C6.49766602 15.18854492 6.49766602 15.18854492 6.4375 16.5625 C6.39431641 17.46419922 6.35113281 18.36589844 6.30664062 19.29492188 C6.20021858 21.52978485 6.09820012 23.76476308 6 26 C4.02 26 2.04 26 0 26 C0 17.42 0 8.84 0 0 Z " fill="#3B3A35" transform="translate(176,370)"/>
<path d="M0 0 C4.45411364 2.1098433 7.19291449 4.38189258 9 9 C9.55419306 13.66445828 9.51972213 17.65966399 7.8125 22.0625 C5.5495246 24.48154267 4.28203357 24.8399008 1 25 C-0.33841672 24.68770276 -1.67139075 24.35169068 -3 24 C-4.7325 24.0928125 -4.7325 24.0928125 -6.5 24.1875 C-10 24 -10 24 -12.4375 22.5 C-14.60578832 19.0307387 -14.89996291 15.91794196 -14 12 C-11.8125 9 -11.8125 9 -9 7 C-5.34951143 6.45242671 -2.71283445 7.25743311 1 8 C1.33 12.29 1.66 16.58 2 21 C2.99 21.33 3.98 21.66 5 22 C5.69900256 13.56168423 5.69900256 13.56168423 3.25 5.6875 C-1.62912786 3.15410669 -6.61952217 2.92686481 -12 4 C-14.27330544 5.88095831 -15.68391171 7.36782342 -17 10 C-17.41251687 14.92640344 -17.6526414 19.47717008 -15.6875 24.0625 C-13.96162871 26.2156101 -13.96162871 26.2156101 -11 28 C-7.79620876 28.24246783 -7.79620876 28.24246783 -4.3125 28.125 C-3.13300781 28.10695313 -1.95351562 28.08890625 -0.73828125 28.0703125 C0.16535156 28.04710937 1.06898437 28.02390625 2 28 C2 28.99 2 29.98 2 31 C-1.92761596 32.96380798 -6.70824959 32.3363636 -11 32 C-13.875 30.875 -13.875 30.875 -16 29 C-16.928125 28.236875 -17.85625 27.47375 -18.8125 26.6875 C-22.1531186 22.49058359 -21.61600338 17.41040865 -21.421875 12.29296875 C-20.85819333 7.89312015 -20.12102722 6.12102722 -17 3 C-11.5463041 -0.87943316 -6.48997264 -0.79146008 0 0 Z " fill="#4F4935" transform="translate(95,428)"/>
<path d="M0 0 C1.16015625 -0.020625 2.3203125 -0.04125 3.515625 -0.0625 C11.0623877 -0.09626628 18.87424069 0.13431771 25.875 3.25 C28.35862947 7.01454183 28.43474596 10.84745956 28.875 15.25 C23.69623428 17.35501166 19.24553515 17.51421742 13.7578125 17.4453125 C12.90065643 17.4424826 12.04350037 17.43965271 11.16036987 17.43673706 C8.44010068 17.42559999 5.72016859 17.4005076 3 17.375 C1.14844228 17.36496182 -0.70312064 17.35583744 -2.5546875 17.34765625 C-7.0782536 17.32568188 -11.60156977 17.291197 -16.125 17.25 C-15.795 16.26 -15.465 15.27 -15.125 14.25 C-15.90875 13.981875 -16.6925 13.71375 -17.5 13.4375 C-20.125 12.25 -20.125 12.25 -22.125 9.25 C-20.38863281 9.49363281 -20.38863281 9.49363281 -18.6171875 9.7421875 C-12.2139351 10.4519879 -5.79995068 10.39986727 0.63378906 10.38037109 C2.76634659 10.37495851 4.89869843 10.38037187 7.03125 10.38671875 C8.39322963 10.38605881 9.75520913 10.38477939 11.1171875 10.3828125 C12.3429248 10.38168457 13.56866211 10.38055664 14.83154297 10.37939453 C17.91992305 10.38816169 17.91992305 10.38816169 20.875 9.25 C20.38 6.775 20.38 6.775 19.875 4.25 C18.83569336 4.25523682 17.79638672 4.26047363 16.72558594 4.26586914 C12.86410384 4.2839898 9.00262548 4.29545786 5.14111328 4.30493164 C3.47085945 4.30995569 1.80061001 4.31677605 0.13037109 4.32543945 C-2.27247196 4.33758946 -4.67525679 4.34324763 -7.078125 4.34765625 C-7.82306213 4.35281754 -8.56799927 4.35797882 -9.33551025 4.36329651 C-12.74002191 4.36366364 -15.87164759 4.32330918 -19.125 3.25 C-19.125 2.59 -19.125 1.93 -19.125 1.25 C-12.72465904 0.05984903 -6.49308197 0.0282923 0 0 Z " fill="#E3A72E" transform="translate(112.125,78.75)"/>
<path d="M0 0 C2.81857675 2.04346815 4.1038299 3.63233476 5.5 6.8125 C5.5 8.1325 5.5 9.4525 5.5 10.8125 C3.52 10.8125 1.54 10.8125 -0.5 10.8125 C-0.7475 10.19375 -0.995 9.575 -1.25 8.9375 C-2.7908453 6.31806299 -3.58980346 5.67769357 -6.5 4.8125 C-11.46682671 4.93991434 -11.46682671 4.93991434 -15.375 7.6875 C-17.62838077 11.9438859 -18.1708277 16.07198423 -17.5 20.8125 C-15.25837575 25.06916699 -15.25837575 25.06916699 -11.5 27.8125 C-8.5842309 28.22952122 -8.5842309 28.22952122 -5.5 27.8125 C-3.19724444 25.9454009 -1.82176129 24.45602259 -0.5 21.8125 C1.48 21.8125 3.46 21.8125 5.5 21.8125 C5.22301826 25.78257156 4.73315777 27.53639212 2.125 30.625 C-2.42471431 34.41642859 -6.8360074 34.21142746 -12.546875 34.15625 C-17.11724918 33.62424877 -18.53911874 32.30482148 -21.5 28.8125 C-25.46597618 23.39233255 -25.25304172 17.25989088 -24.5 10.8125 C-23.21900393 6.33986965 -21.2533249 3.54745112 -17.9375 0.3125 C-11.96789562 -2.29241827 -6.12481679 -2.07806284 0 0 Z " fill="#3C3B35" transform="translate(322.5,362.1875)"/>
<path d="M0 0 C3.53536291 2.02020738 5.76937948 4.08438925 7 8 C7 10.31 7 12.62 7 15 C1.06 15 -4.88 15 -11 15 C-10.34 16.65 -9.68 18.3 -9 20 C-5.59679066 20.67673447 -5.59679066 20.67673447 -2 21 C-1.34 20.34 -0.68 19.68 0 19 C3.125 18.875 3.125 18.875 6 19 C4.75023244 22.65316671 4.32901247 23.78065836 1 26 C-4.61909022 26.76041819 -9.43259154 27.12853409 -14.125 23.75 C-14.74375 22.8425 -15.3625 21.935 -16 21 C-16.433125 20.401875 -16.86625 19.80375 -17.3125 19.1875 C-18.61812118 15.0332508 -18.80808173 11.04209817 -17.20703125 6.99609375 C-13.04580398 -0.64079462 -8.03491143 -0.96465994 0 0 Z " fill="#444136" transform="translate(415,370)"/>
<path d="M0 0 C1.29550781 -0.02126953 1.29550781 -0.02126953 2.6171875 -0.04296875 C5.29467655 0.20309333 6.85901515 0.76754879 9.125 2.1875 C12.90594467 6.7786471 12.125 8.53307211 12.125 15.1875 C6.185 15.1875 0.245 15.1875 -5.875 15.1875 C-3.895 18.1575 -3.895 18.1575 -1.875 21.1875 C0.71155333 21.85493877 0.71155333 21.85493877 3.125 21.1875 C3.785 20.5275 4.445 19.8675 5.125 19.1875 C8.75 19.0625 8.75 19.0625 12.125 19.1875 C10.32087357 22.45210973 9.29105307 24.07679795 6.125 26.1875 C1.35055137 26.9660176 -3.63425964 27.39659195 -7.99609375 25.04296875 C-11.57885559 21.51175744 -12.30993185 18.07163956 -12.5625 13.125 C-12.3706777 9.20002054 -11.99441662 6.58265218 -9.5 3.5 C-6.05025956 0.46094295 -4.4915255 0.03331992 0 0 Z " fill="#413E35" transform="translate(437.875,369.8125)"/>
<path d="M0 0 C3.53536291 2.02020738 5.76937948 4.08438925 7 8 C7 10.31 7 12.62 7 15 C1.06 15 -4.88 15 -11 15 C-10.34 16.65 -9.68 18.3 -9 20 C-5.59679066 20.67673447 -5.59679066 20.67673447 -2 21 C-1.34 20.34 -0.68 19.68 0 19 C3.125 18.875 3.125 18.875 6 19 C5.71364159 21.76813126 5.18075889 22.8312917 3.125 24.75 C-1.56864122 26.62745649 -6.01855387 26.82276137 -11 26 C-13.89683868 23.7984026 -15.39297231 22.21405538 -17 19 C-17.14851844 17.06640414 -17.22130833 15.12657903 -17.25 13.1875 C-17.27578125 12.14980469 -17.3015625 11.11210937 -17.328125 10.04296875 C-16.95408344 6.57417855 -16.07568054 4.77889007 -14 2 C-9.54422653 -0.97051564 -5.22557394 -0.62737491 0 0 Z " fill="#413E36" transform="translate(235,370)"/>
<path d="M0 0 C0.92683594 -0.01933594 1.85367187 -0.03867187 2.80859375 -0.05859375 C6.64968604 0.6333477 8.07647646 1.37468322 10.5625 4.4375 C11.17832256 8.20436466 11.03187805 11.88381067 10.875 15.6875 C10.85244141 16.71875 10.82988281 17.75 10.80664062 18.8125 C10.74777163 21.35564065 10.66560065 23.89583113 10.5625 26.4375 C7.5625 26.4375 4.5625 26.4375 1.5625 26.4375 C0.51255859 26.48970703 0.51255859 26.48970703 -0.55859375 26.54296875 C-4.01434397 26.66534776 -6.75354826 26.704408 -10 25.4375 C-11.94359364 22.73336972 -11.87727831 20.64044969 -11.87109375 17.375 C-11.29308254 14.79217515 -10.57862368 13.99836117 -8.4375 12.4375 C-5.51953125 11.48828125 -5.51953125 11.48828125 -2.25 10.75 C-0.61998047 10.37294922 -0.61998047 10.37294922 1.04296875 9.98828125 C1.87441406 9.80652344 2.70585937 9.62476563 3.5625 9.4375 C3.2325 8.1175 2.9025 6.7975 2.5625 5.4375 C0.14604218 5.27062552 0.14604218 5.27062552 -2.4375 5.4375 C-3.0975 6.0975 -3.7575 6.7575 -4.4375 7.4375 C-7.5625 7.5625 -7.5625 7.5625 -10.4375 7.4375 C-10.0764803 4.82010719 -9.67919976 3.66537254 -7.73046875 1.828125 C-4.95881156 0.1471881 -3.2242186 0.00447187 0 0 Z " fill="#3B3A35" transform="translate(269.4375,369.5625)"/>
<path d="M0 0 C1.98 0 3.96 0 6 0 C6.33 6.6 6.66 13.2 7 20 C8.98 20 10.96 20 13 20 C15.35358251 17.64641749 15.27871904 17.07031606 15.4140625 13.8671875 C15.45273438 13.06152344 15.49140625 12.25585938 15.53125 11.42578125 C15.57765625 10.16314453 15.57765625 10.16314453 15.625 8.875 C15.68300781 7.60076172 15.68300781 7.60076172 15.7421875 6.30078125 C15.83656494 4.20088316 15.91937586 2.10047109 16 0 C18.31 0 20.62 0 23 0 C23 8.58 23 17.16 23 26 C21.02 26 19.04 26 17 26 C16.67 25.01 16.34 24.02 16 23 C15.505 23.495 15.01 23.99 14.5 24.5 C11.49466558 26.30320065 9.43082283 26.43293018 6 26.59375 C2.6104037 25.5874636 1.72083157 24.06475534 0 21 C-0.47830632 17.38076599 -0.37720353 13.82992413 -0.25 10.1875 C-0.23195313 9.20845703 -0.21390625 8.22941406 -0.1953125 7.22070312 C-0.14832887 4.81279229 -0.08265694 2.40690665 0 0 Z " fill="#403E35" transform="translate(107,370)"/>
<path d="M0 0 C2.31 0 4.62 0 7 0 C8.65 5.28 10.3 10.56 12 16 C14.1491917 12.77621244 15.024994 10.01585352 16.125 6.3125 C16.47820312 5.13300781 16.83140625 3.95351563 17.1953125 2.73828125 C17.46085937 1.83464844 17.72640625 0.93101562 18 0 C20.31 0 22.62 0 25 0 C22.91175483 7.20892556 20.5866671 14.30733212 18.0625 21.375 C17.56073242 22.83099609 17.56073242 22.83099609 17.04882812 24.31640625 C16.54706055 25.71826172 16.54706055 25.71826172 16.03515625 27.1484375 C15.59248413 28.40406494 15.59248413 28.40406494 15.14086914 29.68505859 C13.79103343 32.42401477 12.36745885 34.07607967 10 36 C6.25 36.25 6.25 36.25 3 36 C2.505 34.515 2.505 34.515 2 33 C3.39195915 30.2160817 5.15575779 30.02101003 8 29 C7.43615943 22.26567877 5.65441874 16.36541026 3.4375 10 C3.10814453 9.03449219 2.77878906 8.06898438 2.43945312 7.07421875 C1.63313798 4.71370194 0.81987837 2.35583283 0 0 Z " fill="#3E3C35" transform="translate(134,370)"/>
<path d="M0 0 C0.66 0.66 1.32 1.32 2 2 C2.33 1.34 2.66 0.68 3 0 C3.99 0 4.98 0 6 0 C6.11622939 3.74973906 6.1872595 7.49901464 6.25 11.25 C6.30027344 12.84521484 6.30027344 12.84521484 6.3515625 14.47265625 C6.36445313 15.49746094 6.37734375 16.52226562 6.390625 17.578125 C6.41157227 18.52075195 6.43251953 19.46337891 6.45410156 20.43457031 C5.86631417 23.75525307 4.56794931 24.89287283 2 27 C-1.01868434 28.50934217 -3.67297229 28.17510672 -7 28 C-7.99 27.34 -8.98 26.68 -10 26 C-9.67 24.68 -9.34 23.36 -9 22 C-8.01 22.66 -7.02 23.32 -6 24 C-3.93089407 24.02749478 -3.93089407 24.02749478 -1.8125 23.625 C-0.554375 23.41875 0.70375 23.2125 2 23 C2 21.35 2 19.7 2 18 C1.34 18.66 0.68 19.32 0 20 C-4.54247537 19.92673427 -6.93012107 19.80893285 -10.5625 17.0625 C-12.68009408 12.55110391 -12.23656851 8.76159172 -11 4 C-8.1559173 -0.59428744 -5.15969598 -0.57329955 0 0 Z " fill="#494534" transform="translate(171,433)"/>
<path d="M0 0 C0.99 0 1.98 0 3 0 C3 8.58 3 17.16 3 26 C1.68 25.67 0.36 25.34 -1 25 C-1.33 25.33 -1.66 25.66 -2 26 C-9.07246377 26.69565217 -9.07246377 26.69565217 -12.5 24.125 C-14.62950278 19.68853587 -14.7766895 15.83449584 -14 11 C-12.375 7.875 -12.375 7.875 -10 6 C-5.8865729 5.41236756 -4.49565336 5.66956442 -1 8 C-0.67 5.36 -0.34 2.72 0 0 Z " fill="#3F3D34" transform="translate(122,427)"/>
<path d="M0 0 C3.39704609 0.96289511 4.42036481 2.65033077 6.21875 5.62890625 C7.13900095 11.41430744 7.65810367 18.36994103 4.28125 23.44140625 C1.28067893 26.62383011 1.28067893 26.62383011 -2.59375 26.94140625 C-5.78576891 26.90702185 -6.59236803 26.76584568 -9.28125 24.81640625 C-10.78125 22.62890625 -10.78125 22.62890625 -10.78125 19.62890625 C-9.79125 19.62890625 -8.80125 19.62890625 -7.78125 19.62890625 C-7.12125 20.61890625 -6.46125 21.60890625 -5.78125 22.62890625 C-2.69759129 22.87912195 -2.69759129 22.87912195 0.21875 22.62890625 C1.20875 20.31890625 2.19875 18.00890625 3.21875 15.62890625 C2.22875 16.28890625 1.23875 16.94890625 0.21875 17.62890625 C-3.43131827 18.10500211 -5.34921727 17.84492261 -8.65625 16.19140625 C-11.36063387 12.93023746 -11.46041133 10.89924199 -11.1875 6.7578125 C-10.78125 4.62890625 -10.78125 4.62890625 -9.34375 2.06640625 C-6.12233668 0.25927195 -3.64334761 0.10605635 0 0 Z " fill="#454235" transform="translate(332.78125,426.37109375)"/>
<path d="M0 0 C0.10957031 1.30195313 0.21914062 2.60390625 0.33203125 3.9453125 C0.49155601 5.67193346 0.65174751 7.39849291 0.8125 9.125 C0.88275391 9.9809375 0.95300781 10.836875 1.02539062 11.71875 C1.51759363 16.8376612 2.52068829 20.42176412 5 25 C5 26.32 5 27.64 5 29 C9.33327584 29.05848483 13.66644885 29.09375916 18 29.125 C19.22074219 29.14175781 20.44148438 29.15851563 21.69921875 29.17578125 C28.12079948 29.2104925 33.92604868 29.20805143 40 27 C43.70308305 22.79850127 44.34208987 18.48258444 45 13 C45.66 12.67 46.32 12.34 47 12 C48.03239711 23.64314516 48.03239711 23.64314516 44.375 28.0625 C38.01211085 34.67788475 30.33289993 34.67410986 21.6875 35 C20.50220703 35.07605469 19.31691406 35.15210938 18.09570312 35.23046875 C11.4089021 35.50491316 6.28324118 35.21389209 0.58911133 31.47119141 C-1 30 -1 30 -2.0625 27.23046875 C-2.041875 26.22628906 -2.02125 25.22210938 -2 24.1875 C-2.00902344 23.0634375 -2.01804687 21.939375 -2.02734375 20.78125 C-2.01832031 19.5334375 -2.00929688 18.285625 -2 17 C-2.14398093 14.05933883 -2.35528234 11.1242858 -2.5625 8.1875 C-2.64878916 6.80609189 -2.73356681 5.42458802 -2.81640625 4.04296875 C-2.87699219 3.03878906 -2.93757813 2.03460938 -3 1 C-1 0 -1 0 0 0 Z " fill="#332A1F" transform="translate(94,161)"/>
<path d="M0 0 C3.00398345 2.55658166 4.62059971 4.14635857 5.41015625 8.00390625 C5.60485117 12.46495944 4.74452719 15.51656165 2 19 C-1.24898288 20.62449144 -4.50033527 20.68922651 -8 20 C-11.0874681 17.42710991 -12.58386894 15.88916134 -13.44140625 11.99609375 C-13.65854308 8.30476763 -13.10708037 6.16775924 -11.125 3.0625 C-7.54079576 -0.41628647 -4.9520636 -0.58753297 0 0 Z " fill="#474335" transform="translate(194,433)"/>
<path d="M0 0 C-0.33 1.65 -0.66 3.3 -1 5 C-2.65 5.33 -4.3 5.66 -6 6 C-6.33 7.32 -6.66 8.64 -7 10 C-5.35 10 -3.7 10 -2 10 C-2 11.32 -2 12.64 -2 14 C-3.65 14 -5.3 14 -7 14 C-7 21.26 -7 28.52 -7 36 C-8.98 36 -10.96 36 -13 36 C-13 29.07 -13 22.14 -13 15 C-14.32 15 -15.64 15 -17 15 C-17 13.35 -17 11.7 -17 10 C-15.68 10 -14.36 10 -13 10 C-13.0825 8.906875 -13.165 7.81375 -13.25 6.6875 C-13 3 -13 3 -11.5625 1.0625 C-7.74098146 -0.52203208 -4.08137509 -0.23546395 0 0 Z " fill="#393835" transform="translate(378,360)"/>
<path d="M0 0 C-0.33 1.65 -0.66 3.3 -1 5 C-2.65 5.33 -4.3 5.66 -6 6 C-6.33 7.32 -6.66 8.64 -7 10 C-5.35 10 -3.7 10 -2 10 C-2 11.32 -2 12.64 -2 14 C-3.65 14 -5.3 14 -7 14 C-7 21.26 -7 28.52 -7 36 C-8.98 36 -10.96 36 -13 36 C-13 29.07 -13 22.14 -13 15 C-14.32 15 -15.64 15 -17 15 C-17 13.35 -17 11.7 -17 10 C-15.68 10 -14.36 10 -13 10 C-13.0825 9.0925 -13.165 8.185 -13.25 7.25 C-13 4 -13 4 -11.5625 1.625 C-7.79880462 -0.76173366 -4.34043107 -0.33387931 0 0 Z " fill="#393835" transform="translate(396,360)"/>
<path d="M0 0 C2.14809171 3.22213757 2.29386153 4.27775401 2 8 C-1.25119273 11.25119273 -10.38417859 10.12062905 -14.7862854 10.13894653 C-15.57095184 10.1369223 -16.35561829 10.13489807 -17.1640625 10.1328125 C-18.00037201 10.13376923 -18.83668152 10.13472595 -19.69833374 10.13571167 C-21.45123368 10.13638696 -23.20413623 10.13457856 -24.95703125 10.13037109 C-27.62505744 10.12499988 -30.29291636 10.13034531 -32.9609375 10.13671875 C-34.67447953 10.13605812 -36.38802147 10.13477726 -38.1015625 10.1328125 C-39.28463486 10.13584885 -39.28463486 10.13584885 -40.49160767 10.13894653 C-45.0853913 10.11967106 -49.45284347 9.73969956 -54 9 C-57.55510456 8.73957496 -60.94153155 8.75573805 -64.4375 9.5625 C-66.98749255 11.90849314 -66.75432465 14.68338281 -67 18 C-67.66 18 -68.32 18 -69 18 C-69.33 18.99 -69.66 19.98 -70 21 C-69.39220107 10.20632933 -69.39220107 10.20632933 -66 6 C-63.32578739 4.6628937 -61.23547806 4.86757344 -58.25 4.875 C-57.22390625 4.87242188 -56.1978125 4.86984375 -55.140625 4.8671875 C-52 5 -52 5 -49.36254883 5.5 C-45.23227243 6.11415858 -41.2274891 6.14327697 -37.05859375 6.1328125 C-36.21329605 6.13376923 -35.36799835 6.13472595 -34.49708557 6.13571167 C-32.71786423 6.13638947 -30.93864036 6.13456318 -29.15942383 6.13037109 C-26.44281447 6.12501049 -23.72636993 6.1303331 -21.00976562 6.13671875 C-19.2760413 6.13605803 -17.54231708 6.13477699 -15.80859375 6.1328125 C-14.59592079 6.13584885 -14.59592079 6.13584885 -13.35874939 6.13894653 C-9.43841809 6.12270941 -5.82834482 5.9655963 -2 5 C-1.855625 4.360625 -1.71125 3.72125 -1.5625 3.0625 C-1 1 -1 1 0 0 Z " fill="#413E39" transform="translate(142,89)"/>
<path d="M0 0 C3.09788662 0.10658354 3.09788662 0.10658354 6.4375 -0.75 C10 -1 10 -1 12.20703125 0.46875 C14.6925021 3.97765002 14.43950838 7.12454833 14.25 11.25 C14.23195312 11.99507813 14.21390625 12.74015625 14.1953125 13.5078125 C14.14835649 15.33909701 14.07661652 17.16971649 14 19 C12.68 19 11.36 19 10 19 C9.67 13.72 9.34 8.44 9 3 C7.35 3 5.7 3 4 3 C2.00383446 4.99616554 2.59016573 8.81701963 2.4375 11.5625 C2.39431641 12.27341797 2.35113281 12.98433594 2.30664062 13.71679688 C2.20028223 15.47761912 2.09961154 17.2387832 2 19 C1.01 19 0.02 19 -1 19 C-1 13.72 -1 8.44 -1 3 C-2.98 3 -4.96 3 -7 3 C-8.99616554 4.99616554 -8.40983427 8.81701963 -8.5625 11.5625 C-8.60568359 12.27341797 -8.64886719 12.98433594 -8.69335938 13.71679688 C-8.79971777 15.47761912 -8.90038846 17.2387832 -9 19 C-9.99 19 -10.98 19 -12 19 C-12 12.73 -12 6.46 -12 0 C-11.34 0 -10.68 0 -10 0 C-10 0.66 -10 1.32 -10 2 C-9.34 2 -8.68 2 -8 2 C-8 1.34 -8 0.68 -8 0 C-5.13411489 -1.43294255 -3.09628564 -0.56870553 0 0 Z " fill="#403E35" transform="translate(216,434)"/>
<path d="M0 0 C1.17755859 0.11408203 1.17755859 0.11408203 2.37890625 0.23046875 C4.4375 0.8125 4.4375 0.8125 6.4375 3.8125 C6.57995897 6.57905324 6.62519445 9.23903306 6.5625 12 C6.55347656 12.74958984 6.54445312 13.49917969 6.53515625 14.27148438 C6.51162578 16.11862654 6.47575561 17.96560412 6.4375 19.8125 C5.81875 19.626875 5.2 19.44125 4.5625 19.25 C2.39589822 18.57563824 2.39589822 18.57563824 0.4375 19.8125 C-5.81998503 20.26758982 -5.81998503 20.26758982 -8.5 18.625 C-9.94968434 16.15200907 -9.98567323 14.63365488 -9.5625 11.8125 C-7.86118896 9.5237656 -6.90347902 8.8828437 -4.08203125 8.30078125 C-3.18871094 8.24277344 -2.29539063 8.18476563 -1.375 8.125 C-0.47394531 8.05925781 0.42710937 7.99351562 1.35546875 7.92578125 C2.38607422 7.86970703 2.38607422 7.86970703 3.4375 7.8125 C2.7775 6.4925 2.1175 5.1725 1.4375 3.8125 C-2.18778568 3.61109524 -4.42751708 3.95473235 -7.5625 5.8125 C-7.5625 4.4925 -7.5625 3.1725 -7.5625 1.8125 C-4.29333718 -0.36694188 -3.69969614 -0.42055854 0 0 Z " fill="#444135" transform="translate(243.5625,433.1875)"/>
<path d="M0 0 C2.8125 1.5625 2.8125 1.5625 5 4 C5.8125 7.75 5.8125 7.75 6 11 C1.38 11 -3.24 11 -8 11 C-7.34 12.65 -6.68 14.3 -6 16 C-0.42169984 16.12469099 -0.42169984 16.12469099 5 15 C5 15.99 5 16.98 5 18 C0.97921993 20.68052004 -2.27768428 20.79273531 -7 20 C-9.98167275 17.81828823 -10.78917588 16.23656455 -11.40625 12.6171875 C-11.67707787 8.0808207 -11.47417573 5.69731725 -8.875 1.875 C-5.46480804 -0.34903824 -3.99001861 -0.74812849 0 0 Z " fill="#3E3C35" transform="translate(150,433)"/>
<path d="M0 0 C1.9375 1.125 1.9375 1.125 3 3 C3.38991688 7.36706908 3.46324069 9.30513897 1 13 C1.495 13.37125 1.99 13.7425 2.5 14.125 C4 16 4 16 4.4375 18.9375 C4 22 4 22 2.625 24.375 C-1.4257503 26.88260733 -5.36478556 26.77766887 -10 26 C-12.625 24.1875 -12.625 24.1875 -14 22 C-14 21.01 -14 20.02 -14 19 C-12.68 19 -11.36 19 -10 19 C-9.34 19.99 -8.68 20.98 -8 22 C-4.41642759 22.25015873 -4.41642759 22.25015873 -1 22 C-0.32041397 19.60280568 -0.32041397 19.60280568 0 17 C-2.35953094 14.64046906 -3.77895617 14.50858587 -7 14 C-7 13.01 -7 12.02 -7 11 C-5.02 10.34 -3.04 9.68 -1 9 C-1 7.35 -1 5.7 -1 4 C-4.41656024 3.83322718 -4.41656024 3.83322718 -8 4 C-8.66 4.66 -9.32 5.32 -10 6 C-10.99 6 -11.98 6 -13 6 C-12.14382686 3.28878505 -11.54750525 1.44611539 -9.3125 -0.375 C-5.93261775 -1.28848169 -3.37963422 -0.79882263 0 0 Z " fill="#474335" transform="translate(358,427)"/>
<path d="M0 0 C2.94220698 1.31625049 3.92935616 2.17121233 5.375 5.0625 C5.79236625 8.88835728 5.65964312 11.37336402 4.1875 14.9375 C2.375 17.0625 2.375 17.0625 -0.0625 18.0625 C-2.625 18.0625 -2.625 18.0625 -4.875 16.8125 C-7.40165474 14.28584526 -7.60996848 12.19778369 -8 8.6875 C-7.625 5.0625 -7.625 5.0625 -5.4375 2.0625 C-2.625 0.0625 -2.625 0.0625 0 0 Z " fill="#F1CA44" transform="translate(346.625,373.9375)"/>
<path d="M0 0 C1.67542976 0.28604898 3.34385343 0.61781233 5 1 C4.28263672 1.59361328 4.28263672 1.59361328 3.55078125 2.19921875 C0.70772185 5.5006051 0.98670266 9.79139106 1 14 C1.78715124 16.94570927 1.78715124 16.94570927 3 20 C5.30596989 29.64173986 5.20979827 39.16279236 5 49 C5.66 49 6.32 49 7 49 C7.33 54.61 7.66 60.22 8 66 C7.01 66.495 7.01 66.495 6 67 C4.44678456 64.20152217 3.70307939 61.96796715 3.42163086 58.78564453 C3.34492661 57.96444122 3.26822235 57.14323792 3.18919373 56.29714966 C3.11515823 55.4179184 3.04112274 54.53868713 2.96484375 53.6328125 C2.88126114 52.72046844 2.79767853 51.80812439 2.71156311 50.86813354 C2.44594507 47.95438222 2.19126463 45.03980547 1.9375 42.125 C1.67815606 39.21755461 1.41652095 36.31033459 1.15272522 33.40328979 C0.98939588 31.59604657 0.82897017 29.78853788 0.67185974 27.98074341 C0.2832488 23.60862418 -0.25448827 19.32847898 -1 15 C-1.08954721 12.56378908 -1.13014858 10.12535066 -1.125 7.6875 C-1.12757812 6.45386719 -1.13015625 5.22023438 -1.1328125 3.94921875 C-1 1 -1 1 0 0 Z " fill="#49453D" transform="translate(84,121)"/>
<path d="M0 0 C0.66 0 1.32 0 2 0 C1.5285502 10.03050082 0.69161604 20.02780699 -0.24227905 30.02438354 C-0.37186839 31.41879072 -0.49902622 32.81342611 -0.62368774 34.20828247 C-0.80306046 36.20462502 -0.99318034 38.19999276 -1.18359375 40.1953125 C-1.34686157 41.94352295 -1.34686157 41.94352295 -1.51342773 43.72705078 C-2.15431655 48.03801688 -2.69108608 51.64593265 -5.79052734 54.85229492 C-8.48779137 56.25338201 -10.31871747 56.37300359 -13.3515625 56.36328125 C-14.36734375 56.36263672 -15.383125 56.36199219 -16.4296875 56.36132812 C-18.01136719 56.3371582 -18.01136719 56.3371582 -19.625 56.3125 C-20.6871875 56.31572266 -21.749375 56.31894531 -22.84375 56.32226562 C-30.73293862 56.26706138 -30.73293862 56.26706138 -33 54 C-31.2990219 52.2990219 -29.08397125 52.83070338 -26.7578125 52.7890625 C-25.69175781 52.76070312 -24.62570313 52.73234375 -23.52734375 52.703125 C-21.26708939 52.65122479 -19.00664784 52.6068995 -16.74609375 52.5703125 C-15.67746094 52.539375 -14.60882813 52.5084375 -13.5078125 52.4765625 C-12.03272217 52.4468335 -12.03272217 52.4468335 -10.52783203 52.41650391 C-8.01162697 52.1720247 -8.01162697 52.1720247 -6.21289062 50.86132812 C-4.47450248 48.19356017 -4.37509783 45.90406347 -4.0859375 42.7421875 C-3.96524902 41.48374023 -3.84456055 40.22529297 -3.72021484 38.92871094 C-3.60473415 37.57750886 -3.48966969 36.22627115 -3.375 34.875 C-3.2491217 33.50805372 -3.12232976 32.14119128 -2.99462891 30.77441406 C-2.2034571 22.14681871 -1.57597418 13.51595915 -1.2109375 4.859375 C-1 2 -1 2 0 0 Z " fill="#D4B3A3" transform="translate(134,129)"/>
<path d="M0 0 C0.66 0.33 1.32 0.66 2 1 C2.21314221 11.23082616 1.96683295 21.08195782 0.49609375 31.21484375 C-0.12821366 35.9782601 -0.32991973 40.72342275 -0.4609375 45.5234375 C-0.63882813 46.34070313 -0.81671875 47.15796875 -1 48 C-3.03369141 49.15478516 -3.03369141 49.15478516 -5 50 C-5.37379577 40.58141843 -4.36216278 31.33610359 -3.34594727 21.98974609 C-3.05944237 19.34679394 -2.78403977 16.70284034 -2.50976562 14.05859375 C-2.33137824 12.38013922 -2.15236533 10.70175103 -1.97265625 9.0234375 C-1.89032242 8.23190277 -1.80798859 7.44036804 -1.72315979 6.62484741 C-1.11533109 1.11533109 -1.11533109 1.11533109 0 0 Z " fill="#322A1F" transform="translate(144,123)"/>
<path d="M0 0 C1.55992676 -0.00821777 1.55992676 -0.00821777 3.15136719 -0.01660156 C12.41116314 0.06792286 21.74178156 0.93083172 30.4375 4.3125 C28.12690348 5.08269884 26.68423066 5.36504811 24.27783203 4.85253906 C20.73825933 4.17955171 17.26890915 4.1310033 13.6796875 4.109375 C12.56413986 4.10082489 12.56413986 4.10082489 11.42605591 4.09210205 C9.85436409 4.08268321 8.28265279 4.0761305 6.7109375 4.07226562 C4.34078121 4.06261515 1.97151365 4.03158619 -0.3984375 4 C-14.77070003 3.89628034 -14.77070003 3.89628034 -27.75 9.5 C-28.6471875 10.3971875 -28.6471875 10.3971875 -29.5625 11.3125 C-29.8925 9.9925 -30.2225 8.6725 -30.5625 7.3125 C-21.81365038 -0.30340507 -11.06724593 0.04252858 0 0 Z " fill="#494741" transform="translate(111.5625,71.6875)"/>
<path d="M0 0 C1.32 0 2.64 0 4 0 C4.33 5.28 4.66 10.56 5 16 C6.65 16 8.3 16 10 16 C12.85793316 13.14206684 12.40799941 10.85334416 12.625 6.875 C12.69976562 5.59367187 12.77453125 4.31234375 12.8515625 2.9921875 C12.90054687 2.00476563 12.94953125 1.01734375 13 0 C13.99 0 14.98 0 16 0 C16 6.6 16 13.2 16 20 C15.01 20 14.02 20 13 20 C12.67 19.34 12.34 18.68 12 18 C11.34 18.66 10.68 19.32 10 20 C6.5625 20.375 6.5625 20.375 3 20 C0.14000813 17.47955055 -0.00347161 15.95389702 -0.29296875 12.109375 C-0.27314945 10.65595991 -0.23754845 9.20268833 -0.1875 7.75 C-0.17396484 7.00492187 -0.16042969 6.25984375 -0.14648438 5.4921875 C-0.11127204 3.66114584 -0.05746851 1.83047831 0 0 Z " fill="#5E5435" transform="translate(255,433)"/>
<path d="M0 0 C0.99 0.495 0.99 0.495 2 1 C2 3.31 2 5.62 2 8 C-4.36185386 9.68291906 -10.26119282 10.2857654 -16.828125 10.23046875 C-17.73898865 10.23001053 -18.64985229 10.22955231 -19.58831787 10.2290802 C-21.50436719 10.22607773 -23.42041451 10.21825218 -25.33642578 10.20581055 C-28.22828088 10.1876365 -31.11981261 10.18530084 -34.01171875 10.18554688 C-59.58783388 10.13738871 -59.58783388 10.13738871 -66 8 C-66 7.34 -66 6.68 -66 6 C-65.0562854 6.10501831 -65.0562854 6.10501831 -64.09350586 6.2121582 C-54.82607581 7.1208243 -45.59414141 7.18613951 -36.29174805 7.18530273 C-33.57129339 7.18749292 -30.85124293 7.20572293 -28.13085938 7.22460938 C-18.54378158 7.25443074 -9.42873561 6.91570374 0 5 C0 3.35 0 1.7 0 0 Z " fill="#524C3F" transform="translate(150,104)"/>
<path d="M0 0 C0 0.66 0 1.32 0 2 C2.64 2 5.28 2 8 2 C8 2.33 8 2.66 8 3 C7.32453125 3.02578125 6.6490625 3.0515625 5.953125 3.078125 C0.30476784 3.34485997 0.30476784 3.34485997 -4.5625 5.9375 C-7.85565396 10.66246003 -7.46244936 15.38570249 -7 21 C-5.39701349 24.74030185 -4.40262302 25.73158465 -1 28 C2.20379124 28.24246783 2.20379124 28.24246783 5.6875 28.125 C6.86699219 28.10695313 8.04648438 28.08890625 9.26171875 28.0703125 C10.16535156 28.04710937 11.06898437 28.02390625 12 28 C12 28.99 12 29.98 12 31 C8.07238404 32.96380798 3.29175041 32.3363636 -1 32 C-3.875 30.875 -3.875 30.875 -6 29 C-6.928125 28.236875 -7.85625 27.47375 -8.8125 26.6875 C-12.1531186 22.49058359 -11.61600338 17.41040865 -11.421875 12.29296875 C-10.85819333 7.89312015 -10.12102722 6.12102722 -7 3 C-2.8 0 -2.8 0 0 0 Z " fill="#514B34" transform="translate(85,428)"/>
<path d="M0 0 C1.859375 0.08984375 1.859375 0.08984375 4 1 C5.265625 3.94140625 5.265625 3.94140625 6.25 7.5625 C6.58515625 8.76003906 6.9203125 9.95757812 7.265625 11.19140625 C7.50796875 12.11824219 7.7503125 13.04507812 8 14 C8.26554687 13.32453125 8.53109375 12.6490625 8.8046875 11.953125 C9.15789062 11.06109375 9.51109375 10.1690625 9.875 9.25 C10.39707031 7.92742187 10.39707031 7.92742187 10.9296875 6.578125 C11.8646709 4.3259752 12.87780794 2.16350541 14 0 C14.99 0 15.98 0 17 0 C15.44006278 6.58184039 13.39111143 12.85577674 10.875 19.125 C10.60929199 19.78830322 10.34358398 20.45160645 10.06982422 21.13500977 C8.13902186 25.86097814 8.13902186 25.86097814 7 27 C5.00041636 27.04080783 2.99954746 27.04254356 1 27 C1 26.01 1 25.02 1 24 C2.32 23.67 3.64 23.34 5 23 C6.11290858 19.00912401 5.90109975 16.93562102 4.1875 13.1875 C2.29439053 8.81828196 1.03198811 4.64394649 0 0 Z " fill="#4E4835" transform="translate(289,433)"/>
<path d="M0 0 C2.3828125 0.15625 2.3828125 0.15625 4.3828125 2.15625 C4.0078125 4.78125 4.0078125 4.78125 3.3828125 7.15625 C-1.0721875 7.65125 -1.0721875 7.65125 -5.6171875 8.15625 C-5.6171875 7.16625 -5.6171875 6.17625 -5.6171875 5.15625 C-12.8771875 5.15625 -20.1371875 5.15625 -27.6171875 5.15625 C-27.2871875 4.49625 -26.9571875 3.83625 -26.6171875 3.15625 C-26.6171875 2.49625 -26.6171875 1.83625 -26.6171875 1.15625 C-22.90894988 0.98740799 -19.20058394 0.82156406 -15.4921875 0.65625 C-14.44546875 0.60855469 -13.39875 0.56085938 -12.3203125 0.51171875 C-8.21397278 0.32979231 -4.10653594 0.17738816 0 0 Z " fill="#393531" transform="translate(129.6171875,81.84375)"/>
<path d="M0 0 C3.0625 0.3125 3.0625 0.3125 4.9375 1.3125 C6.74815793 4.53144743 6.70275229 7.76977068 6.0625 11.3125 C4.375 13.875 4.375 13.875 2.0625 15.3125 C-1.05579377 15.3125 -2.42544118 14.73921568 -4.8125 12.75 C-6.55920214 8.9654787 -5.78826046 6.36997297 -4.9375 2.3125 C-2.9375 0.3125 -2.9375 0.3125 0 0 Z " fill="#F3C935" transform="translate(189.9375,435.6875)"/>
<path d="M0 0 C1.8125 1.0625 1.8125 1.0625 3 3 C3.30540859 6.35949454 3.23408114 9.11049167 2.375 12.375 C0.29502726 14.83314961 -1.9029628 14.73069242 -5 15 C-7.56417383 12.43582617 -8.25787287 10.47083523 -8.375 6.9375 C-8 3 -8 3 -6.8125 1 C-4.33474158 -0.36703913 -2.78844081 -0.41826612 0 0 Z " fill="#F5CB35" transform="translate(119,436)"/>
<path d="M0 0 C15.84 0.33 31.68 0.66 48 1 C48 1.66 48 2.32 48 3 C43.83642525 4.1639985 39.80245227 4.1437926 35.5078125 4.1328125 C34.68425262 4.13376923 33.86069275 4.13472595 33.01217651 4.13571167 C31.27227705 4.1363912 29.53237504 4.13455276 27.79248047 4.13037109 C25.14154295 4.12503331 22.49077591 4.13031672 19.83984375 4.13671875 C18.14583296 4.13605766 16.45182228 4.13477586 14.7578125 4.1328125 C13.97012482 4.13483673 13.18243713 4.13686096 12.37088013 4.13894653 C8.13672712 4.12108957 4.17108192 3.83620934 0 3 C0 2.01 0 1.02 0 0 Z " fill="#241D19" transform="translate(90,115)"/>
<path d="M0 0 C3.0625 0.375 3.0625 0.375 4.9375 2 C6.39736373 5.08193454 6.55464954 7.00026031 6.0625 10.375 C4.4375 12.8125 4.4375 12.8125 2.0625 14.375 C-1.125 14.25 -1.125 14.25 -3.9375 13.375 C-5.11423198 11.02153604 -5.10373866 9.4943967 -5.125 6.875 C-5.13917969 6.0809375 -5.15335938 5.286875 -5.16796875 4.46875 C-4.77723033 0.91899079 -3.38336304 0.43191869 0 0 Z " fill="#F6CB35" transform="translate(167.9375,435.625)"/>
<path d="M0 0 C1.79133978 -0.05391993 3.58313899 -0.09275571 5.375 -0.125 C6.37273437 -0.14820313 7.37046875 -0.17140625 8.3984375 -0.1953125 C11 0 11 0 13 2 C13.35691675 4.78395062 13.47948435 6.33875035 11.8046875 8.6484375 C9.37425893 10.46862859 7.81275214 10.30439294 4.8125 10.1875 C3.224375 10.125625 1.63625 10.06375 0 10 C0 6.7 0 3.4 0 0 Z " fill="#F6CE44" transform="translate(82,381)"/>
<path d="M0 0 C3.51908461 0.28411873 5.46938071 0.51539383 8.1171875 2.93359375 C12.45222297 9.10861094 14.01036494 13.46235677 13 21 C9.84583495 19.7787912 7.40643743 18.39690698 5 16 C3.79100326 12.6574796 3.13980996 9.46615428 2.5703125 5.9609375 C2.16511391 2.82807636 2.16511391 2.82807636 0 0 Z " fill="#E8AD35" transform="translate(142,76)"/>
<path d="M0 0 C2.54164182 5.08328364 0.44250334 13.36690533 0 19 C-0.13946045 20.81975342 -0.13946045 20.81975342 -0.28173828 22.67626953 C-0.54873183 26.04319438 -0.83213443 29.40740988 -1.13342285 32.7713623 C-1.25249107 34.12851269 -1.36556246 35.48620298 -1.47253418 36.84436035 C-1.62692146 38.77922924 -1.80718205 40.71197953 -1.98828125 42.64453125 C-2.08665283 43.77221924 -2.18502441 44.89990723 -2.28637695 46.06176758 C-3.14793439 49.60909693 -4.02865353 50.89541368 -7 53 C-9.84082031 53.54589844 -9.84082031 53.54589844 -13.078125 53.609375 C-14.23828125 53.64160156 -15.3984375 53.67382812 -16.59375 53.70703125 C-17.8003125 53.72121094 -19.006875 53.73539063 -20.25 53.75 C-21.47203125 53.77964844 -22.6940625 53.80929688 -23.953125 53.83984375 C-26.96881644 53.91052402 -29.9837355 53.96323175 -33 54 C-33.33 53.34 -33.66 52.68 -34 52 C-33.22809326 51.98541748 -32.45618652 51.97083496 -31.66088867 51.95581055 C-28.16924907 51.88141967 -24.6785751 51.7847291 -21.1875 51.6875 C-19.97255859 51.66494141 -18.75761719 51.64238281 -17.50585938 51.61914062 C-16.34248047 51.58369141 -15.17910156 51.54824219 -13.98046875 51.51171875 C-12.37014771 51.47244263 -12.37014771 51.47244263 -10.72729492 51.43237305 C-8.038252 51.18466782 -8.038252 51.18466782 -6.16748047 49.875 C-4.44292627 47.10532702 -4.4918764 44.73275104 -4.33984375 41.48828125 C-4.26950928 40.17939941 -4.1991748 38.87051758 -4.12670898 37.52197266 C-4.09584198 36.83323059 -4.06497498 36.14448853 -4.03317261 35.43487549 C-3.87413407 31.90680719 -3.6694518 28.38137077 -3.46875 24.85546875 C-3.43071762 24.16815674 -3.39268524 23.48084473 -3.35350037 22.77270508 C-2.1820089 2.1820089 -2.1820089 2.1820089 0 0 Z " fill="#E2D4CF" transform="translate(133,129)"/>
<path d="M0 0 C1.77088083 0.1452555 3.54170136 0.29124598 5.3125 0.4375 C6.29863281 0.51871094 7.28476563 0.59992188 8.30078125 0.68359375 C10.33196635 0.85732764 12.36282185 1.03618958 14.39135742 1.23852539 C21.81793808 1.96550354 29.23115115 2.30711691 36.6875 2.5625 C38.47317383 2.62727539 38.47317383 2.62727539 40.29492188 2.69335938 C43.19653034 2.79823679 46.09820635 2.90040196 49 3 C49 3.66 49 4.32 49 5 C13.11044893 5.61916858 13.11044893 5.61916858 -1 2 C-0.67 1.34 -0.34 0.68 0 0 Z " fill="#231C17" transform="translate(81,98)"/>
<path d="M0 0 C7.38461538 -0.36923077 7.38461538 -0.36923077 10.5 1.5 C10.995 1.995 11.49 2.49 12 3 C11.25 7.75 11.25 7.75 9 10 C5.98173347 10.27240673 3.03629378 10.08675125 0 10 C0 6.7 0 3.4 0 0 Z " fill="#F3CC47" transform="translate(82,366)"/>
<path d="M0 0 C2.9375 0.875 2.9375 0.875 4.9375 3.875 C4.49305556 9.31944444 4.49305556 9.31944444 1.9375 11.875 C-1.625 11.625 -1.625 11.625 -5.0625 10.875 C-6.46185013 8.07629973 -6.31515405 5.97001208 -6.0625 2.875 C-4.31924047 -0.1272803 -3.48919154 -0.14241598 0 0 Z " fill="#F5CB37" transform="translate(331.0625,429.125)"/>
<path d="M0 0 C2.5 0.25 2.5 0.25 4.5 2.25 C5.05776892 8.38545817 5.05776892 8.38545817 3.25 11.1875 C1.5 12.25 1.5 12.25 -2.5 12.25 C-4.94897847 8.57653229 -4.81537716 6.58643601 -4.5 2.25 C-2.5 0.25 -2.5 0.25 0 0 Z " fill="#F5CA35" transform="translate(88.5,437.75)"/>
<path d="M0 0 C0 0.33 0 0.66 0 1 C-1.98 1.33 -3.96 1.66 -6 2 C-7.04976964 5.14930893 -7.10131595 7.38814456 -7.0625 10.6875 C-7.05347656 11.68136719 -7.04445312 12.67523438 -7.03515625 13.69921875 C-7.02355469 14.45847656 -7.01195312 15.21773438 -7 16 C-4.36 16 -1.72 16 1 16 C1 16.99 1 17.98 1 19 C0.67 19.33 0.34 19.66 0 20 C-6.9800995 19.77114428 -6.9800995 19.77114428 -10.5625 17.0625 C-12.68009408 12.55110391 -12.23656851 8.76159172 -11 4 C-8.12946267 -0.63702185 -5.18289207 -0.39868401 0 0 Z " fill="#564F35" transform="translate(171,433)"/>
<path d="M0 0 C3.375 0.3125 3.375 0.3125 7 1 C9.52775351 4.79163027 9.22443035 7.80874031 9.125 12.1875 C9.11597656 12.93708984 9.10695312 13.68667969 9.09765625 14.45898438 C9.07412578 16.30612654 9.03825561 18.15310412 9 20 C7.68 20 6.36 20 5 20 C4.96261719 18.86820312 4.92523438 17.73640625 4.88671875 16.5703125 C4.82106918 15.08850795 4.75462149 13.60673861 4.6875 12.125 C4.66494141 11.37863281 4.64238281 10.63226563 4.61914062 9.86328125 C4.52188055 7.900396 4.26957706 5.94671678 4 4 C3.01 3.34 2.02 2.68 1 2 C0.67 1.34 0.34 0.68 0 0 Z " fill="#605735" transform="translate(221,433)"/>
<path d="M0 0 C0.99 0 1.98 0 3 0 C3.33 0.66 3.66 1.32 4 2 C4.66 1.34 5.32 0.68 6 0 C7.32 0 8.64 0 10 0 C10 0.99 10 1.98 10 3 C8.7934375 3.4640625 8.7934375 3.4640625 7.5625 3.9375 C5.10919595 4.76335345 5.10919595 4.76335345 4 6 C3.76472227 8.34987262 3.58613583 10.70556039 3.4375 13.0625 C3.35371094 14.35285156 3.26992188 15.64320313 3.18359375 16.97265625 C3.12300781 17.97167969 3.06242187 18.97070312 3 20 C2.01 20 1.02 20 0 20 C0 13.4 0 6.8 0 0 Z " fill="#484435" transform="translate(276,433)"/>
<path d="M0 0 C0.845625 0.5775 1.69125 1.155 2.5625 1.75 C4.88967652 3.30512744 7.25169504 4.74643804 9.6875 6.125 C13 8 13 8 16 10 C16 10.66 16 11.32 16 12 C10.06 11.67 4.12 11.34 -2 11 C-2 10.67 -2 10.34 -2 10 C-0.02 10 1.96 10 4 10 C3.67 8.02 3.34 6.04 3 4 C2.01 4 1.02 4 0 4 C0 2.68 0 1.36 0 0 Z " fill="#EEB744" transform="translate(81,83)"/>
<path d="M0 0 C7.92 0 15.84 0 24 0 C24 0.99 24 1.98 24 3 C16.41 3 8.82 3 1 3 C0.67 2.01 0.34 1.02 0 0 Z " fill="#211C1A" transform="translate(100,87)"/>
<path d="M0 0 C0.22223194 2.74086056 0.34781139 4.43963721 -1.125 6.8125 C-3.80231137 8.50813053 -5.90089373 8.2694875 -9 8 C-10 7 -10 7 -10.0625 4.4375 C-10.041875 3.633125 -10.02125 2.82875 -10 2 C-6.49223216 0.39644899 -3.85645121 -0.22036864 0 0 Z " fill="#F0C943" transform="translate(274,384)"/>
<path d="M0 0 C0.99 0 1.98 0 3 0 C3 6.6 3 13.2 3 20 C2.01 20 1.02 20 0 20 C-0.66 18.35 -1.32 16.7 -2 15 C-1.67 14.67 -1.34 14.34 -1 14 C-0.76472227 11.65012738 -0.58613583 9.29443961 -0.4375 6.9375 C-0.35371094 5.64714844 -0.26992188 4.35679687 -0.18359375 3.02734375 C-0.12300781 2.02832031 -0.06242187 1.02929688 0 0 Z " fill="#4A4535" transform="translate(268,433)"/>
<path d="M0 0 C0.99 0 1.98 0 3 0 C3 6.6 3 13.2 3 20 C2.01 20 1.02 20 0 20 C0 13.4 0 6.8 0 0 Z " fill="#403E35" transform="translate(131,433)"/>
<path d="M0 0 C0.36075949 4.44936709 0.36075949 4.44936709 -1.1875 6.8125 C-3.6135694 8.40199375 -5.15397406 8.36487512 -8 8 C-8.66 7.34 -9.32 6.68 -10 6 C-9.625 3.875 -9.625 3.875 -9 2 C-2.25 0 -2.25 0 0 0 Z " fill="#E8C034" transform="translate(247,443)"/>
<path d="M0 0 C3.125 0.25 3.125 0.25 5 1.5625 C6.125 3.25 6.125 3.25 6.125 6.25 C2.495 6.25 -1.135 6.25 -4.875 6.25 C-3.68915929 0.32079646 -3.68915929 0.32079646 0 0 Z " fill="#E5BE36" transform="translate(146.875,435.75)"/>
<path d="M0 0 C0.969375 0.309375 1.93875 0.61875 2.9375 0.9375 C3.5975 2.5875 4.2575 4.2375 4.9375 5.9375 C0.9775 5.9375 -2.9825 5.9375 -7.0625 5.9375 C-5.87052336 1.16959343 -5.00214532 -0.1020846 0 0 Z " fill="#F0CA45" transform="translate(231.0625,374.0625)"/>
<path d="M0 0 C0.99 0 1.98 0 3 0 C3.66 0.99 4.32 1.98 5 3 C7.95769177 3.50010524 7.95769177 3.50010524 11 3 C12.87890434 1.62493901 12.87890434 1.62493901 14 0 C14.6875 1.8125 14.6875 1.8125 15 4 C14.0625 5.75 14.0625 5.75 12 7 C5.06312292 7.77076412 5.06312292 7.77076412 1.5 5.1875 C0 3 0 3 0 0 Z " fill="#4E4834" transform="translate(322,446)"/>
<path d="M0 0 C2.5625 0.3125 2.5625 0.3125 4.375 1.625 C5.5625 3.3125 5.5625 3.3125 5.5625 6.3125 C1.6025 6.3125 -2.3575 6.3125 -6.4375 6.3125 C-3.50599315 0.4494863 -3.50599315 0.4494863 0 0 Z " fill="#F1CA45" transform="translate(438.4375,373.6875)"/>
<path d="M0 0 C0.66 0.33 1.32 0.66 2 1 C2 3.31 2 5.62 2 8 C-3.80766296 9.5056904 -8.9981863 10.21824777 -15 10 C-14.38125 9.71125 -13.7625 9.4225 -13.125 9.125 C-10.86674235 8.06279958 -10.86674235 8.06279958 -9 6 C-6.8359375 5.5859375 -6.8359375 5.5859375 -4.375 5.375 C-3.55773437 5.30023438 -2.74046875 5.22546875 -1.8984375 5.1484375 C-1.27195313 5.09945312 -0.64546875 5.05046875 0 5 C0 3.35 0 1.7 0 0 Z " fill="#48443C" transform="translate(150,104)"/>
<path d="M0 0 C2.4375 0.6875 2.4375 0.6875 4.4375 1.6875 C4.4375 3.0075 4.4375 4.3275 4.4375 5.6875 C0.8075 5.6875 -2.8225 5.6875 -6.5625 5.6875 C-5.48063361 1.36003446 -4.75041597 -0.57931902 0 0 Z " fill="#F3CC45" transform="translate(410.5625,374.3125)"/>
<path d="M0 0 C0 0.33 0 0.66 0 1 C-1.98 1.33 -3.96 1.66 -6 2 C-6.33 3.98 -6.66 5.96 -7 8 C-7.66 8 -8.32 8 -9 8 C-9.66 9.98 -10.32 11.96 -11 14 C-11.66 13.67 -12.32 13.34 -13 13 C-13 11.02 -13 9.04 -13 7 C-12.34 7 -11.68 7 -11 7 C-10.87625 5.865625 -10.7525 4.73125 -10.625 3.5625 C-10.41875 2.386875 -10.2125 1.21125 -10 0 C-6.7169902 -1.6415049 -3.57454967 -0.51888624 0 0 Z " fill="#352C21" transform="translate(86,100)"/>
<path d="M0 0 C3.51908461 0.28411873 5.46938071 0.51539383 8.1171875 2.93359375 C12.45222297 9.10861094 14.01036494 13.46235677 13 21 C12.34 20.67 11.68 20.34 11 20 C10.5859375 17.49609375 10.5859375 17.49609375 10.375 14.4375 C10.26285156 12.91962891 10.26285156 12.91962891 10.1484375 11.37109375 C10.09945312 10.58863281 10.05046875 9.80617188 10 9 C9.34 9 8.68 9 8 9 C4.98863141 6.22027515 2.35802849 3.35088259 0 0 Z " fill="#EEBA48" transform="translate(142,76)"/>
<path d="M0 0 C5.61 0 11.22 0 17 0 C17 0.99 17 1.98 17 3 C11.39 3 5.78 3 0 3 C0 2.01 0 1.02 0 0 Z " fill="#4C4734" transform="translate(304,453)"/>
<path d="M0 0 C2.375 2 2.375 2 4 4 C0.66666667 4 -2.66666667 4 -6 4 C-6.33 6.64 -6.66 9.28 -7 12 C-8.5625 10.3125 -8.5625 10.3125 -10 8 C-9.8624874 5.18099161 -9.35530428 3.54230653 -7.8125 1.1875 C-5.06937448 -0.60972017 -3.20418874 -0.45774125 0 0 Z " fill="#504A35" transform="translate(118,433)"/>
<path d="M0 0 C0.66 0.33 1.32 0.66 2 1 C2.042721 2.66611905 2.04063832 4.33382885 2 6 C-0.91117969 8.91117969 -9.23547796 8.06867184 -13.25390625 8.09765625 C-15.02346426 8.09112652 -16.79301043 8.07937701 -18.5625 8.0625 C-19.93245117 8.05573242 -19.93245117 8.05573242 -21.33007812 8.04882812 C-23.55345738 8.0371874 -25.77669121 8.02083851 -28 8 C-28 7.67 -28 7.34 -28 7 C-26.9941687 6.91697632 -26.9941687 6.91697632 -25.96801758 6.83227539 C-22.91592263 6.57865989 -19.86421686 6.32062362 -16.8125 6.0625 C-15.75740234 5.97548828 -14.70230469 5.88847656 -13.61523438 5.79882812 C-12.59365234 5.71181641 -11.57207031 5.62480469 -10.51953125 5.53515625 C-9.58214111 5.456604 -8.64475098 5.37805176 -7.67895508 5.29711914 C-5.07434165 5.00824513 -2.56002256 4.55423169 0 4 C0 2.68 0 1.36 0 0 Z " fill="#43423F" transform="translate(140,90)"/>
<path d="M0 0 C6.6 0 13.2 0 20 0 C18.68 0.33 17.36 0.66 16 1 C16 1.66 16 2.32 16 3 C13.89646505 3.0810206 11.79204048 3.13919907 9.6875 3.1875 C8.51574219 3.22230469 7.34398438 3.25710937 6.13671875 3.29296875 C3 3 3 3 0 0 Z " fill="#251E1A" transform="translate(105,192)"/>
<path d="M0 0 C0.80695313 0.0721875 1.61390625 0.144375 2.4453125 0.21875 C3.1053125 1.20875 3.7653125 2.19875 4.4453125 3.21875 C-5.27082927 3.36848506 -14.87098455 2.91488269 -24.5546875 2.21875 C-24.5546875 1.88875 -24.5546875 1.55875 -24.5546875 1.21875 C-21.17980292 1.04969103 -17.80476387 0.88393231 -14.4296875 0.71875 C-13.00269531 0.64720703 -13.00269531 0.64720703 -11.546875 0.57421875 C-9.70179549 0.48452738 -7.8564047 0.40098349 -6.01074219 0.32421875 C-4.00609633 0.23813455 -2.00270481 0.12324337 0 0 Z " fill="#5B4F38" transform="translate(129.5546875,81.78125)"/>
<path d="M0 0 C1.32 0 2.64 0 4 0 C4.66 0.99 5.32 1.98 6 3 C9.56769552 3.73606499 9.56769552 3.73606499 13 4 C12.67 4.99 12.34 5.98 12 7 C4.67368421 7.48842105 4.67368421 7.48842105 1.5 5.1875 C0 3 0 3 0 0 Z " fill="#595134" transform="translate(344,446)"/>
<path d="M0 0 C0 0.66 0 1.32 0 2 C2.64 2 5.28 2 8 2 C8 2.33 8 2.66 8 3 C7.32453125 3.02578125 6.6490625 3.0515625 5.953125 3.078125 C0.323728 3.32987222 0.323728 3.32987222 -4.5 5.9375 C-4.995 6.618125 -5.49 7.29875 -6 8 C-8 10 -8 10 -11 11 C-9.89894644 5.73941076 -7.92581294 3.75934007 -3.65625 0.8828125 C-2 0 -2 0 0 0 Z " fill="#514B35" transform="translate(85,428)"/>
<path d="M0 0 C3.10089634 0.01300166 6.00607883 0.15596903 9 1 C11.0625 4.0625 11.0625 4.0625 12 7 C10.02 7.33 8.04 7.66 6 8 C6.33 7.01 6.66 6.02 7 5 C6.21625 4.731875 5.4325 4.46375 4.625 4.1875 C2 3 2 3 0 0 Z " fill="#DCA331" transform="translate(90,88)"/>
<path d="M0 0 C0.45890625 0.40992188 0.9178125 0.81984375 1.390625 1.2421875 C2.00421875 1.78101563 2.6178125 2.31984375 3.25 2.875 C3.85328125 3.40867188 4.4565625 3.94234375 5.078125 4.4921875 C6.94465433 6.0749494 6.94465433 6.0749494 9.171875 7.0078125 C11 8 11 8 12 11 C6.55230126 10.64853556 6.55230126 10.64853556 4 10 C2.625 8 2.625 8 2 6 C1.34 5.67 0.68 5.34 0 5 C0 3.35 0 1.7 0 0 Z " fill="#E7B441" transform="translate(89,186)"/>
<path d="M0 0 C0.66 0.33 1.32 0.66 2 1 C1.360625 2.051875 0.72125 3.10375 0.0625 4.1875 C-1.61754452 7.10828412 -2.58996052 9.6171743 -3 13 C-3.66 13 -4.32 13 -5 13 C-5.33 13.99 -5.66 14.98 -6 16 C-5.39220107 5.20632933 -5.39220107 5.20632933 -2 1 C-1.34 0.67 -0.68 0.34 0 0 Z " fill="#4A4844" transform="translate(78,94)"/>
<path d="M0 0 C2.93447357 2.93447357 2.46158423 6.18259456 2.625 10.125 C2.66367188 10.87910156 2.70234375 11.63320312 2.7421875 12.41015625 C2.83651031 14.27303184 2.91934662 16.13648255 3 18 C2.34 18 1.68 18 1 18 C-0.2039337 14.24600202 -0.09877617 10.66782588 -0.0625 6.75 C-0.05347656 5.48671875 -0.04445313 4.2234375 -0.03515625 2.921875 C-0.02355469 1.95765625 -0.01195313 0.9934375 0 0 Z " fill="#25211D" transform="translate(88,125)"/>
<path d="M0 0 C-1 3 -1 3 -3.3125 4.1875 C-6 5 -6 5 -10 5 C-7.62417533 -0.26075462 -5.61350876 -0.1220328 0 0 Z " fill="#554E35" transform="translate(245,433)"/>
<path d="M0 0 C0.66 0 1.32 0 2 0 C2.0625 2.75 2.0625 2.75 1 6 C-1.8453913 7.77165873 -4.83714265 8.91376616 -8 10 C-6.41987986 6.50116255 -5.39126684 5.69563342 -2 4 C-0.73195434 1.9664052 -0.73195434 1.9664052 0 0 Z " fill="#2D2318" transform="translate(155,108)"/>
<path d="M0 0 C0.33 0 0.66 0 1 0 C1 3.63 1 7.26 1 11 C0.01 11.33 -0.98 11.66 -2 12 C-2.05395478 10.37536158 -2.09277195 8.75021459 -2.125 7.125 C-2.14820312 6.22007812 -2.17140625 5.31515625 -2.1953125 4.3828125 C-2 2 -2 2 0 0 Z " fill="#484435" transform="translate(76,437)"/>
<path d="M0 0 C0.185625 0.61875 0.37125 1.2375 0.5625 1.875 C2.71437233 5.05602866 5.37533763 5.19451947 9 6 C8.67 6.66 8.34 7.32 8 8 C4.625 8.125 4.625 8.125 1 8 C-1 6 -1 6 -1.1875 3.4375 C-1 1 -1 1 0 0 Z " fill="#393834" transform="translate(236,445)"/>
<path d="M0 0 C6 6 6 6 6.0625 8.5625 C6.041875 9.366875 6.02125 10.17125 6 11 C3.36 11 0.72 11 -2 11 C-2 10.67 -2 10.34 -2 10 C-0.02 10 1.96 10 4 10 C3.67 8.02 3.34 6.04 3 4 C2.01 4 1.02 4 0 4 C0 2.68 0 1.36 0 0 Z " fill="#E1C06C" transform="translate(81,83)"/>
<path d="M0 0 C0.66 0 1.32 0 2 0 C2.33 4.29 2.66 8.58 3 13 C2.34 13 1.68 13 1 13 C-0.10228696 8.59085217 -0.07654536 4.51617599 0 0 Z " fill="#231F1D" transform="translate(90,149)"/>
<path d="M0 0 C0 0.33 0 0.66 0 1 C-0.763125 1.020625 -1.52625 1.04125 -2.3125 1.0625 C-5.41389118 1.79660949 -5.41389118 1.79660949 -6.8125 5.5625 C-7.204375 6.696875 -7.59625 7.83125 -8 9 C-8.99 8.34 -9.98 7.68 -11 7 C-8.87296567 0.78251503 -6.45381515 -0.28683623 0 0 Z " fill="#554E35" transform="translate(150,433)"/>
<path d="M0 0 C0 0.33 0 0.66 0 1 C-7.42857143 3.14285714 -7.42857143 3.14285714 -11 4 C-8.5267058 -2.889891 -6.71437283 -2.11378404 0 0 Z " fill="#605635" transform="translate(356,429)"/>
<path d="M0 0 C0.90492188 0.02320312 1.80984375 0.04640625 2.7421875 0.0703125 C4.10730469 0.09738281 4.10730469 0.09738281 5.5 0.125 C6.19867188 0.14820312 6.89734375 0.17140625 7.6171875 0.1953125 C7.6171875 1.1853125 7.6171875 2.1753125 7.6171875 3.1953125 C3.6571875 2.8653125 -0.3028125 2.5353125 -4.3828125 2.1953125 C-2.3828125 0.1953125 -2.3828125 0.1953125 0 0 Z " fill="#26211F" transform="translate(136.3828125,97.8046875)"/>
<path d="M0 0 C-0.33 1.32 -0.66 2.64 -1 4 C-3.64 4 -6.28 4 -9 4 C-8.67 3.01 -8.34 2.02 -8 1 C-5.23735711 0.40267181 -2.83967231 0 0 0 Z " fill="#29211B" transform="translate(134,85)"/>
<path d="M0 0 C5.44877223 0.48433531 5.44877223 0.48433531 7.9375 2.8125 C9 5 9 5 8.6875 7.25 C8.460625 7.8275 8.23375 8.405 8 9 C5.06799526 6.14723863 2.35684596 3.34920216 0 0 Z " fill="#EEC059" transform="translate(142,76)"/>
<path d="M0 0 C1.13732426 3.40401948 0.83989957 5.77456664 0.0625 9.25 C-0.13214844 10.14203125 -0.32679687 11.0340625 -0.52734375 11.953125 C-0.68332031 12.62859375 -0.83929688 13.3040625 -1 14 C-1.66 13.67 -2.32 13.34 -3 13 C-3 11.02 -3 9.04 -3 7 C-2.34 7 -1.68 7 -1 7 C-0.67 4.69 -0.34 2.38 0 0 Z " fill="#3C3936" transform="translate(76,100)"/>
<path d="M0 0 C2.91517292 1.07401108 4.77810176 1.77810176 7 4 C7.1953125 6.3828125 7.1953125 6.3828125 7.125 9.125 C7.10695313 10.03507812 7.08890625 10.94515625 7.0703125 11.8828125 C7.04710938 12.58148438 7.02390625 13.28015625 7 14 C6.67 14 6.34 14 6 14 C5.98582031 13.38511719 5.97164063 12.77023438 5.95703125 12.13671875 C5.81117948 9.6651226 5.60707755 7.40265902 5 5 C2.5748212 3.00916823 2.5748212 3.00916823 0 2 C0 1.34 0 0.68 0 0 Z " fill="#E3B855" transform="translate(76,117)"/>
<path d="M0 0 C0.66 0.33 1.32 0.66 2 1 C0.625 2.5 0.625 2.5 -1 4 C-1.66 4 -2.32 4 -3 4 C-3.33 5.65 -3.66 7.3 -4 9 C-4.99 8.34 -5.98 7.68 -7 7 C-7 6.34 -7 5.68 -7 5 C-5.46875 3.7109375 -5.46875 3.7109375 -3.5 2.375 C-2.8503125 1.92898437 -2.200625 1.48296875 -1.53125 1.0234375 C-1.0259375 0.68570313 -0.520625 0.34796875 0 0 Z " fill="#353231" transform="translate(89,77)"/>
<path d="M0 0 C0 0.99 0 1.98 0 3 C-1.65 3.66 -3.3 4.32 -5 5 C-5 4.34 -5 3.68 -5 3 C-6.65 3 -8.3 3 -10 3 C-10 2.67 -10 2.34 -10 2 C-3.375 0 -3.375 0 0 0 Z " fill="#5F5534" transform="translate(155,448)"/>
<path d="M0 0 C1.3303125 0.7115625 1.3303125 0.7115625 2.6875 1.4375 C5.57042756 2.79737149 7.87610623 3.54060386 11 4 C11 4.66 11 5.32 11 6 C9.1875 6.6875 9.1875 6.6875 7 7 C5.5 5.6875 5.5 5.6875 4 4 C1.90010348 2.82425289 1.90010348 2.82425289 0 2 C0 1.34 0 0.68 0 0 Z " fill="#EBB33C" transform="translate(76,115)"/>
<path d="M0 0 C2.64 0 5.28 0 8 0 C8 0.66 8 1.32 8 2 C3.545 2.495 3.545 2.495 -1 3 C-0.67 2.01 -0.34 1.02 0 0 Z " fill="#382A18" transform="translate(131,100)"/>
<path d="M0 0 C3.3 0.33 6.6 0.66 10 1 C10 1.66 10 2.32 10 3 C6.37 2.67 2.74 2.34 -1 2 C-0.67 1.34 -0.34 0.68 0 0 Z " fill="#201A19" transform="translate(81,98)"/>
<path d="M0 0 C0 0.99 0 1.98 0 3 C-1.65 3.33 -3.3 3.66 -5 4 C-5 3.34 -5 2.68 -5 2 C-6.65 2 -8.3 2 -10 2 C-10 1.67 -10 1.34 -10 1 C-3.375 0 -3.375 0 0 0 Z " fill="#695D34" transform="translate(97,456)"/>
<path d="M0 0 C0.66 0 1.32 0 2 0 C2 2.97 2 5.94 2 9 C1.01 9.495 1.01 9.495 0 10 C-1.125 2.25 -1.125 2.25 0 0 Z " fill="#3B3A35" transform="translate(93,436)"/>
<path d="M0 0 C1.53266582 3.06533164 1.10276471 6.26754272 1.0625 9.625 C1.05798828 10.33140625 1.05347656 11.0378125 1.04882812 11.765625 C1.03703875 13.51045275 1.01910324 15.255237 1 17 C0.67 17 0.34 17 0 17 C-2.02893016 11.39060484 -2.2449627 6.86012745 -1 1 C-0.67 0.67 -0.34 0.34 0 0 Z " fill="#353535" transform="translate(86,124)"/>
<path d="M0 0 C3.96 0.33 7.92 0.66 12 1 C7.01222852 3.49388574 5.33016752 2.88836125 0 2 C0 1.34 0 0.68 0 0 Z " fill="#574F3E" transform="translate(84,110)"/>
<path d="M0 0 C2.46800047 1.15173355 4.04783565 2.04783565 6 4 C6 4.99 6 5.98 6 7 C4.68 7 3.36 7 2 7 C1.34 4.69 0.68 2.38 0 0 Z " fill="#F3C357" transform="translate(85,87)"/>
<path d="M0 0 C2.64 0 5.28 0 8 0 C8.33 0.66 8.66 1.32 9 2 C4.545 2.495 4.545 2.495 0 3 C0 2.01 0 1.02 0 0 Z " fill="#ECAE30" transform="translate(122,80)"/>
<path d="M0 0 C0.598125 0.226875 1.19625 0.45375 1.8125 0.6875 C0.4375 2.1875 0.4375 2.1875 -1.1875 3.6875 C-1.8475 3.6875 -2.5075 3.6875 -3.1875 3.6875 C-3.8475 5.0075 -4.5075 6.3275 -5.1875 7.6875 C-5.41803497 4.84423536 -5.54653101 3.22604651 -3.9375 0.8125 C-2.1875 -0.3125 -2.1875 -0.3125 0 0 Z " fill="#504A35" transform="translate(239.1875,442.3125)"/>
<path d="M0 0 C0 2.31 0 4.62 0 7 C-0.99 7 -1.98 7 -3 7 C-3 5.02 -3 3.04 -3 1 C-1 0 -1 0 0 0 Z " fill="#3F331F" transform="translate(94,161)"/>
<path d="M0 0 C0 2.31 0 4.62 0 7 C-0.99 7 -1.98 7 -3 7 C-3 5.02 -3 3.04 -3 1 C-1 0 -1 0 0 0 Z " fill="#3E321F" transform="translate(92,142)"/>
<path d="M0 0 C2.48935591 0.78930797 4.669779 1.8348895 7 3 C7 3.66 7 4.32 7 5 C5.35 4.67 3.7 4.34 2 4 C2 3.34 2 2.68 2 2 C0.35 2 -1.3 2 -3 2 C-2.01 1.34 -1.02 0.68 0 0 Z " fill="#F6D57D" transform="translate(140,72)"/>
<path d="M0 0 C0 0.66 0 1.32 0 2 C2.64 2 5.28 2 8 2 C8 2.33 8 2.66 8 3 C4.37 3.33 0.74 3.66 -3 4 C-3.33 3.01 -3.66 2.02 -4 1 C-2 0 -2 0 0 0 Z " fill="#827136" transform="translate(85,428)"/>
</svg>
