<?xml version="1.0" encoding="UTF-8"?>
<svg version="1.1" xmlns="http://www.w3.org/2000/svg" width="525" height="525">
<path d="M0 0 C173.25 0 346.5 0 525 0 C525 173.25 525 346.5 525 525 C351.75 525 178.5 525 0 525 C0 351.75 0 178.5 0 0 Z " fill="#0E285A" transform="translate(0,0)"/>
<path d="M0 0 C1.24925262 -0.00315216 2.49850525 -0.00630432 3.78561401 -0.009552 C5.13979121 -0.00775995 6.49396809 -0.00570844 7.84814453 -0.00341797 C9.25855526 -0.00409311 10.66896588 -0.00506488 12.07937622 -0.00631714 C15.03648994 -0.00778905 17.9935734 -0.00565907 20.95068359 -0.00097656 C24.6931092 0.00466797 28.43546222 0.00147236 32.17788506 -0.00454903 C35.09516924 -0.00821351 38.01243708 -0.00698861 40.92972183 -0.00442123 C42.30645888 -0.00376535 43.68319754 -0.00453209 45.05993271 -0.00690079 C77.23211312 -0.05004676 77.23211312 -0.05004676 84.11767578 6.58642578 C91.11927391 14.51087066 90.76164574 23.34264377 90.77392578 33.40283203 C90.77891838 34.84851059 90.77891838 34.84851059 90.78401184 36.32339478 C90.78904991 38.35214769 90.79142114 40.38090881 90.79125977 42.40966797 C90.79344558 45.4882593 90.81163297 48.56649145 90.83056641 51.64501953 C90.83350125 53.62678915 90.83548544 55.60856046 90.83642578 57.59033203 C90.8436113 58.49794281 90.85079681 59.40555359 90.85820007 60.34066772 C90.82268661 70.43334874 89.8209077 78.91444386 82.41845703 86.31689453 C73.10216699 92.32072589 62.92823856 91.57044593 52.28955078 91.52783203 C50.50553773 91.52985618 48.72152549 91.53277046 46.93751526 91.53652954 C43.21143664 91.54093569 39.48557477 91.53457644 35.75952148 91.52050781 C30.99949386 91.50340445 26.23997338 91.51327522 21.47996426 91.5312252 C17.80036135 91.54209877 14.12087744 91.53860057 10.44127083 91.53084183 C8.68670656 91.52885033 6.93213124 91.5312619 5.17757988 91.53828049 C2.72039291 91.54595557 0.26401215 91.53420767 -2.19311523 91.51757812 C-2.90762344 91.52365082 -3.62213165 91.52972351 -4.35829163 91.53598022 C-12.06109306 91.44008905 -18.29106855 88.94695852 -23.92138672 83.72705078 C-30.55119504 76.53450011 -29.55847229 66.06519751 -29.59716797 56.91064453 C-29.60286804 55.8533313 -29.60856812 54.79601807 -29.61444092 53.70666504 C-29.62384471 51.48121122 -29.6304064 49.25574376 -29.63427734 47.03027344 C-29.64401283 43.63988995 -29.67509268 40.25010565 -29.70654297 36.85986328 C-29.71307142 34.68929393 -29.71832251 32.51872029 -29.72216797 30.34814453 C-29.73451477 29.34271606 -29.74686157 28.3372876 -29.75958252 27.3013916 C-29.73281993 18.78873363 -28.01538915 12.01065005 -22.13232422 5.60205078 C-16.11205962 0.50173673 -7.55818573 0.00550091 0 0 Z " fill="#E9EEFA" transform="translate(101.39404296875,71.87060546875)"/>
<path d="M0 0 C2.62993784 0.80888345 4.29518039 1.74070377 6.49194336 3.37670898 C7.21647705 3.90941406 7.94101074 4.44211914 8.6875 4.9909668 C9.44925537 5.56298828 10.21101074 6.13500977 10.99584961 6.72436523 C11.78918701 7.30541016 12.58252441 7.88645508 13.39990234 8.48510742 C17.14356185 11.22867879 20.8556577 14.00838794 24.53491211 16.83764648 C32.18265911 23.02010594 32.18265911 23.02010594 41.45288086 25.26342773 C46.16070203 24.19783556 49.68697049 21.57465223 53.55834961 18.78686523 C54.23671875 18.3025 54.91508789 17.81813477 55.61401367 17.3190918 C59.4585741 14.57202986 63.28409063 11.80117025 67.09350586 9.00561523 C68.58159542 7.93243272 70.06987958 6.85952 71.55834961 5.78686523 C72.34580566 5.2003418 73.13326172 4.61381836 73.94458008 4.00952148 C74.72333496 3.45135742 75.50208984 2.89319336 76.30444336 2.31811523 C77.34942993 1.55337891 77.34942993 1.55337891 78.41552734 0.77319336 C81.19226662 -0.50492293 82.6887166 -0.11365104 85.55834961 0.78686523 C86.55834961 1.78686523 86.55834961 1.78686523 86.86694336 4.12670898 C86.55834961 6.78686523 86.55834961 6.78686523 84.96850586 8.60327148 C84.1937793 9.17948242 83.41905273 9.75569336 82.62084961 10.34936523 C81.71592773 11.02870117 80.81100586 11.70803711 79.87866211 12.40795898 C78.77360397 13.20331275 77.66666284 13.9960537 76.55834961 14.78686523 C75.89931641 15.26140137 75.2402832 15.7359375 74.5612793 16.22485352 C69.59383685 19.79428004 64.58656198 23.30372042 59.55834961 26.78686523 C58.59541992 27.45717773 57.63249023 28.12749023 56.64038086 28.81811523 C49.68936667 33.56855709 44.10728725 35.92335621 35.55834961 34.78686523 C25.23293615 31.72347904 16.07229108 23.13351708 7.55834961 16.78686523 C6.29403163 15.84935857 5.02970912 14.91185803 3.76538086 13.97436523 C-4.13287608 8.09563954 -4.13287608 8.09563954 -5.44165039 6.78686523 C-5.69165039 4.34936523 -5.69165039 4.34936523 -5.44165039 1.78686523 C-2.44165039 -0.21313477 -2.44165039 -0.21313477 0 0 Z " fill="#091D51" transform="translate(91.441650390625,90.213134765625)"/>
<path d="M0 0 C1.98 0 3.96 0 6 0 C6.33 0.99 6.66 1.98 7 3 C7.33 2.505 7.66 2.01 8 1.5 C11.07696877 -0.80772658 14.3378441 -0.4494799 18 0 C20.5 1 20.5 1 22 2 C22.66 1.34 23.32 0.68 24 0 C26.0234375 -0.3359375 26.0234375 -0.3359375 28.375 -0.375 C29.53128906 -0.41753906 29.53128906 -0.41753906 30.7109375 -0.4609375 C33 0 33 0 35.2734375 1.3203125 C38.08027732 5.67662951 37.41678707 10.19506887 37.25 15.25 C37.23195312 16.28125 37.21390625 17.3125 37.1953125 18.375 C37.14822712 20.91761064 37.0824805 23.45833162 37 26 C35.02 26 33.04 26 31 26 C30.97494385 25.42967041 30.9498877 24.85934082 30.92407227 24.27172852 C30.80843451 21.70173843 30.68556376 19.13214473 30.5625 16.5625 C30.52318359 15.66466797 30.48386719 14.76683594 30.44335938 13.84179688 C30.40146484 12.98779297 30.35957031 12.13378906 30.31640625 11.25390625 C30.27974854 10.46314697 30.24309082 9.6723877 30.20532227 8.85766602 C30.19436743 6.98598559 30.19436743 6.98598559 29 6 C26.5 5.83333333 26.5 5.83333333 24 6 C22.45049732 7.54950268 22.78344807 9.09990594 22.68359375 11.25390625 C22.64169922 12.10791016 22.59980469 12.96191406 22.55664062 13.84179688 C22.51732422 14.73962891 22.47800781 15.63746094 22.4375 16.5625 C22.39431641 17.46419922 22.35113281 18.36589844 22.30664062 19.29492188 C22.20021858 21.52978485 22.09820012 23.76476308 22 26 C20.02 26 18.04 26 16 26 C15.97494385 25.42967041 15.9498877 24.85934082 15.92407227 24.27172852 C15.80843451 21.70173843 15.68556376 19.13214473 15.5625 16.5625 C15.52318359 15.66466797 15.48386719 14.76683594 15.44335938 13.84179688 C15.40146484 12.98779297 15.35957031 12.13378906 15.31640625 11.25390625 C15.27974854 10.46314697 15.24309082 9.6723877 15.20532227 8.85766602 C15.19436743 6.98598559 15.19436743 6.98598559 14 6 C11.5 5.83333333 11.5 5.83333333 9 6 C7.45049732 7.54950268 7.78344807 9.09990594 7.68359375 11.25390625 C7.64169922 12.10791016 7.59980469 12.96191406 7.55664062 13.84179688 C7.49766602 15.18854492 7.49766602 15.18854492 7.4375 16.5625 C7.39431641 17.46419922 7.35113281 18.36589844 7.30664062 19.29492188 C7.20021858 21.52978485 7.09820012 23.76476308 7 26 C4.69 26 2.38 26 0 26 C0 17.42 0 8.84 0 0 Z " fill="#F1F2F5" transform="translate(104,370)"/>
<path d="M0 0 C1.02867187 -0.0309375 2.05734375 -0.061875 3.1171875 -0.09375 C7.36460898 0.74470203 8.68795127 1.91348405 11.125 5.5 C11.71764726 9.12810311 11.59742357 12.64902009 11.4375 16.3125 C11.41494141 17.29154297 11.39238281 18.27058594 11.36914062 19.27929688 C11.31039727 21.68777455 11.22832129 24.09309078 11.125 26.5 C9.145 26.5 7.165 26.5 5.125 26.5 C4.795 25.84 4.465 25.18 4.125 24.5 C3.135 25.16 2.145 25.82 1.125 26.5 C-3.16144991 27.17888525 -6.73160314 27.22508094 -10.4375 24.875 C-12.30083125 21.79645272 -12.3920119 20.04522444 -11.875 16.5 C-10.193314 13.34979947 -9.17536857 12.60024754 -5.73828125 11.453125 C-4.56652344 11.22109375 -3.39476562 10.9890625 -2.1875 10.75 C-1.00800781 10.50765625 0.17148438 10.2653125 1.38671875 10.015625 C2.29035156 9.84546875 3.19398438 9.6753125 4.125 9.5 C3.795 8.18 3.465 6.86 3.125 5.5 C-1.21684202 5.68464366 -1.21684202 5.68464366 -4.875 7.5 C-6.87458364 7.54080783 -8.87545254 7.54254356 -10.875 7.5 C-8.34132401 1.84795357 -6.34121582 0.06325402 0 0 Z " fill="#F3F4F6" transform="translate(157.875,369.5)"/>
<path d="M0 0 C7.26 0 14.52 0 22 0 C22 1.65 22 3.3 22 5 C16.72 5 11.44 5 6 5 C6 8.3 6 11.6 6 15 C10.95 15 15.9 15 21 15 C21 16.65 21 18.3 21 20 C16.05 20 11.1 20 6 20 C6 23.3 6 26.6 6 30 C11.28 30 16.56 30 22 30 C22 31.65 22 33.3 22 35 C14.74 35 7.48 35 0 35 C0 23.45 0 11.9 0 0 Z " fill="#FAFBFC" transform="translate(76,361)"/>
<path d="M0 0 C4.02152508 2.01076254 6.69060762 4.15542414 9 8 C9.36328125 11.12890625 9.36328125 11.12890625 9.3125 14.5625 C9.30863281 15.69816406 9.30476563 16.83382813 9.30078125 18.00390625 C9 21 9 21 7 24 C3.5625 24.1875 3.5625 24.1875 0 24 C-3.08763501 23.95553403 -3.08763501 23.95553403 -6.5 24.3125 C-10 24 -10 24 -11.9375 21.9375 C-13.25966739 18.28209603 -13.55162743 15.86139203 -13 12 C-11.0625 9 -11.0625 9 -8 7 C-4.80285764 6.88772577 -2.17758252 7.38345414 1 8 C1.33 12.29 1.66 16.58 2 21 C3.32 20.67 4.64 20.34 6 20 C6.38327402 13.36510208 6.38327402 13.36510208 4.8125 7 C1.73661911 3.60592453 -0.96150552 3.11329031 -5.4375 2.625 C-9.74037381 3.07793409 -11.73578654 4.19125819 -15 7 C-17.33086161 10.92008544 -17.38720568 14.50841414 -17 19 C-16.10599787 22.23015367 -15.15062996 25.18763394 -12.3125 27.19140625 C-9.21334543 28.27506334 -6.52419251 28.19048385 -3.25 28.125 C-2.07953125 28.10695313 -0.9090625 28.08890625 0.296875 28.0703125 C1.63492188 28.03550781 1.63492188 28.03550781 3 28 C3 28.99 3 29.98 3 31 C-1.87618168 32.62539389 -7.16550394 32.92029093 -12.10546875 31.31640625 C-14.98216332 29.83819006 -16.93580773 28.08075802 -18.9375 25.5625 C-20.94322763 18.83741325 -21.30292627 11.79887866 -18.3125 5.375 C-12.77142727 -0.31583145 -7.78296685 -1.04001466 0 0 Z " fill="#F4F5F6" transform="translate(148,428)"/>
<path d="M0 0 C0.33 0 0.66 0 1 0 C1.89318871 6.12714092 2.16041587 12.0858869 2.16796875 18.2734375 C2.17296135 19.71911606 2.17296135 19.71911606 2.17805481 21.19400024 C2.18309288 23.22275316 2.18546411 25.25151427 2.18530273 27.28027344 C2.18748854 30.35886477 2.20567594 33.43709692 2.22460938 36.515625 C2.22754422 38.49739462 2.22952841 40.47916593 2.23046875 42.4609375 C2.23765427 43.36854828 2.24483978 44.27615906 2.25224304 45.21127319 C2.21672958 55.30395421 1.21495067 63.78504933 -6.1875 71.1875 C-15.52195063 77.20303485 -25.69540798 76.42461221 -36.3515625 76.36328125 C-38.13796997 76.36276179 -39.92437801 76.36328282 -41.71078491 76.36479187 C-45.44106666 76.36470251 -49.17113065 76.35434559 -52.90136719 76.33618164 C-57.67037865 76.31346284 -62.43907342 76.31296032 -67.20812416 76.31969929 C-70.89196564 76.32304805 -74.57573557 76.31639263 -78.25956345 76.30657005 C-80.01774089 76.3027359 -81.77592631 76.30156239 -83.53410721 76.3031559 C-85.99375713 76.3035288 -88.453008 76.29084506 -90.91259766 76.2746582 C-91.63070114 76.27713562 -92.34880463 76.27961304 -93.08866882 76.28216553 C-97.77751873 76.23318082 -101.58987028 75.4474439 -106 74 C-106 73.67 -106 73.34 -106 73 C-104.90720734 72.99635437 -103.81441467 72.99270874 -102.68850708 72.98895264 C-92.36071248 72.95191819 -82.03321371 72.89405337 -71.70564461 72.81609726 C-66.39684995 72.77668588 -61.08821959 72.74446629 -55.77929688 72.72900391 C-50.65030369 72.71379561 -45.52176241 72.679276 -40.39297104 72.63169098 C-38.44193335 72.61692016 -36.49083112 72.60896147 -34.5397377 72.60811615 C-20.16784947 73.0021006 -20.16784947 73.0021006 -7 68 C-2.47204854 62.79285583 -0.77380945 57.00396285 -0.68115234 50.17822266 C-0.66128265 49.05751373 -0.64141296 47.93680481 -0.62094116 46.78213501 C-0.60938995 45.58817108 -0.59783875 44.39420715 -0.5859375 43.1640625 C-0.56657135 41.92957367 -0.5472052 40.69508484 -0.5272522 39.42318726 C-0.46759903 35.49052788 -0.42112737 31.557839 -0.375 27.625 C-0.33787457 24.95439547 -0.29775475 22.28384636 -0.2578125 19.61328125 C-0.16190904 13.07562886 -0.07681971 6.53790298 0 0 Z " fill="#7797C9" transform="translate(190,87)"/>
<path d="M0 0 C3.12349621 0.59811629 4.62316769 1.42619325 6.9375 3.5625 C6.9375 2.9025 6.9375 2.2425 6.9375 1.5625 C7.5975 1.5625 8.2575 1.5625 8.9375 1.5625 C9.08278105 5.31209217 9.17156281 9.06096105 9.25 12.8125 C9.29189453 13.87597656 9.33378906 14.93945312 9.37695312 16.03515625 C9.50059612 23.898851 9.50059612 23.898851 6.640625 27.26953125 C3.12991345 28.94878778 0.78604662 29.05231502 -3.0625 28.5625 C-5.5 27.1875 -5.5 27.1875 -7.0625 25.5625 C-7.0625 24.9025 -7.0625 24.2425 -7.0625 23.5625 C-3.4325 23.8925 0.1975 24.2225 3.9375 24.5625 C4.5975 22.5825 5.2575 20.6025 5.9375 18.5625 C4.9475 19.2225 3.9575 19.8825 2.9375 20.5625 C-1.16585951 20.48789346 -3.337199 20.17621623 -6.5 17.5 C-8.48473915 13.76869039 -8.97871201 10.64960225 -8.0625 6.5625 C-6.2136657 2.84122927 -4.21138709 0.77352008 0 0 Z " fill="#EFF0F3" transform="translate(221.0625,432.4375)"/>
<path d="M0 0 C0.99 0 1.98 0 3 0 C3 8.58 3 17.16 3 26 C1.68 25.67 0.36 25.34 -1 25 C-1.33 25.33 -1.66 25.66 -2 26 C-9.30434783 26.47124825 -9.30434783 26.47124825 -11.9375 24.6875 C-14.57605375 20.4968558 -14.73722519 15.78358615 -14 11 C-11.875 7.9375 -11.875 7.9375 -9 6 C-5.8125 5.5625 -5.8125 5.5625 -3 6 C-2.34 6.66 -1.68 7.32 -1 8 C-0.67 5.36 -0.34 2.72 0 0 Z " fill="#EFF0F3" transform="translate(88,427)"/>
<path d="M0 0 C0.99 0 1.98 0 3 0 C3 8.58 3 17.16 3 26 C2.34 26 1.68 26 1 26 C0.67 25.34 0.34 24.68 0 24 C-0.66 24.66 -1.32 25.32 -2 26 C-5.98144156 26.4423824 -8.13116678 26.66305693 -11.375 24.1875 C-14.29420195 20.25780506 -14.41194253 16.77853336 -14 12 C-12.4375 9.125 -12.4375 9.125 -10 7 C-3.93023256 5.53488372 -3.93023256 5.53488372 -1 7 C-0.67 4.69 -0.34 2.38 0 0 Z " fill="#E6E8EC" transform="translate(175,427)"/>
<path d="M0 0 C2.8125 1.4375 2.8125 1.4375 5 4 C6.3199716 8.34052011 6.54929205 11.77063207 4.6875 15.9375 C3 18 3 18 1 20 C-6.07874016 20.68503937 -6.07874016 20.68503937 -9.4375 18.1875 C-12.26719342 14.22592922 -12.41041634 10.76082959 -12 6 C-8.59923278 0.78549026 -6.21541624 -0.60935453 0 0 Z " fill="#E8E9ED" transform="translate(247,433)"/>
<path d="M0 0 C1 3 1 3 0.36328125 4.9375 C-2.95109438 11.44304026 -5.75923123 13.772227 -12.73989677 16.34510612 C-16.50469182 17.43600374 -20.16179424 17.44239891 -24.05883789 17.43579102 C-24.9265834 17.44586685 -25.79432892 17.45594269 -26.68836975 17.46632385 C-29.53326579 17.49463065 -32.37762851 17.50067058 -35.22265625 17.50390625 C-37.21227735 17.51355576 -39.20189635 17.52364886 -41.19151306 17.53416443 C-45.35143979 17.5520799 -49.51118002 17.55768982 -53.67114258 17.5559082 C-58.99323795 17.55560279 -64.31413753 17.59663844 -69.63594913 17.64822483 C-73.74101733 17.68162006 -77.84579674 17.68766493 -81.95098686 17.68607903 C-83.91295958 17.68961105 -85.8749404 17.70283545 -87.83677864 17.72607613 C-90.58222075 17.75556915 -93.32507023 17.74681493 -96.07055664 17.72875977 C-96.87438782 17.74561829 -97.67821899 17.76247681 -98.50640869 17.77984619 C-103.91937906 17.68966911 -106.71861006 16.24732641 -110.68501949 12.57984829 C-112 11 -112 11 -113 8 C-109.39031639 8.76496606 -106.65344135 10.21898063 -103.48828125 12.0625 C-94.85834517 15.31396728 -84.37122208 14.18118204 -75.25 14.203125 C-74.45307739 14.20595238 -73.65615479 14.20877975 -72.83508301 14.21169281 C-68.62312498 14.22660297 -64.41120052 14.23588578 -60.19921875 14.24023438 C-55.87203486 14.24572779 -51.54516418 14.26979753 -47.21807861 14.29820633 C-43.86701574 14.31690352 -40.5160276 14.32204192 -37.16491699 14.32357025 C-35.57025427 14.32657793 -33.97559226 14.33454199 -32.38098145 14.34775543 C-20.30161009 14.69915065 -20.30161009 14.69915065 -9 11 C-8.47116211 10.47061829 -7.94232422 9.94123657 -7.39746094 9.39581299 C-6 8 -6 8 -4 8 C-3.71125 7.05125 -3.4225 6.1025 -3.125 5.125 C-2 2 -2 2 0 0 Z " fill="#C7D5F1" transform="translate(188,143)"/>
<path d="M0 0 C2.31 0 4.62 0 7 0 C7 11.55 7 23.1 7 35 C4.69 35 2.38 35 0 35 C0 23.45 0 11.9 0 0 Z " fill="#DFE2E9" transform="translate(187,361)"/>
<path d="M0 0 C3.125 0.1875 3.125 0.1875 6.125 2.1875 C5.795 2.8475 5.465 3.5075 5.125 4.1875 C4.29097656 4.27 3.45695312 4.3525 2.59765625 4.4375 C-2.32090537 5.49977653 -5.48102377 8.17655167 -9.4375 11.1875 C-11.03444105 12.37205854 -12.63210276 13.55564613 -14.23046875 14.73828125 C-15.40681885 15.61540771 -15.40681885 15.61540771 -16.60693359 16.51025391 C-19.78107693 18.85754828 -23.00380073 21.12883724 -26.25 23.375 C-27.74660156 24.41720703 -27.74660156 24.41720703 -29.2734375 25.48046875 C-34.08524894 28.63776845 -36.76058603 29.63385675 -42.48046875 28.875 C-46.61773376 27.68713925 -49.79686404 25.13982658 -52.875 22.1875 C-52.875 21.8575 -52.875 21.5275 -52.875 21.1875 C-50.895 21.1875 -48.915 21.1875 -46.875 21.1875 C-46.545 22.1775 -46.215 23.1675 -45.875 24.1875 C-44.01996169 24.1265792 -42.16583941 24.03755759 -40.3125 23.9375 C-39.27996094 23.89109375 -38.24742187 23.8446875 -37.18359375 23.796875 C-29.80134035 22.43721558 -23.71243065 17.0759758 -17.75 12.75 C-16.96496094 12.18990234 -16.17992187 11.62980469 -15.37109375 11.05273438 C-11.17728628 8.02230182 -7.40536972 4.97200139 -3.875 1.1875 C-2.875 0.1875 -2.875 0.1875 0 0 Z " fill="#6B8DC2" transform="translate(170.875,86.8125)"/>
<path d="M0 0 C2.6796875 2.03515625 2.6796875 2.03515625 5 5 C5.36771245 7.8387401 5.48630804 10.01820151 5.3125 12.8125 C5.28994141 13.50537109 5.26738281 14.19824219 5.24414062 14.91210938 C5.18562661 16.60901573 5.0959548 18.30479861 5 20 C2.89646505 20.0810206 0.79204048 20.13919907 -1.3125 20.1875 C-2.48425781 20.22230469 -3.65601563 20.25710938 -4.86328125 20.29296875 C-8 20 -8 20 -9.90625 18.6875 C-11.54401207 16.1606671 -11.1953866 13.93079906 -11 11 C-3.71428571 7.57142857 -3.71428571 7.57142857 1 8 C0.67 6.68 0.34 5.36 0 4 C-3.5219721 3.91995518 -6.61981469 3.95994298 -10 5 C-7.72128672 -0.04572227 -5.53761719 -0.65148438 0 0 Z " fill="#D4D7DF" transform="translate(299,433)"/>
<path d="M0 0 C0.99 0 1.98 0 3 0 C3.33 0.66 3.66 1.32 4 2 C4.66 1.34 5.32 0.68 6 0 C8.3431213 0.25561323 10.67843403 0.59270772 13 1 C13.99 1 14.98 1 16 1 C16.33 0.67 16.66 0.34 17 0 C22.37977893 -0.46780686 22.37977893 -0.46780686 24.67700195 1.26489258 C26.28536554 3.37425593 26.35215621 4.38774128 26.29296875 7.01171875 C26.28330078 7.76904297 26.27363281 8.52636719 26.26367188 9.30664062 C26.23853516 10.09232422 26.21339844 10.87800781 26.1875 11.6875 C26.16719727 12.88342773 26.16719727 12.88342773 26.14648438 14.10351562 C26.11117089 16.06929967 26.05736447 18.03473582 26 20 C25.01 20 24.02 20 23 20 C22.67 14.72 22.34 9.44 22 4 C20.35 4 18.7 4 17 4 C15.00383446 5.99616554 15.59016573 9.81701963 15.4375 12.5625 C15.39431641 13.27341797 15.35113281 13.98433594 15.30664062 14.71679688 C15.20028223 16.47761912 15.09961154 18.2387832 15 20 C14.01 20 13.02 20 12 20 C11.67 15.05 11.34 10.1 11 5 C9.35 4.67 7.7 4.34 6 4 C3.14206684 6.85793316 3.59200059 9.14665584 3.375 13.125 C3.30023438 14.40632813 3.22546875 15.68765625 3.1484375 17.0078125 C3.09945313 17.99523437 3.05046875 18.98265625 3 20 C2.01 20 1.02 20 0 20 C0 13.4 0 6.8 0 0 Z " fill="#E4E6EB" transform="translate(257,433)"/>
<path d="M0 0 C0.99 0 1.98 0 3 0 C3.33 0.66 3.66 1.32 4 2 C4.66 1.34 5.32 0.68 6 0 C9.61754103 -0.38079379 11.88401212 0.15348866 15 2 C15.66 1.34 16.32 0.68 17 0 C20.5 0.1875 20.5 0.1875 24 1 C26.52775351 4.79163027 26.22443035 7.80874031 26.125 12.1875 C26.11597656 12.93708984 26.10695313 13.68667969 26.09765625 14.45898438 C26.07412578 16.30612654 26.03825561 18.15310412 26 20 C25.01 20 24.02 20 23 20 C22.93941406 18.92878906 22.87882812 17.85757812 22.81640625 16.75390625 C22.73201463 15.35675609 22.64736594 13.95962143 22.5625 12.5625 C22.52318359 11.85544922 22.48386719 11.14839844 22.44335938 10.41992188 C22.52375562 6.91309581 22.52375562 6.91309581 21 4 C19.33382885 3.95936168 17.66611905 3.957279 16 4 C14.5192152 6.9615696 14.64685963 9.83506295 14.4375 13.125 C14.35371094 14.40632813 14.26992187 15.68765625 14.18359375 17.0078125 C14.12300781 17.99523437 14.06242187 18.98265625 14 20 C13.01 20 12.02 20 11 20 C10.67 14.72 10.34 9.44 10 4 C8.35 4 6.7 4 5 4 C3.5192152 6.9615696 3.64685963 9.83506295 3.4375 13.125 C3.35371094 14.40632813 3.26992187 15.68765625 3.18359375 17.0078125 C3.09271484 18.48894531 3.09271484 18.48894531 3 20 C2.01 20 1.02 20 0 20 C0 13.4 0 6.8 0 0 Z " fill="#D9DCE3" transform="translate(97,433)"/>
<path d="M0 0 C2.33746522 0.30300475 4.67085177 0.63858045 7 1 C10.10385613 1.09637265 10.10385613 1.09637265 13.5 0.3125 C17 0 17 0 18.70043945 1.22973633 C20.26583259 3.36211763 20.35202777 4.39343545 20.29296875 7.01171875 C20.28330078 7.76904297 20.27363281 8.52636719 20.26367188 9.30664062 C20.23853516 10.09232422 20.21339844 10.87800781 20.1875 11.6875 C20.16719727 12.88342773 20.16719727 12.88342773 20.14648438 14.10351562 C20.11117089 16.06929967 20.05736447 18.03473582 20 20 C19.01 20 18.02 20 17 20 C16.67 14.72 16.34 9.44 16 4 C14.35 4 12.7 4 11 4 C9.00383446 5.99616554 9.59016573 9.81701963 9.4375 12.5625 C9.39431641 13.27341797 9.35113281 13.98433594 9.30664062 14.71679688 C9.20028223 16.47761912 9.09961154 18.2387832 9 20 C8.01 20 7.02 20 6 20 C5.67 14.39 5.34 8.78 5 3 C3.02 3.66 1.04 4.32 -1 5 C-1.33 9.95 -1.66 14.9 -2 20 C-2.99 20 -3.98 20 -5 20 C-5 13.73 -5 7.46 -5 1 C-3.68 1 -2.36 1 -1 1 C-0.67 0.67 -0.34 0.34 0 0 Z " fill="#F0F1F3" transform="translate(378,433)"/>
<path d="M0 0 C2.875 2.125 2.875 2.125 5 5 C5 6.98 5 8.96 5 11 C0.38 11 -4.24 11 -9 11 C-8.34 12.65 -7.68 14.3 -7 16 C-4.08995097 17.08223366 -4.08995097 17.08223366 -1 17 C-0.01 16.34 0.98 15.68 2 15 C2.99 15 3.98 15 5 15 C3.25 18.875 3.25 18.875 1 20 C-2.01107177 20.34553283 -4.09312777 20.57248153 -7 20 C-10.0874681 17.42710991 -11.58386894 15.88916134 -12.44140625 11.99609375 C-12.65854308 8.30476763 -12.10708037 6.16775924 -10.125 3.0625 C-6.79336654 -0.17114424 -4.60938161 -0.54228019 0 0 Z " fill="#EBEDF0" transform="translate(204,433)"/>
<path d="M0 0 C1.98 0 3.96 0 6 0 C6 8.58 6 17.16 6 26 C4.02 26 2.04 26 0 26 C0 17.42 0 8.84 0 0 Z " fill="#FFFFFF" transform="translate(175,370)"/>
<path d="M0 0 C3 0.5 3 0.5 4.875 2.125 C6.34307183 5.22426275 6.48550505 7.10146464 6 10.5 C4 13.375 4 13.375 2 15.5 C-0.875 15.25 -0.875 15.25 -4 14.5 C-5.8963031 12.17271892 -6.00123599 10.48813451 -6.3125 7.5 C-5.8239186 2.80961858 -4.7848904 0.79748173 0 0 Z " fill="#102557" transform="translate(244,435.5)"/>
<path d="M0 0 C0.99 0 1.98 0 3 0 C4.65 4.95 6.3 9.9 8 15 C9.48348498 10.44339012 9.48348498 10.44339012 10.93066406 5.87524414 C11.515625 4.16015625 11.515625 4.16015625 13 1 C15.171875 0.05859375 15.171875 0.05859375 17 0 C15.35041996 6.14975013 13.27847456 12.08494787 10.9375 18 C10.6801709 18.6587915 10.4228418 19.31758301 10.15771484 19.99633789 C9.02894163 22.80367786 8.16207286 24.83792714 6 27 C3.375 27.125 3.375 27.125 1 27 C1 26.34 1 25.68 1 25 C2.32 24.34 3.64 23.68 5 23 C4.57864714 16.57436889 3.2331125 11.3617259 0.83984375 5.3828125 C0 3 0 3 0 0 Z " fill="#E4E6EB" transform="translate(343,433)"/>
<path d="M0 0 C1.8125 1 1.8125 1 3 3 C3.39487671 7.14620548 3.59376995 9.749958 1.8125 13.5 C0 15 0 15 -2.5 15.5 C-5 15 -5 15 -6.8125 13.5 C-8.59376995 9.749958 -8.39487671 7.14620548 -8 3 C-5.99552859 -0.37595184 -3.7543224 -0.56314836 0 0 Z " fill="#0D2355" transform="translate(85,436)"/>
<path d="M0 0 C1.4540625 0.2165625 1.4540625 0.2165625 2.9375 0.4375 C5.00270632 3.53530948 5.23227024 4.3915481 5.25 7.9375 C5.26675781 8.7109375 5.28351563 9.484375 5.30078125 10.28125 C4.85153174 12.94776322 4.08860683 13.84085507 1.9375 15.4375 C-1.1798326 15.35956668 -2.58672033 14.88046728 -4.875 12.75 C-6.42632423 9.72900017 -6.48222691 7.79531526 -6.0625 4.4375 C-4.46297292 1.0607206 -3.73834001 0.53404857 0 0 Z " fill="#0E2456" transform="translate(170.0625,435.5625)"/>
<path d="M0 0 C0 0.99 0 1.98 0 3 C-1.423125 3.928125 -1.423125 3.928125 -2.875 4.875 C-6.28611564 7.19455863 -7.0848111 8.06468773 -8 12 C-8.51804251 17.59485907 -7.65485345 21.16437407 -5 26 C-1.56570701 28.42467445 1.6472834 28.20705433 5.75 28.125 C6.92046875 28.10695313 8.0909375 28.08890625 9.296875 28.0703125 C10.63492188 28.03550781 10.63492188 28.03550781 12 28 C12 28.99 12 29.98 12 31 C7.12381832 32.62539389 1.83449606 32.92029093 -3.10546875 31.31640625 C-5.98216332 29.83819006 -7.93580773 28.08075802 -9.9375 25.5625 C-11.94322763 18.83741325 -12.30292627 11.79887866 -9.3125 5.375 C-6.60940461 2.59884798 -4.04964752 0 0 0 Z " fill="#E6E7EC" transform="translate(139,428)"/>
<path d="M0 0 C1.59211531 3.18423061 1.38981631 6.53417863 1 10 C-0.1875 12 -0.1875 12 -2 13 C-4.5 13.4375 -4.5 13.4375 -7 13 C-9.77334669 10.60918389 -9.98943126 9.100403 -10.375 5.4375 C-10 2 -10 2 -8.9375 0 C-5.80758074 -1.6154422 -3.31825907 -0.79884015 0 0 Z " fill="#0D2355" transform="translate(226,437)"/>
<path d="M0 0 C1.75 0.125 1.75 0.125 4 1 C6.25 4.0625 6.25 4.0625 8 7 C9.32 4.69 10.64 2.38 12 0 C13.32 0 14.64 0 16 0 C14.88336699 2.31916086 13.75810791 4.33692112 12.25 6.4375 C10.69810377 8.91663966 10.69810377 8.91663966 11.625 11.4375 C12.07875 12.283125 12.5325 13.12875 13 14 C13.53625 15.093125 14.0725 16.18625 14.625 17.3125 C15.07875 18.199375 15.5325 19.08625 16 20 C14.68 20 13.36 20 12 20 C9.75 17 9.75 17 8 14 C6.49440461 15.96382007 5.10868317 17.78263366 4 20 C2.68 19.67 1.36 19.34 0 19 C0.57621094 18.22076172 0.57621094 18.22076172 1.1640625 17.42578125 C4.31399363 13.21932789 4.31399363 13.21932789 4.5 8.25 C3.07010854 6.10516281 1.55753196 4.05311031 0 2 C0 1.34 0 0.68 0 0 Z " fill="#E0E2E8" transform="translate(403,433)"/>
<path d="M0 0 C0.99 0 1.98 0 3 0 C3.06058594 1.07121094 3.12117188 2.14242188 3.18359375 3.24609375 C3.26798537 4.64324391 3.35263406 6.04037857 3.4375 7.4375 C3.47681641 8.14455078 3.51613281 8.85160156 3.55664062 9.58007812 C3.47624438 13.08690419 3.47624438 13.08690419 5 16 C7.45809998 16.2500773 7.45809998 16.2500773 10 16 C12.77042109 13.22957891 12.39796106 11.23466195 12.625 7.375 C12.69976562 6.18648438 12.77453125 4.99796875 12.8515625 3.7734375 C12.90054687 2.85820312 12.94953125 1.94296875 13 1 C13.66 1 14.32 1 15 1 C15 7.27 15 13.54 15 20 C13.68 19.67 12.36 19.34 11 19 C10.34 19.33 9.68 19.66 9 20 C6.0625 20.3125 6.0625 20.3125 3 20 C0.1652292 17.46189126 -0.00370736 15.95076629 -0.29296875 12.109375 C-0.27314945 10.65595991 -0.23754845 9.20268833 -0.1875 7.75 C-0.17396484 7.00492187 -0.16042969 6.25984375 -0.14648438 5.4921875 C-0.11127204 3.66114584 -0.05746851 1.83047831 0 0 Z " fill="#EBECEF" transform="translate(309,433)"/>
<path d="M0 0 C0.56842117 0.21062576 1.13684235 0.42125153 1.7224884 0.63825989 C11.20564273 3.70965667 20.59299652 3.47802138 30.44921875 3.51171875 C32.3168097 3.52859128 34.18438947 3.54674493 36.05195618 3.56611633 C40.93277492 3.61334311 45.81354832 3.64332842 50.69451904 3.66955566 C55.68901519 3.69950003 60.68335552 3.74598223 65.67773438 3.79101562 C75.45174094 3.87673736 85.22577986 3.94422009 95 4 C95 4.33 95 4.66 95 5 C83.351918 5.1158425 71.70397301 5.20468957 60.05543232 5.25906086 C54.64652983 5.28515629 49.23802139 5.3205539 43.8293457 5.37719727 C38.60978001 5.43151815 33.39059337 5.46142094 28.17076683 5.47438622 C26.17921163 5.4836259 24.1876772 5.50166901 22.19628334 5.52865028 C19.40684789 5.56494159 16.6189792 5.56994532 13.8293457 5.56762695 C13.00575562 5.58560333 12.18216553 5.60357971 11.33361816 5.62210083 C6.93138067 5.58250375 5.47664138 5.39599567 1.94816589 2.46452332 C1.30527115 1.65123062 0.6623764 0.83793793 0 0 Z " fill="#AEC2E6" transform="translate(78,155)"/>
<path d="M0 0 C10.60473213 2.76645186 21.60157139 12.16672042 28.14453125 20.8203125 C23.05336472 19.21937928 19.30024001 16.1069371 15.14453125 12.8828125 C8.00746768 6.57051641 8.00746768 6.57051641 -0.54296875 3.8828125 C-3.00979051 4.62252771 -3.00979051 4.62252771 -4.16796875 6.8828125 C-4.39484375 7.5221875 -4.62171875 8.1615625 -4.85546875 8.8203125 C-5.18546875 6.5103125 -5.51546875 4.2003125 -5.85546875 1.8203125 C-2.85546875 -0.1796875 -2.85546875 -0.1796875 0 0 Z " fill="#97B0D6" transform="translate(89.85546875,87.1796875)"/>
<path d="M0 0 C2.5 0.25 2.5 0.25 4.5 2.25 C5.05186722 8.32053942 5.05186722 8.32053942 3.3125 11.25 C1.5 12.25 1.5 12.25 -1.125 12 C-3.5 11.25 -3.5 11.25 -4.5 10.25 C-4.77314815 4.51388889 -4.77314815 4.51388889 -4.5 2.25 C-2.5 0.25 -2.5 0.25 0 0 Z " fill="#13285A" transform="translate(142.5,437.75)"/>
<path d="M0 0 C0.886875 0.12375 1.77375 0.2475 2.6875 0.375 C2.6875 0.705 2.6875 1.035 2.6875 1.375 C1.90375 1.4575 1.12 1.54 0.3125 1.625 C-2.36134835 2.11667315 -2.36134835 2.11667315 -3.625 4 C-4.56209183 7.23722632 -4.55627852 10.02304528 -4.3125 13.375 C-3.3225 14.86 -3.3225 14.86 -2.3125 16.375 C-0.10524927 16.73862818 -0.10524927 16.73862818 2.3125 16.5625 C3.12976563 16.53542969 3.94703125 16.50835937 4.7890625 16.48046875 C5.72878906 16.42826172 5.72878906 16.42826172 6.6875 16.375 C6.6875 18.355 6.6875 20.335 6.6875 22.375 C6.3575 21.055 6.0275 19.735 5.6875 18.375 C4.6975 19.035 3.7075 19.695 2.6875 20.375 C-1.41585951 20.30039346 -3.587199 19.98871623 -6.75 17.3125 C-8.73473915 13.58119039 -9.22871201 10.46210225 -8.3125 6.375 C-6.39030954 2.50608048 -4.4412498 0.502783 0 0 Z " fill="#DCDFE6" transform="translate(221.3125,432.625)"/>
<path d="M0 0 C1.32 0 2.64 0 4 0 C4 6.6 4 13.2 4 20 C2.68 20 1.36 20 0 20 C0 13.4 0 6.8 0 0 Z " fill="#BABFCD" transform="translate(184,433)"/>
<path d="M0 0 C1.32 0.33 2.64 0.66 4 1 C6.00946222 0.72949547 8.01354224 0.40632091 10 0 C10 0.99 10 1.98 10 3 C8.02 3.66 6.04 4.32 4 5 C3.67 9.95 3.34 14.9 3 20 C2.01 20 1.02 20 0 20 C0 13.4 0 6.8 0 0 Z " fill="#F3F3F5" transform="translate(330,433)"/>
<path d="M0 0 C1.3303125 0.4021875 1.3303125 0.4021875 2.6875 0.8125 C2.3575 1.8025 2.0275 2.7925 1.6875 3.8125 C0.4809375 3.7815625 0.4809375 3.7815625 -0.75 3.75 C-3.24604885 3.51616379 -3.24604885 3.51616379 -4.3125 4.8125 C-4.38398199 6.16493917 -4.39649454 7.52084367 -4.375 8.875 C-4.354375 10.174375 -4.33375 11.47375 -4.3125 12.8125 C-3.549375 12.956875 -2.78625 13.10125 -2 13.25 C0.6875 13.8125 0.6875 13.8125 3.6875 14.8125 C1.6875 16.8125 1.6875 16.8125 -1.75 17.25 C-5.3125 16.8125 -5.3125 16.8125 -7.25 14.75 C-8.57216739 11.09459603 -8.86412743 8.67389203 -8.3125 4.8125 C-5.68245739 1.09949867 -4.63961222 -0.26261956 0 0 Z " fill="#EBEDF0" transform="translate(143.3125,435.1875)"/>
<path d="M0 0 C1.98619603 1.53018314 2.89327873 2.40427345 3.34057617 4.90112305 C3.32486572 5.59761963 3.30915527 6.29411621 3.29296875 7.01171875 C3.28330078 7.76904297 3.27363281 8.52636719 3.26367188 9.30664062 C3.23853516 10.09232422 3.21339844 10.87800781 3.1875 11.6875 C3.17396484 12.48478516 3.16042969 13.28207031 3.14648438 14.10351562 C3.11117089 16.06929967 3.05736447 18.03473582 3 20 C2.01 20 1.02 20 0 20 C-0.33 14.72 -0.66 9.44 -1 4 C-2.98 4 -4.96 4 -7 4 C-7 3.01 -7 2.02 -7 1 C-4.45132831 -0.27433584 -2.82594567 -0.27570202 0 0 Z " fill="#E1E3E9" transform="translate(395,433)"/>
<path d="M0 0 C0.66 0 1.32 0 2 0 C2 8.58 2 17.16 2 26 C1.01 26 0.02 26 -1 26 C-1 25.34 -1 24.68 -1 24 C-1.66 24 -2.32 24 -3 24 C-2.75443359 23.17242187 -2.75443359 23.17242187 -2.50390625 22.328125 C-1.94239586 19.73385993 -1.90260992 17.40164589 -1.9375 14.75 C-1.94652344 13.85796875 -1.95554687 12.9659375 -1.96484375 12.046875 C-1.97644531 11.37140625 -1.98804687 10.6959375 -2 10 C-1.34 10 -0.68 10 0 10 C0 6.7 0 3.4 0 0 Z " fill="#F2F3F4" transform="translate(89,427)"/>
<path d="M0 0 C1 3 1 3 0.36328125 4.9375 C-3.15065538 11.83474365 -3.15065538 11.83474365 -7 14 C-7.56203125 14.350625 -8.1240625 14.70125 -8.703125 15.0625 C-11.80233896 16.32748529 -14.41607546 16.19167849 -17.75 16.125 C-18.92046875 16.10695312 -20.0909375 16.08890625 -21.296875 16.0703125 C-22.18890625 16.04710937 -23.0809375 16.02390625 -24 16 C-24 15.67 -24 15.34 -24 15 C-23.11957031 14.82984375 -22.23914063 14.6596875 -21.33203125 14.484375 C-20.17058594 14.24203125 -19.00914062 13.9996875 -17.8125 13.75 C-16.08966797 13.40195313 -16.08966797 13.40195313 -14.33203125 13.046875 C-10.77070017 11.92795738 -8.80161749 10.40849532 -6 8 C-5.34 8 -4.68 8 -4 8 C-3.71125 7.05125 -3.4225 6.1025 -3.125 5.125 C-2 2 -2 2 0 0 Z " fill="#B8CAEA" transform="translate(188,143)"/>
<path d="M0 0 C0.99 0 1.98 0 3 0 C3.33 0.66 3.66 1.32 4 2 C5.65 1.67 7.3 1.34 9 1 C7.7934375 1.804375 7.7934375 1.804375 6.5625 2.625 C2.59452362 6.44725973 3.23923319 11.95205686 3.04296875 17.11328125 C3.02878906 18.06589844 3.01460938 19.01851563 3 20 C2.01 20 1.02 20 0 20 C0 13.4 0 6.8 0 0 Z " fill="#ECEDF0" transform="translate(97,433)"/>
<path d="M0 0 C2.54009905 2.42965996 3.94140526 3.80991926 4.12025452 7.44241333 C4.11803391 8.46833588 4.11581329 9.49425842 4.11352539 10.55126953 C4.11344986 11.71232208 4.11337433 12.87337463 4.11329651 14.0696106 C4.10813522 15.32796722 4.10297394 16.58632385 4.09765625 17.8828125 C4.0962413 19.16735321 4.09482635 20.45189392 4.09336853 21.77536011 C4.08954911 25.19156842 4.07972373 28.60773426 4.06866455 32.02392578 C4.05843807 35.50943426 4.05386826 38.9949496 4.04882812 42.48046875 C4.03810096 49.32032995 4.02103142 56.16016294 4 63 C3.67 63 3.34 63 3 63 C2.99191315 62.31397202 2.98382629 61.62794403 2.97549438 60.92112732 C2.88929114 53.76681298 2.78978051 46.61277067 2.68261719 39.45874023 C2.64332411 36.79045663 2.60952379 34.1222642 2.578125 31.45385742 C2.53234788 27.61358618 2.47437301 23.7736609 2.4140625 19.93359375 C2.39673569 18.15038979 2.39673569 18.15038979 2.37905884 16.3311615 C2.27608466 10.52350674 1.98303605 5.47944173 0 0 Z " fill="#C2D1EB" transform="translate(186,80)"/>
<path d="M0 0 C0.66 0 1.32 0 2 0 C2 8.58 2 17.16 2 26 C1.34 26 0.68 26 0 26 C0 25.01 0 24.02 0 23 C-0.99 22.67 -1.98 22.34 -3 22 C-2.67 21.67 -2.34 21.34 -2 21 C-1.77329092 19.44246949 -1.60564908 17.87622641 -1.46484375 16.30859375 C-1.37783203 15.36435547 -1.29082031 14.42011719 -1.20117188 13.44726562 C-1.11416016 12.45404297 -1.02714844 11.46082031 -0.9375 10.4375 C-0.84662109 9.44041016 -0.75574219 8.44332031 -0.66210938 7.41601562 C-0.43741186 4.94434298 -0.21689649 2.47236744 0 0 Z " fill="#EEF0F2" transform="translate(176,427)"/>
<path d="M0 0 C-0.3125 2.875 -0.3125 2.875 -1 6 C-4.22373677 8.14915785 -5.26703674 8.38286803 -9 8 C-9.66 7.34 -10.32 6.68 -11 6 C-10.625 3.875 -10.625 3.875 -10 2 C-3.375 0 -3.375 0 0 0 Z " fill="#182E5E" transform="translate(163,384)"/>
<path d="M0 0 C0.99 0 1.98 0 3 0 C3 0.99 3 1.98 3 3 C3.66 3 4.32 3 5 3 C4.67 3.99 4.34 4.98 4 6 C3.77439324 8.39254576 3.59151405 10.78928123 3.4375 13.1875 C3.35371094 14.45980469 3.26992188 15.73210937 3.18359375 17.04296875 C3.12300781 18.01878906 3.06242187 18.99460937 3 20 C2.01 20 1.02 20 0 20 C0 13.4 0 6.8 0 0 Z " fill="#D7DAE2" transform="translate(257,433)"/>
<path d="M0 0 C2.875 -0.1875 2.875 -0.1875 6 0 C8.52775351 3.79163027 8.22443035 6.80874031 8.125 11.1875 C8.11597656 11.93708984 8.10695313 12.68667969 8.09765625 13.45898438 C8.07412578 15.30612654 8.03825561 17.15310412 8 19 C7.01 19 6.02 19 5 19 C4.96132812 17.44539063 4.96132812 17.44539063 4.921875 15.859375 C4.86558049 14.48954199 4.80823345 13.11975195 4.75 11.75 C4.73582031 11.06808594 4.72164063 10.38617188 4.70703125 9.68359375 C4.53447223 6.12887794 4.2454103 4.29786441 1.953125 1.515625 C1.30859375 1.01546875 0.6640625 0.5153125 0 0 Z " fill="#EEEFF2" transform="translate(115,434)"/>
<path d="M0 0 C0.33 0.99 0.66 1.98 1 3 C-2.02126001 8.46150848 -6.09062378 12.779156 -12 15 C-14.92114852 15.24144187 -17.82152173 15.18813469 -20.75 15.125 C-21.54277344 15.11597656 -22.33554688 15.10695312 -23.15234375 15.09765625 C-25.10169281 15.07417012 -27.05088575 15.03830137 -29 15 C-29 14.67 -29 14.34 -29 14 C-20.585 13.505 -20.585 13.505 -12 13 C-11.67 12.01 -11.34 11.02 -11 10 C-10.0925 9.5875 -9.185 9.175 -8.25 8.75 C-4.01660403 6.47047909 -2.57513177 4.01417599 0 0 Z " fill="#6A8EC5" transform="translate(189,147)"/>
<path d="M0 0 C2.875 -0.125 2.875 -0.125 6 0 C8 2 8 2 8.1953125 5.9140625 C8.18200376 7.48449351 8.15813602 9.05486221 8.125 10.625 C8.11597656 11.42679687 8.10695313 12.22859375 8.09765625 13.0546875 C8.07406223 15.03658523 8.03819065 17.01832981 8 19 C7.01 19 6.02 19 5 19 C4.97421875 17.87980469 4.9484375 16.75960938 4.921875 15.60546875 C4.86559365 14.13277354 4.80824632 12.6601188 4.75 11.1875 C4.73582031 10.44951172 4.72164063 9.71152344 4.70703125 8.95117188 C4.53490953 4.47562582 4.53490953 4.47562582 1.953125 0.98828125 C1.30859375 0.66214844 0.6640625 0.33601563 0 0 Z " fill="#F1F2F4" transform="translate(275,434)"/>
<path d="M0 0 C0.66 0 1.32 0 2 0 C2 0.66 2 1.32 2 2 C2.66 2 3.32 2 4 2 C3.67 7.61 3.34 13.22 3 19 C2.01 19 1.02 19 0 19 C0 12.73 0 6.46 0 0 Z " fill="#E3E5EA" transform="translate(373,434)"/>
<path d="M0 0 C3.0625 0.1875 3.0625 0.1875 5.0625 2.1875 C5.0625 3.5075 5.0625 4.8275 5.0625 6.1875 C1.4325 6.1875 -2.1975 6.1875 -5.9375 6.1875 C-3.55322052 0.22680131 -3.55322052 0.22680131 0 0 Z " fill="#203462" transform="translate(200.9375,435.8125)"/>
<path d="M0 0 C1.134375 0.020625 2.26875 0.04125 3.4375 0.0625 C3.625 2.4375 3.625 2.4375 3.4375 5.0625 C0.4375 7.0625 0.4375 7.0625 -2.75 6.6875 C-3.678125 6.48125 -4.60625 6.275 -5.5625 6.0625 C-4.48849278 0.07874549 -4.48849278 0.07874549 0 0 Z " fill="#162A5B" transform="translate(296.5625,443.9375)"/>
<path d="M0 0 C0.33 0 0.66 0 1 0 C1 3.3 1 6.6 1 10 C0.01 10.33 -0.98 10.66 -2 11 C-2.33 10.67 -2.66 10.34 -3 10 C-7.25471906 9.52725344 -9.51436649 10.60985131 -13 13 C-13 10 -13 10 -11.375 7.8125 C-8.35924581 5.51100338 -6.71128487 5.51591937 -3 6 C-2.34 6.66 -1.68 7.32 -1 8 C-0.67 5.36 -0.34 2.72 0 0 Z " fill="#E4E7EB" transform="translate(88,427)"/>
<path d="M0 0 C4.74559401 -0.37964752 8.06988525 -0.48228172 12.375 1.75 C14.68564743 3.73055494 16.43937784 5.39896307 18 8 C18 8.66 18 9.32 18 10 C17.01 10 16.02 10 15 10 C14.54625 9.21625 14.0925 8.4325 13.625 7.625 C11.64885957 4.43277316 10.57433136 3.97481764 7 3 C4.67402489 2.6186926 2.34087842 2.27539746 0 2 C0 1.34 0 0.68 0 0 Z " fill="#EDEFF1" transform="translate(139,428)"/>
<path d="M0 0 C0.56203125 0.20496094 1.1240625 0.40992188 1.703125 0.62109375 C11.28834458 3.69365647 21.0240512 3.71664788 31 4 C31 4.33 31 4.66 31 5 C26.77119589 5.14541967 22.54303587 5.23411527 18.3125 5.3125 C17.11431641 5.35439453 15.91613281 5.39628906 14.68164062 5.43945312 C5.96232198 5.5608921 5.96232198 5.5608921 3.05224609 3.86474609 C1.66796875 2.48046875 1.66796875 2.48046875 0 0 Z " fill="#9DB6DE" transform="translate(78,155)"/>
<path d="M0 0 C1.98 0 3.96 0 6 0 C6.33 0.99 6.66 1.98 7 3 C10.3 3 13.6 3 17 3 C17 3.66 17 4.32 17 5 C6.31569507 5.76681614 6.31569507 5.76681614 3.08984375 3.88671875 C1.75 2.5 1.75 2.5 0 0 Z " fill="#A9BEDF" transform="translate(118,108)"/>
<path d="M0 0 C0.66 0 1.32 0 2 0 C2 6.27 2 12.54 2 19 C1.34 19 0.68 19 0 19 C0 17.68 0 16.36 0 15 C-0.66 14.67 -1.32 14.34 -2 14 C-1.67 13.67 -1.34 13.34 -1 13 C-0.76518307 10.81707226 -0.58636677 8.62796826 -0.4375 6.4375 C-0.35371094 5.23996094 -0.26992188 4.04242188 -0.18359375 2.80859375 C-0.12300781 1.88175781 -0.06242187 0.95492188 0 0 Z " fill="#FAFAFA" transform="translate(322,434)"/>
<path d="M0 0 C0.928125 0.20625 1.85625 0.4125 2.8125 0.625 C2.4825 1.615 2.1525 2.605 1.8125 3.625 C0.1625 3.625 -1.4875 3.625 -3.1875 3.625 C-3.8475 5.935 -4.5075 8.245 -5.1875 10.625 C-6.8125 8.9375 -6.8125 8.9375 -8.1875 6.625 C-7.04881238 1.84251198 -5.20427207 -0.6122673 0 0 Z " fill="#D2D6DF" transform="translate(143.1875,435.375)"/>
<path d="M0 0 C1.65 0 3.3 0 5 0 C5.625 1.875 5.625 1.875 6 4 C5.34 4.66 4.68 5.32 4 6 C1.375 5.625 1.375 5.625 -1 5 C-0.67 3.35 -0.34 1.7 0 0 Z " fill="#EDEFF3" transform="translate(176,360)"/>
<path d="M0 0 C0.33 0 0.66 0 1 0 C1.05395478 1.62463842 1.09277195 3.24978541 1.125 4.875 C1.14820313 5.77992188 1.17140625 6.68484375 1.1953125 7.6171875 C1 10 1 10 -1 12 C-1.33 11.34 -1.66 10.68 -2 10 C-4.52733235 9.34444881 -4.52733235 9.34444881 -7 9 C-7.33 8.01 -7.66 7.02 -8 6 C-5.69 6.33 -3.38 6.66 -1 7 C-0.67 4.69 -0.34 2.38 0 0 Z " fill="#BAC0CD" transform="translate(175,427)"/>
<path d="M0 0 C2.875 0.4375 2.875 0.4375 5.875 2.4375 C5.545 3.0975 5.215 3.7575 4.875 4.4375 C4.545 4.1075 4.215 3.7775 3.875 3.4375 C-0.4341525 3.05728066 -4.0338444 4.1540002 -8.125 5.4375 C-3.97630533 0.55668275 -3.97630533 0.55668275 0 0 Z " fill="#A9BEDF" transform="translate(171.125,86.5625)"/>
<path d="M0 0 C0 0.99 0 1.98 0 3 C-3.01490557 4.00496852 -5.04181692 4.10335303 -8.1875 4.0625 C-9.53908203 4.04896484 -9.53908203 4.04896484 -10.91796875 4.03515625 C-11.60503906 4.02355469 -12.29210937 4.01195312 -13 4 C-11 1 -11 1 -8.90625 0.48828125 C-8.1121875 0.43027344 -7.318125 0.37226563 -6.5 0.3125 C-5.7059375 0.24675781 -4.911875 0.18101562 -4.09375 0.11328125 C-2.73063798 0.03953079 -1.36510568 0 0 0 Z " fill="#BDC3D0" transform="translate(151,456)"/>
<path d="M0 0 C1.46109063 0.25554054 2.91888096 0.53000372 4.375 0.8125 C5.59316406 1.03873047 5.59316406 1.03873047 6.8359375 1.26953125 C9 2 9 2 11 5 C4.64948454 5.36637589 4.64948454 5.36637589 1.5625 3.625 C0 2 0 2 0 0 Z " fill="#D3D6DF" transform="translate(214,456)"/>
<path d="M0 0 C0.99 0 1.98 0 3 0 C2.01 3.3 1.02 6.6 0 10 C-0.99 9.67 -1.98 9.34 -3 9 C-2.01 6.03 -1.02 3.06 0 0 Z " fill="#DEE1E7" transform="translate(357,433)"/>
<path d="M0 0 C0.5775 0.639375 1.155 1.27875 1.75 1.9375 C3.98062401 3.98223868 5.07436391 4.58205199 8 5 C8 5.66 8 6.32 8 7 C2.56193353 7.36253776 2.56193353 7.36253776 0.0625 5.75 C-1 4 -1 4 -0.6875 1.8125 C-0.460625 1.214375 -0.23375 0.61625 0 0 Z " fill="#F3F4F5" transform="translate(289,446)"/>
<path d="M0 0 C0.33 0 0.66 0 1 0 C1.33 3.96 1.66 7.92 2 12 C1.01 12 0.02 12 -1 12 C-1.02687279 10.18757948 -1.04633715 8.37504767 -1.0625 6.5625 C-1.07410156 5.55316406 -1.08570312 4.54382813 -1.09765625 3.50390625 C-1 1 -1 1 0 0 Z " fill="#F3F4F5" transform="translate(129,438)"/>
<path d="M0 0 C-1.0625 1.5625 -1.0625 1.5625 -3 3 C-6.625 2.8125 -6.625 2.8125 -10 2 C-10.33 1.34 -10.66 0.68 -11 0 C-9.54263913 -0.19491452 -8.08405407 -0.38069358 -6.625 -0.5625 C-5.81289062 -0.66691406 -5.00078125 -0.77132812 -4.1640625 -0.87890625 C-2 -1 -2 -1 0 0 Z " fill="#F6F9FD" transform="translate(139,125)"/>
<path d="M0 0 C0.66 0.33 1.32 0.66 2 1 C0.02 1.99 0.02 1.99 -2 3 C-2 3.66 -2 4.32 -2 5 C-4.75078884 5.91692961 -6.35948913 6.10886083 -9.1875 6.0625 C-11.0746875 6.0315625 -11.0746875 6.0315625 -13 6 C-13 5.67 -13 5.34 -13 5 C-10.69 5 -8.38 5 -6 5 C-6 4.34 -6 3.68 -6 3 C-4.03533587 1.93224776 -2.03144641 0.93446535 0 0 Z " fill="#84A3D1" transform="translate(141,108)"/>
<path d="M0 0 C0.53625 0.185625 1.0725 0.37125 1.625 0.5625 C4.61990614 1.11419324 7.03745829 0.60597444 10 0 C10 0.99 10 1.98 10 3 C4.25 4.125 4.25 4.125 2 3 C2 2.34 2 1.68 2 1 C1.34 0.67 0.68 0.34 0 0 Z " fill="#D0D4DD" transform="translate(330,433)"/>
<path d="M0 0 C0 0.33 0 0.66 0 1 C-0.78375 1.0825 -1.5675 1.165 -2.375 1.25 C-3.24125 1.4975 -4.1075 1.745 -5 2 C-5.69937532 3.31647119 -6.36729133 4.65022151 -7 6 C-9.125 6.75 -9.125 6.75 -11 7 C-8.38092426 1.15744643 -6.57566735 -0.43837782 0 0 Z " fill="#D3D6DF" transform="translate(85,433)"/>
<path d="M0 0 C0.33 0.99 0.66 1.98 1 3 C-1 5 -1 5 -3.625 5.125 C-4.40875 5.08375 -5.1925 5.0425 -6 5 C-6 4.34 -6 3.68 -6 3 C-4.02 2.01 -2.04 1.02 0 0 Z " fill="#F0F1F3" transform="translate(350,455)"/>
<path d="M0 0 C2.31 0 4.62 0 7 0 C1 4 1 4 -2 4 C-1.34 2.68 -0.68 1.36 0 0 Z " fill="#F2F2F4" transform="translate(291,434)"/>
<path d="M0 0 C3.93809611 3.76687454 3.93809611 3.76687454 4.09765625 6.9453125 C4.06510417 8.96354167 4.03255208 10.98177083 4 13 C3.67 13 3.34 13 3 13 C1.70074209 8.66914029 0.656379 4.48525648 0 0 Z " fill="#BBC9E1" transform="translate(186,80)"/>
</svg>
