<?xml version="1.0" encoding="UTF-8"?>
<svg version="1.1" xmlns="http://www.w3.org/2000/svg" width="525" height="525">
<path d="M0 0 C173.25 0 346.5 0 525 0 C525 173.25 525 346.5 525 525 C351.75 525 178.5 525 0 525 C0 351.75 0 178.5 0 0 Z " fill="#2283E1" transform="translate(0,0)"/>
<path d="M0 0 C-0.14024219 2.47960136 -0.2869185 4.95852402 -0.4375 7.4375 C-0.47681641 8.14455078 -0.51613281 8.85160156 -0.55664062 9.58007812 C-0.88671875 14.88671875 -0.88671875 14.88671875 -2 16 C-5.29777168 16.2452888 -8.59458409 16.38425077 -11.8984375 16.5234375 C-14.95520794 16.74967259 -14.95520794 16.74967259 -16.8515625 18.3515625 C-18.92223226 21.32374835 -19.12115687 23.947626 -19.09765625 27.44921875 C-19.09443359 28.29677734 -19.09121094 29.14433594 -19.08789062 30.01757812 C-19.07951172 30.89865234 -19.07113281 31.77972656 -19.0625 32.6875 C-19.05798828 33.58017578 -19.05347656 34.47285156 -19.04882812 35.39257812 C-19.03705004 37.59508073 -19.01911481 39.79754885 -19 42 C-13.06 42 -7.12 42 -1 42 C-1 42.99 -1 43.98 -1 45 C-1.99 45.495 -1.99 45.495 -3 46 C-3.91485573 48.80478195 -3.91485573 48.80478195 -4.625 52.0625 C-5.07875 54.021875 -5.5325 55.98125 -6 58 C-10.62 58.33 -15.24 58.66 -20 59 C-20.33 75.17 -20.66 91.34 -21 108 C-25 110 -25 110 -40 111 C-40 94.83 -40 78.66 -40 62 C-40.66 62 -41.32 62 -42 62 C-42 61.34 -42 60.68 -42 60 C-43.75032844 60.14183696 -45.50025534 60.28863429 -47.25 60.4375 C-48.22453125 60.51871094 -49.1990625 60.59992188 -50.203125 60.68359375 C-53.22771622 60.96346926 -53.22771622 60.96346926 -57 62 C-57 55.4 -57 48.8 -57 42 C-51.39 42 -45.78 42 -40 42 C-40.03480469 40.3603125 -40.06960937 38.720625 -40.10546875 37.03125 C-40.13362056 34.85417697 -40.16091922 32.67709278 -40.1875 30.5 C-40.21263672 29.42234375 -40.23777344 28.3446875 -40.26367188 27.234375 C-40.33767863 19.14296986 -39.44520791 13.53196698 -34.75 6.75 C-25.1036025 -2.8963975 -12.69165608 -1.99084801 0 0 Z " fill="#E1F0FE" transform="translate(129,73)"/>
<path d="M0 0 C1.98 0 3.96 0 6 0 C6.33 3.96 6.66 7.92 7 12 C7.99 11.01 8.98 10.02 10 9 C14.65705559 8.4742034 16.86082693 8.3065903 20.875 10.75 C24.77871168 14.88334178 25.39064393 18.20756584 25.25390625 23.75 C24.78174143 27.93410675 23.08549916 30.79388982 20.3125 33.875 C16.68873568 35.63791237 14.01794804 35.38266172 10 35 C8 33.5 8 33.5 7 32 C6.67 32.99 6.34 33.98 6 35 C4.02 35 2.04 35 0 35 C0 23.45 0 11.9 0 0 Z " fill="#F4F7FA" transform="translate(187,361)"/>
<path d="M0 0 C3.70433057 2.11676033 5.37000556 4.13053495 7 8 C7.78778935 13.62706678 7.20098795 18.19851807 4 23 C0.07109189 26.63402318 -3.21047591 26.50282604 -8.3671875 26.3515625 C-11.97799234 25.86940755 -13.67009725 24.78085167 -16 22 C-18.56603318 17.72327804 -18.70909135 12.85257696 -18 8 C-13.68890933 -0.17620645 -8.6725338 -1.04121196 0 0 Z " fill="#F3F6F9" transform="translate(234,370)"/>
<path d="M0 0 C3.70433057 2.11676033 5.37000556 4.13053495 7 8 C7.78778935 13.62706678 7.20098795 18.19851807 4 23 C0.07073775 26.63435074 -3.21059014 26.49985348 -8.3671875 26.35546875 C-11.94354613 25.87260727 -13.65916419 24.71838997 -16 22 C-18.52771876 17.71542706 -18.54875384 13.86280328 -18 9 C-14.64392833 -0.0613935 -8.98376041 -1.21294095 0 0 Z " fill="#F3F6F9" transform="translate(263,370)"/>
<path d="M0 0 C3.3274035 2.44462298 5.68488193 5.05464578 7 9 C7 10.98 7 12.96 7 15 C1.06 15 -4.88 15 -11 15 C-9.54711014 19.5841963 -9.54711014 19.5841963 -8 21 C-3.6590631 20.85841338 -3.6590631 20.85841338 0 19 C1.99958364 18.95919217 4.00045254 18.95745644 6 19 C4.5306305 23.65300343 4.5306305 23.65300343 2.26171875 25.13671875 C-2.04642848 26.78110655 -6.47883865 26.65737954 -11 26 C-14.79951554 23.28606033 -16.81833047 20.51182912 -18 16 C-18.67403478 9.93368698 -17.34934413 6.88047288 -14 2 C-9.54906717 -0.96728856 -5.21812008 -0.75636001 0 0 Z " fill="#EAF1F8" transform="translate(175,370)"/>
<path d="M0 0 C3.36685364 3.03838012 5.29468541 5.05839384 5.84375 9.6796875 C5.98420204 13.62404887 5.78095462 16.7056816 4.4375 20.4375 C2.5625 22.3125 2.5625 22.3125 -0.375 22.625 C-1.385625 22.521875 -2.39625 22.41875 -3.4375 22.3125 C-5.79249617 22.3125 -8.14940524 22.35608604 -10.5 22.5 C-13.4375 22.3125 -13.4375 22.3125 -15.25 21.3125 C-17.13156263 18.14355241 -17.66365855 14.93810428 -17.4375 11.3125 C-15.875 8.375 -15.875 8.375 -13.4375 6.3125 C-9.12639038 5.02833969 -6.98207238 5.40358552 -2.4375 6.3125 C-2.1075 10.6025 -1.7775 14.8925 -1.4375 19.3125 C-0.4475 19.6425 0.5425 19.9725 1.5625 20.3125 C2.38589648 12.61939326 2.38589648 12.61939326 0.51953125 5.37109375 C-2.59242048 2.31389777 -4.95255248 1.34429984 -9.25 1.0625 C-13.08353185 1.11120186 -15.37658073 1.88176999 -18.4375 4.3125 C-20.80293381 7.86065071 -20.70673313 9.48506132 -20.6875 13.6875 C-20.69265625 14.80898438 -20.6978125 15.93046875 -20.703125 17.0859375 C-20.43744782 20.31313381 -20.0499033 22.50610186 -18.4375 25.3125 C-15.13145227 26.8821144 -11.28418813 26.41096688 -7.6875 26.375 C-6.51703125 26.36597656 -5.3465625 26.35695313 -4.140625 26.34765625 C-3.24859375 26.33605469 -2.3565625 26.32445312 -1.4375 26.3125 C-1.4375 27.3025 -1.4375 28.2925 -1.4375 29.3125 C-6.05391753 31.62070876 -11.51476982 30.59990776 -16.25 29.125 C-20.64217342 26.62748962 -22.84318871 24.09543388 -24.4375 19.3125 C-24.82686949 14.47533288 -25.08519377 9.91468985 -23.25 5.375 C-16.98959915 -1.74890441 -8.76026586 -4.30049415 0 0 Z " fill="#E9F0F8" transform="translate(98.4375,429.6875)"/>
<path d="M0 0 C2.31 0 4.62 0 7 0 C7.33 5.94 7.66 11.88 8 18 C9.134375 16.700625 10.26875 15.40125 11.4375 14.0625 C14.875 10.125 14.875 10.125 16 9 C18.33297433 8.95907063 20.66705225 8.95758277 23 9 C22.04367001 10.29315061 21.08486149 11.58446853 20.125 12.875 C19.59132813 13.59429687 19.05765625 14.31359375 18.5078125 15.0546875 C17 17 17 17 15 19 C15.27038894 22.95116735 17.74434144 25.62524117 20.0625 28.6875 C24 33.91212654 24 33.91212654 24 35 C18.97602074 35.88139987 18.97602074 35.88139987 16 35 C13.74287888 32.55407027 12.07867735 30.02653232 10.34765625 27.1875 C9.68056641 26.1046875 9.68056641 26.1046875 9 25 C8.67 25 8.34 25 8 25 C7.67 28.3 7.34 31.6 7 35 C4.69 35 2.38 35 0 35 C0 23.45 0 11.9 0 0 Z " fill="#EAF1F8" transform="translate(275,361)"/>
<path d="M0 0 C1.40378906 -0.04253906 1.40378906 -0.04253906 2.8359375 -0.0859375 C6.71604938 0.55531348 8.12633864 1.28656452 10.625 4.375 C11.24039195 8.14196797 11.09438006 11.821262 10.9375 15.625 C10.91494141 16.65625 10.89238281 17.6875 10.86914062 18.75 C10.81027163 21.29314065 10.72810065 23.83333113 10.625 26.375 C8.975 26.375 7.325 26.375 5.625 26.375 C5.625 25.385 5.625 24.395 5.625 23.375 C4.965 23.375 4.305 23.375 3.625 23.375 C3.625 24.035 3.625 24.695 3.625 25.375 C0.16261913 27.10619043 -3.58917655 26.84570629 -7.375 26.375 C-9.9375 24.8125 -9.9375 24.8125 -11.375 22.375 C-11.9375 18.875 -11.9375 18.875 -11.375 15.375 C-9.09505369 12.38748415 -7.27993721 11.52497555 -3.59375 10.9140625 C-0.85140295 10.65255002 1.87229429 10.47141701 4.625 10.375 C3.965 8.725 3.305 7.075 2.625 5.375 C0.20854218 5.20812552 0.20854218 5.20812552 -2.375 5.375 C-3.035 6.035 -3.695 6.695 -4.375 7.375 C-7.5 7.5 -7.5 7.5 -10.375 7.375 C-8.38602997 1.5610876 -6.09357193 0.08347359 0 0 Z " fill="#F2F6F9" transform="translate(113.375,369.625)"/>
<path d="M0 0 C0.33 0.33 0.66 0.66 1 1 C1.33 0.34 1.66 -0.32 2 -1 C2.99 -1 3.98 -1 5 -1 C5.11622939 2.74973906 5.1872595 6.49901464 5.25 10.25 C5.30027344 11.84521484 5.30027344 11.84521484 5.3515625 13.47265625 C5.36445313 14.49746094 5.37734375 15.52226562 5.390625 16.578125 C5.41157227 17.52075195 5.43251953 18.46337891 5.45410156 19.43457031 C4.86631417 22.75525307 3.56794931 23.89287283 1 26 C-1.7798816 27.3899408 -3.9186326 27.18488204 -7 27 C-9.375 26 -9.375 26 -11 25 C-10.67 23.68 -10.34 22.36 -10 21 C-9.01 21.66 -8.02 22.32 -7 23 C-4.94290404 23.24055468 -4.94290404 23.24055468 -2.8125 23.125 C-1.554375 23.08375 -0.29625 23.0425 1 23 C1 21.02 1 19.04 1 17 C0.01 17.66 -0.98 18.32 -2 19 C-8.05970149 18.78358209 -8.05970149 18.78358209 -10.875 16.4375 C-12.45785064 13.00799028 -13.25977724 9.75955391 -13 6 C-9.39295696 -0.8409437 -7.3966857 -1.34485195 0 0 Z " fill="#E4ECF7" transform="translate(172,434)"/>
<path d="M0 0 C7.26 0 14.52 0 22 0 C22 1.65 22 3.3 22 5 C16.72 5 11.44 5 6 5 C6 8.3 6 11.6 6 15 C10.62 15 15.24 15 20 15 C20 16.65 20 18.3 20 20 C15.38 20 10.76 20 6 20 C6 24.95 6 29.9 6 35 C4.02 35 2.04 35 0 35 C0 23.45 0 11.9 0 0 Z " fill="#F4F7FA" transform="translate(76,361)"/>
<path d="M0 0 C0.99 0 1.98 0 3 0 C3 8.58 3 17.16 3 26 C2.01 26 1.02 26 0 26 C-0.33 25.34 -0.66 24.68 -1 24 C-1.66 24.66 -2.32 25.32 -3 26 C-6.71480543 26.41275616 -9.11461964 26.47674327 -12.4375 24.6875 C-14.98426115 20.30707083 -14.82930461 15.92490542 -14 11 C-11.9375 7.75 -11.9375 7.75 -9 6 C-2.79310345 6.20689655 -2.79310345 6.20689655 -1 8 C-0.67 5.36 -0.34 2.72 0 0 Z " fill="#F0F4F9" transform="translate(122,427)"/>
<path d="M0 0 C2.82583868 1.38320211 3.91055454 2.51525404 6 5 C6 6.32 6 7.64 6 9 C4.02 9 2.04 9 0 9 C-0.33 7.68 -0.66 6.36 -1 5 C-6.01535052 5.32960216 -6.01535052 5.32960216 -10 8 C-10.31899515 10.36955386 -10.31899515 10.36955386 -10.25 13 C-10.25515625 13.886875 -10.2603125 14.77375 -10.265625 15.6875 C-10.22052862 18.19400239 -10.22052862 18.19400239 -8 20 C-5 20.41666667 -5 20.41666667 -2 20 C-1.34 19.01 -0.68 18.02 0 17 C3.125 16.8125 3.125 16.8125 6 17 C5.72960418 20.24474984 5.1742292 21.79204902 3.0625 24.3125 C-1.30534088 26.71926946 -5.11925665 26.92780904 -10 26 C-13.11709136 24.30375149 -15.38929088 22.22141825 -17 19 C-17.68539944 13.28255403 -18.16457679 7.61590918 -14.6875 2.75 C-10.49996591 -1.30822781 -5.45391474 -1.16350181 0 0 Z " fill="#F1F5F9" transform="translate(147,370)"/>
<path d="M0 0 C0.33 0 0.66 0 1 0 C0.67 4.29 0.34 8.58 0 13 C-0.66 13 -1.32 13 -2 13 C-2 13.66 -2 14.32 -2 15 C-6.62 15 -11.24 15 -16 15 C-16 31.5 -16 48 -16 65 C-34 67 -34 67 -38 67 C-38 50.5 -38 34 -38 17 C-37.67 17 -37.34 17 -37 17 C-37 33.17 -37 49.34 -37 66 C-36.01 65.505 -36.01 65.505 -35 65 C-32.87843877 64.79413422 -30.75231896 64.63385378 -28.625 64.5 C-24.94229363 64.26723301 -21.55969763 63.95285323 -18 63 C-18.00222061 62.38834488 -18.00444122 61.77668976 -18.00672913 61.14649963 C-18.02878122 54.80429669 -18.04390627 48.46210456 -18.05493164 42.11987305 C-18.05997341 39.75007688 -18.06680665 37.38028385 -18.07543945 35.01049805 C-18.0875119 31.61245961 -18.09322971 28.21446215 -18.09765625 24.81640625 C-18.10281754 23.74975235 -18.10797882 22.68309845 -18.11329651 21.5841217 C-18.11340981 20.11270973 -18.11340981 20.11270973 -18.11352539 18.61157227 C-18.115746 17.74331314 -18.11796661 16.87505402 -18.12025452 15.98048401 C-18 14 -18 14 -17 13 C-14.64686445 12.92728259 -12.29166332 12.91629132 -9.9375 12.9375 C-8.64714844 12.94652344 -7.35679688 12.95554688 -6.02734375 12.96484375 C-5.02832031 12.97644531 -4.02929688 12.98804688 -3 13 C-2.814375 11.453125 -2.814375 11.453125 -2.625 9.875 C-2.06110186 6.37883154 -1.21317941 3.31602373 0 0 Z " fill="#70AFE4" transform="translate(126,118)"/>
<path d="M0 0 C2.6796875 1.50390625 2.6796875 1.50390625 5 4 C5.37233017 6.96672677 5.4808246 9.31856241 5.3125 12.25 C5.28994141 12.99507813 5.26738281 13.74015625 5.24414062 14.5078125 C5.18543561 16.339409 5.09575757 18.16996653 5 20 C4.38125 19.814375 3.7625 19.62875 3.125 19.4375 C0.95839822 18.76313824 0.95839822 18.76313824 -1 20 C-7.25748503 20.45508982 -7.25748503 20.45508982 -9.9375 18.8125 C-11.38718434 16.33950907 -11.42317323 14.82115488 -11 12 C-9.29868896 9.7112656 -8.34097902 9.0703437 -5.51953125 8.48828125 C-4.62621094 8.43027344 -3.73289063 8.37226563 -2.8125 8.3125 C-1.91144531 8.24675781 -1.01039063 8.18101562 -0.08203125 8.11328125 C0.94857422 8.05720703 0.94857422 8.05720703 2 8 C1.34 6.68 0.68 5.36 0 4 C-3.3 4.33 -6.6 4.66 -10 5 C-7.33379412 -0.33241175 -5.7738804 -0.56606671 0 0 Z " fill="#EEF3F9" transform="translate(245,433)"/>
<path d="M0 0 C2.8125 1.5625 2.8125 1.5625 5 4 C5.8125 7.75 5.8125 7.75 6 11 C1.38 11 -3.24 11 -8 11 C-6.54711014 15.5841963 -6.54711014 15.5841963 -5 17 C-2.54190002 17.2500773 -2.54190002 17.2500773 0 17 C0.66 16.34 1.32 15.68 2 15 C2.99 15 3.98 15 5 15 C3.125 18.875 3.125 18.875 2 20 C-2.44100541 20.63056872 -5.87307209 20.82458139 -9.5625 18.125 C-11.60561759 13.68344003 -11.9055739 9.80347893 -11 5 C-7.92883052 0.48357429 -5.43434422 -1.01893954 0 0 Z " fill="#EFF3F9" transform="translate(150,433)"/>
<path d="M0 0 C1.32 0.33 2.64 0.66 4 1 C4.99 0.814375 5.98 0.62875 7 0.4375 C10.22874882 -0.0333592 11.3275479 0.25262747 14 2 C14.99 1.34 15.98 0.68 17 0 C19.8437583 -0.35546979 21.33423617 -0.51572136 23.63793945 1.26879883 C25.29594242 3.37614764 25.35273272 4.36218274 25.29296875 7.01171875 C25.28330078 7.76904297 25.27363281 8.52636719 25.26367188 9.30664062 C25.23853516 10.09232422 25.21339844 10.87800781 25.1875 11.6875 C25.16719727 12.88342773 25.16719727 12.88342773 25.14648438 14.10351562 C25.11117089 16.06929967 25.05736447 18.03473582 25 20 C24.34 20 23.68 20 23 20 C22.93941406 18.92878906 22.87882812 17.85757812 22.81640625 16.75390625 C22.73201463 15.35675609 22.64736594 13.95962143 22.5625 12.5625 C22.52318359 11.85544922 22.48386719 11.14839844 22.44335938 10.41992188 C22.52375562 6.91309581 22.52375562 6.91309581 21 4 C18.5 3.83333333 18.5 3.83333333 16 4 C14.00383446 5.99616554 14.59016573 9.81701963 14.4375 12.5625 C14.39431641 13.27341797 14.35113281 13.98433594 14.30664062 14.71679688 C14.20028223 16.47761912 14.09961154 18.2387832 14 20 C13.01 20 12.02 20 11 20 C10.67 14.72 10.34 9.44 10 4 C8.35 4 6.7 4 5 4 C3.00383446 5.99616554 3.59016573 9.81701963 3.4375 12.5625 C3.39431641 13.27341797 3.35113281 13.98433594 3.30664062 14.71679688 C3.20028223 16.47761912 3.09961154 18.2387832 3 20 C2.01 20 1.02 20 0 20 C0 13.4 0 6.8 0 0 Z " fill="#EAF0F8" transform="translate(204,433)"/>
<path d="M0 0 C2.88035117 0.59084127 3.61769811 1.23918762 5.4375 3.5 C6.68127933 7.70365926 6.85239902 11.3936026 5.3125 15.5 C3.4375 17.5 3.4375 17.5 1.0625 18.625 C-1.5625 18.5 -1.5625 18.5 -4.375 16.5625 C-6.80839841 13.15574223 -7.26186052 11.5072876 -6.984375 7.4375 C-6.08120285 3.28959829 -4.18547341 0.81667774 0 0 Z " fill="#287DDE" transform="translate(228.5625,373.5)"/>
<path d="M0 0 C2.94220698 1.31625049 3.92935616 2.17121233 5.375 5.0625 C5.79236625 8.88835728 5.65964312 11.37336402 4.1875 14.9375 C2.375 17.0625 2.375 17.0625 -0.0625 18.125 C-2.625 18.0625 -2.625 18.0625 -4.875 16.25 C-7.90907655 12.45740432 -8.11911767 9.92132377 -7.625 5.0625 C-4.00309187 0.09531171 -4.00309187 0.09531171 0 0 Z " fill="#287DDE" transform="translate(258.625,373.9375)"/>
<path d="M0 0 C3.3378228 0.48676583 4.03168547 0.80732532 6 3.4375 C6.3984375 5.8125 6.3984375 5.8125 6.375 8.4375 C6.38273438 9.30375 6.39046875 10.17 6.3984375 11.0625 C5.92584138 13.87954351 5.28599151 14.76861887 3 16.4375 C0 16.875 0 16.875 -3 16.4375 C-5.21442221 14.66596223 -5.86894101 13.32578869 -6.28125 10.53125 C-6.42794999 7.25495032 -6.23033977 4.94936617 -4.875 1.9375 C-3 0.4375 -3 0.4375 0 0 Z " fill="#2279DD" transform="translate(199,374.5625)"/>
<path d="M0 0 C1.8871875 0.0309375 1.8871875 0.0309375 3.8125 0.0625 C4.1425 0.7225 4.4725 1.3825 4.8125 2.0625 C4.22082031 2.09988281 3.62914063 2.13726562 3.01953125 2.17578125 C-1.75522222 2.57302828 -5.30674266 3.00493361 -9.1875 6.0625 C-11.55293381 9.61065071 -11.45673313 11.23506132 -11.4375 15.4375 C-11.44265625 16.55898438 -11.4478125 17.68046875 -11.453125 18.8359375 C-11.18744782 22.06313381 -10.7999033 24.25610186 -9.1875 27.0625 C-5.88145227 28.6321144 -2.03418813 28.16096688 1.5625 28.125 C2.73296875 28.11597656 3.9034375 28.10695313 5.109375 28.09765625 C6.00140625 28.08605469 6.8934375 28.07445312 7.8125 28.0625 C7.8125 29.0525 7.8125 30.0425 7.8125 31.0625 C3.19608247 33.37070876 -2.26476982 32.34990776 -7 30.875 C-11.39217342 28.37748962 -13.59318871 25.84543388 -15.1875 21.0625 C-15.57686949 16.22533288 -15.83519377 11.66468985 -14 7.125 C-9.889849 2.44793163 -6.30118904 -0.10329818 0 0 Z " fill="#ECF2F8" transform="translate(89.1875,427.9375)"/>
<path d="M0 0 C3.0625 0.3125 3.0625 0.3125 4.9375 1.3125 C6.74815793 4.53144743 6.70275229 7.76977068 6.0625 11.3125 C4.375 13.875 4.375 13.875 2.0625 15.3125 C-1.05579377 15.3125 -2.42544118 14.73921568 -4.8125 12.75 C-6.55920214 8.9654787 -5.78826046 6.36997297 -4.9375 2.3125 C-2.9375 0.3125 -2.9375 0.3125 0 0 Z " fill="#2375DB" transform="translate(189.9375,435.6875)"/>
<path d="M0 0 C2.69990662 1.79993774 4.5418865 3.083773 6 6 C6.3506291 11.34709374 6.44403637 14.62872307 3 19 C-0.20487969 20.60243984 -3.53309837 20.63159396 -7 20 C-10.03715967 17.04071622 -11.83251325 14.47388343 -12.3125 10.25 C-11.92220973 6.19098115 -10.50412622 4.16698316 -8 1 C-5.14675563 -0.42662219 -3.16545451 -0.31033868 0 0 Z M-7.9375 5.0625 C-9.30258643 8.83656247 -9.00096139 11.13914892 -8 15 C-6.97578739 17.10938785 -6.97578739 17.10938785 -5 18 C-1.91666667 18 -1.91666667 18 1 17 C3.54014875 13.18977687 3.58606955 10.46529184 3 6 C2.03882095 3.87129307 2.03882095 3.87129307 0 3 C-3.77206103 2.37132316 -5.26406635 2.21658676 -7.9375 5.0625 Z " fill="#EAF0F8" transform="translate(193,433)"/>
<path d="M0 0 C0.99 0 1.98 0 3 0 C4.65 4.29 6.3 8.58 8 13 C10.40804568 10.59195432 11.00768759 8.57796225 12.125 5.375 C12.47820312 4.37210937 12.83140625 3.36921875 13.1953125 2.3359375 C13.46085937 1.56507813 13.72640625 0.79421875 14 0 C14.99 0 15.98 0 17 0 C11.33318078 22.98977879 11.33318078 22.98977879 6 27 C3.3125 27.1875 3.3125 27.1875 1 27 C1 26.34 1 25.68 1 25 C2.65 24.67 4.3 24.34 6 24 C6.40939107 18.57556836 5.00096303 14.67128744 3 9.75 C0 2.20945946 0 2.20945946 0 0 Z " fill="#E6EEF8" transform="translate(289,433)"/>
<path d="M0 0 C1.8125 1.0625 1.8125 1.0625 3 3 C3.30540859 6.35949454 3.23408114 9.11049167 2.375 12.375 C0.29502726 14.83314961 -1.9029628 14.73069242 -5 15 C-7.56417383 12.43582617 -8.25787287 10.47083523 -8.375 6.9375 C-8 3 -8 3 -6.8125 1 C-4.33474158 -0.36703913 -2.78844081 -0.41826612 0 0 Z " fill="#2073DA" transform="translate(119,436)"/>
<path d="M0 0 C3.0625 0.375 3.0625 0.375 4.9375 2 C6.39736373 5.08193454 6.55464954 7.00026031 6.0625 10.375 C4.4375 12.8125 4.4375 12.8125 2.0625 14.375 C-1.125 14.25 -1.125 14.25 -3.9375 13.375 C-5.11423198 11.02153604 -5.10373866 9.4943967 -5.125 6.875 C-5.13917969 6.0809375 -5.15335938 5.286875 -5.16796875 4.46875 C-4.77723033 0.91899079 -3.38336304 0.43191869 0 0 Z " fill="#2073DA" transform="translate(167.9375,435.625)"/>
<path d="M0 0 C0.99 0 1.98 0 3 0 C3 6.6 3 13.2 3 20 C2.01 20 1.02 20 0 20 C-0.33 19.34 -0.66 18.68 -1 18 C-1.66 18.66 -2.32 19.32 -3 20 C-6.5 20.25 -6.5 20.25 -10 20 C-12 18 -12 18 -12.1953125 14.0859375 C-12.18200376 12.51550649 -12.15813602 10.94513779 -12.125 9.375 C-12.11597656 8.57320313 -12.10695312 7.77140625 -12.09765625 6.9453125 C-12.07406223 4.96341477 -12.03819065 2.98167019 -12 1 C-11.34 1 -10.68 1 -10 1 C-9.93941406 1.99902344 -9.87882812 2.99804688 -9.81640625 4.02734375 C-9.73261719 5.31769531 -9.64882813 6.60804688 -9.5625 7.9375 C-9.48128906 9.22527344 -9.40007812 10.51304687 -9.31640625 11.83984375 C-9.35080812 14.86023957 -9.35080812 14.86023957 -8 16 C-5.69 16 -3.38 16 -1 16 C-0.67 10.72 -0.34 5.44 0 0 Z " fill="#EFF3F9" transform="translate(268,433)"/>
<path d="M0 0 C0.495 1.98 0.495 1.98 1 4 C-3.62 4 -8.24 4 -13 4 C-13 20.5 -13 37 -13 54 C-16.08348282 54.7708707 -18.05237286 55.12081536 -21.109375 55.09765625 C-21.86347656 55.09443359 -22.61757812 55.09121094 -23.39453125 55.08789062 C-24.17183594 55.07951172 -24.94914062 55.07113281 -25.75 55.0625 C-26.54277344 55.05798828 -27.33554688 55.05347656 -28.15234375 55.04882812 C-30.10159508 55.03708565 -32.05080738 55.01915146 -34 55 C-29.23321678 50.23321678 -20.73087033 52.37393724 -14 52 C-14 35.5 -14 19 -14 2 C-9.38 2 -4.76 2 0 2 C0 1.34 0 0.68 0 0 Z " fill="#438CD5" transform="translate(124,131)"/>
<path d="M0 0 C0.33 0 0.66 0 1 0 C0.67 4.29 0.34 8.58 0 13 C-0.66 13 -1.32 13 -2 13 C-2 13.66 -2 14.32 -2 15 C-6.95 15 -11.9 15 -17 15 C-17 31.17 -17 47.34 -17 64 C-18.32 63.67 -19.64 63.34 -21 63 C-20.01 63 -19.02 63 -18 63 C-18.00222061 62.38834488 -18.00444122 61.77668976 -18.00672913 61.14649963 C-18.02878122 54.80429669 -18.04390627 48.46210456 -18.05493164 42.11987305 C-18.05997341 39.75007688 -18.06680665 37.38028385 -18.07543945 35.01049805 C-18.0875119 31.61245961 -18.09322971 28.21446215 -18.09765625 24.81640625 C-18.10281754 23.74975235 -18.10797882 22.68309845 -18.11329651 21.5841217 C-18.11337204 20.60318039 -18.11344757 19.62223907 -18.11352539 18.61157227 C-18.115746 17.74331314 -18.11796661 16.87505402 -18.12025452 15.98048401 C-18 14 -18 14 -17 13 C-14.64686445 12.92728259 -12.29166332 12.91629132 -9.9375 12.9375 C-8.64714844 12.94652344 -7.35679688 12.95554688 -6.02734375 12.96484375 C-5.02832031 12.97644531 -4.02929688 12.98804688 -3 13 C-2.87625 11.96875 -2.7525 10.9375 -2.625 9.875 C-2.06110186 6.37883154 -1.21317941 3.31602373 0 0 Z " fill="#9CCAEE" transform="translate(126,118)"/>
<path d="M0 0 C0.495 1.485 0.495 1.485 1 3 C-3.62 3.33 -8.24 3.66 -13 4 C-13.33 20.17 -13.66 36.34 -14 53 C-18.12727362 55.06363681 -21.26839651 55.42167583 -25.75 55.625 C-26.79607422 55.68300781 -26.79607422 55.68300781 -27.86328125 55.7421875 C-29.57510818 55.83598624 -31.28751682 55.91906174 -33 56 C-33 55.34 -33 54.68 -33 54 C-27.39 53.01 -21.78 52.02 -16 51 C-16.00902344 49.05738281 -16.01804687 47.11476562 -16.02734375 45.11328125 C-16.02635058 37.22849955 -15.85670507 29.35357845 -15.62768555 21.47241211 C-15.56129116 19.14512721 -15.50230452 16.81771854 -15.44335938 14.49023438 C-15.40149025 13.00779976 -15.35918966 11.52537726 -15.31640625 10.04296875 C-15.29133751 9.00102608 -15.29133751 9.00102608 -15.26576233 7.93803406 C-15.11435709 3.11435709 -15.11435709 3.11435709 -14 2 C-11.64686445 1.92728259 -9.29166332 1.91629132 -6.9375 1.9375 C-5.64714844 1.94652344 -4.35679688 1.95554688 -3.02734375 1.96484375 C-2.02832031 1.97644531 -1.02929688 1.98804688 0 2 C0 1.34 0 0.68 0 0 Z " fill="#C0DEF8" transform="translate(122,128)"/>
<path d="M0 0 C2.5 0.25 2.5 0.25 4.5 2.25 C5.05776892 8.38545817 5.05776892 8.38545817 3.25 11.1875 C1.5 12.25 1.5 12.25 -2.5 12.25 C-4.94897847 8.57653229 -4.81537716 6.58643601 -4.5 2.25 C-2.5 0.25 -2.5 0.25 0 0 Z " fill="#2073DA" transform="translate(88.5,437.75)"/>
<path d="M0 0 C0.99 0 1.98 0 3 0 C3.33 0.66 3.66 1.32 4 2 C4.66 1.34 5.32 0.68 6 0 C7.32 0 8.64 0 10 0 C10 0.99 10 1.98 10 3 C8.7934375 3.4640625 8.7934375 3.4640625 7.5625 3.9375 C5.10919595 4.76335345 5.10919595 4.76335345 4 6 C3.76472227 8.34987262 3.58613583 10.70556039 3.4375 13.0625 C3.35371094 14.35285156 3.26992188 15.64320313 3.18359375 16.97265625 C3.12300781 17.97167969 3.06242187 18.97070312 3 20 C2.01 20 1.02 20 0 20 C0 13.4 0 6.8 0 0 Z " fill="#E4EDF7" transform="translate(276,433)"/>
<path d="M0 0 C1.32229189 2.64458379 1.09677194 4.67761301 1.0625 7.625 C1.05347656 8.62789063 1.04445312 9.63078125 1.03515625 10.6640625 C1.02355469 11.43492187 1.01195312 12.20578125 1 13 C3.64 13 6.28 13 9 13 C9 13.99 9 14.98 9 16 C5.8125 16.8125 5.8125 16.8125 2 17 C-0.94945201 15.01232582 -2.51654698 13.4305686 -3.66796875 10.0234375 C-4.0625 7.9375 -4.0625 7.9375 -4 4 C-2.0625 1.5 -2.0625 1.5 0 0 Z " fill="#DAE6F6" transform="translate(163,436)"/>
<path d="M0 0 C0.33 0 0.66 0 1 0 C1 3.63 1 7.26 1 11 C-0.21236328 11.05607422 -0.21236328 11.05607422 -1.44921875 11.11328125 C-2.51785156 11.17902344 -3.58648437 11.24476562 -4.6875 11.3125 C-6.27111328 11.39951172 -6.27111328 11.39951172 -7.88671875 11.48828125 C-11.28499293 12.04684325 -13.26615283 12.92621683 -16 15 C-17.10514766 18.31544299 -17.32107631 21.20410111 -17.5625 24.6875 C-17.64628906 25.86699219 -17.73007813 27.04648438 -17.81640625 28.26171875 C-17.87699219 29.16535156 -17.93757813 30.06898437 -18 31 C-18.33 31 -18.66 31 -19 31 C-19.08139142 28.60347472 -19.14067009 26.20974564 -19.1875 23.8125 C-19.22520508 22.80219727 -19.22520508 22.80219727 -19.26367188 21.77148438 C-19.32943154 17.27790753 -18.7097387 14.58892752 -16 11 C-13.22957891 8.22957891 -11.23466195 8.60203894 -7.375 8.375 C-6.18648437 8.30023438 -4.99796875 8.22546875 -3.7734375 8.1484375 C-2.85820313 8.09945312 -1.94296875 8.05046875 -1 8 C-0.67 5.36 -0.34 2.72 0 0 Z " fill="#67ACDA" transform="translate(128,80)"/>
<path d="M0 0 C0.66 0 1.32 0 2 0 C5 4.38461538 5 4.38461538 5 7 C8.60993172 8.13480527 11.9842327 8.10015767 15.75 8.0625 C16.92046875 8.05347656 18.0909375 8.04445313 19.296875 8.03515625 C20.18890625 8.02355469 21.0809375 8.01195312 22 8 C22 8.99 22 9.98 22 11 C17.38358247 13.30820876 11.92273018 12.28740776 7.1875 10.8125 C3.79176353 8.88159103 2.02739557 7.32492873 0 4 C0 2.68 0 1.36 0 0 Z " fill="#E0EAF6" transform="translate(75,448)"/>
<path d="M0 0 C0.99 0 1.98 0 3 0 C3 6.6 3 13.2 3 20 C2.01 20 1.02 20 0 20 C-0.95946595 15.38034912 -0.96102244 11.31870875 -0.5625 6.625 C-0.46066406 5.37976563 -0.35882813 4.13453125 -0.25390625 2.8515625 C-0.17011719 1.91054688 -0.08632813 0.96953125 0 0 Z " fill="#E4ECF7" transform="translate(268,433)"/>
<path d="M0 0 C0.22111261 2.72705554 0.30361625 4.46420662 -1.0625 6.875 C-4.11569315 8.64782183 -6.66411708 7.69235306 -10 7 C-9.67 5.35 -9.34 3.7 -9 2 C-2.25 0 -2.25 0 0 0 Z " fill="#2178DC" transform="translate(118,384)"/>
<path d="M0 0 C0.99 0 1.98 0 3 0 C3 6.6 3 13.2 3 20 C2.01 20 1.02 20 0 20 C0 13.4 0 6.8 0 0 Z " fill="#EDF2F9" transform="translate(131,433)"/>
<path d="M0 0 C0.36075949 4.44936709 0.36075949 4.44936709 -1.1875 6.8125 C-3.6135694 8.40199375 -5.15397406 8.36487512 -8 8 C-8.66 7.34 -9.32 6.68 -10 6 C-9.625 3.875 -9.625 3.875 -9 2 C-2.25 0 -2.25 0 0 0 Z " fill="#2F7CDC" transform="translate(247,443)"/>
<path d="M0 0 C3.125 0.25 3.125 0.25 5 1.5625 C6.125 3.25 6.125 3.25 6.125 6.25 C2.495 6.25 -1.135 6.25 -4.875 6.25 C-3.68915929 0.32079646 -3.68915929 0.32079646 0 0 Z " fill="#337FDD" transform="translate(146.875,435.75)"/>
<path d="M0 0 C0.33 0 0.66 0 1 0 C0.85975781 2.47960136 0.7130815 4.95852402 0.5625 7.4375 C0.52318359 8.14455078 0.48386719 8.85160156 0.44335938 9.58007812 C0.11328125 14.88671875 0.11328125 14.88671875 -1 16 C-3.18639453 16.07258946 -5.37500389 16.08373783 -7.5625 16.0625 C-9.35880859 16.04896484 -9.35880859 16.04896484 -11.19140625 16.03515625 C-12.11824219 16.02355469 -13.04507813 16.01195313 -14 16 C-13.67 15.34 -13.34 14.68 -13 14 C-9.37 14 -5.74 14 -2 14 C-2 10.37 -2 6.74 -2 3 C-1.34 3 -0.68 3 0 3 C0 2.01 0 1.02 0 0 Z " fill="#AED4ED" transform="translate(128,73)"/>
<path d="M0 0 C2.4375 0.75 2.4375 0.75 4.4375 2.75 C4.4375 3.74 4.4375 4.73 4.4375 5.75 C0.8075 5.75 -2.8225 5.75 -6.5625 5.75 C-5.47734541 1.40938165 -4.74860253 -0.4632783 0 0 Z " fill="#237ADD" transform="translate(170.5625,374.25)"/>
<path d="M0 0 C3.3125 1 3.3125 1 5.3125 4 C1.97916667 4 -1.35416667 4 -4.6875 4 C-5.0175 6.97 -5.3475 9.94 -5.6875 13 C-6.0175 13 -6.3475 13 -6.6875 13 C-6.831875 12.236875 -6.97625 11.47375 -7.125 10.6875 C-7.6507594 7.91827092 -7.6507594 7.91827092 -8.6875 5 C-4.66310976 0 -4.66310976 0 0 0 Z " fill="#DEE9F6" transform="translate(116.6875,433)"/>
<path d="M0 0 C0.33 0 0.66 0 1 0 C1 7.59 1 15.18 1 23 C1.99 23.33 2.98 23.66 4 24 C2.35 24.33 0.7 24.66 -1 25 C-1.0289337 21.20834926 -1.04677601 17.41672673 -1.0625 13.625 C-1.07087891 12.54476562 -1.07925781 11.46453125 -1.08789062 10.3515625 C-1.09111328 9.3203125 -1.09433594 8.2890625 -1.09765625 7.2265625 C-1.10289307 6.27346191 -1.10812988 5.32036133 -1.11352539 4.33837891 C-1 2 -1 2 0 0 Z " fill="#D3EAFE" transform="translate(92,157)"/>
<path d="M0 0 C0.33 0 0.66 0 1 0 C1 4.95 1 9.9 1 15 C-3.12727362 17.06363681 -6.26839651 17.42167583 -10.75 17.625 C-11.44738281 17.66367188 -12.14476563 17.70234375 -12.86328125 17.7421875 C-14.57510818 17.83598624 -16.28751682 17.91906174 -18 18 C-18 17.34 -18 16.68 -18 16 C-12.39 15.01 -6.78 14.02 -1 13 C-0.67 8.71 -0.34 4.42 0 0 Z " fill="#A6D2F5" transform="translate(107,166)"/>
<path d="M0 0 C2.97 0.33 5.94 0.66 9 1 C9 4.96 9 8.92 9 13 C5.12328873 10.41552582 5.19213805 8.37117286 4 4 C3.34 3.67 2.68 3.34 2 3 C2 2.34 2 1.68 2 1 C1.34 0.67 0.68 0.34 0 0 Z " fill="#DCE8F6" transform="translate(87,435)"/>
<path d="M0 0 C3.875 0.875 3.875 0.875 5 2 C5.07325168 4.86267567 5.09238205 7.700719 5.0625 10.5625 C5.05798828 11.36880859 5.05347656 12.17511719 5.04882812 13.00585938 C5.03700518 15.00393756 5.01906914 17.00197783 5 19 C4.34 19 3.68 19 3 19 C2.95101562 17.96359375 2.90203125 16.9271875 2.8515625 15.859375 C2.77650403 14.48955792 2.70095753 13.11976752 2.625 11.75 C2.57859375 10.72712891 2.57859375 10.72712891 2.53125 9.68359375 C2.31740626 6.01260962 1.98922945 3.13748384 0 0 Z " fill="#F9FAFA" transform="translate(224,434)"/>
<path d="M0 0 C0.33 0 0.66 0 1 0 C0.67 4.29 0.34 8.58 0 13 C-0.66 13 -1.32 13 -2 13 C-2 13.66 -2 14.32 -2 15 C-6.62 15 -11.24 15 -16 15 C-16 14.67 -16 14.34 -16 14 C-11.71 14 -7.42 14 -3 14 C-2.87625 12.80375 -2.7525 11.6075 -2.625 10.375 C-2.17674946 6.72403187 -1.29553163 3.45475101 0 0 Z " fill="#7AB7E1" transform="translate(126,118)"/>
<path d="M0 0 C0 0.66 0 1.32 0 2 C-2.70716242 2.90238747 -4.23776768 3.11851302 -7.01171875 3.09765625 C-8.14770508 3.09282227 -8.14770508 3.09282227 -9.30664062 3.08789062 C-10.09232422 3.07951172 -10.87800781 3.07113281 -11.6875 3.0625 C-12.48478516 3.05798828 -13.28207031 3.05347656 -14.10351562 3.04882812 C-16.06904257 3.0370585 -18.03453085 3.01912348 -20 3 C-17.27938603 0.27938603 -15.48373009 0.60715903 -11.6875 0.375 C-10.55699219 0.30023438 -9.42648438 0.22546875 -8.26171875 0.1484375 C-5.50062675 0.02278301 -2.76309432 -0.03110425 0 0 Z " fill="#4C9BD6" transform="translate(110,183)"/>
<path d="M0 0 C1.63001953 0.01353516 1.63001953 0.01353516 3.29296875 0.02734375 C4.12441406 0.03894531 4.95585938 0.05054688 5.8125 0.0625 C6.1425 1.3825 6.4725 2.7025 6.8125 4.0625 C6.4825 3.4025 6.1525 2.7425 5.8125 2.0625 C4.06217156 2.20433696 2.31224466 2.35113429 0.5625 2.5 C-0.41203125 2.58121094 -1.3865625 2.66242188 -2.390625 2.74609375 C-4.75211753 3.01324584 -6.90651065 3.41621968 -9.1875 4.0625 C-9.1875 3.0725 -9.1875 2.0825 -9.1875 1.0625 C-5.90230525 -0.03256492 -3.45086585 -0.03710608 0 0 Z " fill="#94CBEC" transform="translate(81.1875,130.9375)"/>
<path d="M0 0 C5.94 0 11.88 0 18 0 C18 0.99 18 1.98 18 3 C17.01 3.495 17.01 3.495 16 4 C15.31527335 5.88764903 15.31527335 5.88764903 14.875 8.0625 C14.62363281 9.16271484 14.62363281 9.16271484 14.3671875 10.28515625 C14.24601562 10.85105469 14.12484375 11.41695312 14 12 C12.23267999 7.58169998 13.4845802 6.3039693 15 1 C10.05 1 5.1 1 0 1 C0 0.67 0 0.34 0 0 Z " fill="#B4D5F3" transform="translate(110,115)"/>
<path d="M0 0 C3.63 0 7.26 0 11 0 C10.67 0.99 10.34 1.98 10 3 C7.03 3 4.06 3 1 3 C0.67 2.01 0.34 1.02 0 0 Z " fill="#F2F9FE" transform="translate(114,116)"/>
<path d="M0 0 C0.185625 0.61875 0.37125 1.2375 0.5625 1.875 C2.71437233 5.05602866 5.37533763 5.19451947 9 6 C8.67 6.66 8.34 7.32 8 8 C4.625 8.125 4.625 8.125 1 8 C-1 6 -1 6 -1.1875 3.4375 C-1 1 -1 1 0 0 Z " fill="#F6F8FA" transform="translate(236,445)"/>
<path d="M0 0 C-0.33 0.99 -0.66 1.98 -1 3 C-3.06640625 3.73046875 -3.06640625 3.73046875 -5.5625 4.1875 C-6.38878906 4.34605469 -7.21507812 4.50460937 -8.06640625 4.66796875 C-9.02353516 4.83232422 -9.02353516 4.83232422 -10 5 C-7.62417533 -0.26075462 -5.61350876 -0.1220328 0 0 Z " fill="#DEE9F6" transform="translate(245,433)"/>
<path d="M0 0 C0 0.33 0 0.66 0 1 C-0.763125 1.020625 -1.52625 1.04125 -2.3125 1.0625 C-5.41389118 1.79660949 -5.41389118 1.79660949 -6.8125 5.5625 C-7.204375 6.696875 -7.59625 7.83125 -8 9 C-8.99 8.34 -9.98 7.68 -11 7 C-8.87296567 0.78251503 -6.45381515 -0.28683623 0 0 Z " fill="#DCE8F6" transform="translate(150,433)"/>
<path d="M0 0 C0 0.66 0 1.32 0 2 C-0.928125 2.3403125 -0.928125 2.3403125 -1.875 2.6875 C-4.61410209 4.37929835 -5.05024472 5.99244161 -6 9 C-6.33 9 -6.66 9 -7 9 C-7.36363636 3.54545455 -7.36363636 3.54545455 -5.75 1.125 C-4 0 -4 0 0 0 Z " fill="#F5F7FA" transform="translate(89,436)"/>
<path d="M0 0 C4.29 0 8.58 0 13 0 C13 0.33 13 0.66 13 1 C12.32453125 1.03738281 11.6490625 1.07476562 10.953125 1.11328125 C10.06109375 1.17902344 9.1690625 1.24476562 8.25 1.3125 C7.36828125 1.37050781 6.4865625 1.42851563 5.578125 1.48828125 C2.67696226 2.0641181 1.20774393 3.07596148 -1 5 C-0.67 3.35 -0.34 1.7 0 0 Z " fill="#EDF6FF" transform="translate(75,118)"/>
<path d="M0 0 C0.33 0 0.66 0 1 0 C1.29296875 6.0546875 1.29296875 6.0546875 1 8 C0.01 8.66 -0.98 9.32 -2 10 C-2.1953125 3.9453125 -2.1953125 3.9453125 -2 2 C-1.34 1.34 -0.68 0.68 0 0 Z " fill="#D9E6F6" transform="translate(103,437)"/>
<path d="M0 0 C0.598125 0.226875 1.19625 0.45375 1.8125 0.6875 C0.4375 2.1875 0.4375 2.1875 -1.1875 3.6875 C-1.8475 3.6875 -2.5075 3.6875 -3.1875 3.6875 C-3.8475 5.0075 -4.5075 6.3275 -5.1875 7.6875 C-5.41803497 4.84423536 -5.54653101 3.22604651 -3.9375 0.8125 C-2.1875 -0.3125 -2.1875 -0.3125 0 0 Z " fill="#DBE7F6" transform="translate(239.1875,442.3125)"/>
<path d="M0 0 C-0.99 0.495 -0.99 0.495 -2 1 C-2 1.66 -2 2.32 -2 3 C-3.65 3.33 -5.3 3.66 -7 4 C-7 3.01 -7 2.02 -7 1 C-4.53721199 -0.231394 -2.7204945 -0.07159196 0 0 Z " fill="#DFEAF7" transform="translate(226,433)"/>
</svg>
