<?xml version="1.0" encoding="UTF-8"?>
<svg version="1.1" xmlns="http://www.w3.org/2000/svg" width="525" height="525">
<path d="M0 0 C173.25 0 346.5 0 525 0 C525 173.25 525 346.5 525 525 C351.75 525 178.5 525 0 525 C0 351.75 0 178.5 0 0 Z " fill="#C44793" transform="translate(0,0)"/>
<path d="M0 0 C1.13710922 -0.00145523 2.27421844 -0.00291046 3.44578552 -0.00440979 C5.83326803 -0.00276047 8.22076226 0.00869114 10.6081543 0.02954102 C14.23988467 0.05854416 17.87015603 0.05011777 21.50195312 0.03710938 C23.83464243 0.04334681 26.16732718 0.05173778 28.5 0.0625 C29.57318985 0.05956436 30.6463797 0.05662872 31.75209045 0.05360413 C39.53797743 0.149968 47.61009999 0.89301431 54.05859375 5.68359375 C59.75572808 11.78766625 61.78073016 18.40702557 61.84472656 26.6784668 C61.85433411 27.68689133 61.86394165 28.69531586 61.87384033 29.73429871 C61.87809021 30.81455826 61.88234009 31.89481781 61.88671875 33.0078125 C61.89241882 34.13121536 61.8981189 35.25461823 61.9039917 36.4120636 C61.91342824 38.78829002 61.91997033 41.16452945 61.92382812 43.54077148 C61.93351192 47.15306816 61.96454002 50.76479039 61.99609375 54.37695312 C62.00262662 56.69140289 62.00787598 59.0058567 62.01171875 61.3203125 C62.02406555 62.3904509 62.03641235 63.46058929 62.0491333 64.56315613 C62.02625344 72.37136954 61.29988751 80.40265811 56.49609375 86.87109375 C48.24995855 94.5674866 39.07307762 94.65571981 28.29296875 94.69921875 C26.64328094 94.70776886 26.64328094 94.70776886 24.96026611 94.7164917 C22.63709468 94.72591825 20.31391001 94.73246634 17.99072266 94.73632812 C14.45972028 94.74602202 10.92930318 94.77706376 7.3984375 94.80859375 C5.13411802 94.81512586 2.8697944 94.82037552 0.60546875 94.82421875 C-0.43965881 94.83656555 -1.48478638 94.84891235 -2.56158447 94.8616333 C-10.30267692 94.83842326 -18.28405036 94.07002792 -24.69140625 89.30859375 C-30.11561679 83.4969396 -32.41922628 77.11278136 -32.47753906 69.2277832 C-32.48714661 68.17601395 -32.49675415 67.12424469 -32.50665283 66.04060364 C-32.51090271 64.90829819 -32.51515259 63.77599274 -32.51953125 62.609375 C-32.52523132 61.43779343 -32.5309314 60.26621185 -32.5368042 59.05912781 C-32.54625013 56.57857159 -32.55278656 54.09800285 -32.55664062 51.61743164 C-32.56632462 47.84043176 -32.59734396 44.06398108 -32.62890625 40.28710938 C-32.6354388 37.87370114 -32.64068828 35.46028902 -32.64453125 33.046875 C-32.65687805 31.9246907 -32.66922485 30.80250641 -32.6819458 29.64631653 C-32.65697767 20.76482677 -31.51595581 12.67618878 -25.21946716 5.98707581 C-17.97741959 0.31318334 -8.81338568 -0.09243144 0 0 Z " fill="#7B22B3" transform="translate(114.31640625,81.50390625)"/>
<path d="M0 0 C7.71884727 -0.07669341 15.43759459 -0.12886742 23.15673828 -0.16479492 C25.77721834 -0.17978844 28.39767371 -0.20019002 31.01806641 -0.22631836 C34.80637748 -0.2631191 38.59435393 -0.27982142 42.3828125 -0.29296875 C43.53548615 -0.30845261 44.68815979 -0.32393646 45.87576294 -0.33988953 C57.48019354 -0.34223706 69.40537937 0.48902532 78 9 C89.39492013 20.39492013 88.15490088 36.16678396 88.18554688 51.13671875 C88.18546631 51.97895996 88.18538574 52.82120117 88.18530273 53.68896484 C88.18748423 56.23161707 88.20569359 58.77383055 88.22460938 61.31640625 C88.33740632 93.37854758 88.33740632 93.37854758 79.28125 104.01953125 C70.23500188 112.82479325 58.2987141 114.16020373 46.24609375 114.1328125 C45.30878922 114.13376923 44.37148468 114.13472595 43.40577698 114.13571167 C41.4247328 114.1363905 39.44368636 114.13455696 37.46264648 114.13037109 C34.47178979 114.12506088 31.48108617 114.13030432 28.49023438 114.13671875 C-6.68647419 114.15066531 -6.68647419 114.15066531 -17.76171875 103.609375 C-23.75843028 96.61844428 -26.08623648 88.36264222 -26.17700195 79.29858398 C-26.18983719 78.17649033 -26.20267242 77.05439667 -26.21589661 75.89830017 C-26.22328354 74.69307205 -26.23067047 73.48784393 -26.23828125 72.24609375 C-26.246353 70.99425797 -26.25442474 69.74242218 -26.26274109 68.45265198 C-26.27656385 65.80230023 -26.28758426 63.15207201 -26.29516602 60.50170898 C-26.30399592 57.80453696 -26.32480386 55.10788518 -26.35668945 52.41088867 C-26.39957984 48.50163389 -26.41556716 44.5930553 -26.42578125 40.68359375 C-26.44328934 39.49253525 -26.46079742 38.30147675 -26.47883606 37.07432556 C-26.45601581 28.14956748 -25.38679318 18.5771313 -19.4140625 11.4921875 C-18.49367188 10.62851563 -17.57328125 9.76484375 -16.625 8.875 C-15.25214844 7.54082031 -15.25214844 7.54082031 -13.8515625 6.1796875 C-9.46724362 2.82838622 -5.47984686 1.67765607 0 2 C0 1.34 0 0.68 0 0 Z M-10.5 17.1875 C-16.11194595 24.81494488 -16.44875342 33.20698866 -16.3984375 42.375 C-16.40130768 43.53950684 -16.40417786 44.70401367 -16.40713501 45.90380859 C-16.4091674 48.35449716 -16.40369564 50.80520226 -16.39111328 53.25585938 C-16.37504883 56.98865326 -16.39099121 60.72036445 -16.41015625 64.453125 C-16.40817367 66.84375237 -16.4043297 69.23437907 -16.3984375 71.625 C-16.40451019 72.73149902 -16.41058289 73.83799805 -16.4168396 74.97802734 C-16.34448501 83.02256335 -15.28995064 89.53236047 -10.8125 96.3125 C-4.79343294 102.06405296 1.86241974 104.10905027 10.10644531 104.14526367 C11.09807678 104.15164352 12.08970825 104.15802338 13.11138916 104.16459656 C14.17291199 104.16570938 15.23443481 104.1668222 16.328125 104.16796875 C17.98349274 104.17296135 17.98349274 104.17296135 19.67230225 104.17805481 C22.00565169 104.18311226 24.33900836 104.1854635 26.67236328 104.18530273 C30.22310472 104.18748348 33.77353248 104.20563624 37.32421875 104.22460938 C39.59635311 104.22754477 41.86848894 104.22952859 44.140625 104.23046875 C45.1940509 104.23765427 46.24747681 104.24483978 47.33282471 104.25224304 C56.26079091 104.22489097 64.16213892 103.61319116 71.2734375 97.84765625 C76.26815031 92.50263553 78.10601636 85.07279813 78.16113281 77.93115234 C78.17074036 76.92265228 78.1803479 75.91415222 78.19024658 74.87509155 C78.19449646 73.78967072 78.19874634 72.70424988 78.203125 71.5859375 C78.20882507 70.46111969 78.21452515 69.33630188 78.22039795 68.17739868 C78.22984352 65.79519591 78.23638017 63.4129801 78.24023438 61.03076172 C78.24990759 57.40959424 78.28092265 53.78900228 78.3125 50.16796875 C78.31903371 47.84896169 78.32428274 45.52995058 78.328125 43.2109375 C78.3466452 41.60102432 78.3466452 41.60102432 78.36553955 39.95858765 C78.34166403 31.7849071 77.28284155 24.62568952 72.875 17.625 C66.99248068 12.25400409 59.738417 9.90927446 51.85522461 9.82299805 C50.82993149 9.81016281 49.80463837 9.79732758 48.74827576 9.78410339 C47.64411819 9.77671646 46.53996063 9.76932953 45.40234375 9.76171875 C44.25770157 9.753647 43.11305939 9.74557526 41.93373108 9.73725891 C39.50865182 9.72342901 37.08355319 9.71270197 34.65844727 9.70483398 C32.19028989 9.69333611 29.72215695 9.67291943 27.25415039 9.64331055 C23.6783771 9.60041373 20.10334319 9.58443147 16.52734375 9.57421875 C15.4373558 9.55671066 14.34736786 9.53920258 13.22434998 9.52116394 C4.70942521 9.54494853 -4.37692219 10.68701824 -10.5 17.1875 Z " fill="#FAF2FD" transform="translate(98,72)"/>
<path d="M0 0 C3.64684816 2.51276733 6.22028157 5.01187095 8.5625 8.765625 C8.97242188 9.41015625 9.38234375 10.0546875 9.8046875 10.71875 C13.37662907 17.36995155 13.54147321 24.38567313 12.5625 31.765625 C11.3298423 35.43923728 9.68246246 38.53314579 7.5625 41.765625 C7.005625 42.673125 6.44875 43.580625 5.875 44.515625 C-1.57325812 51.76257885 -9.47025387 54.26928973 -19.65625 54.1640625 C-27.83186029 53.3025829 -34.30871025 49.67062126 -39.5 43.328125 C-40.51472704 41.83078388 -41.49842215 40.31153385 -42.4375 38.765625 C-43.076875 37.734375 -43.71625 36.703125 -44.375 35.640625 C-46.87851851 28.82725184 -46.65469578 20.38600219 -44.37109375 13.59375 C-40.65062139 6.25418055 -35.35507499 0.32543007 -27.8125 -3.171875 C-18.09253085 -6.18315956 -8.74548748 -4.9774849 0 0 Z " fill="#F8E9FC" transform="translate(145.4375,104.234375)"/>
<path d="M0 0 C0.99 0.33 1.98 0.66 3 1 C2.071875 1.70125 1.14375 2.4025 0.1875 3.125 C-4.34010555 6.9051235 -6.0575743 11.27246423 -7 17 C-7.09714853 18.79211797 -7.14782827 20.58713606 -7.16113281 22.38183594 C-7.17554413 23.95937653 -7.17554413 23.95937653 -7.19024658 25.56878662 C-7.1966214 27.25950287 -7.1966214 27.25950287 -7.203125 28.984375 C-7.20882507 30.15454163 -7.21452515 31.32470825 -7.22039795 32.53033447 C-7.2298352 35.00491434 -7.23637686 37.47950671 -7.24023438 39.95410156 C-7.24992856 43.72223068 -7.28096036 47.48981156 -7.3125 51.2578125 C-7.31903174 53.66666344 -7.32428154 56.07551827 -7.328125 58.484375 C-7.3404718 59.60342224 -7.3528186 60.72246948 -7.36553955 61.87542725 C-7.34361943 69.64912476 -6.34717061 76.08804899 -2.3125 82.8125 C2.11386107 86.99959831 7.0649779 88.92090507 13 90 C13.495 90.99 13.495 90.99 14 92 C21.60622012 92.06959844 29.2124071 92.12286116 36.81887341 92.15543652 C40.35112466 92.17107343 43.88315759 92.19227501 47.4152832 92.22631836 C51.47869937 92.26523603 55.54188721 92.27972547 59.60546875 92.29296875 C61.50258858 92.31619453 61.50258858 92.31619453 63.43803406 92.33988953 C64.61888077 92.34011612 65.79972748 92.34034271 67.01635742 92.34057617 C68.57189583 92.35056892 68.57189583 92.35056892 70.15885925 92.36076355 C73.42763931 91.94569904 75.27319392 90.79126001 78 89 C78.66 89 79.32 89 80 89 C80.2475 88.38125 80.495 87.7625 80.75 87.125 C82 85 82 85 83.9765625 84.3046875 C86.34942415 83.0825681 86.34942415 83.0825681 86.9765625 79.8125 C87.19054687 78.554375 87.40453125 77.29625 87.625 76 C88.81141439 69.18858561 88.81141439 69.18858561 91 67 C91.29349318 64.24762431 91.29349318 64.24762431 91.22705078 60.98974609 C91.22689972 59.72858978 91.22674866 58.46743347 91.22659302 57.1680603 C91.21637898 55.78651778 91.20594697 54.40497685 91.1953125 53.0234375 C91.19158288 51.61382243 91.18873567 50.20420477 91.18673706 48.79458618 C91.17909655 45.08240618 91.15944461 41.37038239 91.1373291 37.65826416 C91.11687959 33.87115594 91.10773727 30.0840225 91.09765625 26.296875 C91.076199 18.86451207 91.04205816 11.43227792 91 4 C98.28629963 13.01303985 96.31731248 29.83984815 96.26074219 40.99072266 C96.2500087 43.49796715 96.26071793 46.00449553 96.2734375 48.51171875 C96.30355302 80.41832521 96.30355302 80.41832521 87.28125 91.01953125 C78.23500188 99.82479325 66.2987141 101.16020373 54.24609375 101.1328125 C53.30878922 101.13376923 52.37148468 101.13472595 51.40577698 101.13571167 C49.4247328 101.1363905 47.44368636 101.13455696 45.46264648 101.13037109 C42.47178979 101.12506088 39.48108617 101.13030432 36.49023438 101.13671875 C1.31352581 101.15066531 1.31352581 101.15066531 -9.76171875 90.609375 C-16.11818229 83.19904752 -18.15896526 74.73756045 -18.0625 65.1875 C-18.05347656 64.02605469 -18.04445313 62.86460937 -18.03515625 61.66796875 C-18.02355469 60.78753906 -18.01195313 59.90710938 -18 59 C-17.67 59 -17.34 59 -17 59 C-16.5978125 57.2984375 -16.5978125 57.2984375 -16.1875 55.5625 C-15.795625 54.386875 -15.40375 53.21125 -15 52 C-13.515 51.505 -13.515 51.505 -12 51 C-11.98541748 49.87505127 -11.97083496 48.75010254 -11.95581055 47.59106445 C-11.89772246 43.40682613 -11.82049036 39.22312003 -11.73754883 35.03930664 C-11.70434886 33.23047542 -11.67630159 31.42154182 -11.65356445 29.61254883 C-11.61992742 27.00818367 -11.56760805 24.4047524 -11.51171875 21.80078125 C-11.50532883 20.99538406 -11.4989389 20.18998688 -11.49235535 19.36018372 C-11.37308952 14.77847658 -10.95151595 11.72863539 -8 8 C-7.34 7.67 -6.68 7.34 -6 7 C-5.525625 6.195625 -5.05125 5.39125 -4.5625 4.5625 C-3 2 -3 2 0 0 Z " fill="#F5D7FC" transform="translate(90,85)"/>
<path d="M0 0 C4.61844402 2.7884945 9.22460159 6.74888163 10.98828125 12.01953125 C12.13822161 19.04386572 11.38870146 24.14281205 7.3125 30 C2.89808669 34.7772418 -1.67836252 37.05377207 -8.125 37.3125 C-13.38163103 37.14741572 -16.77173496 35.90386588 -20.57421875 32.125 C-25.68023233 26.49077812 -27.17467567 22.56314154 -27.09375 14.92578125 C-26.31040108 9.28416261 -23.2433773 5.30091144 -19.08203125 1.5546875 C-13.22891731 -2.42153717 -6.55160521 -1.7767065 0 0 Z " fill="#7B1FB2" transform="translate(136.6875,111)"/>
<path d="M0 0 C0.7940625 -0.01417969 1.588125 -0.02835937 2.40625 -0.04296875 C4.5 0.1875 4.5 0.1875 6.5 2.1875 C6.83 1.5275 7.16 0.8675 7.5 0.1875 C9.48 0.1875 11.46 0.1875 13.5 0.1875 C13.59905303 4.52907052 13.67155301 8.87003854 13.71972656 13.21240234 C13.73981301 14.6887559 13.76708801 16.16503019 13.80175781 17.64111328 C13.85041184 19.76614962 13.87299673 21.89013234 13.890625 24.015625 C13.91157227 25.2934082 13.93251953 26.57119141 13.95410156 27.88769531 C13.5 31.1875 13.5 31.1875 11.66308594 33.57324219 C7.09689657 36.98087696 1.96515899 36.67483902 -3.5 36.1875 C-6.625 34.9375 -6.625 34.9375 -8.5 33.1875 C-8.5 31.8675 -8.5 30.5475 -8.5 29.1875 C-6.83388095 29.144779 -5.16617115 29.14686168 -3.5 29.1875 C-3.17 29.5175 -2.84 29.8475 -2.5 30.1875 C-0.81391034 30.25955511 0.87500659 30.27136068 2.5625 30.25 C3.48160156 30.24097656 4.40070313 30.23195313 5.34765625 30.22265625 C6.05792969 30.21105469 6.76820313 30.19945312 7.5 30.1875 C7.17 27.8775 6.84 25.5675 6.5 23.1875 C5.9740625 23.93 5.9740625 23.93 5.4375 24.6875 C3.5 26.1875 3.5 26.1875 0.1875 26.6875 C-4.66936652 26.02894183 -6.10899192 24.65924637 -9.5 21.1875 C-11.1323191 16.29054271 -11.01721485 11.29758267 -10.5 6.1875 C-7.66232259 1.3634484 -5.44715326 0.04421391 0 0 Z " fill="#FAF4F3" transform="translate(199.5,369.8125)"/>
<path d="M0 0 C1.98 0 3.96 0 6 0 C6.33 0.66 6.66 1.32 7 2 C7.66 1.34 8.32 0.68 9 0 C16.0521327 -0.56872038 16.0521327 -0.56872038 19.5 1.5 C19.995 1.995 20.49 2.49 21 3 C21.40347656 2.5153125 21.80695313 2.030625 22.22265625 1.53125 C24.42214088 -0.3636906 25.566203 -0.46126412 28.4375 -0.5 C29.19933594 -0.5309375 29.96117187 -0.561875 30.74609375 -0.59375 C33 0 33 0 35.26953125 1.85546875 C37.81414949 6.47943643 37.43096923 10.63051566 37.25 15.8125 C37.23195313 16.79154297 37.21390625 17.77058594 37.1953125 18.77929688 C37.14832887 21.18720771 37.08265694 23.59309335 37 26 C34.69 26 32.38 26 30 26 C29.505 16.1 29.505 16.1 29 6 C27.02 6 25.04 6 23 6 C21.45049732 7.54950268 21.78344807 9.09990594 21.68359375 11.25390625 C21.64169922 12.10791016 21.59980469 12.96191406 21.55664062 13.84179688 C21.51732422 14.73962891 21.47800781 15.63746094 21.4375 16.5625 C21.39431641 17.46419922 21.35113281 18.36589844 21.30664062 19.29492188 C21.20021858 21.52978485 21.09820012 23.76476308 21 26 C19.02 26 17.04 26 15 26 C14.67 19.07 14.34 12.14 14 5 C12.02 5.33 10.04 5.66 8 6 C6.88176185 8.23647631 6.80603939 9.64891529 6.68359375 12.1328125 C6.64169922 12.93847656 6.59980469 13.74414062 6.55664062 14.57421875 C6.49766602 15.83685547 6.49766602 15.83685547 6.4375 17.125 C6.37272461 18.39923828 6.37272461 18.39923828 6.30664062 19.69921875 C6.20045764 21.79928223 6.09971503 23.89961948 6 26 C4.02 26 2.04 26 0 26 C0 17.42 0 8.84 0 0 Z " fill="#FAEEF0" transform="translate(266,370)"/>
<path d="M0 0 C13.96087437 -0.86060184 13.96087437 -0.86060184 17.875 2.3125 C20 5 20 5 20 8 C20.66 8 21.32 8 22 8 C22.08126087 10.08268593 22.13930839 12.16628658 22.1875 14.25 C22.23970703 15.99023438 22.23970703 15.99023438 22.29296875 17.765625 C21.977695 21.24624725 21.50812045 22.60880824 19 25 C15.54429807 25.35996895 13.29975529 25.09991843 10 24 C8.66553076 24.02959508 7.33153206 24.09419188 6 24.1875 C2.27737226 24.2080292 2.27737226 24.2080292 0 22.5 C-1.42594634 18.93513414 -1.75250612 15.73302058 -1 12 C0.875 8.9375 0.875 8.9375 4 7 C7.51022262 6.89281763 10.50513679 7.39422371 14 8 C14.33 12.29 14.66 16.58 15 21 C15.99 21.33 16.98 21.66 18 22 C18.08126087 19.91731407 18.13930839 17.83371342 18.1875 15.75 C18.22230469 14.58984375 18.25710937 13.4296875 18.29296875 12.234375 C17.97617493 8.73697125 17.48110416 7.42905302 15 5 C11.99221479 3.99740493 9.46179353 3.69685358 6.3125 3.4375 C5.31863281 3.35371094 4.32476562 3.26992188 3.30078125 3.18359375 C2.16189453 3.09271484 2.16189453 3.09271484 1 3 C0.731875 3.639375 0.46375 4.27875 0.1875 4.9375 C-1 7 -1 7 -4 8 C-4.10853983 10.22808159 -4.18583307 12.45769932 -4.25 14.6875 C-4.29640625 15.92886719 -4.3428125 17.17023438 -4.390625 18.44921875 C-3.93376537 22.6020728 -3.01526743 24.15869031 0 27 C3.13945539 28.34270096 6.36848921 28.10275608 9.75 28.0625 C10.73484375 28.05347656 11.7196875 28.04445313 12.734375 28.03515625 C13.48203125 28.02355469 14.2296875 28.01195312 15 28 C14.67 29.32 14.34 30.64 14 32 C2.33806566 32.62289264 2.33806566 32.62289264 -2.625 30.3125 C-6.15490035 26.87549177 -7.83471722 24.36991129 -8.43359375 19.40625 C-8.43488281 18.1171875 -8.43617187 16.828125 -8.4375 15.5 C-8.45683594 14.2109375 -8.47617188 12.921875 -8.49609375 11.59375 C-7.93094881 7.49978664 -6.91326233 5.87018266 -4 3 C-1.75 2.1875 -1.75 2.1875 0 2 C0 1.34 0 0.68 0 0 Z " fill="#FAE7DD" transform="translate(82,428)"/>
<path d="M0 0 C4.26705248 2.40432969 4.26705248 2.40432969 6 5 C6.72594674 8.63383511 6.56813415 12.12561868 6.375 15.8125 C6.34792969 16.79154297 6.32085937 17.77058594 6.29296875 18.77929688 C6.22245648 21.18846621 6.12398568 23.59308819 6 26 C4.02 26 2.04 26 0 26 C0 25.01 0 24.02 0 23 C-0.66 23 -1.32 23 -2 23 C-2 23.66 -2 24.32 -2 25 C-5.70809148 26.85404574 -9.96126183 26.58173878 -14 26 C-16.1875 23.9375 -16.1875 23.9375 -17 21 C-17 17.375 -17 17.375 -16 14 C-11.95273344 10.08329043 -6.35655137 10.30163105 -1 10 C-1.66 8.35 -2.32 6.7 -3 5 C-5.41645782 4.83312552 -5.41645782 4.83312552 -8 5 C-8.66 5.66 -9.32 6.32 -10 7 C-13.125 7.125 -13.125 7.125 -16 7 C-15.70926678 4.18957887 -15.18436938 3.16652718 -13.0625 1.25 C-8.75980912 -0.50620036 -4.55997351 -1.04227966 0 0 Z " fill="#FAF1F1" transform="translate(178,370)"/>
<path d="M0 0 C1.54300781 -0.05994141 1.54300781 -0.05994141 3.1171875 -0.12109375 C6.125 0.4375 6.125 0.4375 8.98828125 2.2890625 C12.10982011 6.88862433 11.67408984 10.83027272 11.4375 16.25 C11.41494141 17.22904297 11.39238281 18.20808594 11.36914062 19.21679688 C11.31039727 21.62527455 11.22832129 24.03059078 11.125 26.4375 C9.145 26.4375 7.165 26.4375 5.125 26.4375 C4.795 25.7775 4.465 25.1175 4.125 24.4375 C3.465 25.0975 2.805 25.7575 2.125 26.4375 C-2.40117472 27.11563768 -6.52299376 27.24226562 -10.5 24.875 C-12.43366253 21.4471437 -12.49699068 19.30766423 -11.875 15.4375 C-9.59505369 12.44998415 -7.77993721 11.58747555 -4.09375 10.9765625 C-1.35140295 10.71505002 1.37229429 10.53391701 4.125 10.4375 C3.795 8.7875 3.465 7.1375 3.125 5.4375 C0.20847826 5.27068891 0.20847826 5.27068891 -2.875 5.4375 C-3.535 6.0975 -4.195 6.7575 -4.875 7.4375 C-8 7.5625 -8 7.5625 -10.875 7.4375 C-8.79594348 1.36025787 -6.30334019 0.13361195 0 0 Z " fill="#FAF0F1" transform="translate(248.875,369.5625)"/>
<path d="M0 0 C3.3125 0.5 3.3125 0.5 5.3125 2.5 C5.6425 1.84 5.9725 1.18 6.3125 0.5 C7.3025 0.5 8.2925 0.5 9.3125 0.5 C9.3125 8.42 9.3125 16.34 9.3125 24.5 C7.3325 25.49 7.3325 25.49 5.3125 26.5 C5.3125 27.16 5.3125 27.82 5.3125 28.5 C-2.88006018 28.9726477 -2.88006018 28.9726477 -6.25 27 C-6.724375 26.505 -7.19875 26.01 -7.6875 25.5 C-7.3575 24.51 -7.0275 23.52 -6.6875 22.5 C-5.6975 22.5 -4.7075 22.5 -3.6875 22.5 C-3.3575 23.16 -3.0275 23.82 -2.6875 24.5 C-0.0475 24.5 2.5925 24.5 5.3125 24.5 C5.3125 22.52 5.3125 20.54 5.3125 18.5 C4.6525 19.16 3.9925 19.82 3.3125 20.5 C-0.3125 20.625 -0.3125 20.625 -3.6875 20.5 C-3.6875 19.84 -3.6875 19.18 -3.6875 18.5 C-4.6775 18.17 -5.6675 17.84 -6.6875 17.5 C-9.15972286 13.7916657 -9.46464029 10.79855723 -8.6875 6.5 C-6.74172361 2.37391167 -4.61737159 0.62608428 0 0 Z " fill="#FAE8E2" transform="translate(167.6875,432.5)"/>
<path d="M0 0 C1.98 0 3.96 0 6 0 C6.33 0.99 6.66 1.98 7 3 C7.60521484 2.27103516 7.60521484 2.27103516 8.22265625 1.52734375 C10.43123982 -0.37058191 11.55943962 -0.43264661 14.4375 -0.4375 C15.19933594 -0.45683594 15.96117188 -0.47617187 16.74609375 -0.49609375 C20.14139187 0.2512249 21.0894083 1.04569907 23 4 C23.49125016 7.76138608 23.37488228 11.46510622 23.25 15.25 C23.23195313 16.28125 23.21390625 17.3125 23.1953125 18.375 C23.14822712 20.91761064 23.0824805 23.45833162 23 26 C21.02 26 19.04 26 17 26 C16.97494385 25.42967041 16.9498877 24.85934082 16.92407227 24.27172852 C16.80843451 21.70173843 16.68556376 19.13214473 16.5625 16.5625 C16.52318359 15.66466797 16.48386719 14.76683594 16.44335938 13.84179688 C16.40146484 12.98779297 16.35957031 12.13378906 16.31640625 11.25390625 C16.27974854 10.46314697 16.24309082 9.6723877 16.20532227 8.85766602 C16.19436743 6.98598559 16.19436743 6.98598559 15 6 C12 5.83333333 12 5.83333333 9 6 C7.45049732 7.54950268 7.78344807 9.09990594 7.68359375 11.25390625 C7.64169922 12.10791016 7.59980469 12.96191406 7.55664062 13.84179688 C7.49766602 15.18854492 7.49766602 15.18854492 7.4375 16.5625 C7.39431641 17.46419922 7.35113281 18.36589844 7.30664062 19.29492188 C7.20021858 21.52978485 7.09820012 23.76476308 7 26 C4.69 26 2.38 26 0 26 C0 17.42 0 8.84 0 0 Z " fill="#FAF2F1" transform="translate(88,370)"/>
<path d="M0 0 C0.99 0 1.98 0 3 0 C3 8.58 3 17.16 3 26 C1.68 25.67 0.36 25.34 -1 25 C-1.66 25.66 -2.32 26.32 -3 27 C-7.05261287 27.34490322 -8.54754176 27.30163882 -12 25 C-12 24.34 -12 23.68 -12 23 C-12.66 23 -13.32 23 -14 23 C-15.49084832 18.52745503 -15.49084832 14.47254497 -14 10 C-13.34 10 -12.68 10 -12 10 C-12 9.34 -12 8.68 -12 8 C-11.34 8 -10.68 8 -10 8 C-10 7.34 -10 6.68 -10 6 C-7.36 6 -4.72 6 -2 6 C-1.67 6.66 -1.34 7.32 -1 8 C-0.67 5.36 -0.34 2.72 0 0 Z " fill="#FAE1D4" transform="translate(122,427)"/>
<path d="M0 0 C3.66072374 0.50441077 5.54969484 1.50254823 7.86328125 4.39453125 C7.86328125 5.38453125 7.86328125 6.37453125 7.86328125 7.39453125 C4.98828125 7.51953125 4.98828125 7.51953125 1.86328125 7.39453125 C1.20328125 6.73453125 0.54328125 6.07453125 -0.13671875 5.39453125 C-2.72026093 5.22765677 -2.72026093 5.22765677 -5.13671875 5.39453125 C-5.13671875 6.71453125 -5.13671875 8.03453125 -5.13671875 9.39453125 C-4.37746094 9.57628906 -3.61820313 9.75804687 -2.8359375 9.9453125 C-1.84207031 10.19667969 -0.84820312 10.44804687 0.17578125 10.70703125 C1.16191406 10.95066406 2.14804688 11.19429688 3.1640625 11.4453125 C5.91195023 12.41164639 7.15705776 13.06683563 8.86328125 15.39453125 C9.42578125 18.83203125 9.42578125 18.83203125 8.86328125 22.39453125 C5.94315098 25.55800571 4.1798574 26.22425407 -0.06640625 26.7734375 C-8.25196282 27.08364808 -8.25196282 27.08364808 -11.50390625 24.55078125 C-13.13671875 22.39453125 -13.13671875 22.39453125 -13.13671875 19.39453125 C-10.26171875 19.26953125 -10.26171875 19.26953125 -7.13671875 19.39453125 C-6.47671875 20.05453125 -5.81671875 20.71453125 -5.13671875 21.39453125 C-1.55327899 21.56130407 -1.55327899 21.56130407 1.86328125 21.39453125 C1.73934075 19.41505627 1.73934075 19.41505627 0.86328125 17.39453125 C-1.3221015 16.39525129 -1.3221015 16.39525129 -3.94921875 15.89453125 C-10.83798036 14.05161505 -10.83798036 14.05161505 -13.13671875 10.39453125 C-13.63671875 7.39453125 -13.63671875 7.39453125 -13.13671875 4.39453125 C-9.33320768 -0.54555842 -5.87062382 -0.19353705 0 0 Z " fill="#FAF2F1" transform="translate(130.13671875,369.60546875)"/>
<path d="M0 0 C3 1.625 3 1.625 5 5 C5.80569252 10.91078848 6.50389486 17.62510334 3.0625 22.8125 C0.06192893 25.99492386 0.06192893 25.99492386 -3.8125 26.3125 C-7.00451891 26.2781156 -7.81111803 26.13693943 -10.5 24.1875 C-12 22 -12 22 -12 19 C-11.01 19 -10.02 19 -9 19 C-8.34 19.99 -7.68 20.98 -7 22 C-3.91634129 22.2502157 -3.91634129 22.2502157 -1 22 C-0.01 19.69 0.98 17.38 2 15 C1.01 15.66 0.02 16.32 -1 17 C-4.99800164 17.60839155 -6.52201252 17.33251303 -9.875 15 C-12.81148802 10.85436985 -12.7152453 9.00671711 -12 4 C-9.19567451 -0.67387582 -5.06219495 -1.07258388 0 0 Z " fill="#FAEDEF" transform="translate(334,427)"/>
<path d="M0 0 C2.875 1.9375 2.875 1.9375 5 5 C5.84686971 9.41810328 5.49625112 12.91727029 3.625 17 C2 19 2 19 0 20 C-1.54023996 20.06950541 -3.08334988 20.08452357 -4.625 20.0625 C-5.85089844 20.04896484 -5.85089844 20.04896484 -7.1015625 20.03515625 C-7.72804687 20.02355469 -8.35453125 20.01195312 -9 20 C-9.66 18.35 -10.32 16.7 -11 15 C-11.66 15 -12.32 15 -13 15 C-13.78512397 6.99173554 -13.78512397 6.99173554 -10.625 3 C-6.84296538 0.11844981 -4.78264579 -0.56266421 0 0 Z " fill="#FAEBE7" transform="translate(194,433)"/>
<path d="M0 0 C7.53005244 8.23615591 5.31449863 26.39450067 5.26074219 36.99072266 C5.2500087 39.49796715 5.26071793 42.00449553 5.2734375 44.51171875 C5.30403477 76.92873468 5.30403477 76.92873468 -3.859375 87.0546875 C-7.86207659 90.79364518 -11.75906083 93.38740333 -17 95 C-19.4375 94.6875 -19.4375 94.6875 -21 94 C-20.360625 93.62875 -19.72125 93.2575 -19.0625 92.875 C-18.051875 92.25625 -17.04125 91.6375 -16 91 C-15.28714844 90.60941406 -14.57429687 90.21882813 -13.83984375 89.81640625 C-7.3284782 85.97915743 -4.89283018 81.85755725 -2 75 C-1.67 74.67 -1.34 74.34 -1 74 C1.24836463 66.26933855 1.27836051 58.53321976 1.23046875 50.546875 C1.23001053 49.28788391 1.22955231 48.02889282 1.2290802 46.73175049 C1.22607408 44.08599886 1.2193356 41.44060529 1.20581055 38.79492188 C1.1887527 35.41706054 1.18499902 32.03934882 1.18575573 28.66144943 C1.18541758 25.41490999 1.17657777 22.16840152 1.16796875 18.921875 C1.16629951 17.11236359 1.16629951 17.11236359 1.16459656 15.26629639 C1.15821671 14.13782288 1.15183685 13.00934937 1.14526367 11.84667969 C1.14145187 10.85980164 1.13764008 9.87292358 1.13371277 8.85614014 C0.99245964 5.83893584 0.55288972 2.96714446 0 0 Z " fill="#D0A7DB" transform="translate(181,89)"/>
<path d="M0 0 C1.98 0 3.96 0 6 0 C6 1.98 6 3.96 6 6 C7.65 6 9.3 6 11 6 C11 7.65 11 9.3 11 11 C9.35 11 7.7 11 6 11 C6.33 15.95 6.66 20.9 7 26 C8.32 26.33 9.64 26.66 11 27 C11 28.65 11 30.3 11 32 C3.47991846 32.36984008 3.47991846 32.36984008 1.390625 30.75976562 C-0.37220868 28.52898873 -0.34966133 27.3665129 -0.29296875 24.55078125 C-0.28330078 23.70322266 -0.27363281 22.85566406 -0.26367188 21.98242188 C-0.23853516 21.10134766 -0.21339844 20.22027344 -0.1875 19.3125 C-0.17396484 18.41982422 -0.16042969 17.52714844 -0.14648438 16.60742188 C-0.11114079 14.40433834 -0.06180493 12.20247418 0 10 C-1.32 10 -2.64 10 -4 10 C-4 8.68 -4 7.36 -4 6 C-2.68 6 -1.36 6 0 6 C0 4.02 0 2.04 0 0 Z " fill="#FAF7F6" transform="translate(146,364)"/>
<path d="M0 0 C2.31 0 4.62 0 7 0 C7 11.55 7 23.1 7 35 C4.69 35 2.38 35 0 35 C0 23.45 0 11.9 0 0 Z " fill="#F9EBEA" transform="translate(75,361)"/>
<path d="M0 0 C3.44347346 0.92335075 4.94574523 2.65638377 6.9375 5.51953125 C6.9375 7.49953125 6.9375 9.47953125 6.9375 11.51953125 C2.3175 11.51953125 -2.3025 11.51953125 -7.0625 11.51953125 C-6.4025 13.49953125 -5.7425 15.47953125 -5.0625 17.51953125 C-2.4225 17.51953125 0.2175 17.51953125 2.9375 17.51953125 C2.9375 16.85953125 2.9375 16.19953125 2.9375 15.51953125 C4.2575 15.51953125 5.5775 15.51953125 6.9375 15.51953125 C5.1875 19.39453125 5.1875 19.39453125 2.9375 20.51953125 C-0.46801807 20.98823496 -3.66552037 21.08386819 -7.0625 20.51953125 C-10.24335827 17.49014243 -11.28689088 14.80774453 -11.625 10.51953125 C-11.44562908 7.51072864 -10.78636625 5.49722376 -9.0625 3.01953125 C-5.72305318 0.2366589 -4.22250982 -0.34387864 0 0 Z " fill="#FAE8E1" transform="translate(149.0625,432.48046875)"/>
<path d="M0 0 C0.99 0.33 1.98 0.66 3 1 C2.071875 1.70125 1.14375 2.4025 0.1875 3.125 C-4.33926566 6.90442227 -6.05974163 11.27260282 -7 17 C-7.09249867 18.79221327 -7.13783677 20.58725263 -7.14526367 22.38183594 C-7.15164352 23.43352966 -7.15802338 24.48522339 -7.16459656 25.56878662 C-7.16570938 26.69593079 -7.1668222 27.82307495 -7.16796875 28.984375 C-7.17129715 30.15454163 -7.17462555 31.32470825 -7.17805481 32.53033447 C-7.18311344 35.00491951 -7.18546346 37.47951136 -7.18530273 39.95410156 C-7.18748386 43.722121 -7.20563648 47.48984504 -7.22460938 51.2578125 C-7.22754466 53.66666567 -7.22952855 56.07552023 -7.23046875 58.484375 C-7.23765427 59.60342224 -7.24483978 60.72246948 -7.25224304 61.87542725 C-7.2338571 68.23569872 -6.63117162 73.84704449 -5 80 C-8 79 -8 79 -8.93521118 77.17366028 C-11.0807674 70.03400353 -11.43739491 63.37564407 -11.3984375 55.94921875 C-11.40130768 54.73224808 -11.40417786 53.5152774 -11.40713501 52.26142883 C-11.40916561 49.70577526 -11.40370654 47.15010578 -11.39111328 44.59448242 C-11.3749764 40.68177795 -11.39103296 36.77009554 -11.41015625 32.85742188 C-11.408175 30.36718522 -11.40433379 27.87694921 -11.3984375 25.38671875 C-11.40451019 24.21896408 -11.41058289 23.05120941 -11.4168396 21.84806824 C-11.40738312 20.7595607 -11.39792664 19.67105316 -11.38818359 18.54956055 C-11.38579681 17.59599167 -11.38341003 16.64242279 -11.38095093 15.65995789 C-10.92597328 12.48311464 -9.86939368 10.58750985 -8 8 C-7.34 7.67 -6.68 7.34 -6 7 C-5.525625 6.195625 -5.05125 5.39125 -4.5625 4.5625 C-3 2 -3 2 0 0 Z " fill="#E6C9ED" transform="translate(90,85)"/>
<path d="M0 0 C3.375 -0.125 3.375 -0.125 7 0 C7.66 0.66 8.32 1.32 9 2 C9.66 1.34 10.32 0.68 11 0 C14.13319531 -0.34056471 16.28692419 -0.31947841 19.1796875 0.9765625 C22.07073016 4.19021078 21.4273532 7.52993183 21.25 11.6875 C21.23195312 12.48478516 21.21390625 13.28207031 21.1953125 14.10351562 C21.14822247 16.06952449 21.07647899 18.03491494 21 20 C19.68 20 18.36 20 17 20 C16.67 14.72 16.34 9.44 16 4 C14.35 4 12.7 4 11 4 C9.00383446 5.99616554 9.59016573 9.81701963 9.4375 12.5625 C9.39431641 13.27341797 9.35113281 13.98433594 9.30664062 14.71679688 C9.20028223 16.47761912 9.09961154 18.2387832 9 20 C8.01 20 7.02 20 6 20 C6 14.72 6 9.44 6 4 C4.02 4 2.04 4 0 4 C-1.99616554 5.99616554 -1.40983427 9.81701963 -1.5625 12.5625 C-1.60568359 13.27341797 -1.64886719 13.98433594 -1.69335938 14.71679688 C-1.79971777 16.47761912 -1.90038846 18.2387832 -2 20 C-2.99 20 -3.98 20 -5 20 C-5 13.73 -5 7.46 -5 1 C-4.34 1 -3.68 1 -3 1 C-3 1.66 -3 2.32 -3 3 C-2.34 3 -1.68 3 -1 3 C-0.67 2.01 -0.34 1.02 0 0 Z " fill="#FAF1EF" transform="translate(209,433)"/>
<path d="M0 0 C1.03833984 0.08314453 1.03833984 0.08314453 2.09765625 0.16796875 C3.9375 0.8125 3.9375 0.8125 5.17578125 2.37890625 C6.23801237 5.77259851 6.14887243 9.04780634 6.0625 12.5625 C6.05347656 13.25988281 6.04445312 13.95726562 6.03515625 14.67578125 C6.01169888 16.38816958 5.97583104 18.10038004 5.9375 19.8125 C5.31875 19.626875 4.7 19.44125 4.0625 19.25 C1.89589822 18.57563824 1.89589822 18.57563824 -0.0625 19.8125 C-6.31998503 20.26758982 -6.31998503 20.26758982 -9 18.625 C-10.46569823 16.12469126 -10.56102135 14.66119344 -10.0625 11.8125 C-7.60670543 8.82283704 -4.98245181 8.54689997 -1.3125 8.125 C0.10320961 8.00854647 1.51972818 7.90035338 2.9375 7.8125 C2.2775 6.4925 1.6175 5.1725 0.9375 3.8125 C-2.55484244 3.71271879 -5.65687148 4.03407062 -9.0625 4.8125 C-8.25 2.875 -8.25 2.875 -7.0625 0.8125 C-4.21239187 -0.13753604 -2.89440557 -0.28673551 0 0 Z " fill="#FAEEEE" transform="translate(244.0625,433.1875)"/>
<path d="M0 0 C1.98 0 3.96 0 6 0 C6.33 0.66 6.66 1.32 7 2 C7.66 1.34 8.32 0.68 9 0 C11.625 -0.125 11.625 -0.125 14 0 C14 1.65 14 3.3 14 5 C13.030625 5.309375 12.06125 5.61875 11.0625 5.9375 C8.15934208 6.69523342 8.15934208 6.69523342 7 8 C6.84417697 9.34015221 6.74955858 10.68758903 6.68359375 12.03515625 C6.64169922 12.84404297 6.59980469 13.65292969 6.55664062 14.48632812 C6.51732422 15.33646484 6.47800781 16.18660156 6.4375 17.0625 C6.39431641 17.91650391 6.35113281 18.77050781 6.30664062 19.65039062 C6.20023298 21.76672037 6.09958269 23.88333813 6 26 C4.02 26 2.04 26 0 26 C0 17.42 0 8.84 0 0 Z " fill="#FAF7F7" transform="translate(220,370)"/>
<path d="M0 0 C0.7734375 0.2165625 0.7734375 0.2165625 1.5625 0.4375 C4.68509571 1.15809901 7.82550692 1.57266439 11 2 C11 2.33 11 2.66 11 3 C7.7 3 4.4 3 1 3 C0.34 4.32 -0.32 5.64 -1 7 C-1.99 7.33 -2.98 7.66 -4 8 C-4.10853983 10.22808159 -4.18583307 12.45769932 -4.25 14.6875 C-4.29640625 15.92886719 -4.3428125 17.17023438 -4.390625 18.44921875 C-3.93376537 22.6020728 -3.01526743 24.15869031 0 27 C3.13945539 28.34270096 6.36848921 28.10275608 9.75 28.0625 C10.73484375 28.05347656 11.7196875 28.04445313 12.734375 28.03515625 C13.48203125 28.02355469 14.2296875 28.01195312 15 28 C14.67 29.32 14.34 30.64 14 32 C2.33806566 32.62289264 2.33806566 32.62289264 -2.625 30.3125 C-6.15490035 26.87549177 -7.83471722 24.36991129 -8.43359375 19.40625 C-8.43488281 18.1171875 -8.43617187 16.828125 -8.4375 15.5 C-8.45683594 14.2109375 -8.47617188 12.921875 -8.49609375 11.59375 C-7.93094881 7.49978664 -6.91326233 5.87018266 -4 3 C-1.75 2.1875 -1.75 2.1875 0 2 C0 1.34 0 0.68 0 0 Z " fill="#FAE7DA" transform="translate(82,428)"/>
<path d="M0 0 C1.98 0 3.96 0 6 0 C6.33 0.66 6.66 1.32 7 2 C8.32 1.34 9.64 0.68 11 0 C10.525625 0.5775 10.05125 1.155 9.5625 1.75 C7.21941459 5.12404299 6.88564597 8.28708058 6.68359375 12.328125 C6.64169922 13.12734375 6.59980469 13.9265625 6.55664062 14.75 C6.49766602 15.9875 6.49766602 15.9875 6.4375 17.25 C6.39431641 18.09046875 6.35113281 18.9309375 6.30664062 19.796875 C6.20091457 21.86440671 6.09998705 23.93218281 6 26 C4.02 26 2.04 26 0 26 C0 17.42 0 8.84 0 0 Z " fill="#FAF8F8" transform="translate(266,370)"/>
<path d="M0 0 C1.04994141 -0.01385742 2.09988281 -0.02771484 3.18164062 -0.04199219 C4.04611816 -0.05601074 4.9105957 -0.0700293 5.80126953 -0.08447266 C9.84674644 0.1842397 13.49503842 1.50123907 17.20507812 3.07519531 C17.20507812 3.73519531 17.20507812 4.39519531 17.20507812 5.07519531 C17.82382813 5.21957031 18.44257813 5.36394531 19.08007812 5.51269531 C21.20507812 6.07519531 21.20507812 6.07519531 23.20507812 7.07519531 C22.87507813 7.73519531 22.54507813 8.39519531 22.20507812 9.07519531 C21.60179687 8.79804687 20.99851562 8.52089844 20.37695312 8.23535156 C19.57773438 7.873125 18.77851563 7.51089844 17.95507812 7.13769531 C16.77171875 6.59822266 16.77171875 6.59822266 15.56445312 6.04785156 C11.63852814 4.42938249 8.27299449 3.9477988 4.02856445 3.92993164 C2.4809417 3.92036186 2.4809417 3.92036186 0.90205383 3.91059875 C-0.20837784 3.90948593 -1.31880951 3.90837311 -2.46289062 3.90722656 C-4.18696892 3.90223396 -4.18696892 3.90223396 -5.94587708 3.8971405 C-8.37935995 3.89207751 -10.81284976 3.88973198 -13.24633789 3.88989258 C-16.95080179 3.88771391 -20.65496409 3.8695728 -24.359375 3.85058594 C-26.72721253 3.84765025 -29.09505146 3.84566663 -31.46289062 3.84472656 C-32.56320114 3.83754105 -33.66351166 3.83035553 -34.79716492 3.82295227 C-41.11339672 3.84150361 -46.6834745 4.46001279 -52.79492188 6.07519531 C-50.30047314 2.33352222 -49.10938164 2.12492288 -44.79492188 1.07519531 C-41.75085763 0.76764316 -38.72013572 0.70378358 -35.66210938 0.66113281 C-34.7890213 0.64176666 -33.91593323 0.62240051 -33.01638794 0.60244751 C-30.23433056 0.54298421 -27.45222547 0.49653486 -24.66992188 0.45019531 C-22.82355042 0.41195877 -20.97719572 0.37290385 -19.13085938 0.33300781 C-14.77563925 0.24194465 -10.42044202 0.16914371 -6.06469727 0.10852051 C-4.04302579 0.07883801 -2.02149257 0.04005531 0 0 Z " fill="#CFABD9" transform="translate(145.794921875,78.9248046875)"/>
<path d="M0 0 C2.67548031 4.01322046 2.58740465 7.28373655 2 12 C0.5 14.5625 0.5 14.5625 -1 16 C-7.52464229 15.51669316 -7.52464229 15.51669316 -9.4375 13.4375 C-10.39948577 9.26889501 -11.01470806 4.91003869 -8.9375 1 C-5.87672462 -0.57975504 -3.36875585 -0.36750064 0 0 Z " fill="#F36565" transform="translate(205,375)"/>
<path d="M0 0 C0.78246094 -0.02578125 1.56492187 -0.0515625 2.37109375 -0.078125 C5.09232616 0.32933226 5.94168623 1.05984974 7.5625 3.25 C7.98348999 7.20730595 7.65315618 9.85268371 5.5625 13.25 C6.0575 13.62125 6.5525 13.9925 7.0625 14.375 C8.5625 16.25 8.5625 16.25 9.0625 19.1875 C8.5625 22.25 8.5625 22.25 6.5625 24.625 C2.44111107 26.857419 0.22496084 26.7680512 -4.4375 26.25 C-6.9375 24.9375 -6.9375 24.9375 -8.4375 23.25 C-8.4375 22.26 -8.4375 21.27 -8.4375 20.25 C-7.4475 20.25 -6.4575 20.25 -5.4375 20.25 C-5.1075 20.91 -4.7775 21.57 -4.4375 22.25 C-1.7975 22.25 0.8425 22.25 3.5625 22.25 C4.31207157 18.77852158 4.31207157 18.77852158 4.5625 15.25 C2.2525 14.92 -0.0575 14.59 -2.4375 14.25 C-2.4375 13.26 -2.4375 12.27 -2.4375 11.25 C-0.4575 10.59 1.5225 9.93 3.5625 9.25 C3.605221 7.58388095 3.60313832 5.91617115 3.5625 4.25 C2.51546435 2.99323161 2.51546435 2.99323161 0.1875 3 C-2.92340355 3.29627653 -3.4017575 4.02919 -5.4375 6.25 C-6.4275 6.25 -7.4175 6.25 -8.4375 6.25 C-6.57623854 1.06505736 -5.47464756 0.10787483 0 0 Z " fill="#FAF0F2" transform="translate(353.4375,426.75)"/>
<path d="M0 0 C1.32 0 2.64 0 4 0 C4.33 5.28 4.66 10.56 5 16 C6.65 16 8.3 16 10 16 C12.85793316 13.14206684 12.40799941 10.85334416 12.625 6.875 C12.69976562 5.59367187 12.77453125 4.31234375 12.8515625 2.9921875 C12.90054687 2.00476563 12.94953125 1.01734375 13 0 C13.99 0 14.98 0 16 0 C16 6.6 16 13.2 16 20 C15.01 20 14.02 20 13 20 C12.67 19.34 12.34 18.68 12 18 C11.34 18.66 10.68 19.32 10 20 C6.5625 20.375 6.5625 20.375 3 20 C0.14000813 17.47955055 -0.00347161 15.95389702 -0.29296875 12.109375 C-0.27314945 10.65595991 -0.23754845 9.20268833 -0.1875 7.75 C-0.17396484 7.00492187 -0.16042969 6.25984375 -0.14648438 5.4921875 C-0.11127204 3.66114584 -0.05746851 1.83047831 0 0 Z " fill="#F9DBDB" transform="translate(255,433)"/>
<path d="M0 0 C8.91 1.98 8.91 1.98 18 4 C18 4.66 18 5.32 18 6 C37.14 6 56.28 6 76 6 C76 6.33 76 6.66 76 7 C70.7127375 8.0875852 65.6164373 8.14501734 60.24609375 8.1328125 C59.30878922 8.13376923 58.37148468 8.13472595 57.40577698 8.13571167 C55.4247328 8.1363905 53.44368636 8.13455696 51.46264648 8.13037109 C48.47178979 8.12506088 45.48108617 8.13030432 42.49023438 8.13671875 C11.80269206 8.14968633 11.80269206 8.14968633 4 4 C2.68 2.68 1.36 1.36 0 0 Z " fill="#C38CD1" transform="translate(84,178)"/>
<path d="M0 0 C0.99 0 1.98 0 3 0 C3.64910154 1.58199631 4.29414694 3.16565724 4.9375 4.75 C5.29714844 5.63171875 5.65679687 6.5134375 6.02734375 7.421875 C6.85356576 9.61186104 7.49369943 11.71898271 8 14 C11.12283677 7.05216076 11.12283677 7.05216076 14 0 C14.99 0 15.98 0 17 0 C14.85638413 9.04455467 11.56670448 17.44683488 8 26 C5.69 26.33 3.38 26.66 1 27 C1 26.01 1 25.02 1 24 C2.32 23.67 3.64 23.34 5 23 C6.73442468 17.95530193 4.99565017 14.48674714 3.0625 9.8125 C0 2.1868071 0 2.1868071 0 0 Z " fill="#FAE9EA" transform="translate(289,433)"/>
<path d="M0 0 C4.3416211 3.51464566 5.75899623 7.86465477 6.36328125 13.21875 C6.67553659 21.42660471 5.50405677 27.13229828 1 34 C0.443125 34.9075 -0.11375 35.815 -0.6875 36.75 C-7.20516446 43.09151137 -14.18829725 46.14506149 -23.1875 46.0625 C-24.45980469 46.05347656 -25.73210937 46.04445312 -27.04296875 46.03515625 C-28.50669922 46.01775391 -28.50669922 46.01775391 -30 46 C-30 45.67 -30 45.34 -30 45 C-28.89205078 44.97873047 -28.89205078 44.97873047 -27.76171875 44.95703125 C-19.38356322 44.56314084 -11.29578892 43.15804819 -5.05078125 37.11328125 C-3.44037707 35.23930783 -3.44037707 35.23930783 -2.12109375 33.35546875 C-1.75113281 32.90816406 -1.38117188 32.46085937 -1 32 C-0.34 32 0.32 32 1 32 C1.22801811 28.64687204 1.42881968 25.29262928 1.625 21.9375 C1.68945312 20.99455078 1.75390625 20.05160156 1.8203125 19.08007812 C2.13197286 13.48967037 1.7679589 9.29712876 0 4 C0 2.68 0 1.36 0 0 Z " fill="#D4ABDE" transform="translate(152,112)"/>
<path d="M0 0 C1.9375 1.125 1.9375 1.125 3 3 C3.42030443 6.29238472 3.295454 8.33957342 1.9375 11.375 C0 13 0 13 -3.5 13.4375 C-7 13 -7 13 -8.9375 11.9375 C-10.6140629 8.88023824 -10.36528977 6.4093712 -10 3 C-7.77766882 -1.05248626 -4.20052866 -0.45005664 0 0 Z " fill="#F8F0FB" transform="translate(163,92)"/>
<path d="M0 0 C3.0625 0.3125 3.0625 0.3125 4.9375 1.3125 C6.74815793 4.53144743 6.70275229 7.76977068 6.0625 11.3125 C4.375 13.875 4.375 13.875 2.0625 15.3125 C-1.32904295 15.15099795 -2.52046757 14.72953243 -4.9375 12.3125 C-5.203125 10 -5.203125 10 -5.1875 7.3125 C-5.19265625 6.425625 -5.1978125 5.53875 -5.203125 4.625 C-4.78088977 0.94906979 -3.57729598 0.3805634 0 0 Z " fill="#F68163" transform="translate(189.9375,435.6875)"/>
<path d="M0 0 C1.8125 1.0625 1.8125 1.0625 3 3 C3.30540859 6.35949454 3.23408114 9.11049167 2.375 12.375 C0.29502726 14.83314961 -1.9029628 14.73069242 -5 15 C-7.56417383 12.43582617 -8.25787287 10.47083523 -8.375 6.9375 C-8 3 -8 3 -6.8125 1 C-4.33474158 -0.36703913 -2.78844081 -0.41826612 0 0 Z " fill="#F89462" transform="translate(119,436)"/>
<path d="M0 0 C2.85713143 1.37334385 3.95609399 2.52253817 6 5 C5.67 5.66 5.34 6.32 5 7 C4.236875 6.525625 3.47375 6.05125 2.6875 5.5625 C-2.4293996 2.58755837 -7.20531677 2.25312972 -13 3 C-18.02810108 4.91016447 -21.98494851 8.04776209 -24.37890625 12.91015625 C-26.04800553 18.52630791 -25.74890958 24.09368472 -23.625 29.5 C-22.42835889 31.34098632 -21.21796559 33.17305162 -20 35 C-22.65877957 34.63327178 -23.79835472 34.20911362 -25.6875 32.25 C-29.03608717 26.50956486 -29.3973612 18.35295142 -28 12 C-21.14434964 1.19773569 -12.24120568 -1.22542421 0 0 Z " fill="#CBA0D7" transform="translate(136,108)"/>
<path d="M0 0 C3.0625 0.375 3.0625 0.375 4.9375 2 C6.39736373 5.08193454 6.55464954 7.00026031 6.0625 10.375 C4.4375 12.8125 4.4375 12.8125 2.0625 14.375 C-1.125 14.25 -1.125 14.25 -3.9375 13.375 C-5.11423198 11.02153604 -5.10373866 9.4943967 -5.125 6.875 C-5.13917969 6.0809375 -5.15335938 5.286875 -5.16796875 4.46875 C-4.77723033 0.91899079 -3.38336304 0.43191869 0 0 Z " fill="#F78762" transform="translate(167.9375,435.625)"/>
<path d="M0 0 C-0.969375 0.474375 -1.93875 0.94875 -2.9375 1.4375 C-5.80477437 2.70193947 -5.80477437 2.70193947 -7 4 C-8.81055025 4.09376053 -10.62477201 4.1174411 -12.43774414 4.11352539 C-14.17943626 4.11341209 -14.17943626 4.11341209 -15.95631409 4.11329651 C-17.85159096 4.10555458 -17.85159096 4.10555458 -19.78515625 4.09765625 C-21.07111191 4.0962413 -22.35706757 4.09482635 -23.68199158 4.09336853 C-27.10643443 4.08954418 -30.53083509 4.07971462 -33.95526123 4.06866455 C-37.44738189 4.05844864 -40.93950934 4.05387053 -44.43164062 4.04882812 C-51.28777778 4.03809227 -58.14388687 4.02101684 -65 4 C-65 3.34 -65 2.68 -65 2 C-64.32650009 1.99191315 -63.65300018 1.98382629 -62.95909119 1.97549438 C-55.93453435 1.88928171 -48.91025428 1.78977076 -41.88598633 1.68261719 C-39.26624203 1.6443893 -36.64644635 1.60952573 -34.02661133 1.578125 C-30.25583564 1.53234059 -26.48541178 1.474367 -22.71484375 1.4140625 C-21.54791489 1.40251129 -20.38098602 1.39096008 -19.17869568 1.37905884 C-13.42908008 1.2752593 -5.09452292 -1.69817431 0 0 Z " fill="#E9BEF2" transform="translate(167,180)"/>
<path d="M0 0 C0.495 0.99 0.495 0.99 1 2 C0.34 2 -0.32 2 -1 2 C-1.226875 2.556875 -1.45375 3.11375 -1.6875 3.6875 C-4.841388 9.24435028 -9.1077729 12.12752062 -14.9921875 14.26171875 C-23.33919258 16.31052909 -31.43953542 16.48814334 -38.9375 12 C-40.31499817 11.03239153 -41.67946037 10.04400309 -43 9 C-41.68 8.67 -40.36 8.34 -39 8 C-38.67 8.66 -38.34 9.32 -38 10 C-35.61474402 10.56849102 -33.35841686 10.98973035 -30.9375 11.3125 C-30.2573584 11.40442627 -29.5772168 11.49635254 -28.87646484 11.59106445 C-23.30204189 12.21614006 -19.88173722 11.6361381 -15 9 C-14.67 8.67 -14.34 8.34 -14 8 C-12.33382885 7.95936168 -10.66611905 7.957279 -9 8 C-9 7.34 -9 6.68 -9 6 C-8.443125 5.938125 -7.88625 5.87625 -7.3125 5.8125 C-4.05012827 4.66626128 -2.31332126 2.50609803 0 0 Z " fill="#EAC8F1" transform="translate(152,142)"/>
<path d="M0 0 C6.15234375 0.5859375 6.15234375 0.5859375 8 1 C8.33 1.66 8.66 2.32 9 3 C28.14 3.33 47.28 3.66 67 4 C67 4.33 67 4.66 67 5 C57.8693187 5.86461801 48.79781014 6.15771237 39.63427734 6.13037109 C37.50220637 6.12500555 35.37034595 6.1303573 33.23828125 6.13671875 C11.58434066 6.14859591 11.58434066 6.14859591 4 4 C4 3.34 4 2.68 4 2 C2.68 2 1.36 2 0 2 C0 1.34 0 0.68 0 0 Z " fill="#FAE2FE" transform="translate(95,174)"/>
<path d="M0 0 C0.99 0.33 1.98 0.66 3 1 C2.071875 1.70125 1.14375 2.4025 0.1875 3.125 C-4.33926566 6.90442227 -6.05974163 11.27260282 -7 17 C-7.09249867 18.79221327 -7.13783677 20.58725263 -7.14526367 22.38183594 C-7.15164352 23.43352966 -7.15802338 24.48522339 -7.16459656 25.56878662 C-7.16570938 26.69593079 -7.1668222 27.82307495 -7.16796875 28.984375 C-7.17129715 30.15454163 -7.17462555 31.32470825 -7.17805481 32.53033447 C-7.18311344 35.00491951 -7.18546346 37.47951136 -7.18530273 39.95410156 C-7.18748386 43.722121 -7.20563648 47.48984504 -7.22460938 51.2578125 C-7.22754466 53.66666567 -7.22952855 56.07552023 -7.23046875 58.484375 C-7.23765427 59.60342224 -7.24483978 60.72246948 -7.25224304 61.87542725 C-7.2338571 68.23569872 -6.63117162 73.84704449 -5 80 C-5.99 79.67 -6.98 79.34 -8 79 C-9.07083854 75.78748438 -9.15272251 73.41391712 -9.19287109 70.03491211 C-9.20893402 68.80610825 -9.22499695 67.57730438 -9.24154663 66.31126404 C-9.25303919 64.96663104 -9.26364686 63.62199022 -9.2734375 62.27734375 C-9.27876118 61.59752504 -9.28408485 60.91770634 -9.28956985 60.21728706 C-9.31628608 56.61370091 -9.33565931 53.01014909 -9.35009766 49.40649414 C-9.36339219 46.43938052 -9.39116152 43.47296197 -9.43212891 40.50610352 C-9.48176885 36.91044401 -9.5062572 33.31541074 -9.51332474 29.71942329 C-9.52320473 27.69992274 -9.5573765 25.68058732 -9.59213257 23.66136169 C-9.5742657 15.81966676 -8.79559461 9.42918356 -4 3 C-2.01766968 1.17051697 -2.01766968 1.17051697 0 0 Z " fill="#C697D2" transform="translate(90,85)"/>
<path d="M0 0 C2.9375 0.875 2.9375 0.875 4.9375 3.875 C4.49305556 9.31944444 4.49305556 9.31944444 1.9375 11.875 C-1.625 11.625 -1.625 11.625 -5.0625 10.875 C-6.46185013 8.07629973 -6.31515405 5.97001208 -6.0625 2.875 C-4.31924047 -0.1272803 -3.48919154 -0.14241598 0 0 Z " fill="#F04769" transform="translate(331.0625,429.125)"/>
<path d="M0 0 C0.99 0 1.98 0 3 0 C3 8.58 3 17.16 3 26 C1.68 25.67 0.36 25.34 -1 25 C-1.99 25.33 -2.98 25.66 -4 26 C-4 25.01 -4 24.02 -4 23 C-3.34 22.67 -2.68 22.34 -2 22 C-1.07450564 19.22351692 -0.91759324 17.77538267 -1 14.9375 C-1.06619459 9.90671119 -0.58362674 4.992093 0 0 Z " fill="#FAF4F2" transform="translate(122,427)"/>
<path d="M0 0 C2.5 0.25 2.5 0.25 4.5 2.25 C5.05776892 8.38545817 5.05776892 8.38545817 3.25 11.1875 C1.5 12.25 1.5 12.25 -2.5 12.25 C-4.94897847 8.57653229 -4.81537716 6.58643601 -4.5 2.25 C-2.5 0.25 -2.5 0.25 0 0 Z " fill="#F89761" transform="translate(88.5,437.75)"/>
<path d="M0 0 C3.06213444 -0.20878189 5.35481671 -0.28572403 8.1875 0.96875 C11.06414721 4.19257877 10.42734711 7.53007451 10.25 11.6875 C10.23195312 12.48478516 10.21390625 13.28207031 10.1953125 14.10351562 C10.14822247 16.06952449 10.07647899 18.03491494 10 20 C8.68 20 7.36 20 6 20 C5.98582031 18.87980469 5.97164062 17.75960938 5.95703125 16.60546875 C5.91013006 15.13277131 5.86188266 13.66011632 5.8125 12.1875 C5.80379883 11.08051758 5.80379883 11.08051758 5.79492188 9.95117188 C5.74683485 7.50435338 5.74683485 7.50435338 5 4 C2.58799013 1.99203627 2.58799013 1.99203627 0 1 C0 0.67 0 0.34 0 0 Z " fill="#F9DAD6" transform="translate(220,433)"/>
<path d="M0 0 C0.91586866 2.5056784 1.07751859 3.74711149 0.28515625 6.33203125 C-3.43458352 13.87846815 -8.06379316 19.32183664 -15.75 23 C-18.82648611 23.94661111 -20.10271144 24.27480697 -23 23 C-22.0409375 22.443125 -22.0409375 22.443125 -21.0625 21.875 C-18.45691064 20.27974121 -15.87577829 18.66199657 -13.3125 17 C-12.54550781 16.505 -11.77851563 16.01 -10.98828125 15.5 C-8.7505389 13.98347806 -8.7505389 13.98347806 -7 11 C-6.34 11 -5.68 11 -5 11 C-4.731875 10.29875 -4.46375 9.5975 -4.1875 8.875 C-2.9318551 5.8350176 -1.49764877 2.9272226 0 0 Z " fill="#B980C9" transform="translate(183,160)"/>
<path d="M0 0 C0.99 0 1.98 0 3 0 C3.33 0.66 3.66 1.32 4 2 C4.66 1.34 5.32 0.68 6 0 C7.32 0 8.64 0 10 0 C10 0.99 10 1.98 10 3 C8.7934375 3.4640625 8.7934375 3.4640625 7.5625 3.9375 C5.10919595 4.76335345 5.10919595 4.76335345 4 6 C3.76472227 8.34987262 3.58613583 10.70556039 3.4375 13.0625 C3.35371094 14.35285156 3.26992188 15.64320313 3.18359375 16.97265625 C3.12300781 17.97167969 3.06242187 18.97070312 3 20 C2.01 20 1.02 20 0 20 C0 13.4 0 6.8 0 0 Z " fill="#FAEAEB" transform="translate(276,433)"/>
<path d="M0 0 C0.99 0 1.98 0 3 0 C3 6.6 3 13.2 3 20 C2.01 20 1.02 20 0 20 C-0.66 18.35 -1.32 16.7 -2 15 C-1.67 14.67 -1.34 14.34 -1 14 C-0.76472227 11.65012738 -0.58613583 9.29443961 -0.4375 6.9375 C-0.35371094 5.64714844 -0.26992188 4.35679687 -0.18359375 3.02734375 C-0.12300781 2.02832031 -0.06242187 1.02929688 0 0 Z " fill="#FAEAEA" transform="translate(268,433)"/>
<path d="M0 0 C-0.33 2.31 -0.66 4.62 -1 7 C-4.375 7.625 -4.375 7.625 -8 8 C-8.66 7.34 -9.32 6.68 -10 6 C-9.875 4 -9.875 4 -9 2 C-6.04454879 -0.11103658 -3.56144099 -0.19785783 0 0 Z " fill="#F47167" transform="translate(177,384)"/>
<path d="M0 0 C1 3 1 3 0.1015625 5.05078125 C-4.64864592 12.32689414 -10.62036581 17.34929939 -19 20 C-22.55078125 20.1953125 -22.55078125 20.1953125 -26.3125 20.125 C-27.56675781 20.10695312 -28.82101563 20.08890625 -30.11328125 20.0703125 C-31.06589844 20.04710937 -32.01851563 20.02390625 -33 20 C-33 19.67 -33 19.34 -33 19 C-32.26136719 18.98582031 -31.52273437 18.97164062 -30.76171875 18.95703125 C-22.38356322 18.56314084 -14.29578892 17.15804819 -8.05078125 11.11328125 C-6.44037707 9.23930783 -6.44037707 9.23930783 -5.12109375 7.35546875 C-4.75113281 6.90816406 -4.38117188 6.46085938 -4 6 C-3.34 6 -2.68 6 -2 6 C-1.855625 5.195625 -1.71125 4.39125 -1.5625 3.5625 C-1 1 -1 1 0 0 Z " fill="#BA82CA" transform="translate(155,138)"/>
<path d="M0 0 C7.54754258 0.52965211 12.64684775 2.37919013 18 8 C18.99 8.33 19.98 8.66 21 9 C21 9.99 21 10.98 21 12 C21.66 12 22.32 12 23 12 C23 13.98 23 15.96 23 18 C22.34 18 21.68 18 21 18 C19.95703125 16.4609375 19.95703125 16.4609375 18.8125 14.375 C14.14412756 6.68511537 8.63169297 3.23132199 0 1 C0 0.67 0 0.34 0 0 Z " fill="#802BB8" transform="translate(161,73)"/>
<path d="M0 0 C0.1875 2.875 0.1875 2.875 0 6 C-3.22373677 8.14915785 -4.26703674 8.38286803 -8 8 C-8.66 7.34 -9.32 6.68 -10 6 C-9.625 3.875 -9.625 3.875 -9 2 C-2.25 0 -2.25 0 0 0 Z " fill="#F15866" transform="translate(253,384)"/>
<path d="M0 0 C0.99 0 1.98 0 3 0 C3 6.6 3 13.2 3 20 C2.01 20 1.02 20 0 20 C0 13.4 0 6.8 0 0 Z " fill="#FAF4F1" transform="translate(131,433)"/>
<path d="M0 0 C0.36075949 4.44936709 0.36075949 4.44936709 -1.1875 6.8125 C-3.6135694 8.40199375 -5.15397406 8.36487512 -8 8 C-8.66 7.34 -9.32 6.68 -10 6 C-9.625 3.875 -9.625 3.875 -9 2 C-2.25 0 -2.25 0 0 0 Z " fill="#F5796F" transform="translate(247,443)"/>
<path d="M0 0 C3.125 0.25 3.125 0.25 5 1.5625 C6.125 3.25 6.125 3.25 6.125 6.25 C2.495 6.25 -1.135 6.25 -4.875 6.25 C-3.68915929 0.32079646 -3.68915929 0.32079646 0 0 Z " fill="#F7956F" transform="translate(146.875,435.75)"/>
<path d="M0 0 C0.7734375 0.2165625 0.7734375 0.2165625 1.5625 0.4375 C4.68509571 1.15809901 7.82550692 1.57266439 11 2 C11 2.33 11 2.66 11 3 C7.7 3 4.4 3 1 3 C0.34 4.32 -0.32 5.64 -1 7 C-1.99 7.33 -2.98 7.66 -4 8 C-4.33 8.66 -4.66 9.32 -5 10 C-5.99 10.66 -6.98 11.32 -8 12 C-7.7312159 8.05783322 -7.44655191 6.43510186 -4.5625 3.625 C-2 2 -2 2 0 2 C0 1.34 0 0.68 0 0 Z " fill="#F9D5C3" transform="translate(82,428)"/>
<path d="M0 0 C0.99 0 1.98 0 3 0 C3.66 0.99 4.32 1.98 5 3 C7.95769177 3.50010524 7.95769177 3.50010524 11 3 C12.87890434 1.62493901 12.87890434 1.62493901 14 0 C14.6875 1.8125 14.6875 1.8125 15 4 C14.0625 5.75 14.0625 5.75 12 7 C5.06312292 7.77076412 5.06312292 7.77076412 1.5 5.1875 C0 3 0 3 0 0 Z " fill="#F9E5E8" transform="translate(322,446)"/>
<path d="M0 0 C1.32 0 2.64 0 4 0 C4.33 0.66 4.66 1.32 5 2 C11.04520275 5.49278381 17.1107662 5.7755424 24 5 C24.99 4.34 25.98 3.68 27 3 C29.6875 2.875 29.6875 2.875 32 3 C25.45948353 8.18730617 17.9985915 7.88160828 10 7 C6.25604865 5.4787351 3.082056 3.61793463 0 1 C0 0.67 0 0.34 0 0 Z " fill="#D8ADE3" transform="translate(109,150)"/>
<path d="M0 0 C5.28 0 10.56 0 16 0 C16 0.99 16 1.98 16 3 C10.72 3 5.44 3 0 3 C0 2.01 0 1.02 0 0 Z " fill="#FAECEE" transform="translate(305,453)"/>
<path d="M0 0 C2.64 0 5.28 0 8 0 C8.66 1.32 9.32 2.64 10 4 C6.66666667 4 3.33333333 4 0 4 C-0.66 5.32 -1.32 6.64 -2 8 C-2.66 8 -3.32 8 -4 8 C-4 6.68 -4 5.36 -4 4 C-3.34 4 -2.68 4 -2 4 C-2 3.34 -2 2.68 -2 2 C-1.34 2 -0.68 2 0 2 C0 1.34 0 0.68 0 0 Z " fill="#FAF1ED" transform="translate(112,433)"/>
<path d="M0 0 C2 1.125 2 1.125 4 3 C4.49453975 6.32048116 4.30818153 8.31112364 2.9375 11.375 C0.06052441 13.78794727 -2.37659799 13.2734643 -6 13 C-4.60804085 10.2160817 -2.84424221 10.02101003 0 9 C0 6.03 0 3.06 0 0 Z " fill="#CDA5D9" transform="translate(162,92)"/>
<path d="M0 0 C0 1.32 0 2.64 0 4 C-0.928125 3.95875 -1.85625 3.9175 -2.8125 3.875 C-6.15809719 3.72863661 -6.15809719 3.72863661 -9 6 C-9.73606499 9.56769552 -9.73606499 9.56769552 -10 13 C-10.33 13 -10.66 13 -11 13 C-11.60552093 5.85485307 -11.60552093 5.85485307 -8.875 2 C-5.57244809 -0.29742742 -3.9354597 -0.45761159 0 0 Z " fill="#FAE0D3" transform="translate(92,435)"/>
<path d="M0 0 C0.66 0.33 1.32 0.66 2 1 C2.02694851 2.95825873 2.04637218 4.91662226 2.0625 6.875 C2.07410156 7.96554688 2.08570312 9.05609375 2.09765625 10.1796875 C2 13 2 13 1 15 C0.34 15 -0.32 15 -1 15 C-1.02685412 12.68756208 -1.04632841 10.3750373 -1.0625 8.0625 C-1.07410156 6.77472656 -1.08570312 5.48695313 -1.09765625 4.16015625 C-1 1 -1 1 0 0 Z " fill="#FCF0FE" transform="translate(74,145)"/>
<path d="M0 0 C0.66 0.33 1.32 0.66 2 1 C-2.43076923 6.78461538 -2.43076923 6.78461538 -5.3125 7.875 C-6.1478125 7.936875 -6.1478125 7.936875 -7 8 C-7 8.99 -7 9.98 -7 11 C-11.43076923 13.09230769 -11.43076923 13.09230769 -14.3125 12.625 C-14.869375 12.41875 -15.42625 12.2125 -16 12 C-15.0409375 11.443125 -15.0409375 11.443125 -14.0625 10.875 C-11.45691064 9.27974121 -8.87577829 7.66199657 -6.3125 6 C-5.54550781 5.505 -4.77851563 5.01 -3.98828125 4.5 C-1.7505389 2.98347806 -1.7505389 2.98347806 0 0 Z " fill="#CF9DDB" transform="translate(176,171)"/>
<path d="M0 0 C7.62951555 -0.34855655 13.92444501 -0.0017506 21 3 C21 3.66 21 4.32 21 5 C21.61875 5.144375 22.2375 5.28875 22.875 5.4375 C25 6 25 6 27 7 C26.67 7.66 26.34 8.32 26 9 C21.545 7.02 21.545 7.02 17 5 C17 4.34 17 3.68 17 3 C11.39 2.34 5.78 1.68 0 1 C0 0.67 0 0.34 0 0 Z " fill="#E2CBE9" transform="translate(142,79)"/>
<path d="M0 0 C0.33 0 0.66 0 1 0 C1.144375 1.093125 1.28875 2.18625 1.4375 3.3125 C1.88288104 6.93122987 1.88288104 6.93122987 3 10 C5.97 10.495 5.97 10.495 9 11 C9 11.33 9 11.66 9 12 C7.72125 12.061875 6.4425 12.12375 5.125 12.1875 C4.40570313 12.22230469 3.68640625 12.25710938 2.9453125 12.29296875 C2.30335937 12.19628906 1.66140625 12.09960938 1 12 C-1.69461986 7.95807022 -1.23200889 5.7948504 -1 1 C-0.67 0.67 -0.34 0.34 0 0 Z " fill="#FAF2ED" transform="translate(83,440)"/>
<path d="M0 0 C0.625 1.8125 0.625 1.8125 1 4 C0.01 5.485 0.01 5.485 -1 7 C-1.66 7 -2.32 7 -3 7 C-3.268125 7.61875 -3.53625 8.2375 -3.8125 8.875 C-5 11 -5 11 -8 13 C-8 9.47967572 -7.29648649 8.5614657 -5 6 C-4.34 6 -3.68 6 -3 6 C-2.814375 5.071875 -2.814375 5.071875 -2.625 4.125 C-2 2 -2 2 0 0 Z " fill="#F3DAF9" transform="translate(153,136)"/>
<path d="M0 0 C8.91 1.98 8.91 1.98 18 4 C18 4.33 18 4.66 18 5 C6.17525794 5.68881993 6.17525794 5.68881993 2.25 3.0625 C1.5075 2.381875 0.765 1.70125 0 1 C0 0.67 0 0.34 0 0 Z " fill="#DCAEE8" transform="translate(84,178)"/>
<path d="M0 0 C15.04584699 -0.86140345 15.04584699 -0.86140345 18.9375 2.5 C19.9584375 3.7375 19.9584375 3.7375 21 5 C20.67 5.66 20.34 6.32 20 7 C19.236875 6.525625 18.47375 6.05125 17.6875 5.5625 C15.03589452 3.89893903 15.03589452 3.89893903 12 3 C12 2.34 12 1.68 12 1 C8.04 1 4.08 1 0 1 C0 0.67 0 0.34 0 0 Z " fill="#DAB8E3" transform="translate(121,108)"/>
<path d="M0 0 C0.99 0.33 1.98 0.66 3 1 C2.071875 1.70125 1.14375 2.4025 0.1875 3.125 C-4.29773399 6.86974725 -6.15644572 11.26383087 -7 17 C-7.33 17 -7.66 17 -8 17 C-8.58737246 11.36122443 -7.47478243 8.41941219 -4.38671875 3.69921875 C-3 2 -3 2 0 0 Z " fill="#BF90CD" transform="translate(90,85)"/>
<path d="M0 0 C0.185625 0.61875 0.37125 1.2375 0.5625 1.875 C2.71437233 5.05602866 5.37533763 5.19451947 9 6 C8.67 6.66 8.34 7.32 8 8 C4.625 8.125 4.625 8.125 1 8 C-1 6 -1 6 -1.1875 3.4375 C-1 1 -1 1 0 0 Z " fill="#FAF8F7" transform="translate(236,445)"/>
<path d="M0 0 C0.33 0 0.66 0 1 0 C1 3.63 1 7.26 1 11 C0.01 11.33 -0.98 11.66 -2 12 C-2.05422947 10.5629191 -2.09289723 9.12524538 -2.125 7.6875 C-2.14820312 6.88699219 -2.17140625 6.08648437 -2.1953125 5.26171875 C-2 3 -2 3 0 0 Z " fill="#FAF1EB" transform="translate(76,437)"/>
<path d="M0 0 C0.33 0 0.66 0 1 0 C0.74319906 7.10054603 0.06612857 12.09755529 -4 18 C-4.33 17.01 -4.66 16.02 -5 15 C-4.566875 14.319375 -4.13375 13.63875 -3.6875 12.9375 C-1.33166192 8.83659667 -0.76370835 4.62717411 0 0 Z " fill="#ECC8F3" transform="translate(182,153)"/>
<path d="M0 0 C0.57234375 0.23589844 1.1446875 0.47179687 1.734375 0.71484375 C0.620625 1.36453125 0.620625 1.36453125 -0.515625 2.02734375 C-5.99339938 5.36125633 -5.99339938 5.36125633 -9.265625 10.71484375 C-9.595625 9.39484375 -9.925625 8.07484375 -10.265625 6.71484375 C-9.03009224 5.51229851 -7.77660161 4.32818143 -6.515625 3.15234375 C-5.81953125 2.49105469 -5.1234375 1.82976562 -4.40625 1.1484375 C-2.265625 -0.28515625 -2.265625 -0.28515625 0 0 Z " fill="#E1C9E7" transform="translate(93.265625,82.28515625)"/>
<path d="M0 0 C0.66 0 1.32 0 2 0 C2.33 2.64 2.66 5.28 3 8 C2.01 8.66 1.02 9.32 0 10 C0 6.7 0 3.4 0 0 Z " fill="#FAF2EE" transform="translate(101,437)"/>
<path d="M0 0 C0.95465783 2.16967689 1.14401212 3.56328793 0.3984375 5.82421875 C-0.35870385 7.5684743 -1.17609198 9.28627131 -2 11 C-2.99 11 -3.98 11 -5 11 C-3.55049545 7.2089881 -1.84827434 3.6125362 0 0 Z " fill="#C592D3" transform="translate(183,160)"/>
<path d="M0 0 C-0.33 1.32 -0.66 2.64 -1 4 C-2.32 4 -3.64 4 -5 4 C-5 3.34 -5 2.68 -5 2 C-6.65 2 -8.3 2 -10 2 C-10 1.67 -10 1.34 -10 1 C-3.375 0 -3.375 0 0 0 Z " fill="#FADECC" transform="translate(97,456)"/>
<path d="M0 0 C0.66 0 1.32 0 2 0 C2 2.97 2 5.94 2 9 C1.01 9.495 1.01 9.495 0 10 C-1.125 2.25 -1.125 2.25 0 0 Z " fill="#FAF7F5" transform="translate(93,436)"/>
<path d="M0 0 C0.66 0.33 1.32 0.66 2 1 C1.25 2.9375 1.25 2.9375 0 5 C-2.125 5.75 -2.125 5.75 -4 6 C-2.25 1.125 -2.25 1.125 0 0 Z " fill="#F9E3E8" transform="translate(349,427)"/>
<path d="M0 0 C2.64 0 5.28 0 8 0 C8.66 1.32 9.32 2.64 10 4 C6.13304322 4 3.4911548 2.58090029 0 1 C0 0.67 0 0.34 0 0 Z " fill="#F9E1D6" transform="translate(112,433)"/>
<path d="M0 0 C1.65 0 3.3 0 5 0 C5 1.32 5 2.64 5 4 C3.35 4 1.7 4 0 4 C0 2.68 0 1.36 0 0 Z " fill="#F9D5C8" transform="translate(130,426)"/>
<path d="M0 0 C0.99 0.495 0.99 0.495 2 1 C2.6328125 3.06640625 2.6328125 3.06640625 3.125 5.5625 C3.29257813 6.38878906 3.46015625 7.21507812 3.6328125 8.06640625 C3.75398438 8.70449219 3.87515625 9.34257812 4 10 C3.01 9.67 2.02 9.34 1 9 C0.67 6.03 0.34 3.06 0 0 Z " fill="#D8ACE3" transform="translate(81,155)"/>
<path d="M0 0 C1.32 0 2.64 0 4 0 C4 0.99 4 1.98 4 3 C2.02 3.66 0.04 4.32 -2 5 C-1.125 1.125 -1.125 1.125 0 0 Z " fill="#FAECED" transform="translate(282,433)"/>
<path d="M0 0 C3.99996286 1.33332095 4.83782337 3.4957827 7 7 C4.20171644 6.61402985 3.1794116 6.19863427 1.25 4.0625 C0 2 0 2 0 0 Z " fill="#E0BCEA" transform="translate(109,136)"/>
<path d="M0 0 C8.57142857 0.85714286 8.57142857 0.85714286 12 3 C11.34 3.66 10.68 4.32 10 5 C6.38058265 3.49760034 3.2678206 2.17854707 0 0 Z " fill="#874FCE" transform="translate(161,73)"/>
<path d="M0 0 C0.33 0.99 0.66 1.98 1 3 C0.67 3.33 0.34 3.66 0 4 C-0.23192865 5.51469448 -0.41215238 7.03754562 -0.5625 8.5625 C-0.64628906 9.38878906 -0.73007813 10.21507812 -0.81640625 11.06640625 C-0.87699219 11.70449219 -0.93757813 12.34257812 -1 13 C-1.33 13 -1.66 13 -2 13 C-2.05391993 11.20866022 -2.09275571 9.41686101 -2.125 7.625 C-2.14820312 6.62726563 -2.17140625 5.62953125 -2.1953125 4.6015625 C-2 2 -2 2 0 0 Z " fill="#BF8CCD" transform="translate(111,119)"/>
<path d="M0 0 C2.52259061 1.97420135 2.9929808 2.96745642 3.6875 6.1875 C3.790625 7.115625 3.89375 8.04375 4 9 C0 4.5 0 4.5 0 0 Z " fill="#DDBCE6" transform="translate(152,112)"/>
</svg>
