<?xml version="1.0" encoding="UTF-8"?>
<svg version="1.1" xmlns="http://www.w3.org/2000/svg" width="525" height="525">
<path d="M0 0 C173.25 0 346.5 0 525 0 C525 173.25 525 346.5 525 525 C351.75 525 178.5 525 0 525 C0 351.75 0 178.5 0 0 Z " fill="#2A66BD" transform="translate(0,0)"/>
<path d="M0 0 C6.86729528 5.45072316 9.88241733 10.87014148 11.7421875 19.3828125 C12.11478994 23.50826917 12.09418514 27.5949042 12.03515625 31.734375 C12.03091141 32.87441986 12.02666656 34.01446472 12.02229309 35.1890564 C12.00563084 38.79555863 11.96800145 42.40148193 11.9296875 46.0078125 C11.91462459 48.46743979 11.90093901 50.92707593 11.88867188 53.38671875 C11.85576807 59.38563642 11.80407215 65.38412664 11.7421875 71.3828125 C4.4821875 71.3828125 -2.7778125 71.3828125 -10.2578125 71.3828125 C-10.31388672 66.72285156 -10.31388672 66.72285156 -10.37109375 61.96875 C-10.41734344 58.95028764 -10.46856464 55.93194759 -10.52026367 52.91357422 C-10.55345799 50.82055126 -10.58150695 48.72743997 -10.60424805 46.63427734 C-10.63789481 43.62038638 -10.69021643 40.60730087 -10.74609375 37.59375 C-10.75248367 36.66227142 -10.7588736 35.73079285 -10.76545715 34.77108765 C-10.90228575 28.68484304 -11.76252466 24.26199078 -15.8828125 19.5078125 C-19.6275696 17.73398019 -23.19303344 17.85926314 -27.2578125 18.3828125 C-30.65733835 19.71306174 -31.88557426 20.80637402 -33.85864258 23.86181641 C-35.7105166 28.5220375 -35.7354302 32.62273649 -35.76953125 37.59375 C-35.78748245 38.56188629 -35.80543365 39.53002258 -35.82392883 40.52749634 C-35.87789045 43.60422477 -35.91188239 46.6807993 -35.9453125 49.7578125 C-35.97849803 51.85028176 -36.01298883 53.94273076 -36.04882812 56.03515625 C-36.13605412 61.1510621 -36.19624423 66.26627675 -36.2578125 71.3828125 C-43.1878125 71.3828125 -50.1178125 71.3828125 -57.2578125 71.3828125 C-57.2578125 47.6228125 -57.2578125 23.8628125 -57.2578125 -0.6171875 C-50.3278125 -0.6171875 -43.3978125 -0.6171875 -36.2578125 -0.6171875 C-35.9278125 2.0228125 -35.5978125 4.6628125 -35.2578125 7.3828125 C-34.5565625 6.6403125 -33.8553125 5.8978125 -33.1328125 5.1328125 C-24.5350066 -3.09117575 -10.85981962 -6.66503951 0 0 Z " fill="#D8E8FE" transform="translate(168.2578125,108.6171875)"/>
<path d="M0 0 C7.26 0 14.52 0 22 0 C22 23.76 22 47.52 22 72 C14.74 72 7.48 72 0 72 C0 48.24 0 24.48 0 0 Z " fill="#D4E6FE" transform="translate(74,108)"/>
<path d="M0 0 C1.98 0 3.96 0 6 0 C6 11.55 6 23.1 6 35 C4.02 35 2.04 35 0 35 C-0.33 34.34 -0.66 33.68 -1 33 C-1.66 33.66 -2.32 34.32 -3 35 C-6.05657695 35.57048096 -8.93921194 35.52863352 -12 35 C-15.28175318 32.47031526 -16.69243777 30.92268669 -18 27 C-18.98243341 16.74081833 -18.98243341 16.74081833 -16.125 12.375 C-13.93535942 9.92775464 -13.13060909 9.09070185 -9.90625 8.83203125 C-8.71515625 8.82236328 -8.71515625 8.82236328 -7.5 8.8125 C-6.7059375 8.79832031 -5.911875 8.78414063 -5.09375 8.76953125 C-3 9 -3 9 -1 11 C-0.67 7.37 -0.34 3.74 0 0 Z " fill="#F1F4F8" transform="translate(216,361)"/>
<path d="M0 0 C3.80285865 2.0090574 7.09334467 4.08076405 9 8 C9.57699515 12.26335307 9.49437222 15.82911842 7.8125 19.8125 C2.98235757 25.64198225 2.98235757 25.64198225 -1.3359375 26.421875 C-5.67612426 26.65647969 -8.98801371 26.53925103 -12.5 23.8125 C-15.90837051 19.97808318 -16.82261505 17.62602872 -17.375 12.5625 C-16.82551718 7.34241319 -14.73805264 4.4483772 -10.75 1.125 C-7.10441212 -0.36637686 -3.84486501 -0.68604454 0 0 Z " fill="#F4F8FD" transform="translate(89,72)"/>
<path d="M0 0 C4.45411364 2.1098433 7.19291449 4.38189258 9 9 C9.54268159 13.56757002 9.58008721 17.43177946 7.97265625 21.77734375 C6 24 6 24 2.34765625 24.62890625 C0.91910487 24.6328855 -0.50972616 24.60979421 -1.9375 24.5625 C-2.65357422 24.57345703 -3.36964844 24.58441406 -4.10742188 24.59570312 C-7.56364707 24.54765551 -9.64286823 24.25921767 -12.46484375 22.2109375 C-14.34142567 19.50827754 -14.6941525 17.25370755 -14.50390625 13.9765625 C-13.78763779 11.16701335 -12.26509118 9.44296128 -9.93359375 7.765625 C-6.20188014 6.28801719 -2.85596294 7.24049215 1 8 C1.33 12.29 1.66 16.58 2 21 C2.99 21.33 3.98 21.66 5 22 C5.82339648 14.30689326 5.82339648 14.30689326 3.95703125 7.05859375 C0.84507952 4.00139777 -1.51505248 3.03179984 -5.8125 2.75 C-9.64603185 2.79870186 -11.93908073 3.56926999 -15 6 C-17.36543381 9.54815071 -17.26923313 11.17256132 -17.25 15.375 C-17.25515625 16.49648438 -17.2603125 17.61796875 -17.265625 18.7734375 C-16.99994782 22.00063381 -16.6124033 24.19360186 -15 27 C-11.69395227 28.5696144 -7.84668813 28.09846688 -4.25 28.0625 C-3.07953125 28.05347656 -1.9090625 28.04445313 -0.703125 28.03515625 C0.18890625 28.02355469 1.0809375 28.01195312 2 28 C2 28.99 2 29.98 2 31 C-1.94650367 32.97325184 -6.69866713 32.44349901 -11 32 C-16.14853681 29.4257316 -19.182008 26.45397599 -21 21 C-21.66705142 15.88341241 -22.19908926 11.03405718 -19.5078125 6.46875 C-13.57995893 -0.31999516 -8.89793517 -0.83745272 0 0 Z " fill="#E4EAF3" transform="translate(95,428)"/>
<path d="M0 0 C3.2830753 1.80904149 4.52119876 3.13359775 6.3125 6.375 C7 9 7 9 7 15 C1.06 15 -4.88 15 -11 15 C-9.54711014 19.5841963 -9.54711014 19.5841963 -8 21 C-3.6590631 20.85841338 -3.6590631 20.85841338 0 19 C1.99958364 18.95919217 4.00045254 18.95745644 6 19 C4.5306305 23.65300343 4.5306305 23.65300343 2.26171875 25.13671875 C-2.04115293 26.77909292 -6.48486939 26.66990068 -11 26 C-14.3690455 23.45602687 -17.61359079 20.31845528 -18.3359375 15.984375 C-18.43868011 10.10749791 -17.42979376 6.80171126 -14 2 C-9.54038458 -0.97307695 -5.22922586 -0.62015709 0 0 Z " fill="#EAEFF6" transform="translate(187,370)"/>
<path d="M0 0 C1.98 0 3.96 0 6 0 C6 6.27 6 12.54 6 19 C6.66 19 7.32 19 8 19 C8.20625 18.46375 8.4125 17.9275 8.625 17.375 C10.57424818 14.00811678 12.7779648 11.22560445 16 9 C19.875 8.625 19.875 8.625 23 9 C22.60167969 9.44730469 22.20335937 9.89460938 21.79296875 10.35546875 C20.99826172 11.26232422 20.99826172 11.26232422 20.1875 12.1875 C19.66542969 12.77917969 19.14335937 13.37085938 18.60546875 13.98046875 C16.83473147 16.20789253 15.41729471 18.53569479 14 21 C15.0828125 22.39025391 15.0828125 22.39025391 16.1875 23.80859375 C17.1251261 25.01813142 18.06261926 26.22777216 19 27.4375 C19.47695312 28.04916016 19.95390625 28.66082031 20.4453125 29.29101562 C24 33.88671875 24 33.88671875 24 35 C18.97927461 35.88082902 18.97927461 35.88082902 16 35 C13.15152076 31.96517165 11.06006583 28.6051152 9 25 C8.34 25.33 7.68 25.66 7 26 C6.53348793 28.12576782 6.53348793 28.12576782 6.375 30.5625 C6.30023438 31.38878906 6.22546875 32.21507812 6.1484375 33.06640625 C6.09945312 33.70449219 6.05046875 34.34257812 6 35 C4.02 35 2.04 35 0 35 C0 23.45 0 11.9 0 0 Z " fill="#F4F6F8" transform="translate(144,361)"/>
<path d="M0 0 C0.33 0.33 0.66 0.66 1 1 C1.33 0.34 1.66 -0.32 2 -1 C2.99 -1 3.98 -1 5 -1 C5.14560195 2.72875388 5.23417043 6.45677434 5.3125 10.1875 C5.35439453 11.24259766 5.39628906 12.29769531 5.43945312 13.38476562 C5.56292764 21.21305013 5.56292764 21.21305013 2.703125 25.2109375 C-0.80297193 27.53144674 -2.86843654 27.52583535 -7 27 C-9.4375 26 -9.4375 26 -11 25 C-10.67 23.68 -10.34 22.36 -10 21 C-9.01 21.66 -8.02 22.32 -7 23 C-4.94290404 23.24055468 -4.94290404 23.24055468 -2.8125 23.125 C-1.554375 23.08375 -0.29625 23.0425 1 23 C1 21.02 1 19.04 1 17 C0.01 17.66 -0.98 18.32 -2 19 C-8.05970149 18.78358209 -8.05970149 18.78358209 -10.875 16.4375 C-12.45785064 13.00799028 -13.25977724 9.75955391 -13 6 C-9.39295696 -0.8409437 -7.3966857 -1.34485195 0 0 Z " fill="#E5EBF4" transform="translate(172,434)"/>
<path d="M0 0 C1.98 0 3.96 0 6 0 C6.33 0.66 6.66 1.32 7 2 C7.66 1.34 8.32 0.68 9 0 C10.98828125 -0.37109375 10.98828125 -0.37109375 13.3125 -0.4375 C14.07175781 -0.47746094 14.83101562 -0.51742188 15.61328125 -0.55859375 C19.44008729 0.33704171 20.73678453 1.79973392 23 5 C23.60086767 8.62641313 23.47239775 12.14961163 23.3125 15.8125 C23.28994141 16.79154297 23.26738281 17.77058594 23.24414062 18.77929688 C23.18539727 21.18777455 23.10332129 23.59309078 23 26 C21.02 26 19.04 26 17 26 C16.97494385 25.42967041 16.9498877 24.85934082 16.92407227 24.27172852 C16.80843451 21.70173843 16.68556376 19.13214473 16.5625 16.5625 C16.52318359 15.66466797 16.48386719 14.76683594 16.44335938 13.84179688 C16.40146484 12.98779297 16.35957031 12.13378906 16.31640625 11.25390625 C16.27974854 10.46314697 16.24309082 9.6723877 16.20532227 8.85766602 C16.19436743 6.98598559 16.19436743 6.98598559 15 6 C12.36 6 9.72 6 7 6 C6.67 12.6 6.34 19.2 6 26 C4.02 26 2.04 26 0 26 C0 17.42 0 8.84 0 0 Z " fill="#F5F7F9" transform="translate(115,370)"/>
<path d="M0 0 C1.98 0 3.96 0 6 0 C6.33 0.99 6.66 1.98 7 3 C7.40347656 2.5153125 7.80695313 2.030625 8.22265625 1.53125 C10.42214088 -0.3636906 11.566203 -0.46126412 14.4375 -0.5 C15.19933594 -0.5309375 15.96117187 -0.561875 16.74609375 -0.59375 C19 0 19 0 21.26953125 1.85546875 C23.81414949 6.47943643 23.43096923 10.63051566 23.25 15.8125 C23.23195313 16.79154297 23.21390625 17.77058594 23.1953125 18.77929688 C23.14832887 21.18720771 23.08265694 23.59309335 23 26 C21.02 26 19.04 26 17 26 C16.97494385 25.42967041 16.9498877 24.85934082 16.92407227 24.27172852 C16.80843451 21.70173843 16.68556376 19.13214473 16.5625 16.5625 C16.52318359 15.66466797 16.48386719 14.76683594 16.44335938 13.84179688 C16.40146484 12.98779297 16.35957031 12.13378906 16.31640625 11.25390625 C16.27974854 10.46314697 16.24309082 9.6723877 16.20532227 8.85766602 C16.19436743 6.98598559 16.19436743 6.98598559 15 6 C12.04182893 5.74994614 12.04182893 5.74994614 9 6 C6.64641749 8.35358251 6.72128096 8.92968394 6.5859375 12.1328125 C6.54726562 12.93847656 6.50859375 13.74414062 6.46875 14.57421875 C6.4378125 15.41597656 6.406875 16.25773437 6.375 17.125 C6.33632812 17.97449219 6.29765625 18.82398438 6.2578125 19.69921875 C6.16343506 21.79911684 6.08062414 23.89952891 6 26 C4.02 26 2.04 26 0 26 C0 17.42 0 8.84 0 0 Z " fill="#F5F6F9" transform="translate(242,370)"/>
<path d="M0 0 C0.99 0 1.98 0 3 0 C3 8.58 3 17.16 3 26 C2.01 26 1.02 26 0 26 C-0.33 25.34 -0.66 24.68 -1 24 C-1.66 24.66 -2.32 25.32 -3 26 C-6.71480543 26.41275616 -9.11461964 26.47674327 -12.4375 24.6875 C-14.98426115 20.30707083 -14.82930461 15.92490542 -14 11 C-11.9375 7.75 -11.9375 7.75 -9 6 C-2.79310345 6.20689655 -2.79310345 6.20689655 -1 8 C-0.67 5.36 -0.34 2.72 0 0 Z " fill="#EFF2F7" transform="translate(122,427)"/>
<path d="M0 0 C6.6 0 13.2 0 20 0 C19.34 1.32 18.68 2.64 18 4 C17.15695313 3.97679688 16.31390625 3.95359375 15.4453125 3.9296875 C14.34960938 3.91164063 13.25390625 3.89359375 12.125 3.875 C11.03445312 3.85179688 9.94390625 3.82859375 8.8203125 3.8046875 C5.8628949 3.69939466 5.8628949 3.69939466 4 6 C3.8359054 8.92562655 3.79330228 11.75560178 3.83984375 14.6796875 C3.84504532 15.56165802 3.85024689 16.44362854 3.85560608 17.35232544 C3.87345187 20.193382 3.90448849 23.03408222 3.9375 25.875 C3.9746915 29.55986958 4.00504383 33.24469724 4.02734375 36.9296875 C4.03572769 38.29344513 4.03572769 38.29344513 4.04428101 39.68475342 C4.06488606 49.14278549 3.57969051 58.56225416 3 68 C2.34 68 1.68 68 1 68 C-0.10976041 64.67071876 -0.12030895 62.19972643 -0.11352539 58.69262695 C-0.11344986 57.39150467 -0.11337433 56.09038239 -0.11329651 54.74983215 C-0.10818985 53.3293148 -0.10297385 51.90879783 -0.09765625 50.48828125 C-0.09579091 49.03525338 -0.09436756 47.58222489 -0.09336853 46.12919617 C-0.08955246 42.30693828 -0.07972993 38.48471845 -0.06866455 34.66247559 C-0.05843087 30.76131709 -0.05386671 26.86015243 -0.04882812 22.95898438 C-0.03810685 15.30597023 -0.02051741 7.6529953 0 0 Z " fill="#E6F0FC" transform="translate(74,108)"/>
<path d="M0 0 C1.98 0 3.96 0 6 0 C6 9.9 6 19.8 6 30 C10.95 30 15.9 30 21 30 C21 31.65 21 33.3 21 35 C14.07 35 7.14 35 0 35 C0 23.45 0 11.9 0 0 Z " fill="#F4F6F9" transform="translate(76,361)"/>
<path d="M0 0 C4.62966715 6.94450073 4.27108911 13.97404311 4.1953125 22.05859375 C4.1924826 23.20288345 4.18965271 24.34717316 4.18673706 25.52613831 C4.17558578 29.16336743 4.15049014 32.80034591 4.125 36.4375 C4.11496369 38.91080372 4.10583898 41.38411132 4.09765625 43.85742188 C4.07566292 49.90504377 4.0411676 55.95247946 4 62 C-3.26 62 -10.52 62 -18 62 C-18 61.34 -18 60.68 -18 60 C-14 57 -14 57 0 56 C0 37.52 0 19.04 0 0 Z " fill="#ABCAF5" transform="translate(176,118)"/>
<path d="M0 0 C0.66 0 1.32 0 2 0 C2 22.77 2 45.54 2 69 C-5.26 69 -12.52 69 -20 69 C-20 66.69 -20 64.38 -20 62 C-19.67 62.99 -19.34 63.98 -19 65 C-18.23429687 64.49339844 -18.23429687 64.49339844 -17.453125 63.9765625 C-14.05661117 62.62444712 -11.36991048 63.0398231 -7.75 63.375 C-6.48671875 63.48585937 -5.2234375 63.59671875 -3.921875 63.7109375 C-2.95765625 63.80632812 -1.9934375 63.90171875 -1 64 C-1.01160156 62.81535156 -1.02320312 61.63070312 -1.03515625 60.41015625 C-1.16058199 40.26560658 -0.54384353 20.1352283 0 0 Z " fill="#ABCBF6" transform="translate(94,111)"/>
<path d="M0 0 C6.6 0 13.2 0 20 0 C20 0.66 20 1.32 20 2 C16.31825638 3.84087181 11.93175819 3.46968405 7.87109375 3.71875 C5.10540179 3.68299798 5.10540179 3.68299798 4 5 C3.9357336 7.64216885 3.93081928 10.26092727 3.96484375 12.90234375 C4.02190588 21.69040608 3.87797278 30.46014034 3.62768555 39.24438477 C3.56163779 41.59316187 3.5023566 43.94205197 3.44335938 46.29101562 C3.24841562 53.56996835 2.9847014 60.77609816 2 68 C1.34 68 0.68 68 0 68 C0 45.56 0 23.12 0 0 Z " fill="#F6FAFE" transform="translate(111,108)"/>
<path d="M0 0 C2.31 0 4.62 0 7 0 C7 11.55 7 23.1 7 35 C4.69 35 2.38 35 0 35 C0 23.45 0 11.9 0 0 Z " fill="#E3EAF3" transform="translate(229,361)"/>
<path d="M0 0 C2.6796875 1.50390625 2.6796875 1.50390625 5 4 C5.37233017 6.96672677 5.4808246 9.31856241 5.3125 12.25 C5.28994141 12.99507813 5.26738281 13.74015625 5.24414062 14.5078125 C5.18543561 16.339409 5.09575757 18.16996653 5 20 C4.38125 19.814375 3.7625 19.62875 3.125 19.4375 C0.95839822 18.76313824 0.95839822 18.76313824 -1 20 C-7.25748503 20.45508982 -7.25748503 20.45508982 -9.9375 18.8125 C-11.38718434 16.33950907 -11.42317323 14.82115488 -11 12 C-9.29868896 9.7112656 -8.34097902 9.0703437 -5.51953125 8.48828125 C-4.62621094 8.43027344 -3.73289063 8.37226563 -2.8125 8.3125 C-1.91144531 8.24675781 -1.01039063 8.18101562 -0.08203125 8.11328125 C0.94857422 8.05720703 0.94857422 8.05720703 2 8 C1.34 6.68 0.68 5.36 0 4 C-3.3 4.33 -6.6 4.66 -10 5 C-7.33379412 -0.33241175 -5.7738804 -0.56606671 0 0 Z " fill="#EFF2F7" transform="translate(245,433)"/>
<path d="M0 0 C2.8125 1.5625 2.8125 1.5625 5 4 C5.8125 7.75 5.8125 7.75 6 11 C1.38 11 -3.24 11 -8 11 C-6.54711014 15.5841963 -6.54711014 15.5841963 -5 17 C-2.54190002 17.2500773 -2.54190002 17.2500773 0 17 C0.66 16.34 1.32 15.68 2 15 C2.99 15 3.98 15 5 15 C3.125 18.875 3.125 18.875 2 20 C-2.44100541 20.63056872 -5.87307209 20.82458139 -9.5625 18.125 C-11.60561759 13.68344003 -11.9055739 9.80347893 -11 5 C-7.92883052 0.48357429 -5.43434422 -1.01893954 0 0 Z " fill="#F0F3F7" transform="translate(150,433)"/>
<path d="M0 0 C0 3.96 0 7.92 0 12 C-0.66 11.34 -1.32 10.68 -2 10 C-2.99 11.485 -2.99 11.485 -4 13 C-4.66 13 -5.32 13 -6 13 C-6 13.99 -6 14.98 -6 16 C-9.14839906 16.34982212 -10.62023779 16.24633224 -13.3125 14.5 C-15.24336502 11.63945922 -15.7044145 9.4304788 -15.50390625 5.9765625 C-14.78763779 3.16701335 -13.26509118 1.44296128 -10.93359375 -0.234375 C-7.20188014 -1.71198281 -3.85596294 -0.75950785 0 0 Z " fill="#DDE6F2" transform="translate(96,436)"/>
<path d="M0 0 C3.10385613 0.09637265 3.10385613 0.09637265 6.5 -0.6875 C10 -1 10 -1 11.70043945 0.22973633 C13.26583259 2.36211763 13.35202777 3.39343545 13.29296875 6.01171875 C13.28330078 6.76904297 13.27363281 7.52636719 13.26367188 8.30664062 C13.23853516 9.09232422 13.21339844 9.87800781 13.1875 10.6875 C13.16719727 11.88342773 13.16719727 11.88342773 13.14648438 13.10351562 C13.11117089 15.06929967 13.05736447 17.03473582 13 19 C12.34 19 11.68 19 11 19 C10.93941406 17.92878906 10.87882812 16.85757812 10.81640625 15.75390625 C10.73201463 14.35675609 10.64736594 12.95962143 10.5625 11.5625 C10.52318359 10.85544922 10.48386719 10.14839844 10.44335938 9.41992188 C10.52375562 5.91309581 10.52375562 5.91309581 9 3 C6.5 2.83333333 6.5 2.83333333 4 3 C2.00383446 4.99616554 2.59016573 8.81701963 2.4375 11.5625 C2.39431641 12.27341797 2.35113281 12.98433594 2.30664062 13.71679688 C2.20028223 15.47761912 2.09961154 17.2387832 2 19 C1.01 19 0.02 19 -1 19 C-1.33 13.72 -1.66 8.44 -2 3 C-3.65 3 -5.3 3 -7 3 C-8.99616554 4.99616554 -8.40983427 8.81701963 -8.5625 11.5625 C-8.60568359 12.27341797 -8.64886719 12.98433594 -8.69335938 13.71679688 C-8.79971777 15.47761912 -8.90038846 17.2387832 -9 19 C-9.99 19 -10.98 19 -12 19 C-12 12.73 -12 6.46 -12 0 C-11.34 0 -10.68 0 -10 0 C-10 0.66 -10 1.32 -10 2 C-9.34 2 -8.68 2 -8 2 C-8 1.34 -8 0.68 -8 0 C-5.13411489 -1.43294255 -3.09628564 -0.56870553 0 0 Z " fill="#EEF2F7" transform="translate(216,434)"/>
<path d="M0 0 C2.4540092 1.42651754 3.99291752 2.94145387 6 5 C5.67 5.99 5.34 6.98 5 8 C4.525625 7.505 4.05125 7.01 3.5625 6.5 C-0.23835619 4.27510857 -3.69647988 4.44570045 -8 5 C-11.39952585 6.33024924 -12.62776176 7.42356152 -14.60083008 10.47900391 C-16.4527041 15.139225 -16.4776177 19.23992399 -16.51171875 24.2109375 C-16.52966995 25.17907379 -16.54762115 26.14721008 -16.56611633 27.14468384 C-16.62007795 30.22141227 -16.65406989 33.2979868 -16.6875 36.375 C-16.72068553 38.46746926 -16.75517633 40.55991826 -16.79101562 42.65234375 C-16.87579646 47.76811789 -16.94267528 52.88384751 -17 58 C-22.94 58 -28.88 58 -35 58 C-34.67 57.01 -34.34 56.02 -34 55 C-29.05 54.67 -24.1 54.34 -19 54 C-18.98541748 52.76435303 -18.97083496 51.52870605 -18.95581055 50.25561523 C-18.89762804 45.65018472 -18.82039655 41.04523294 -18.73754883 36.44018555 C-18.70439316 34.45100706 -18.67633235 32.46173661 -18.65356445 30.47241211 C-18.619846 27.60490916 -18.56752177 24.73824183 -18.51171875 21.87109375 C-18.50532883 20.98852402 -18.4989389 20.10595428 -18.49235535 19.19664001 C-18.3280621 12.22172106 -16.89140059 6.2990173 -12 1 C-7.93688224 -0.35437259 -4.24352212 -0.67838619 0 0 Z " fill="#7FADEC" transform="translate(149,122)"/>
<path d="M0 0 C2.31 0 4.62 0 7 0 C7 8.58 7 17.16 7 26 C4.69 26 2.38 26 0 26 C0 17.42 0 8.84 0 0 Z " fill="#DFE7F2" transform="translate(102,370)"/>
<path d="M0 0 C3.3378228 0.48676583 4.03168547 0.80732532 6 3.4375 C6.3984375 5.8125 6.3984375 5.8125 6.375 8.4375 C6.38273438 9.30375 6.39046875 10.17 6.3984375 11.0625 C5.92584138 13.87954351 5.28599151 14.76861887 3 16.4375 C0 16.875 0 16.875 -3 16.4375 C-5.21442221 14.66596223 -5.86894101 13.32578869 -6.28125 10.53125 C-6.42794999 7.25495032 -6.23033977 4.94936617 -4.875 1.9375 C-3 0.4375 -3 0.4375 0 0 Z " fill="#2765BB" transform="translate(210,374.5625)"/>
<path d="M0 0 C0.66 0.33 1.32 0.66 2 1 C1.54625 1.37125 1.0925 1.7425 0.625 2.125 C-3.6909439 7.10493526 -3.31971357 13.51525698 -3.37890625 19.73828125 C-3.39590073 20.65965378 -3.4128952 21.58102631 -3.43040466 22.53031921 C-3.48331551 25.45764422 -3.52376123 28.38495586 -3.5625 31.3125 C-3.60640284 34.25782867 -3.65301235 37.2030472 -3.70530701 40.14823914 C-3.73731843 41.97775457 -3.76419147 43.80736824 -3.78553772 45.63703918 C-3.88819663 51.88819663 -3.88819663 51.88819663 -5 53 C-8.21019977 53.2362647 -11.41273872 53.39660302 -14.62890625 53.51757812 C-16.42413939 53.60924224 -18.21385947 53.79759856 -20 54 C-20.33 54.66 -20.66 55.32 -21 56 C-21.99 56 -22.98 56 -24 56 C-24 54 -24 54 -22.94921875 52.41796875 C-18.65547073 49.29446067 -12.14723869 50.23611187 -7 50 C-7.00580078 49.16194824 -7.01160156 48.32389648 -7.01757812 47.46044922 C-7.05162128 38.66880493 -6.84397873 29.91040282 -6.5 21.125 C-6.45230469 19.85269531 -6.40460938 18.58039063 -6.35546875 17.26953125 C-6.23930559 14.17959133 -6.1207892 11.08976194 -6 8 C-5.34 8 -4.68 8 -4 8 C-3.896875 7.236875 -3.79375 6.47375 -3.6875 5.6875 C-2.95635961 2.82940576 -2.23048087 1.84257115 0 0 Z " fill="#ADCDF7" transform="translate(135,124)"/>
<path d="M0 0 C0.99 0 1.98 0 3 0 C4.65 4.29 6.3 8.58 8 13 C10.40804568 10.59195432 11.00768759 8.57796225 12.125 5.375 C12.47820312 4.37210937 12.83140625 3.36921875 13.1953125 2.3359375 C13.46085937 1.56507813 13.72640625 0.79421875 14 0 C14.99 0 15.98 0 17 0 C11.33318078 22.98977879 11.33318078 22.98977879 6 27 C3.3125 27.1875 3.3125 27.1875 1 27 C1 26.34 1 25.68 1 25 C2.65 24.67 4.3 24.34 6 24 C6.40939107 18.57556836 5.00096303 14.67128744 3 9.75 C0 2.20945946 0 2.20945946 0 0 Z " fill="#E7EDF4" transform="translate(289,433)"/>
<path d="M0 0 C2.69990662 1.79993774 4.5418865 3.083773 6 6 C6.3506291 11.34709374 6.44403637 14.62872307 3 19 C-0.22562656 20.61281328 -3.51182363 20.57906485 -7 20 C-9.90976129 17.81767904 -10.79527376 16.18936195 -11.41015625 12.6171875 C-11.6742089 8.08089835 -11.4743109 5.69751604 -8.875 1.875 C-5.46480804 -0.34903824 -3.99001861 -0.74812849 0 0 Z M-7.9375 5.0625 C-9.30258643 8.83656247 -9.00096139 11.13914892 -8 15 C-6.97578739 17.10938785 -6.97578739 17.10938785 -5 18 C-1.91004903 18.08223366 -1.91004903 18.08223366 1 17 C3.0829282 14.53835758 3.02870107 12.6728078 3.3125 9.4375 C3.25506161 6.12562343 3.25506161 6.12562343 1.875 4.0625 C-1.88091661 1.93414726 -4.94323148 1.87505286 -7.9375 5.0625 Z " fill="#F1F4F8" transform="translate(193,433)"/>
<path d="M0 0 C2.52222236 2.2613028 2.96098598 3.62546543 3.3125 7 C2.81541802 11.77198697 2.81541802 11.77198697 1 14 C-2.125 14.75 -2.125 14.75 -5 15 C-7.56417383 12.43582617 -8.25787287 10.47083523 -8.375 6.9375 C-8 3 -8 3 -6.8125 1 C-4.30538007 -0.38323858 -2.8180173 -0.49315303 0 0 Z " fill="#2563B9" transform="translate(119,436)"/>
<path d="M0 0 C3.0625 0.375 3.0625 0.375 4.9375 2 C6.39736373 5.08193454 6.55464954 7.00026031 6.0625 10.375 C4.4375 12.8125 4.4375 12.8125 2.0625 14.375 C-1.125 14.25 -1.125 14.25 -3.9375 13.375 C-5.11423198 11.02153604 -5.10373866 9.4943967 -5.125 6.875 C-5.13917969 6.0809375 -5.15335938 5.286875 -5.16796875 4.46875 C-4.77723033 0.91899079 -3.38336304 0.43191869 0 0 Z " fill="#2764BA" transform="translate(167.9375,435.625)"/>
<path d="M0 0 C2.42666188 1.74416323 3.83891029 3.09111488 4.37109375 6.09375 C4.54903061 12.37387456 3.11987567 15.62316971 -1.0625 20.3125 C-5.33889135 22.76915035 -9.18255145 22.92968305 -14 22 C-16.50496783 20.57211893 -17.9861291 19.1198641 -20 17 C-19.34 16.67 -18.68 16.34 -18 16 C-17.34 16.33 -16.68 16.66 -16 17 C-14.29636178 17.22622081 -12.58671299 17.40888473 -10.875 17.5625 C-9.96492188 17.64628906 -9.05484375 17.73007813 -8.1171875 17.81640625 C-7.41851562 17.87699219 -6.71984375 17.93757813 -6 18 C-6 17.34 -6 16.68 -6 16 C-5.01 15.67 -4.02 15.34 -3 15 C-0.74470761 12.70790797 -0.04480822 11.42776918 0.29296875 8.203125 C0.24076172 6.74132812 0.24076172 6.74132812 0.1875 5.25 C0.16042969 4.26515625 0.13335937 3.2803125 0.10546875 2.265625 C0.05326172 1.14414063 0.05326172 1.14414063 0 0 Z " fill="#C9DCF6" transform="translate(94,76)"/>
<path d="M0 0 C0.99 0 1.98 0 3 0 C3 6.6 3 13.2 3 20 C2.01 20 1.02 20 0 20 C-0.33 19.34 -0.66 18.68 -1 18 C-1.66 18.66 -2.32 19.32 -3 20 C-6.5 20.25 -6.5 20.25 -10 20 C-12 18 -12 18 -12.1953125 14.0859375 C-12.18200376 12.51550649 -12.15813602 10.94513779 -12.125 9.375 C-12.11597656 8.57320313 -12.10695312 7.77140625 -12.09765625 6.9453125 C-12.07406223 4.96341477 -12.03819065 2.98167019 -12 1 C-11.34 1 -10.68 1 -10 1 C-9.93941406 1.99902344 -9.87882812 2.99804688 -9.81640625 4.02734375 C-9.73261719 5.31769531 -9.64882813 6.60804688 -9.5625 7.9375 C-9.48128906 9.22527344 -9.40007812 10.51304687 -9.31640625 11.83984375 C-9.35080812 14.86023957 -9.35080812 14.86023957 -8 16 C-5.69 16 -3.38 16 -1 16 C-0.67 10.72 -0.34 5.44 0 0 Z " fill="#EFF3F7" transform="translate(268,433)"/>
<path d="M0 0 C0.33 0 0.66 0 1 0 C1 22.77 1 45.54 1 69 C-5.27 69 -11.54 69 -18 69 C-17.67 68.01 -17.34 67.02 -17 66 C-11.39 66 -5.78 66 0 66 C0 44.22 0 22.44 0 0 Z " fill="#8FB8F0" transform="translate(95,111)"/>
<path d="M0 0 C0.33 0 0.66 0 1 0 C1 17.16 1 34.32 1 52 C-5.27 52 -11.54 52 -18 52 C-17.67 51.01 -17.34 50.02 -17 49 C-9.08 48.505 -9.08 48.505 -1 48 C-0.67 32.16 -0.34 16.32 0 0 Z " fill="#7DABEB" transform="translate(179,128)"/>
<path d="M0 0 C0.33 0 0.66 0 1 0 C2.27094104 8.19472431 1.96998484 16.30945327 1.703125 24.56542969 C1.62519316 26.99398061 1.55793976 29.42265444 1.4921875 31.8515625 C1.27801816 39.27381529 1.00595555 46.63435934 0 54 C-0.66 54 -1.32 54 -2 54 C-2.02886338 49.52084672 -2.04675187 45.04171709 -2.0625 40.5625 C-2.07087891 39.28310547 -2.07925781 38.00371094 -2.08789062 36.68554688 C-2.09111328 35.47060547 -2.09433594 34.25566406 -2.09765625 33.00390625 C-2.10289307 31.87799072 -2.10812988 30.7520752 -2.11352539 29.59204102 C-2 27 -2 27 -1 26 C-0.84193469 24.07521187 -0.748865 22.1450079 -0.68359375 20.21484375 C-0.64169922 19.04501953 -0.59980469 17.87519531 -0.55664062 16.66992188 C-0.49766602 14.82237305 -0.49766602 14.82237305 -0.4375 12.9375 C-0.39431641 11.70193359 -0.35113281 10.46636719 -0.30664062 9.19335938 C-0.20015802 6.12902665 -0.09814576 3.06460927 0 0 Z " fill="#EAF4FE" transform="translate(113,122)"/>
<path d="M0 0 C2.5 0.25 2.5 0.25 4.5 2.25 C5.05776892 8.38545817 5.05776892 8.38545817 3.25 11.1875 C1.5 12.25 1.5 12.25 -2.5 12.25 C-4.94897847 8.57653229 -4.81537716 6.58643601 -4.5 2.25 C-2.5 0.25 -2.5 0.25 0 0 Z " fill="#2764BA" transform="translate(88.5,437.75)"/>
<path d="M0 0 C6.27 0 12.54 0 19 0 C18.34 1.32 17.68 2.64 17 4 C16.15695313 3.97679688 15.31390625 3.95359375 14.4453125 3.9296875 C13.34960938 3.91164063 12.25390625 3.89359375 11.125 3.875 C10.03445312 3.85179688 8.94390625 3.82859375 7.8203125 3.8046875 C4.8628949 3.69939466 4.8628949 3.69939466 3 6 C2.5342637 8.55867474 2.16515752 11.04687908 1.875 13.625 C1.78863281 14.33140625 1.70226562 15.0378125 1.61328125 15.765625 C1.40118817 17.50950141 1.19959009 19.2546484 1 21 C0.67 21 0.34 21 0 21 C0 14.07 0 7.14 0 0 Z " fill="#F7FBFE" transform="translate(75,108)"/>
<path d="M0 0 C0.99 0 1.98 0 3 0 C3.33 0.66 3.66 1.32 4 2 C4.66 1.34 5.32 0.68 6 0 C7.32 0 8.64 0 10 0 C10 0.99 10 1.98 10 3 C8.7934375 3.4640625 8.7934375 3.4640625 7.5625 3.9375 C5.10919595 4.76335345 5.10919595 4.76335345 4 6 C3.76472227 8.34987262 3.58613583 10.70556039 3.4375 13.0625 C3.35371094 14.35285156 3.26992188 15.64320313 3.18359375 16.97265625 C3.12300781 17.97167969 3.06242187 18.97070312 3 20 C2.01 20 1.02 20 0 20 C0 13.4 0 6.8 0 0 Z " fill="#E4EBF4" transform="translate(276,433)"/>
<path d="M0 0 C1.32229189 2.64458379 1.09677194 4.67761301 1.0625 7.625 C1.05347656 8.62789063 1.04445312 9.63078125 1.03515625 10.6640625 C1.02355469 11.43492187 1.01195312 12.20578125 1 13 C3.64 13 6.28 13 9 13 C9 13.99 9 14.98 9 16 C5.8125 16.8125 5.8125 16.8125 2 17 C-0.94945201 15.01232582 -2.51654698 13.4305686 -3.66796875 10.0234375 C-4.0625 7.9375 -4.0625 7.9375 -4 4 C-2.0625 1.5 -2.0625 1.5 0 0 Z " fill="#DBE4F1" transform="translate(163,436)"/>
<path d="M0 0 C3.83473284 -0.35671933 5.55342875 -0.29771416 8.8125 1.875 C11.82441589 4.80086115 11.96788462 5.5102405 12.25 9.8125 C12.20140168 13.63093937 11.47167222 15.97906729 9 19 C8.01 19.33 7.02 19.66 6 20 C6.33 18.989375 6.66 17.97875 7 16.9375 C8.05672561 13.2238643 8.30366444 9.87172164 8 6 C6.15811388 3.94729537 6.15811388 3.94729537 4 3 C2 2 2 2 0 0 Z " fill="#E9EEF5" transform="translate(187,433)"/>
<path d="M0 0 C0.99 0 1.98 0 3 0 C3 6.6 3 13.2 3 20 C2.01 20 1.02 20 0 20 C-0.95946595 15.38034912 -0.96102244 11.31870875 -0.5625 6.625 C-0.46066406 5.37976563 -0.35882813 4.13453125 -0.25390625 2.8515625 C-0.17011719 1.91054688 -0.08632813 0.96953125 0 0 Z " fill="#E5EBF4" transform="translate(268,433)"/>
<path d="M0 0 C0.99 0 1.98 0 3 0 C3 6.6 3 13.2 3 20 C2.01 20 1.02 20 0 20 C0 13.4 0 6.8 0 0 Z " fill="#EDF1F6" transform="translate(131,433)"/>
<path d="M0 0 C0.33 0 0.66 0 1 0 C1.57007576 9.69128788 1.57007576 9.69128788 -2 14 C-4.34288937 16.62687596 -5.95184402 17.86608733 -9.4765625 18.31640625 C-12.04976555 18.37202303 -14.4543861 18.38747397 -17 18 C-17.66 17.34 -18.32 16.68 -19 16 C-17.78763672 16.01353516 -17.78763672 16.01353516 -16.55078125 16.02734375 C-10.39200569 16.08766761 -10.39200569 16.08766761 -5.16015625 13.375 C-4.01130717 11.64299652 -2.99523979 9.82460627 -2 8 C-1.34 8 -0.68 8 0 8 C0 5.36 0 2.72 0 0 Z " fill="#80ACEA" transform="translate(97,80)"/>
<path d="M0 0 C0.36075949 4.44936709 0.36075949 4.44936709 -1.1875 6.8125 C-3.6135694 8.40199375 -5.15397406 8.36487512 -8 8 C-8.66 7.34 -9.32 6.68 -10 6 C-9.625 3.875 -9.625 3.875 -9 2 C-2.25 0 -2.25 0 0 0 Z " fill="#366FBE" transform="translate(247,443)"/>
<path d="M0 0 C0.33 0 0.66 0 1 0 C1 7.92 1 15.84 1 24 C-4.28 24 -9.56 24 -15 24 C-15.33 25.32 -15.66 26.64 -16 28 C-16.99 28 -17.98 28 -19 28 C-19 25.69 -19 23.38 -19 21 C-18.67 21.99 -18.34 22.98 -18 24 C-17.48953125 23.66226563 -16.9790625 23.32453125 -16.453125 22.9765625 C-11.38169808 20.95768235 -5.2839258 22.51074761 0 23 C0 15.41 0 7.82 0 0 Z " fill="#B8D6FA" transform="translate(93,152)"/>
<path d="M0 0 C3.125 0.25 3.125 0.25 5 1.5625 C6.125 3.25 6.125 3.25 6.125 6.25 C2.495 6.25 -1.135 6.25 -4.875 6.25 C-3.68915929 0.32079646 -3.68915929 0.32079646 0 0 Z " fill="#3971C0" transform="translate(146.875,435.75)"/>
<path d="M0 0 C5.94 0 11.88 0 18 0 C18 0.99 18 1.98 18 3 C11.73 3 5.46 3 -1 3 C-0.67 2.01 -0.34 1.02 0 0 Z " fill="#70A3E8" transform="translate(78,177)"/>
<path d="M0 0 C0.33 0 0.66 0 1 0 C1.02486762 4.42911406 1.04293889 8.85819025 1.05493164 13.28735352 C1.05993555 14.7915925 1.06674073 16.29582668 1.07543945 17.80004883 C1.08767884 19.97218009 1.09326786 22.14424659 1.09765625 24.31640625 C1.10289307 25.62037354 1.10812988 26.92434082 1.11352539 28.26782227 C1.00145975 31.95201033 0.59374786 35.36971466 0 39 C-0.66 39 -1.32 39 -2 39 C-2.02687279 37.18757948 -2.04633715 35.37504767 -2.0625 33.5625 C-2.07410156 32.55316406 -2.08570313 31.54382813 -2.09765625 30.50390625 C-2 28 -2 28 -1 27 C-0.84174742 25.00217874 -0.74880829 22.99911166 -0.68359375 20.99609375 C-0.64169922 19.78115234 -0.59980469 18.56621094 -0.55664062 17.31445312 C-0.51732422 16.03505859 -0.47800781 14.75566406 -0.4375 13.4375 C-0.39431641 12.15423828 -0.35113281 10.87097656 -0.30664062 9.54882812 C-0.200152 6.36600147 -0.09814038 3.18309326 0 0 Z " fill="#E7F3FE" transform="translate(160,137)"/>
<path d="M0 0 C2.4375 0.75 2.4375 0.75 4.4375 2.75 C4.4375 3.74 4.4375 4.73 4.4375 5.75 C0.8075 5.75 -2.8225 5.75 -6.5625 5.75 C-5.47734541 1.40938165 -4.74860253 -0.4632783 0 0 Z " fill="#2B67BC" transform="translate(182.5625,374.25)"/>
<path d="M0 0 C3.3125 1 3.3125 1 5.3125 4 C1.97916667 4 -1.35416667 4 -4.6875 4 C-5.0175 6.97 -5.3475 9.94 -5.6875 13 C-6.0175 13 -6.3475 13 -6.6875 13 C-6.831875 12.236875 -6.97625 11.47375 -7.125 10.6875 C-7.6507594 7.91827092 -7.6507594 7.91827092 -8.6875 5 C-4.66310976 0 -4.66310976 0 0 0 Z " fill="#DFE7F2" transform="translate(116.6875,433)"/>
<path d="M0 0 C0.33 0 0.66 0 1 0 C1 2.97 1 5.94 1 9 C-0.14339844 9.04898438 -1.28679687 9.09796875 -2.46484375 9.1484375 C-3.95575473 9.22345189 -5.44663892 9.29900028 -6.9375 9.375 C-8.06961914 9.42140625 -8.06961914 9.42140625 -9.22460938 9.46875 C-11.15507395 9.5726315 -13.07942081 9.77895614 -15 10 C-15.33 10.66 -15.66 11.32 -16 12 C-16.99 12 -17.98 12 -19 12 C-19 10 -19 10 -17.453125 8.41796875 C-14.17551865 6.52342878 -11.51351205 6.48673667 -7.75 6.3125 C-6.48671875 6.24675781 -5.2234375 6.18101562 -3.921875 6.11328125 C-2.47554687 6.05720703 -2.47554687 6.05720703 -1 6 C-0.67 4.02 -0.34 2.04 0 0 Z " fill="#ABCDF8" transform="translate(177,168)"/>
<path d="M0 0 C3.875 0.875 3.875 0.875 5 2 C5.07325168 4.86267567 5.09238205 7.700719 5.0625 10.5625 C5.05798828 11.36880859 5.05347656 12.17511719 5.04882812 13.00585938 C5.03700518 15.00393756 5.01906914 17.00197783 5 19 C4.34 19 3.68 19 3 19 C2.95101562 17.96359375 2.90203125 16.9271875 2.8515625 15.859375 C2.77650403 14.48955792 2.70095753 13.11976752 2.625 11.75 C2.57859375 10.72712891 2.57859375 10.72712891 2.53125 9.68359375 C2.31740626 6.01260962 1.98922945 3.13748384 0 0 Z " fill="#F9FAFA" transform="translate(224,434)"/>
<path d="M0 0 C1.2065625 0.0309375 1.2065625 0.0309375 2.4375 0.0625 C2.7675 1.7125 3.0975 3.3625 3.4375 5.0625 C1.4575 5.3925 -0.5225 5.7225 -2.5625 6.0625 C-2.94468767 4.40635343 -3.27645102 2.73792976 -3.5625 1.0625 C-2.5625 0.0625 -2.5625 0.0625 0 0 Z " fill="#EEF1F7" transform="translate(105.5625,359.9375)"/>
<path d="M0 0 C2.45141166 1.42999014 3.99315064 2.94169297 6 5 C5.67 5.99 5.34 6.98 5 8 C4.65324219 7.36578125 4.30648437 6.7315625 3.94921875 6.078125 C1.16490051 3.10967348 -1.20207575 3.1887623 -5.1875 2.75 C-6.45980469 2.60046875 -7.73210937 2.4509375 -9.04296875 2.296875 C-10.01878906 2.19890625 -10.99460938 2.1009375 -12 2 C-7.98593168 -0.67604554 -4.71982743 -0.82677249 0 0 Z " fill="#ABC9F3" transform="translate(149,122)"/>
<path d="M0 0 C3 1 3 1 5 2 C2.61684918 3.19157541 1.32675806 3.00807183 -1.3125 2.875 C-5.3948951 2.82249331 -7.71533229 3.41207999 -11 6 C-11.66 6.66 -12.32 7.32 -13 8 C-12.62951193 5.4065835 -11.94398898 3.91934413 -10.4375 1.75 C-7.05287283 -0.67998874 -3.98006293 -0.55169189 0 0 Z " fill="#75A5E9" transform="translate(147,124)"/>
<path d="M0 0 C3.44216672 2.6598561 3.99504674 5.90288286 5 10 C6.32 10 7.64 10 9 10 C9 10.66 9 11.32 9 12 C5.85160094 12.34982212 4.37976221 12.24633224 1.6875 10.5 C-0.76157308 6.87174359 -0.28810652 4.32159775 0 0 Z " fill="#DBE4F1" transform="translate(81,440)"/>
<path d="M0 0 C0.52078125 0.15339844 1.0415625 0.30679688 1.578125 0.46484375 C4.63278515 1.13982511 7.63015971 1.34411118 10.75 1.5625 C11.92046875 1.64628906 13.0909375 1.73007813 14.296875 1.81640625 C15.18890625 1.87699219 16.0809375 1.93757813 17 2 C16.67 2.66 16.34 3.32 16 4 C13.89695523 4.1080023 11.79233091 4.18558987 9.6875 4.25 C7.92986328 4.31960937 7.92986328 4.31960937 6.13671875 4.390625 C3 4 3 4 1.08203125 1.984375 C0.72496094 1.32953125 0.36789063 0.6746875 0 0 Z " fill="#B0CDF3" transform="translate(74,92)"/>
<path d="M0 0 C1.485 0.99 1.485 0.99 3 2 C4.9896995 2.39013716 6.99019869 2.73202649 9 3 C9.33 3.99 9.66 4.98 10 6 C2.57142857 6.28571429 2.57142857 6.28571429 -1 4 C-0.67 2.68 -0.34 1.36 0 0 Z " fill="#DDE5F1" transform="translate(162,455)"/>
<path d="M0 0 C0.185625 0.61875 0.37125 1.2375 0.5625 1.875 C2.71437233 5.05602866 5.37533763 5.19451947 9 6 C8.67 6.66 8.34 7.32 8 8 C4.625 8.125 4.625 8.125 1 8 C-1 6 -1 6 -1.1875 3.4375 C-1 1 -1 1 0 0 Z " fill="#F6F7F9" transform="translate(236,445)"/>
<path d="M0 0 C-0.33 0.99 -0.66 1.98 -1 3 C-3.06640625 3.73046875 -3.06640625 3.73046875 -5.5625 4.1875 C-6.38878906 4.34605469 -7.21507812 4.50460937 -8.06640625 4.66796875 C-9.02353516 4.83232422 -9.02353516 4.83232422 -10 5 C-7.62417533 -0.26075462 -5.61350876 -0.1220328 0 0 Z " fill="#DFE7F2" transform="translate(245,433)"/>
<path d="M0 0 C0 0.33 0 0.66 0 1 C-0.763125 1.020625 -1.52625 1.04125 -2.3125 1.0625 C-5.41389118 1.79660949 -5.41389118 1.79660949 -6.8125 5.5625 C-7.204375 6.696875 -7.59625 7.83125 -8 9 C-8.99 8.34 -9.98 7.68 -11 7 C-8.87296567 0.78251503 -6.45381515 -0.28683623 0 0 Z " fill="#DAE3F1" transform="translate(150,433)"/>
<path d="M0 0 C0 0.66 0 1.32 0 2 C-0.928125 2.3403125 -0.928125 2.3403125 -1.875 2.6875 C-4.61410209 4.37929835 -5.05024472 5.99244161 -6 9 C-6.33 9 -6.66 9 -7 9 C-7.36363636 3.54545455 -7.36363636 3.54545455 -5.75 1.125 C-4 0 -4 0 0 0 Z " fill="#F5F7F9" transform="translate(89,436)"/>
<path d="M0 0 C5.61 0 11.22 0 17 0 C17 0.33 17 0.66 17 1 C15.95199219 1.06058594 14.90398437 1.12117187 13.82421875 1.18359375 C12.44529952 1.26801738 11.06639395 1.35266447 9.6875 1.4375 C8.65206055 1.49647461 8.65206055 1.49647461 7.59570312 1.55664062 C4.52838465 1.74927415 1.93031848 2.02322717 -1 3 C-0.67 2.01 -0.34 1.02 0 0 Z " fill="#87B4EF" transform="translate(78,177)"/>
<path d="M0 0 C0.598125 0.226875 1.19625 0.45375 1.8125 0.6875 C0.4375 2.1875 0.4375 2.1875 -1.1875 3.6875 C-1.8475 3.6875 -2.5075 3.6875 -3.1875 3.6875 C-3.8475 5.0075 -4.5075 6.3275 -5.1875 7.6875 C-5.41803497 4.84423536 -5.54653101 3.22604651 -3.9375 0.8125 C-2.1875 -0.3125 -2.1875 -0.3125 0 0 Z " fill="#DCE5F1" transform="translate(239.1875,442.3125)"/>
<path d="M0 0 C1.32 0 2.64 0 4 0 C4 0.99 4 1.98 4 3 C2.02 3.66 0.04 4.32 -2 5 C-1.125 1.125 -1.125 1.125 0 0 Z " fill="#E7EDF5" transform="translate(282,433)"/>
<path d="M0 0 C-0.99 0.495 -0.99 0.495 -2 1 C-2 1.66 -2 2.32 -2 3 C-3.65 3.33 -5.3 3.66 -7 4 C-7 3.01 -7 2.02 -7 1 C-4.53721199 -0.231394 -2.7204945 -0.07159196 0 0 Z " fill="#E0E8F2" transform="translate(226,433)"/>
</svg>
