<?xml version="1.0" encoding="UTF-8"?>
<svg version="1.1" xmlns="http://www.w3.org/2000/svg" width="525" height="525">
<path d="M0 0 C173.25 0 346.5 0 525 0 C525 173.25 525 346.5 525 525 C351.75 525 178.5 525 0 525 C0 351.75 0 178.5 0 0 Z " fill="#E7E7E7" transform="translate(0,0)"/>
<path d="M0 0 C9.17650898 6.27411381 13.97255741 13.05728774 18.08984375 23.234375 C18.58484375 24.224375 18.58484375 24.224375 19.08984375 25.234375 C20.30481703 38.30581172 19.66327939 49.2033774 11.77734375 59.984375 C5.38882767 67.67225028 -2.76810483 74.4265227 -12.91015625 76.234375 C-26.06303817 77.35648912 -37.03319242 75.87697442 -47.84765625 67.484375 C-57.12144655 58.539276 -61.93320934 48.01275526 -62.28515625 35.234375 C-62.3178645 23.65992178 -58.36046328 14.65462119 -50.2265625 6.38671875 C-35.85648371 -6.96558043 -17.36354222 -10.53465917 0 0 Z " fill="#2D3034" transform="translate(133.91015625,77.765625)"/>
<path d="M0 0 C7.8210677 6.41728632 12.21315253 17.14691801 13.4375 27 C14.32431741 42.39995883 13.73119401 57.00138744 4.4375 70 C0.94168991 73.67344271 -2.08816299 75.68407064 -7.0625 76.75 C-13.4386568 75.38368069 -17.79288356 71.55529611 -21.375 66.1875 C-28.65138003 53.39871086 -29.83284316 36.26978173 -26.87890625 22.015625 C-24.40099695 13.42005581 -20.43504055 3.89374142 -12.5625 -1 C-8.07983282 -2.49422239 -4.35892623 -1.70104438 0 0 Z " fill="#2E3135" transform="translate(184.5625,76)"/>
<path d="M0 0 C1.32 0 2.64 0 4 0 C4.65256456 1.70577342 5.29673041 3.41476089 5.9375 5.125 C6.29714844 6.07632813 6.65679687 7.02765625 7.02734375 8.0078125 C8.81770668 13.51551532 9.15852414 18.88050407 9.16796875 24.63671875 C9.17129715 25.35680618 9.17462555 26.07689362 9.17805481 26.81880188 C9.18309509 28.33744676 9.18546404 29.85610262 9.18530273 31.37475586 C9.18747714 33.66344139 9.20563014 35.95163465 9.22460938 38.24023438 C9.3095685 60.23986142 9.3095685 60.23986142 4 68 C1.8984375 68.6484375 1.8984375 68.6484375 0 69 C-0.65134925 67.43979133 -1.29582964 65.87671421 -1.9375 64.3125 C-2.29714844 63.44238281 -2.65679687 62.57226562 -3.02734375 61.67578125 C-4.92871331 56.44510597 -5.17137397 51.43577614 -5.203125 45.91015625 C-5.20882507 45.12918076 -5.21452515 44.34820526 -5.22039795 43.54356384 C-5.22982287 41.89030295 -5.23637194 40.23702348 -5.24023438 38.58374023 C-5.24984817 36.10169767 -5.28085579 33.62051717 -5.3125 31.13867188 C-5.46530596 8.19795894 -5.46530596 8.19795894 0 0 Z " fill="#2F3236" transform="translate(207,79)"/>
<path d="M0 0 C2.64 0 5.28 0 8 0 C12.08463458 7.84394429 15.56648313 15.8553786 19 24 C22.3 16.08 25.6 8.16 29 0 C31.64 0 34.28 0 37 0 C37 11.55 37 23.1 37 35 C35.02 35 33.04 35 31 35 C30.67 28.07 30.34 21.14 30 14 C29.43410156 15.43214844 28.86820313 16.86429687 28.28515625 18.33984375 C27.54440649 20.20578303 26.80351369 22.07166552 26.0625 23.9375 C25.68931641 24.88302734 25.31613281 25.82855469 24.93164062 26.80273438 C24.57392578 27.70185547 24.21621094 28.60097656 23.84765625 29.52734375 C23.51773682 30.35999756 23.18781738 31.19265137 22.84790039 32.05053711 C22 34 22 34 21 35 C19.35 35 17.7 35 16 35 C13.36 28.4 10.72 21.8 8 15 C7.67 21.6 7.34 28.2 7 35 C4.69 35 2.38 35 0 35 C0 23.45 0 11.9 0 0 Z " fill="#3F3F3F" transform="translate(75,361)"/>
<path d="M0 0 C1.98 0 3.96 0 6 0 C6 11.55 6 23.1 6 35 C4.02 35 2.04 35 0 35 C-0.33 34.01 -0.66 33.02 -1 32 C-1.40476563 32.48339844 -1.80953125 32.96679688 -2.2265625 33.46484375 C-4.95699213 35.82840949 -7.27861957 35.59285581 -10.7734375 35.49609375 C-14.69976106 34.62128131 -15.88528948 32.30423519 -18 29 C-19.96010221 25.07979559 -19.3528633 20.28388424 -19 16 C-17.39701349 12.25969815 -16.40262302 11.26841535 -13 9 C-10.84375 8.69921875 -10.84375 8.69921875 -8.5 8.6875 C-7.7265625 8.67074219 -6.953125 8.65398437 -6.15625 8.63671875 C-4 9 -4 9 -1 12 C-0.67 8.04 -0.34 4.08 0 0 Z " fill="#3C3C3C" transform="translate(165,361)"/>
<path d="M0 0 C1.98 0 3.96 0 6 0 C6.33 0.66 6.66 1.32 7 2 C7.66 1.34 8.32 0.68 9 0 C11.05859375 -0.30078125 11.05859375 -0.30078125 13.4375 -0.3125 C14.61119141 -0.33763672 14.61119141 -0.33763672 15.80859375 -0.36328125 C18.46127163 0.07646749 19.322967 0.95628454 21 3 C21.40347656 2.5153125 21.80695313 2.030625 22.22265625 1.53125 C24.42214088 -0.3636906 25.566203 -0.46126412 28.4375 -0.5 C29.19933594 -0.5309375 29.96117187 -0.561875 30.74609375 -0.59375 C33 0 33 0 35.26953125 1.85546875 C37.81414949 6.47943643 37.43096923 10.63051566 37.25 15.8125 C37.23195313 16.79154297 37.21390625 17.77058594 37.1953125 18.77929688 C37.14832887 21.18720771 37.08265694 23.59309335 37 26 C35.02 26 33.04 26 31 26 C30.97494385 25.42967041 30.9498877 24.85934082 30.92407227 24.27172852 C30.80843451 21.70173843 30.68556376 19.13214473 30.5625 16.5625 C30.52318359 15.66466797 30.48386719 14.76683594 30.44335938 13.84179688 C30.40146484 12.98779297 30.35957031 12.13378906 30.31640625 11.25390625 C30.27974854 10.46314697 30.24309082 9.6723877 30.20532227 8.85766602 C30.19436743 6.98598559 30.19436743 6.98598559 29 6 C27.02 6 25.04 6 23 6 C22.67 12.6 22.34 19.2 22 26 C19.69 26 17.38 26 15 26 C14.67 19.4 14.34 12.8 14 6 C12.02 6 10.04 6 8 6 C6.88176185 8.23647631 6.80603939 9.64891529 6.68359375 12.1328125 C6.64169922 12.93847656 6.59980469 13.74414062 6.55664062 14.57421875 C6.49766602 15.83685547 6.49766602 15.83685547 6.4375 17.125 C6.37272461 18.39923828 6.37272461 18.39923828 6.30664062 19.69921875 C6.20045764 21.79928223 6.09971503 23.89961948 6 26 C4.02 26 2.04 26 0 26 C0 17.42 0 8.84 0 0 Z " fill="#3E3E3E" transform="translate(219,370)"/>
<path d="M0 0 C2.153723 1.41348539 4.25453103 2.86533549 6.32421875 4.3984375 C5.33421875 4.7284375 4.34421875 5.0584375 3.32421875 5.3984375 C1.44024657 4.42280905 -0.44329808 3.44634235 -2.32421875 2.46484375 C-11.99818827 -1.92218894 -22.33720158 -0.80972794 -32.28515625 2.18359375 C-41.51338055 5.85897274 -49.35230355 13.59732832 -53.92578125 22.3359375 C-58.04753841 32.24817942 -56.93781959 43.97205925 -55.67578125 54.3984375 C-56.33578125 54.3984375 -56.99578125 54.3984375 -57.67578125 54.3984375 C-62.55396651 43.58159192 -63.65486471 31.93191639 -59.73828125 20.5859375 C-54.93580185 9.54294813 -45.66060856 0.72303907 -34.61328125 -3.9765625 C-22.71619606 -7.90375567 -10.64785441 -6.37316833 0 0 Z " fill="#41454B" transform="translate(133.67578125,77.6015625)"/>
<path d="M0 0 C4.45411364 2.1098433 7.19291449 4.38189258 9 9 C9.54268159 13.56757002 9.58008721 17.43177946 7.97265625 21.77734375 C6 24 6 24 2.34765625 24.62890625 C0.91910487 24.6328855 -0.50972616 24.60979421 -1.9375 24.5625 C-2.65357422 24.57345703 -3.36964844 24.58441406 -4.10742188 24.59570312 C-7.56313928 24.54766257 -9.64635978 24.25531372 -12.47265625 22.21484375 C-14.53231488 19.22807536 -14.579899 17.43019209 -14.3828125 13.90234375 C-14 12 -14 12 -12.375 9.5625 C-7.72856987 6.50563807 -4.36732288 6.92653542 1 8 C1.33 12.29 1.66 16.58 2 21 C2.99 21.33 3.98 21.66 5 22 C5.82339648 14.30689326 5.82339648 14.30689326 3.95703125 7.05859375 C0.84507952 4.00139777 -1.51505248 3.03179984 -5.8125 2.75 C-9.64874143 2.80569861 -11.97136796 3.50583244 -15 6 C-17.92519869 10.64952634 -17.51977823 15.69196172 -17 21 C-15.39701349 24.74030185 -14.40262302 25.73158465 -11 28 C-7.79620876 28.24246783 -7.79620876 28.24246783 -4.3125 28.125 C-3.13300781 28.10695313 -1.95351562 28.08890625 -0.73828125 28.0703125 C0.16535156 28.04710937 1.06898437 28.02390625 2 28 C2 28.99 2 29.98 2 31 C-1.94650367 32.97325184 -6.69866713 32.44349901 -11 32 C-16.14853681 29.4257316 -19.182008 26.45397599 -21 21 C-21.49241379 15.40585644 -21.74420025 10.57108942 -19.3125 5.4375 C-13.59131946 -0.59293354 -7.97795444 -0.97292127 0 0 Z " fill="#4A4A4A" transform="translate(95,428)"/>
<path d="M0 0 C3.2830753 1.80904149 4.52119876 3.13359775 6.3125 6.375 C7 9 7 9 7 15 C1.06 15 -4.88 15 -11 15 C-10.34 16.65 -9.68 18.3 -9 20 C-5.59679066 20.67673447 -5.59679066 20.67673447 -2 21 C-1.34 20.34 -0.68 19.68 0 19 C3.125 18.875 3.125 18.875 6 19 C5.64207664 21.5949444 5.24023238 22.7698473 3.32421875 24.60546875 C-1.05352877 27.23211726 -6.07723622 26.73975958 -11 26 C-13.97361086 23.78436838 -15.36959793 22.26080415 -17 19 C-17.68539944 13.28255403 -18.16457679 7.61590918 -14.6875 2.75 C-10.51065663 -1.31744986 -5.4517154 -1.04712826 0 0 Z " fill="#3E3E3E" transform="translate(135,370)"/>
<path d="M0 0 C1.98 0 3.96 0 6 0 C6.04898438 1.27617187 6.09796875 2.55234375 6.1484375 3.8671875 C6.22346191 5.53648072 6.29900988 7.20575046 6.375 8.875 C6.4059375 9.71675781 6.436875 10.55851562 6.46875 11.42578125 C6.50742188 12.23144531 6.54609375 13.03710938 6.5859375 13.8671875 C6.6173584 14.61081543 6.6487793 15.35444336 6.68115234 16.12060547 C6.85419551 18.24010974 6.85419551 18.24010974 9 20 C10.98 19.67 12.96 19.34 15 19 C15.33 12.73 15.66 6.46 16 0 C18.31 0 20.62 0 23 0 C23 8.58 23 17.16 23 26 C21.02 26 19.04 26 17 26 C16.67 25.01 16.34 24.02 16 23 C15.484375 23.495 14.96875 23.99 14.4375 24.5 C11.09971339 26.55402253 8.85600245 26.41314312 5 26 C1.8149643 24.23984869 1.16703028 23.50109084 0 20 C-0.08106686 18.44578271 -0.10756898 16.88832973 -0.09765625 15.33203125 C-0.09443359 14.43935547 -0.09121094 13.54667969 -0.08789062 12.62695312 C-0.07951172 11.69818359 -0.07113281 10.76941406 -0.0625 9.8125 C-0.05798828 8.87212891 -0.05347656 7.93175781 -0.04882812 6.96289062 C-0.03704626 4.64186288 -0.02059558 2.32096356 0 0 Z " fill="#3D3D3D" transform="translate(190,370)"/>
<path d="M0 0 C0.33 0.33 0.66 0.66 1 1 C1.33 0.34 1.66 -0.32 2 -1 C2.99 -1 3.98 -1 5 -1 C5.14560195 2.72875388 5.23417043 6.45677434 5.3125 10.1875 C5.35439453 11.24259766 5.39628906 12.29769531 5.43945312 13.38476562 C5.56273893 21.20108566 5.56273893 21.20108566 2.73828125 25.2109375 C-1.34692105 27.88001404 -3.2068262 27.54116478 -8 27 C-8.99 26.34 -9.98 25.68 -11 25 C-10.67 23.68 -10.34 22.36 -10 21 C-9.01 21.66 -8.02 22.32 -7 23 C-2.85223727 23.28662433 -2.85223727 23.28662433 1 22 C1 20.35 1 18.7 1 17 C0.01 17.66 -0.98 18.32 -2 19 C-6.14394921 18.92465547 -8.281508 18.62637764 -11.4375 15.875 C-13.43191212 12.20528171 -13.57956799 10.12942195 -13 6 C-9.23838222 -0.770912 -7.48961057 -1.36174738 0 0 Z " fill="#444444" transform="translate(172,434)"/>
<path d="M0 0 C0.99 0 1.98 0 3 0 C3 8.58 3 17.16 3 26 C1.68 25.67 0.36 25.34 -1 25 C-1.66 25.33 -2.32 25.66 -3 26 C-7.04637274 26.44959697 -9.15244824 26.65196289 -12.4375 24.125 C-14.65217061 19.69565877 -14.90626065 15.85723909 -14 11 C-11.9375 7.8125 -11.9375 7.8125 -9 6 C-2.79310345 6.20689655 -2.79310345 6.20689655 -1 8 C-0.67 5.36 -0.34 2.72 0 0 Z " fill="#3D3D3D" transform="translate(122,427)"/>
<path d="M0 0 C2.69990662 1.79993774 4.5418865 3.083773 6 6 C6.3506291 11.34709374 6.44403637 14.62872307 3 19 C-0.20487969 20.60243984 -3.53309837 20.63159396 -7 20 C-10.03715967 17.04071622 -11.83251325 14.47388343 -12.3125 10.25 C-11.92220973 6.19098115 -10.50412622 4.16698316 -8 1 C-5.14675563 -0.42662219 -3.16545451 -0.31033868 0 0 Z " fill="#454545" transform="translate(193,433)"/>
<path d="M0 0 C1.32 0.33 2.64 0.66 4 1 C4.99 0.814375 5.98 0.62875 7 0.4375 C10.22874882 -0.0333592 11.3275479 0.25262747 14 2 C14.99 1.34 15.98 0.68 17 0 C20.5625 0.1875 20.5625 0.1875 24 1 C26.52775351 4.79163027 26.22443035 7.80874031 26.125 12.1875 C26.11597656 12.93708984 26.10695312 13.68667969 26.09765625 14.45898438 C26.07412578 16.30612654 26.03825561 18.15310412 26 20 C24.68 20 23.36 20 22 20 C21.67 14.72 21.34 9.44 21 4 C19.35 4 17.7 4 16 4 C14.00383446 5.99616554 14.59016573 9.81701963 14.4375 12.5625 C14.39431641 13.27341797 14.35113281 13.98433594 14.30664062 14.71679688 C14.20028223 16.47761912 14.09961154 18.2387832 14 20 C13.01 20 12.02 20 11 20 C11 14.72 11 9.44 11 4 C9.02 4 7.04 4 5 4 C3.00383446 5.99616554 3.59016573 9.81701963 3.4375 12.5625 C3.39431641 13.27341797 3.35113281 13.98433594 3.30664062 14.71679688 C3.20028223 16.47761912 3.09961154 18.2387832 3 20 C2.01 20 1.02 20 0 20 C0 13.4 0 6.8 0 0 Z " fill="#414141" transform="translate(204,433)"/>
<path d="M0 0 C0.7940625 0.06703125 1.588125 0.1340625 2.40625 0.203125 C4.5 0.75 4.5 0.75 6.5 3.75 C6.64245897 6.51655324 6.68769445 9.17653306 6.625 11.9375 C6.61597656 12.68708984 6.60695312 13.43667969 6.59765625 14.20898438 C6.57412578 16.05612654 6.53825561 17.90310412 6.5 19.75 C5.88125 19.564375 5.2625 19.37875 4.625 19.1875 C2.45839822 18.51313824 2.45839822 18.51313824 0.5 19.75 C-5.75748503 20.20508982 -5.75748503 20.20508982 -8.4375 18.5625 C-9.88718434 16.08950907 -9.92317323 14.57115488 -9.5 11.75 C-7.79868896 9.4612656 -6.84097902 8.8203437 -4.01953125 8.23828125 C-3.12621094 8.18027344 -2.23289063 8.12226563 -1.3125 8.0625 C-0.41144531 7.99675781 0.48960937 7.93101562 1.41796875 7.86328125 C2.44857422 7.80720703 2.44857422 7.80720703 3.5 7.75 C2.84 6.43 2.18 5.11 1.5 3.75 C-1.99234244 3.65021879 -5.09437148 3.97157062 -8.5 4.75 C-6.4130803 0.12896352 -4.99700173 -0.48672095 0 0 Z " fill="#434343" transform="translate(243.5,433.25)"/>
<path d="M0 0 C2.8125 1.5625 2.8125 1.5625 5 4 C5.8125 7.75 5.8125 7.75 6 11 C1.38 11 -3.24 11 -8 11 C-6.54711014 15.5841963 -6.54711014 15.5841963 -5 17 C-2.54190002 17.2500773 -2.54190002 17.2500773 0 17 C0.66 16.34 1.32 15.68 2 15 C2.99 15 3.98 15 5 15 C3.125 18.875 3.125 18.875 2 20 C-2.44100541 20.63056872 -5.87307209 20.82458139 -9.5625 18.125 C-11.60561759 13.68344003 -11.9055739 9.80347893 -11 5 C-7.92883052 0.48357429 -5.43434422 -1.01893954 0 0 Z " fill="#3D3D3D" transform="translate(150,433)"/>
<path d="M0 0 C-3.02939589 1.70096011 -5.63517745 2.38033489 -9.0625 2.875 C-16.7511378 4.18392359 -23.75535574 6.26593923 -30 11 C-30.66 11 -31.32 11 -32 11 C-32.268125 11.639375 -32.53625 12.27875 -32.8125 12.9375 C-34 15 -34 15 -37 16 C-38.08176176 18.33637605 -38.08176176 18.33637605 -39 21 C-39.85325542 22.43804107 -40.70745867 23.87552009 -41.5625 25.3125 C-46.15698915 34.32580665 -45.03297522 45.12941736 -45 55 C-49.06341039 50.93658961 -48.36518065 44.47476848 -48.38061523 39.01293945 C-48.12146149 28.21313025 -43.83125472 19.79099533 -36.31640625 12.15234375 C-25.14403127 1.77126683 -14.95572814 -0.72659408 0 0 Z " fill="#60646C" transform="translate(120,72)"/>
<path d="M0 0 C-0.7734375 0.37125 -0.7734375 0.37125 -1.5625 0.75 C-2.7690625 1.36875 -2.7690625 1.36875 -4 2 C-5.134375 2.5775 -6.26875 3.155 -7.4375 3.75 C-14.61877745 7.95442312 -17.6894897 14.25237144 -20 22 C-23.00610985 34.20222009 -21.81173038 46.58662121 -21 59 C-23 58 -23 58 -23.61962891 56.31152344 C-27.20840441 39.91296465 -26.33001637 23.19939615 -18.0625 8.4375 C-13.16238089 0.81509249 -8.97579577 -1.52419174 0 0 Z " fill="#62666D" transform="translate(182,75)"/>
<path d="M0 0 C2.31 0 4.62 0 7 0 C7 8.58 7 17.16 7 26 C4.69 26 2.38 26 0 26 C0 17.42 0 8.84 0 0 Z " fill="#4A4A4A" transform="translate(177,370)"/>
<path d="M0 0 C1.32 0.33 2.64 0.66 4 1 C3.34 2.65 2.68 4.3 2 6 C1.34 6 0.68 6 0 6 C-1.6293563 16.31440732 -2.21575228 26.4940856 -2.25 36.9375 C-2.25902344 38.07356689 -2.26804688 39.20963379 -2.27734375 40.38012695 C-2.25353877 47.15413072 -1.63202146 53.42079732 0 60 C0.33 60 0.66 60 1 60 C1 62.64 1 65.28 1 68 C1.66 68.33 2.32 68.66 3 69 C2.01 69 1.02 69 0 69 C-0.65134925 67.43979133 -1.29582964 65.87671421 -1.9375 64.3125 C-2.29714844 63.44238281 -2.65679687 62.57226562 -3.02734375 61.67578125 C-4.92871331 56.44510597 -5.17137397 51.43577614 -5.203125 45.91015625 C-5.20882507 45.12918076 -5.21452515 44.34820526 -5.22039795 43.54356384 C-5.22982287 41.89030295 -5.23637194 40.23702348 -5.24023438 38.58374023 C-5.24984817 36.10169767 -5.28085579 33.62051717 -5.3125 31.13867188 C-5.46530596 8.19795894 -5.46530596 8.19795894 0 0 Z " fill="#52565D" transform="translate(207,79)"/>
<path d="M0 0 C3.5 0.5 3.5 0.5 5.4375 2.0625 C7.33220213 6.4091696 7.03015665 10.0342728 5.4375 14.4375 C3.5 16.5 3.5 16.5 0 17.125 C-3.5 16.5 -3.5 16.5 -5.4375 14.4375 C-7.03015665 10.0342728 -7.33220213 6.4091696 -5.4375 2.0625 C-3.5 0.5 -3.5 0.5 0 0 Z " fill="#D9D9D9" transform="translate(158.5,374.5)"/>
<path d="M0 0 C1.6875 1.515625 1.6875 1.515625 3 3 C2.29875 2.88398437 1.5975 2.76796875 0.875 2.6484375 C-3.61513234 2.22138687 -6.72419845 1.99112893 -10.37109375 4.875 C-20.22246678 16.79348532 -21.17956059 28.76243297 -21.1875 43.625 C-21.19974609 44.83929688 -21.21199219 46.05359375 -21.22460938 47.3046875 C-21.22654297 48.47515625 -21.22847656 49.645625 -21.23046875 50.8515625 C-21.23457764 51.91197754 -21.23868652 52.97239258 -21.24291992 54.06494141 C-20.99193234 57.09747679 -20.20176472 59.22787818 -19 62 C-18.875 64.8125 -18.875 64.8125 -19 67 C-23.44804612 62.56099462 -23.80361513 58.66254742 -24.25 52.6875 C-24.32734375 51.87087891 -24.4046875 51.05425781 -24.484375 50.21289062 C-25.71272003 36.44884592 -25.49960559 19.62989512 -17 8 C-11.86727156 2.54584825 -7.78168244 -0.64847354 0 0 Z " fill="#40444A" transform="translate(184,76)"/>
<path d="M0 0 C1.32 0 2.64 0 4 0 C4.33 5.28 4.66 10.56 5 16 C6.65 16 8.3 16 10 16 C12.85793316 13.14206684 12.40799941 10.85334416 12.625 6.875 C12.69976562 5.59367187 12.77453125 4.31234375 12.8515625 2.9921875 C12.90054687 2.00476563 12.94953125 1.01734375 13 0 C13.99 0 14.98 0 16 0 C16 6.6 16 13.2 16 20 C15.01 20 14.02 20 13 20 C12.67 19.34 12.34 18.68 12 18 C11.34 18.66 10.68 19.32 10 20 C6.5625 20.375 6.5625 20.375 3 20 C0.14000813 17.47955055 -0.00347161 15.95389702 -0.29296875 12.109375 C-0.27314945 10.65595991 -0.23754845 9.20268833 -0.1875 7.75 C-0.17396484 7.00492187 -0.16042969 6.25984375 -0.14648438 5.4921875 C-0.11127204 3.66114584 -0.05746851 1.83047831 0 0 Z " fill="#575757" transform="translate(255,433)"/>
<path d="M0 0 C1.859375 0.08984375 1.859375 0.08984375 4 1 C5.265625 3.94140625 5.265625 3.94140625 6.25 7.5625 C6.58515625 8.76003906 6.9203125 9.95757812 7.265625 11.19140625 C7.50796875 12.11824219 7.7503125 13.04507812 8 14 C8.26554687 13.32453125 8.53109375 12.6490625 8.8046875 11.953125 C9.15789062 11.06109375 9.51109375 10.1690625 9.875 9.25 C10.39707031 7.92742187 10.39707031 7.92742187 10.9296875 6.578125 C11.8646709 4.3259752 12.87780794 2.16350541 14 0 C14.99 0 15.98 0 17 0 C15.44006278 6.58184039 13.39111143 12.85577674 10.875 19.125 C10.60929199 19.78830322 10.34358398 20.45160645 10.06982422 21.13500977 C8.13902186 25.86097814 8.13902186 25.86097814 7 27 C5.00041636 27.04080783 2.99954746 27.04254356 1 27 C1 26.01 1 25.02 1 24 C2.32 23.67 3.64 23.34 5 23 C6.73442468 17.95530193 4.99565017 14.48674714 3.0625 9.8125 C0 2.1868071 0 2.1868071 0 0 Z " fill="#494949" transform="translate(289,433)"/>
<path d="M0 0 C3.0625 0.3125 3.0625 0.3125 4.9375 1.375 C7.03310445 4.98409655 6.46756431 8.77325562 5.4375 12.6875 C4.0625 14.3125 4.0625 14.3125 1.125 15.25 C-1.9375 15.3125 -1.9375 15.3125 -3.609375 14.1328125 C-5.36303395 11.72926818 -5.30647702 10.19983835 -5.25 7.25 C-5.24613281 6.37214844 -5.24226562 5.49429687 -5.23828125 4.58984375 C-4.75697103 0.94563777 -3.55689841 0.37839345 0 0 Z " fill="#D9D9D9" transform="translate(189.9375,435.6875)"/>
<path d="M0 0 C1.8125 1.0625 1.8125 1.0625 3 3 C3.30540859 6.35949454 3.23408114 9.11049167 2.375 12.375 C0.29502726 14.83314961 -1.9029628 14.73069242 -5 15 C-7.56417383 12.43582617 -8.25787287 10.47083523 -8.375 6.9375 C-8 3 -8 3 -6.8125 1 C-4.33474158 -0.36703913 -2.78844081 -0.41826612 0 0 Z " fill="#D8D8D8" transform="translate(119,436)"/>
<path d="M0 0 C3.0625 0.375 3.0625 0.375 4.9375 2 C6.39736373 5.08193454 6.55464954 7.00026031 6.0625 10.375 C4.4375 12.8125 4.4375 12.8125 2.0625 14.375 C-1.125 14.25 -1.125 14.25 -3.9375 13.375 C-5.11423198 11.02153604 -5.10373866 9.4943967 -5.125 6.875 C-5.13917969 6.0809375 -5.15335938 5.286875 -5.16796875 4.46875 C-4.77723033 0.91899079 -3.38336304 0.43191869 0 0 Z " fill="#D8D8D9" transform="translate(167.9375,435.625)"/>
<path d="M0 0 C0.99 0.99 1.98 1.98 3 3 C2.01 3.33 1.02 3.66 0 4 C-0.3139878 5.99976696 -0.62610943 7.99982697 -0.9375 10 C-1.11152344 11.11375 -1.28554687 12.2275 -1.46484375 13.375 C-2.46389294 20.14228211 -3.14635543 26.60346043 -3.09765625 33.4375 C-3.0962413 34.20304199 -3.09482635 34.96858398 -3.09336853 35.75732422 C-3.08782853 38.17159142 -3.07528779 40.58576144 -3.0625 43 C-3.05747723 44.64973823 -3.05291569 46.29947794 -3.04882812 47.94921875 C-3.03787886 51.96618255 -3.02065666 55.98307487 -3 60 C-3.33 60 -3.66 60 -4 60 C-5.77497049 51.90645971 -6.35033747 44.15017337 -6.3125 35.875 C-6.31121094 34.70026123 -6.30992187 33.52552246 -6.30859375 32.31518555 C-6.20590301 22.95299902 -5.1559797 14.09874765 -3 5 C-2.34 5 -1.68 5 -1 5 C-0.67 3.35 -0.34 1.7 0 0 Z " fill="#3D4146" transform="translate(210,80)"/>
<path d="M0 0 C0.99 0 1.98 0 3 0 C2.96519531 0.95261719 2.93039063 1.90523438 2.89453125 2.88671875 C2.86746094 4.14097656 2.84039062 5.39523437 2.8125 6.6875 C2.77769531 7.92886719 2.74289063 9.17023438 2.70703125 10.44921875 C3.02027812 14.2457708 3.69242347 16.01467371 6 19 C9.63195496 21.42130331 11.38349348 21.21022785 15.6875 21.125 C16.86699219 21.10695313 18.04648438 21.08890625 19.26171875 21.0703125 C20.16535156 21.04710937 21.06898437 21.02390625 22 21 C22 21.99 22 22.98 22 24 C18.05349633 25.97325184 13.30133287 25.44349901 9 25 C3.85146319 22.4257316 0.817992 19.45397599 -1 14 C-1.09416778 11.98093192 -1.12991192 9.95875687 -1.125 7.9375 C-1.12757812 6.87402344 -1.13015625 5.81054688 -1.1328125 4.71484375 C-1 2 -1 2 0 0 Z " fill="#464646" transform="translate(75,435)"/>
<path d="M0 0 C0 2.97 0 5.94 0 9 C-0.99 9.495 -0.99 9.495 -2 10 C-2.66 7.69 -3.32 5.38 -4 3 C-5.66611905 2.957279 -7.33382885 2.95936168 -9 3 C-10.38929654 4.16247951 -10.38929654 4.16247951 -10.125 7.375 C-10.17300461 10.95322972 -10.17300461 10.95322972 -9 14 C-7.35 14.33 -5.7 14.66 -4 15 C-4 15.33 -4 15.66 -4 16 C-7.45669582 16.31424507 -9.39901677 16.37956836 -12.375 14.5 C-14.64223094 11.0119524 -14.84885075 8.05284621 -14 4 C-9.64767695 -1.65801996 -6.5311126 -0.94806473 0 0 Z " fill="#494949" transform="translate(95,436)"/>
<path d="M0 0 C2.5 0.25 2.5 0.25 4.5 2.25 C5.05776892 8.38545817 5.05776892 8.38545817 3.25 11.1875 C1.5 12.25 1.5 12.25 -2.5 12.25 C-4.94897847 8.57653229 -4.81537716 6.58643601 -4.5 2.25 C-2.5 0.25 -2.5 0.25 0 0 Z " fill="#D8D8D8" transform="translate(88.5,437.75)"/>
<path d="M0 0 C0.99 0 1.98 0 3 0 C3.33 0.66 3.66 1.32 4 2 C4.66 1.34 5.32 0.68 6 0 C7.32 0 8.64 0 10 0 C10 0.99 10 1.98 10 3 C8.02 3.33 6.04 3.66 4 4 C3.67 9.28 3.34 14.56 3 20 C2.01 20 1.02 20 0 20 C0 13.4 0 6.8 0 0 Z " fill="#444444" transform="translate(276,433)"/>
<path d="M0 0 C1.32229189 2.64458379 1.09677194 4.67761301 1.0625 7.625 C1.05347656 8.62789063 1.04445312 9.63078125 1.03515625 10.6640625 C1.02355469 11.43492187 1.01195312 12.20578125 1 13 C3.64 13 6.28 13 9 13 C9 13.99 9 14.98 9 16 C5.8125 16.8125 5.8125 16.8125 2 17 C-0.875 14.625 -0.875 14.625 -3 12 C-3.33 11.67 -3.66 11.34 -4 11 C-4.59227922 4.7218403 -4.59227922 4.7218403 -2 1.5625 C-1.34 1.046875 -0.68 0.53125 0 0 Z " fill="#4F4F4F" transform="translate(163,436)"/>
<path d="M0 0 C1.32 0 2.64 0 4 0 C6.52775351 3.79163027 6.22443035 6.80874031 6.125 11.1875 C6.11597656 11.93708984 6.10695312 12.68667969 6.09765625 13.45898438 C6.07412578 15.30612654 6.03825561 17.15310412 6 19 C4.68 19 3.36 19 2 19 C1.93941406 17.87980469 1.87882813 16.75960938 1.81640625 15.60546875 C1.73198576 14.13280016 1.64733851 12.66014456 1.5625 11.1875 C1.52318359 10.44951172 1.48386719 9.71152344 1.44335938 8.95117188 C1.25618965 5.76928658 1.01279207 3.03837622 0 0 Z " fill="#595959" transform="translate(224,434)"/>
<path d="M0 0 C0.83815011 2.42132254 1.02658221 3.8720731 0.5 6.40625 C-0.22210446 11.59637579 0.1578532 16.65492631 0.4375 21.875 C0.48970703 22.94492188 0.54191406 24.01484375 0.59570312 25.1171875 C0.72475399 27.74513239 0.85969152 30.37263613 1 33 C0.34 32.67 -0.32 32.34 -1 32 C-3.89697052 22.34343159 -3.86483896 11.88364649 -2 2 C-1.34 1.34 -0.68 0.68 0 0 Z " fill="#50555B" transform="translate(160,101)"/>
<path d="M0 0 C0.66 0.33 1.32 0.66 2 1 C1.52433594 1.75023438 1.52433594 1.75023438 1.0390625 2.515625 C-0.36641196 5.87608272 -0.46479783 9.15880127 -0.625 12.75 C-0.66367188 13.42804688 -0.70234375 14.10609375 -0.7421875 14.8046875 C-0.99428558 19.54053009 -1.03189688 24.25799719 -1 29 C-4.86632045 25.13367955 -4.16128065 19.76966207 -4.1875 14.5625 C-4.20167969 13.28503906 -4.21585937 12.00757812 -4.23046875 10.69140625 C-4.00423351 7.06780793 -3.43013819 4.32695306 -2 1 C-1.34 0.67 -0.68 0.34 0 0 Z " fill="#5A5E65" transform="translate(76,98)"/>
<path d="M0 0 C0.99 0 1.98 0 3 0 C3 6.6 3 13.2 3 20 C2.01 20 1.02 20 0 20 C-0.66 18.35 -1.32 16.7 -2 15 C-1.67 14.67 -1.34 14.34 -1 14 C-0.76472227 11.65012738 -0.58613583 9.29443961 -0.4375 6.9375 C-0.35371094 5.64714844 -0.26992188 4.35679687 -0.18359375 3.02734375 C-0.12300781 2.02832031 -0.06242187 1.02929688 0 0 Z " fill="#474747" transform="translate(268,433)"/>
<path d="M0 0 C6.72443333 0.06671065 13.80509243 4.15450684 18.609375 8.640625 C19.42148438 9.53007813 19.42148438 9.53007813 20.25 10.4375 C16.33406554 9.65431311 12.88593365 8.04570142 9.25 6.4375 C9.25 5.7775 9.25 5.1175 9.25 4.4375 C3.88510405 3.53266363 -1.25317457 3.31446338 -6.6875 3.375 C-7.46673828 3.37951172 -8.24597656 3.38402344 -9.04882812 3.38867188 C-10.94925268 3.40033092 -12.84963706 3.41826123 -14.75 3.4375 C-10.1916368 0.3985912 -5.31361189 0.61992139 0 0 Z " fill="#51545B" transform="translate(119.75,72.5625)"/>
<path d="M0 0 C0.99 0 1.98 0 3 0 C3 6.6 3 13.2 3 20 C2.01 20 1.02 20 0 20 C0 13.4 0 6.8 0 0 Z " fill="#3F3F3F" transform="translate(131,433)"/>
<path d="M0 0 C0.36075949 4.44936709 0.36075949 4.44936709 -1.1875 6.8125 C-3.6135694 8.40199375 -5.15397406 8.36487512 -8 8 C-8.66 7.34 -9.32 6.68 -10 6 C-9.625 3.875 -9.625 3.875 -9 2 C-2.25 0 -2.25 0 0 0 Z " fill="#CDCDCD" transform="translate(247,443)"/>
<path d="M0 0 C3.125 0.25 3.125 0.25 5 1.5625 C6.125 3.25 6.125 3.25 6.125 6.25 C2.495 6.25 -1.135 6.25 -4.875 6.25 C-3.68915929 0.32079646 -3.68915929 0.32079646 0 0 Z " fill="#CACACB" transform="translate(146.875,435.75)"/>
<path d="M0 0 C0.969375 0.309375 1.93875 0.61875 2.9375 0.9375 C3.5975 2.5875 4.2575 4.2375 4.9375 5.9375 C0.9775 5.9375 -2.9825 5.9375 -7.0625 5.9375 C-5.87052336 1.16959343 -5.00214532 -0.1020846 0 0 Z " fill="#D9D9D9" transform="translate(131.0625,374.0625)"/>
<path d="M0 0 C2.31 0.33 4.62 0.66 7 1 C7 1.66 7 2.32 7 3 C7.99 3.33 8.98 3.66 10 4 C10 4.66 10 5.32 10 6 C10.763125 6.2475 11.52625 6.495 12.3125 6.75 C15.34813868 8.16192497 16.44504874 9.05377656 18 12 C18.1875 15.25 18.1875 15.25 18 18 C17.443125 17.29875 16.88625 16.5975 16.3125 15.875 C15.549375 14.92625 14.78625 13.9775 14 13 C13.278125 12.030625 12.55625 11.06125 11.8125 10.0625 C9.00752679 6.6577212 5.51193655 4.51068161 1.79296875 2.19921875 C1.20128906 1.80347656 0.60960937 1.40773438 0 1 C0 0.67 0 0.34 0 0 Z " fill="#CCCCCD" transform="translate(131,76)"/>
<path d="M0 0 C1.6875 1.515625 1.6875 1.515625 3 3 C2.29875 2.88398437 1.5975 2.76796875 0.875 2.6484375 C-2.33307643 2.34332153 -4.84234007 2.30290819 -8 3 C-11.31796768 5.93042906 -13.58872599 9.31359112 -16 13 C-16.66 13.66 -17.32 14.32 -18 15 C-18 11.09686543 -17.87611052 8.99986604 -15.2578125 6.01171875 C-10.30305045 1.62866001 -6.8382724 -0.56985603 0 0 Z " fill="#474A50" transform="translate(184,76)"/>
<path d="M0 0 C0.66 0.99 1.32 1.98 2 3 C-1.33333333 3 -4.66666667 3 -8 3 C-8.33 5.64 -8.66 8.28 -9 11 C-11.12758042 8.70221314 -12.01532597 7.62836483 -11.9375 4.4375 C-9.62368017 -1.57843157 -5.77960735 -1.49841672 0 0 Z " fill="#494949" transform="translate(120,434)"/>
<path d="M0 0 C1.32 0.33 2.64 0.66 4 1 C3.34 2.65 2.68 4.3 2 6 C1.34 6 0.68 6 0 6 C-0.103125 7.093125 -0.20625 8.18625 -0.3125 9.3125 C-1.01114012 13.05975155 -1.31397238 13.65962741 -4 16 C-3.65697965 10.01488629 -3.17692157 5.24882694 0 0 Z " fill="#5F636A" transform="translate(207,79)"/>
<path d="M0 0 C0.33 0.66 0.66 1.32 1 2 C0.40832031 2.03738281 -0.18335937 2.07476562 -0.79296875 2.11328125 C-6.78315503 2.61164911 -10.63609267 3.63609267 -15 8 C-15.66 8 -16.32 8 -17 8 C-16.11593727 5.02633445 -15.31696033 3.2872453 -13 1.1875 C-8.67237503 -0.52551822 -4.59742082 -0.24102983 0 0 Z " fill="#424242" transform="translate(93,428)"/>
<path d="M0 0 C2.97 0.495 2.97 0.495 6 1 C6 1.99 6 2.98 6 4 C6.99 4.33 7.98 4.66 9 5 C9 7.31 9 9.62 9 12 C8.01 12.495 8.01 12.495 7 13 C6.66226563 12.31292969 6.32453125 11.62585938 5.9765625 10.91796875 C5.53054687 10.01691406 5.08453125 9.11585937 4.625 8.1875 C4.18414062 7.29417969 3.74328125 6.40085937 3.2890625 5.48046875 C1.98133095 2.85443619 1.98133095 2.85443619 0 0 Z " fill="#C2C2C3" transform="translate(187,79)"/>
<path d="M0 0 C2.125 0.375 2.125 0.375 4 1 C4.33 2.65 4.66 4.3 5 6 C3.02 6.33 1.04 6.66 -1 7 C-1.625 4.625 -1.625 4.625 -2 2 C-1.34 1.34 -0.68 0.68 0 0 Z " fill="#454545" transform="translate(179,359)"/>
<path d="M0 0 C1.485 0.99 1.485 0.99 3 2 C3.38411275 4.609621 3.60293197 7.0058074 3.6875 9.625 C3.72166016 10.33140625 3.75582031 11.0378125 3.79101562 11.765625 C3.87351308 13.50985688 3.93843335 15.25490395 4 17 C2 16 2 16 1.3671875 14.1796875 C0.3330683 9.33738332 -0.2106585 4.95047466 0 0 Z " fill="#62656A" transform="translate(157,117)"/>
<path d="M0 0 C0.33 0 0.66 0 1 0 C1.33 1.65 1.66 3.3 2 5 C2.33 5 2.66 5 3 5 C3 7.64 3 10.28 3 13 C3.66 13.33 4.32 13.66 5 14 C4.01 14 3.02 14 2 14 C-0.40920141 9.78389753 -1.44250802 6.86758823 -1 2 C-0.67 1.34 -0.34 0.68 0 0 Z " fill="#4E5156" transform="translate(205,134)"/>
<path d="M0 0 C1.485 0.99 1.485 0.99 3 2 C3.845625 2.144375 4.69125 2.28875 5.5625 2.4375 C8 3 8 3 10 6 C8.741875 6.04125 7.48375 6.0825 6.1875 6.125 C5.47980469 6.14820313 4.77210938 6.17140625 4.04296875 6.1953125 C2 6 2 6 -1 4 C-0.67 2.68 -0.34 1.36 0 0 Z " fill="#515151" transform="translate(162,455)"/>
<path d="M0 0 C0.185625 0.61875 0.37125 1.2375 0.5625 1.875 C2.71437233 5.05602866 5.37533763 5.19451947 9 6 C8.67 6.66 8.34 7.32 8 8 C4.625 8.125 4.625 8.125 1 8 C-1 6 -1 6 -1.1875 3.4375 C-1 1 -1 1 0 0 Z " fill="#383838" transform="translate(236,445)"/>
<path d="M0 0 C-1 3 -1 3 -3.3125 4.1875 C-6 5 -6 5 -10 5 C-7.62417533 -0.26075462 -5.61350876 -0.1220328 0 0 Z " fill="#4C4C4C" transform="translate(245,433)"/>
<path d="M0 0 C0 0.99 0 1.98 0 3 C-2.64458379 4.32229189 -4.67761301 4.09677194 -7.625 4.0625 C-8.62789063 4.05347656 -9.63078125 4.04445313 -10.6640625 4.03515625 C-11.43492188 4.02355469 -12.20578125 4.01195312 -13 4 C-8.80275405 0.61863339 -5.36443083 0 0 0 Z " fill="#626262" transform="translate(97,456)"/>
<path d="M0 0 C0 0.33 0 0.66 0 1 C-0.763125 1.020625 -1.52625 1.04125 -2.3125 1.0625 C-5.41389118 1.79660949 -5.41389118 1.79660949 -6.8125 5.5625 C-7.204375 6.696875 -7.59625 7.83125 -8 9 C-8.99 8.34 -9.98 7.68 -11 7 C-8.87296567 0.78251503 -6.45381515 -0.28683623 0 0 Z " fill="#4E4E4E" transform="translate(150,433)"/>
<path d="M0 0 C0.99 0.99 1.98 1.98 3 3 C2.01 3.33 1.02 3.66 0 4 C0 4.99 0 5.98 0 7 C-0.66 7 -1.32 7 -2 7 C-2.33 8.65 -2.66 10.3 -3 12 C-3.93423645 8.98968256 -4.04449911 8.13349732 -3 5 C-2.34 5 -1.68 5 -1 5 C-0.67 3.35 -0.34 1.7 0 0 Z " fill="#474A50" transform="translate(210,80)"/>
<path d="M0 0 C0.66 0 1.32 0 2 0 C2.375 2.25 2.375 2.25 2 5 C-1 7.3125 -1 7.3125 -4 9 C-2.80100302 5.9168649 -1.52299523 2.93720508 0 0 Z " fill="#222427" transform="translate(192,132)"/>
<path d="M0 0 C1.5 1.0625 1.5 1.0625 3 3 C3.3125 6.5625 3.3125 6.5625 3 10 C2.34 10.66 1.68 11.32 1 12 C0.01751476 7.9472484 -0.08159574 4.16138263 0 0 Z " fill="#696C71" transform="translate(202,126)"/>
<path d="M0 0 C4.875 1.875 4.875 1.875 6 3 C6.04080783 4.99958364 6.04254356 7.00045254 6 9 C3.59927045 6.11912454 1.52708963 3.43595166 0 0 Z " fill="#BDBDBD" transform="translate(143,85)"/>
<path d="M0 0 C0.66 0 1.32 0 2 0 C2 2.97 2 5.94 2 9 C1.01 9.495 1.01 9.495 0 10 C-1.125 2.25 -1.125 2.25 0 0 Z " fill="#3A3A3A" transform="translate(93,436)"/>
<path d="M0 0 C0.33 1.32 0.66 2.64 1 4 C-0.98 4.99 -2.96 5.98 -5 7 C-3.75023244 3.34683329 -3.32901247 2.21934164 0 0 Z " fill="#26282B" transform="translate(149,127)"/>
<path d="M0 0 C0.625 1.875 0.625 1.875 1 4 C0.34 4.66 -0.32 5.32 -1 6 C-1.45811675 7.97235333 -1.45811675 7.97235333 -1.625 10.125 C-1.74875 11.40375 -1.8725 12.6825 -2 14 C-2.33 14 -2.66 14 -3 14 C-3.32374517 8.49633208 -3.53286034 4.56327794 0 0 Z " fill="#6D7176" transform="translate(160,97)"/>
<path d="M0 0 C0.598125 0.226875 1.19625 0.45375 1.8125 0.6875 C0.4375 2.1875 0.4375 2.1875 -1.1875 3.6875 C-1.8475 3.6875 -2.5075 3.6875 -3.1875 3.6875 C-3.8475 5.0075 -4.5075 6.3275 -5.1875 7.6875 C-5.41803497 4.84423536 -5.54653101 3.22604651 -3.9375 0.8125 C-2.1875 -0.3125 -2.1875 -0.3125 0 0 Z " fill="#4C4C4C" transform="translate(239.1875,442.3125)"/>
<path d="M0 0 C-0.99 0.495 -0.99 0.495 -2 1 C-2 1.66 -2 2.32 -2 3 C-3.65 3.33 -5.3 3.66 -7 4 C-7 3.01 -7 2.02 -7 1 C-4.53721199 -0.231394 -2.7204945 -0.07159196 0 0 Z " fill="#494949" transform="translate(226,433)"/>
<path d="M0 0 C0.33 0 0.66 0 1 0 C1 1.65 1 3.3 1 5 C-0.32 5.33 -1.64 5.66 -3 6 C-2.42655063 3.13275314 -2.1385485 2.1385485 0 0 Z " fill="#292B2E" transform="translate(211,141)"/>
<path d="M0 0 C5.75 0.875 5.75 0.875 8 2 C8 2.66 8 3.32 8 4 C4.31245243 3.50168276 2.39509338 2.89932357 0 0 Z " fill="#D9D9DA" transform="translate(184,76)"/>
</svg>
