<?xml version="1.0" encoding="UTF-8"?>
<svg version="1.1" xmlns="http://www.w3.org/2000/svg" width="525" height="525">
<path d="M0 0 C173.25 0 346.5 0 525 0 C525 173.25 525 346.5 525 525 C351.75 525 178.5 525 0 525 C0 351.75 0 178.5 0 0 Z " fill="#1C1C1C" transform="translate(0,0)"/>
<path d="M0 0 C1.01924561 0.26823326 1.01924561 0.26823326 2.05908203 0.54188538 C3.51548898 0.92560448 4.97087593 1.31321289 6.42529297 1.70440674 C8.71861299 2.31690336 11.01631513 2.90908223 13.31640625 3.49560547 C17.30397933 4.51346048 21.28483119 5.55487118 25.26318359 6.6081543 C26.89235759 7.03685839 28.52292914 7.46028303 30.15478516 7.87866211 C51.29136673 13.30448767 51.29136673 13.30448767 56.1875 20.55859375 C60.31692968 29.11760988 56.51937478 38.98616278 54.1875 47.55859375 C53.8250777 48.92069415 53.4634371 50.28300276 53.10253906 51.64550781 C52.165642 55.16899499 51.21388982 58.68828452 50.25756836 62.20654297 C49.697382 64.27215521 49.14180089 66.33894674 48.58789062 68.40625 C47.54621955 72.29269316 46.49370707 76.1760735 45.4375 80.05859375 C45.12103516 81.2280957 44.80457031 82.39759766 44.47851562 83.60253906 C38.63673778 104.78357635 38.63673778 104.78357635 33.6875 109.30859375 C24.65317493 114.25190369 17.32247103 111.96294325 7.91015625 109.421875 C6.78483994 109.12298874 5.65952362 108.82410248 4.50010681 108.51615906 C2.12623095 107.88252137 -0.24642665 107.24430407 -2.61791992 106.60180664 C-6.23008906 105.62646998 -9.84794049 104.67478989 -13.46679688 103.72460938 C-15.77903046 103.10429653 -18.09089257 102.48259699 -20.40234375 101.859375 C-21.47653061 101.57894852 -22.55071747 101.29852203 -23.65745544 101.00959778 C-31.26984945 98.91622238 -38.58334829 96.63790936 -42.8125 89.55859375 C-47.35233752 80.55719177 -42.82323768 69.62400187 -40.3125 60.62109375 C-39.90236959 59.12153841 -39.49328611 57.62169638 -39.08520508 56.12158203 C-38.45718129 53.81490963 -37.82795494 51.50861494 -37.19404602 49.20355225 C-35.77558186 44.04269565 -34.40839752 38.87073515 -33.07421875 33.6875 C-32.54983565 31.66438605 -32.02484423 29.64143075 -31.49975586 27.61849976 C-31.01243243 25.73172841 -30.53248551 23.84305667 -30.05273438 21.9543457 C-27.61042494 12.62969681 -25.38328231 5.0985028 -17.3125 -0.69140625 C-12.07792614 -3.30869318 -5.34830641 -1.43132144 0 0 Z " fill="#EAEAEA" transform="translate(116.3125,73.69140625)"/>
<path d="M0 0 C18.75757576 0 18.75757576 0 23.3125 4.0625 C25.62893865 8.09481914 25.96534197 11.45252132 25 16 C23.56015127 18.44126601 22.05565684 19.99573458 20 22 C20.433125 22.77085937 20.86625 23.54171875 21.3125 24.3359375 C21.869375 25.33882813 22.42625 26.34171875 23 27.375 C23.556875 28.37273437 24.11375 29.37046875 24.6875 30.3984375 C26 33 26 33 26 35 C23.69 35 21.38 35 19 35 C17.99491199 33.21118264 16.99607264 31.41885304 16 29.625 C15.1646875 28.12839844 15.1646875 28.12839844 14.3125 26.6015625 C13 24 13 24 13 22 C10.69 22 8.38 22 6 22 C6 26.29 6 30.58 6 35 C4.02 35 2.04 35 0 35 C0 23.45 0 11.9 0 0 Z " fill="#F7F7F7" transform="translate(188,361)"/>
<path d="M0 0 C1.98 0 3.96 0 6 0 C6.33 0.99 6.66 1.98 7 3 C7.33 2.505 7.66 2.01 8 1.5 C11.07696877 -0.80772658 14.3378441 -0.4494799 18 0 C20.5 1 20.5 1 22 2 C22.99 1.34 23.98 0.68 25 0 C31.88791849 -0.65599224 31.88791849 -0.65599224 35.23828125 1.3203125 C38.09578058 5.66675272 37.41729726 10.17960606 37.25 15.25 C37.23195313 16.28125 37.21390625 17.3125 37.1953125 18.375 C37.14822712 20.91761064 37.0824805 23.45833162 37 26 C35.02 26 33.04 26 31 26 C30.97494385 25.42967041 30.9498877 24.85934082 30.92407227 24.27172852 C30.80843451 21.70173843 30.68556376 19.13214473 30.5625 16.5625 C30.52318359 15.66466797 30.48386719 14.76683594 30.44335938 13.84179688 C30.40146484 12.98779297 30.35957031 12.13378906 30.31640625 11.25390625 C30.27974854 10.46314697 30.24309082 9.6723877 30.20532227 8.85766602 C30.19436743 6.98598559 30.19436743 6.98598559 29 6 C26.5 5.83333333 26.5 5.83333333 24 6 C22.45049732 7.54950268 22.78344807 9.09990594 22.68359375 11.25390625 C22.64169922 12.10791016 22.59980469 12.96191406 22.55664062 13.84179688 C22.51732422 14.73962891 22.47800781 15.63746094 22.4375 16.5625 C22.39431641 17.46419922 22.35113281 18.36589844 22.30664062 19.29492188 C22.20021858 21.52978485 22.09820012 23.76476308 22 26 C20.02 26 18.04 26 16 26 C15.97494385 25.42967041 15.9498877 24.85934082 15.92407227 24.27172852 C15.80843451 21.70173843 15.68556376 19.13214473 15.5625 16.5625 C15.52318359 15.66466797 15.48386719 14.76683594 15.44335938 13.84179688 C15.40146484 12.98779297 15.35957031 12.13378906 15.31640625 11.25390625 C15.27974854 10.46314697 15.24309082 9.6723877 15.20532227 8.85766602 C15.19436743 6.98598559 15.19436743 6.98598559 14 6 C11.5 5.83333333 11.5 5.83333333 9 6 C7.45049732 7.54950268 7.78344807 9.09990594 7.68359375 11.25390625 C7.64169922 12.10791016 7.59980469 12.96191406 7.55664062 13.84179688 C7.49766602 15.18854492 7.49766602 15.18854492 7.4375 16.5625 C7.39431641 17.46419922 7.35113281 18.36589844 7.30664062 19.29492188 C7.20021858 21.52978485 7.09820012 23.76476308 7 26 C4.69 26 2.38 26 0 26 C0 17.42 0 8.84 0 0 Z " fill="#F0F0F0" transform="translate(302,370)"/>
<path d="M0 0 C13 0 13 0 18 3 C20.8924618 6.49090217 21.4814065 9.48089775 21.28515625 14.01171875 C20.42320175 20.02178504 17.6871568 22.25027456 13 26 C8.71 26 4.42 26 0 26 C0 17.42 0 8.84 0 0 Z " fill="#242424" transform="translate(75,427)"/>
<path d="M0 0 C3.93497018 1.96748509 6.825255 4.13378667 9 8 C9 9.32 9 10.64 9 12 C7.02 12 5.04 12 3 12 C2.7525 11.38125 2.505 10.7625 2.25 10.125 C0.72778828 7.53724008 -0.16777975 6.94407342 -3 6 C-5.95720628 5.33319632 -5.95720628 5.33319632 -9 6 C-12.4402236 8.76713637 -13.76557905 10.32521943 -14.37890625 14.70703125 C-14.50929244 21.17173704 -14.50929244 21.17173704 -12 27 C-8.2794164 29.48038907 -6.40203429 29.46337203 -2 29 C0.36497439 27.13291495 1.66030715 25.67938569 3 23 C4.98 23 6.96 23 9 23 C8.86210108 25.96482674 8.71055664 28.21234484 6.66796875 30.4765625 C1.49795862 34.77861473 -1.66631941 35.34533477 -8.234375 35.28515625 C-13.0473343 34.7889048 -15.71534029 32.46185415 -18.8125 28.9375 C-22.12476474 23.53327858 -21.41387372 17.11028106 -21 11 C-19.39351252 6.18053757 -17.14839755 3.87196754 -13 1 C-9.05349633 -0.97325184 -4.30133287 -0.44349901 0 0 Z " fill="#F3F3F3" transform="translate(96,361)"/>
<path d="M0 0 C3.59716743 0.47927121 5.31309487 1.6207765 7.66796875 4.35546875 C10.43566451 8.1775248 9.66796875 10.03707912 9.66796875 15.35546875 C3.72796875 15.35546875 -2.21203125 15.35546875 -8.33203125 15.35546875 C-7.67203125 17.00546875 -7.01203125 18.65546875 -6.33203125 20.35546875 C-3.42198222 21.43770241 -3.42198222 21.43770241 -0.33203125 21.35546875 C0.65796875 20.69546875 1.64796875 20.03546875 2.66796875 19.35546875 C5.85546875 19.23046875 5.85546875 19.23046875 8.66796875 19.35546875 C7.19859925 24.00847218 7.19859925 24.00847218 4.9296875 25.4921875 C0.62154027 27.1365753 -3.8108699 27.01284829 -8.33203125 26.35546875 C-12.13154679 23.64152908 -14.15036172 20.86729787 -15.33203125 16.35546875 C-15.95733624 10.62350634 -14.90123252 7.84246463 -11.33203125 3.35546875 C-10.90277344 2.81277344 -10.47351563 2.27007812 -10.03125 1.7109375 C-7.02000871 -0.69113314 -3.69962454 -0.10263159 0 0 Z " fill="#EAEAEA" transform="translate(232.33203125,369.64453125)"/>
<path d="M0 0 C3.59716743 0.47927121 5.31309487 1.6207765 7.66796875 4.35546875 C10.43566451 8.1775248 9.66796875 10.03707912 9.66796875 15.35546875 C3.72796875 15.35546875 -2.21203125 15.35546875 -8.33203125 15.35546875 C-7.67203125 17.00546875 -7.01203125 18.65546875 -6.33203125 20.35546875 C-2.92882191 21.03220322 -2.92882191 21.03220322 0.66796875 21.35546875 C1.32796875 20.69546875 1.98796875 20.03546875 2.66796875 19.35546875 C5.79296875 19.23046875 5.79296875 19.23046875 8.66796875 19.35546875 C7.41820119 23.00863546 6.99698122 24.13612711 3.66796875 26.35546875 C-0.67677118 27.00342839 -5.27707651 27.33440388 -9.31640625 25.41015625 C-12.51222732 22.89463372 -14.39742843 20.28080058 -15.33203125 16.35546875 C-15.95733624 10.62350634 -14.90123252 7.84246463 -11.33203125 3.35546875 C-10.90277344 2.81277344 -10.47351563 2.27007812 -10.03125 1.7109375 C-7.02000871 -0.69113314 -3.69962454 -0.10263159 0 0 Z " fill="#EBEBEB" transform="translate(359.33203125,369.64453125)"/>
<path d="M0 0 C2.31 0 4.62 0 7 0 C8.34350008 3.74643573 9.67301661 7.49768549 11 11.25 C11.3815625 12.31347656 11.763125 13.37695312 12.15625 14.47265625 C12.5171875 15.49746094 12.878125 16.52226562 13.25 17.578125 C13.58515625 18.52075195 13.9203125 19.46337891 14.265625 20.43457031 C15 23 15 23 15 27 C15.66 27 16.32 27 17 27 C17.26554687 25.71222656 17.53109375 24.42445313 17.8046875 23.09765625 C18.91808636 18.08736139 20.45671826 13.28669215 22.125 8.4375 C22.40214844 7.61958984 22.67929688 6.80167969 22.96484375 5.95898438 C23.63905137 3.97123432 24.31892204 1.98540651 25 0 C27.31 0 29.62 0 32 0 C29.96425017 8.11973938 27.31139779 15.87697354 24.3125 23.6875 C23.68891602 25.33008789 23.68891602 25.33008789 23.05273438 27.00585938 C22.03970298 29.6723443 21.02207257 32.33697053 20 35 C17.36 35 14.72 35 12 35 C10.28692579 30.33840312 8.57803719 25.67530186 6.87304688 21.01074219 C6.29217106 19.42340482 5.71014411 17.83648823 5.12695312 16.25 C4.28995194 13.97244574 3.45707244 11.69342126 2.625 9.4140625 C2.36251465 8.70255035 2.1000293 7.99103821 1.82958984 7.25796509 C0 2.22774341 0 2.22774341 0 0 Z " fill="#F2F2F2" transform="translate(109,361)"/>
<path d="M0 0 C9.00895896 0.23864792 17.72791606 3.15058313 26.375 5.5 C27.94645939 5.92115241 29.51807293 6.34173008 31.08984375 6.76171875 C42.31324223 9.77108074 42.31324223 9.77108074 46 11 C46.625 13.875 46.625 13.875 47 17 C46.34 17.66 45.68 18.32 45 19 C37.95391186 18.70961576 31.25593545 16.57650289 24.50073242 14.67138672 C22.57187204 14.12764197 20.64042708 13.59309335 18.70898438 13.05859375 C12.07343868 11.20793352 5.51021251 9.25271771 -1 7 C-1.625 4.625 -1.625 4.625 -2 2 C-1.34 1.34 -0.68 0.68 0 0 Z " fill="#0B0B0B" transform="translate(107,95)"/>
<path d="M0 0 C8.21378886 0.38595047 16.75901849 3.71702159 24.6887207 5.88623047 C26.95547747 6.50490667 29.22467958 7.1139848 31.49414062 7.72265625 C32.94286516 8.11661125 34.39143865 8.5111222 35.83984375 8.90625 C36.51482407 9.08651733 37.18980438 9.26678467 37.88523865 9.45251465 C41.03080579 10.32170409 43.25276745 11.16851163 46 13 C46.25 15.5625 46.25 15.5625 46 18 C45 19 45 19 42.125 19.234375 C36.89929446 19.15455261 32.00615496 17.63311155 27 16.25 C25.48273315 15.84056152 25.48273315 15.84056152 23.93481445 15.42285156 C21.90444816 14.87479307 19.87488825 14.32373748 17.84619141 13.76953125 C15.31259364 13.08451665 12.77490119 12.42460682 10.23046875 11.78125 C9.19116211 11.51586426 9.19116211 11.51586426 8.13085938 11.24511719 C6.31037809 10.78130613 4.48919784 10.32024096 2.66796875 9.859375 C0 9 0 9 -2 7 C-2.25 4.5 -2.25 4.5 -2 2 C-1.34 1.34 -0.68 0.68 0 0 Z " fill="#0A0A0A" transform="translate(103,112)"/>
<path d="M0 0 C3.41145269 0.46256986 5.41065682 0.26704074 8.6875 -0.5 C8.74564085 3.08326501 8.78114357 6.66640838 8.8125 10.25 C8.82925781 11.26578125 8.84601563 12.2815625 8.86328125 13.328125 C8.86972656 14.3078125 8.87617188 15.2875 8.8828125 16.296875 C8.89328613 17.19760742 8.90375977 18.09833984 8.91455078 19.02636719 C8.67156348 21.67362239 8.09068258 23.25815512 6.6875 25.5 C3.45955762 27.80567313 0.57183181 27.82369432 -3.3125 27.5 C-5.6875 26.5 -5.6875 26.5 -7.3125 25.5 C-6.9825 24.18 -6.6525 22.86 -6.3125 21.5 C-5.3225 22.16 -4.3325 22.82 -3.3125 23.5 C-1.25540404 23.74055468 -1.25540404 23.74055468 0.875 23.625 C2.133125 23.58375 3.39125 23.5425 4.6875 23.5 C4.6875 21.52 4.6875 19.54 4.6875 17.5 C3.6975 18.16 2.7075 18.82 1.6875 19.5 C-4.39306042 19.17425569 -4.39306042 19.17425569 -7.1875 17.125 C-9.73939353 13.43893157 -9.68598028 9.8323713 -9.3125 5.5 C-6.55886101 1.27775355 -5.16156385 -0.77910398 0 0 Z " fill="#D6D6D6" transform="translate(138.3125,433.5)"/>
<path d="M0 0 C1.98 0 3.96 0 6 0 C6.04898437 1.27617187 6.09796875 2.55234375 6.1484375 3.8671875 C6.22346191 5.53648072 6.29900988 7.20575046 6.375 8.875 C6.4059375 9.71675781 6.436875 10.55851562 6.46875 11.42578125 C6.50742187 12.23144531 6.54609375 13.03710938 6.5859375 13.8671875 C6.6173584 14.61081543 6.6487793 15.35444336 6.68115234 16.12060547 C6.85419551 18.24010974 6.85419551 18.24010974 9 20 C12.06991681 19.83557723 12.06991681 19.83557723 15 19 C16.6498007 15.70039859 16.38258361 12.00872116 16.5625 8.375 C16.60568359 7.57320313 16.64886719 6.77140625 16.69335938 5.9453125 C16.79951457 3.9637489 16.90026855 1.98189729 17 0 C18.98 0 20.96 0 23 0 C23 8.58 23 17.16 23 26 C21.02 26 19.04 26 17 26 C16.67 25.01 16.34 24.02 16 23 C15.67 23.495 15.34 23.99 15 24.5 C12.38837534 26.4587185 10.14332185 26.4772361 6.9375 26.359375 C3.96448621 25.80792889 2.71958879 24.40742431 1 22 C0.05862745 19.17588235 -0.11725382 17.47081968 -0.09765625 14.55078125 C-0.09443359 13.70322266 -0.09121094 12.85566406 -0.08789062 11.98242188 C-0.07951172 11.10134766 -0.07113281 10.22027344 -0.0625 9.3125 C-0.05798828 8.41982422 -0.05347656 7.52714844 -0.04882812 6.60742188 C-0.03704983 4.40488013 -0.02060164 2.20247401 0 0 Z " fill="#F5F5F5" transform="translate(273,370)"/>
<path d="M0 0 C1.03125 -0.0103125 2.0625 -0.020625 3.125 -0.03125 C6.65000165 0.620109 7.86305417 1.66443727 10 4.5 C10 5.49 10 6.48 10 7.5 C6.28400809 7.70086443 5.22791555 7.6519437 2 5.5 C-0.62531524 5.33286431 -0.62531524 5.33286431 -3 5.5 C-3 6.82 -3 8.14 -3 9.5 C-2.24074219 9.68175781 -1.48148438 9.86351562 -0.69921875 10.05078125 C0.29464844 10.30214844 1.28851563 10.55351562 2.3125 10.8125 C3.29863281 11.05613281 4.28476562 11.29976563 5.30078125 11.55078125 C8.03675596 12.51292576 9.29059688 13.19030481 11 15.5 C11.43490509 18.90675656 11.39345822 20.8067641 9.6875 23.8125 C6.7647792 26.7352208 3.5728893 26.73439024 -0.375 26.875 C-4.60531835 26.85258772 -5.67109061 26.74506974 -9.1875 24.125 C-11 21.5 -11 21.5 -11 19.5 C-5.375 19.25 -5.375 19.25 -2 21.5 C0.62531524 21.66713569 0.62531524 21.66713569 3 21.5 C3.66 20.18 4.32 18.86 5 17.5 C4.16855469 17.31824219 3.33710938 17.13648438 2.48046875 16.94921875 C1.39378906 16.69785156 0.30710937 16.44648438 -0.8125 16.1875 C-1.89144531 15.94386719 -2.97039062 15.70023437 -4.08203125 15.44921875 C-6.97929712 14.50673467 -8.2583743 13.95736229 -10 11.5 C-10.48905113 7.6574554 -10.72500172 5.46152711 -8.34765625 2.30859375 C-5.38492491 0.02615679 -3.70699686 -0.03706997 0 0 Z " fill="#F3F3F3" transform="translate(257,369.5)"/>
<path d="M0 0 C5 1 5 1 6.30200195 2.85766602 C6.76546021 4.04380493 6.76546021 4.04380493 7.23828125 5.25390625 C7.58310547 6.10791016 7.92792969 6.96191406 8.28320312 7.84179688 C8.62287109 8.73962891 8.96253906 9.63746094 9.3125 10.5625 C9.67150391 11.46419922 10.03050781 12.36589844 10.40039062 13.29492188 C11.28479526 15.52362156 12.15023122 17.75791532 13 20 C13.21615967 19.42967041 13.43231934 18.85934082 13.6550293 18.27172852 C14.64541048 15.69358085 15.66589787 13.12842707 16.6875 10.5625 C17.19700195 9.21575195 17.19700195 9.21575195 17.71679688 7.84179688 C18.06162109 6.98779297 18.40644531 6.13378906 18.76171875 5.25390625 C19.07069092 4.46314697 19.37966309 3.6723877 19.69799805 2.85766602 C21 1 21 1 26 0 C26 8.58 26 17.16 26 26 C25.01 26 24.02 26 23 26 C22.67 20.39 22.34 14.78 22 9 C19.69 14.61 17.38 20.22 15 26 C13.68 26 12.36 26 11 26 C8.69 20.39 6.38 14.78 4 9 C3.67 14.61 3.34 20.22 3 26 C2.01 26 1.02 26 0 26 C0 17.42 0 8.84 0 0 Z " fill="#EAEAEA" transform="translate(184,427)"/>
<path d="M0 0 C2.69990662 1.79993774 4.5418865 3.083773 6 6 C6.3506291 11.34709374 6.44403637 14.62872307 3 19 C-0.19491759 20.59745879 -3.53209389 20.50816842 -7 20 C-9.96858157 17.79259319 -10.82865791 16.51402627 -12 13 C-12.38887761 8.80012182 -12.45908323 6.70392762 -10.125 3.125 C-6.79974618 -0.20025382 -4.65430991 -0.45630489 0 0 Z " fill="#E3E3E3" transform="translate(163,433)"/>
<path d="M0 0 C6.41575646 0.41672031 12.62108642 2.35619326 18.8125 4 C20.38547852 4.40992188 20.38547852 4.40992188 21.99023438 4.828125 C29.72627551 6.86313776 29.72627551 6.86313776 32 8 C32.04254356 9.99954746 32.04080783 12.00041636 32 14 C31 15 31 15 28.24609375 15.28125 C22.32838715 15.1965601 16.69202083 13.15781227 11.0625 11.5 C9.90169922 11.16613281 8.74089844 10.83226562 7.54492188 10.48828125 C4.6941252 9.6670641 1.84606678 8.83743407 -1 8 C-1.625 5.125 -1.625 5.125 -2 2 C-1.34 1.34 -0.68 0.68 0 0 Z " fill="#090909" transform="translate(98,130)"/>
<path d="M0 0 C1.27020816 3.81062447 0.39687336 6.44612496 -0.625 10.1875 C-0.89860352 11.19635254 -0.89860352 11.19635254 -1.17773438 12.22558594 C-2.97814161 18.49670136 -5.29846212 23.46219169 -10.0625 27.9375 C-18.02589863 32.30452505 -26.67866351 29.28293905 -34.84765625 27.04296875 C-35.97771591 26.73933914 -37.10777557 26.43570953 -38.27207947 26.12287903 C-40.65429408 25.48060737 -43.03534467 24.83400461 -45.4152832 24.18334961 C-49.05053376 23.19076731 -52.68988366 22.21450943 -56.33007812 21.24023438 C-58.64869969 20.61294749 -60.96706801 19.98472365 -63.28515625 19.35546875 C-64.36966568 19.0647197 -65.45417511 18.77397064 -66.57154846 18.47441101 C-71.69124347 17.06596626 -76.37613791 15.63075801 -81 13 C-79.25 12.375 -79.25 12.375 -77 12 C-75.66553288 12.66439427 -74.33236995 13.33141003 -73 14 C-71.38610296 14.38350029 -69.75915482 14.7149138 -68.125 15 C-64.26052992 15.67840227 -60.7203015 16.7598995 -57 18 C-53.58616915 18.82104793 -50.16092516 19.56829542 -46.73046875 20.31640625 C-44 21 -44 21 -43 22 C-40.86063023 22.37257052 -38.71303715 22.69850082 -36.5625 23 C-30.21679389 23.89160305 -30.21679389 23.89160305 -28 25 C-22.1380192 25.49389617 -16.79916316 25.80652142 -11.375 23.375 C-7.28708723 19.28708723 -5.69903803 14.35509648 -3.76171875 9.03515625 C-2.61612841 5.97437385 -1.30977263 2.99376602 0 0 Z " fill="#979797" transform="translate(159,156)"/>
<path d="M0 0 C2.6796875 2.03515625 2.6796875 2.03515625 5 5 C5.36771245 7.8387401 5.48630804 10.01820151 5.3125 12.8125 C5.28994141 13.50537109 5.26738281 14.19824219 5.24414062 14.91210938 C5.18562661 16.60901573 5.0959548 18.30479861 5 20 C2.89646505 20.0810206 0.79204048 20.13919907 -1.3125 20.1875 C-2.48425781 20.22230469 -3.65601563 20.25710938 -4.86328125 20.29296875 C-8 20 -8 20 -9.89453125 18.64453125 C-11.47793508 16.28900824 -11.41637778 14.77585184 -11 12 C-9.35703667 9.84589252 -8.40391002 9.09138551 -5.73828125 8.48828125 C-4.93777344 8.43027344 -4.13726562 8.37226563 -3.3125 8.3125 C-2.10013672 8.21388672 -2.10013672 8.21388672 -0.86328125 8.11328125 C-0.24839844 8.07589844 0.36648437 8.03851563 1 8 C0.67 6.68 0.34 5.36 0 4 C-3.5219721 3.91995518 -6.61981469 3.95994298 -10 5 C-7.72128672 -0.04572227 -5.53761719 -0.65148438 0 0 Z " fill="#D0D0D0" transform="translate(226,433)"/>
<path d="M0 0 C1.65 0 3.3 0 5 0 C4.25619195 6.41307675 2.711984 12.56133131 1.125 18.8125 C0.86847656 19.84181641 0.61195313 20.87113281 0.34765625 21.93164062 C-1.26640748 28.34328572 -3.0387354 34.68591983 -5 41 C-6.65 41 -8.3 41 -10 41 C-9.40043965 33.92226316 -7.97056303 27.35109006 -6.125 20.5 C-5.74021484 19.02853516 -5.74021484 19.02853516 -5.34765625 17.52734375 C-3.77837263 11.6050724 -2.02009751 5.78408617 0 0 Z " fill="#EEEEEE" transform="translate(166,360)"/>
<path d="M0 0 C2.875 1.5625 2.875 1.5625 5 4 C5 6.31 5 8.62 5 11 C0.38 11 -4.24 11 -9 11 C-8.34 12.98 -7.68 14.96 -7 17 C-3.58343976 17.16677282 -3.58343976 17.16677282 0 17 C0.66 16.34 1.32 15.68 2 15 C2.99 15 3.98 15 5 15 C3.25 18.875 3.25 18.875 1 20 C-2.01107177 20.34553283 -4.09312777 20.57248153 -7 20 C-10.0874681 17.42710991 -11.58386894 15.88916134 -12.44140625 11.99609375 C-12.65854308 8.30476763 -12.10708037 6.16775924 -10.125 3.0625 C-6.77678373 -0.18723932 -4.62344486 -0.45327891 0 0 Z " fill="#F1F1F1" transform="translate(120,433)"/>
<path d="M0 0 C13 0 13 0 18 3 C20.8924618 6.49090217 21.4814065 9.48089775 21.28515625 14.01171875 C20.42320175 20.02178504 17.6871568 22.25027456 13 26 C8.71 26 4.42 26 0 26 C0 17.42 0 8.84 0 0 Z M3 2 C3 8.93 3 15.86 3 23 C11.30029647 23.77567346 11.30029647 23.77567346 15 21.1875 C17.57248533 18.37384417 17.94866316 16.45347543 18.375 12.6875 C17.87765929 7.79698299 16.42915508 6.42915508 13 3 C10.18010841 1.40371521 10.18010841 1.40371521 3 2 Z " fill="#ECECEC" transform="translate(75,427)"/>
<path d="M0 0 C13.83222213 2.12559377 27.44684304 5.80116479 40.7734375 10.01953125 C44.61941099 11.18822295 48.48367903 12.24407117 52.375 13.25 C53.35678223 13.5130896 53.35678223 13.5130896 54.35839844 13.78149414 C59.87749088 15.1767466 64.78901085 15.82370184 70.1875 13.8125 C73.19183134 11.87637536 74.95542424 9.90958859 77 7 C76.70179167 10.57849992 76.25754642 11.76226484 73.5625 14.25 C69.63667035 16.9310544 67.50791355 17.16034296 62.75 17.1875 C61.63109375 17.20167969 60.5121875 17.21585938 59.359375 17.23046875 C55.90240232 16.99330435 53.24821065 16.15817347 50 15 C47.69351823 14.63249702 47.69351823 14.63249702 45.5 14.5 C41.74025404 14.14222785 38.56508056 13.28949722 35 12 C33.02105392 11.52122272 31.0420801 11.04255525 29.0625 10.56640625 C27.01119302 10.00307384 25.09822234 9.2916759 23.125 8.5 C20.10298187 7.31489485 17.19258676 6.58579573 14 6 C9.38122283 5.1433489 5.30980468 3.88064204 1 2 C0.67 1.34 0.34 0.68 0 0 Z " fill="#C8C8C8" transform="translate(75,165)"/>
<path d="M0 0 C10.59956158 0.85480335 20.80009141 3.04064548 31 6 C31 6.66 31 7.32 31 8 C32.12148437 8.14695312 32.12148437 8.14695312 33.265625 8.296875 C34.25046875 8.44640625 35.2353125 8.5959375 36.25 8.75 C37.22453125 8.88921875 38.1990625 9.0284375 39.203125 9.171875 C42.45006821 10.13326042 43.82722029 11.45474377 46 14 C35.40507061 11.61122282 24.92265822 8.95761725 14.48974609 5.93115234 C7.85681132 4.04230539 7.85681132 4.04230539 1 4 C0.01 4.66 -0.98 5.32 -2 6 C-1.125 1.125 -1.125 1.125 0 0 Z " fill="#B1B1B1" transform="translate(106,92)"/>
<path d="M0 0 C3 0.5 3 0.5 4.875 2.125 C6.34307183 5.22426275 6.48550505 7.10146464 6 10.5 C4 13.375 4 13.375 2 15.5 C-0.97454134 15.17842796 -2.59335278 14.87860258 -4.8125 12.8125 C-6.36382423 9.79150017 -6.41972691 7.85781526 -6 4.5 C-4.42104751 1.16665585 -3.67116043 0.61186007 0 0 Z " fill="#1F1F1F" transform="translate(160,435.5)"/>
<path d="M0 0 C0.99 0 1.98 0 3 0 C4.65 4.95 6.3 9.9 8 15 C9.48348498 10.44339012 9.48348498 10.44339012 10.93066406 5.87524414 C11.515625 4.16015625 11.515625 4.16015625 13 1 C15.171875 0.05859375 15.171875 0.05859375 17 0 C15.35041996 6.14975013 13.27847456 12.08494787 10.9375 18 C10.6801709 18.6587915 10.4228418 19.31758301 10.15771484 19.99633789 C9.02894163 22.80367786 8.16207286 24.83792714 6 27 C3.375 27.125 3.375 27.125 1 27 C1 26.34 1 25.68 1 25 C2.32 24.34 3.64 23.68 5 23 C4.57864714 16.57436889 3.2331125 11.3617259 0.83984375 5.3828125 C0 3 0 3 0 0 Z " fill="#E6E6E6" transform="translate(270,433)"/>
<path d="M0 0 C8.21900826 -0.48347107 8.21900826 -0.48347107 11.625 1.625 C13 4 13 4 12.9375 7.125 C12 10 12 10 9 12 C5.97670744 12.2610788 3.04123758 12.08815181 0 12 C0 8.04 0 4.08 0 0 Z " fill="#242424" transform="translate(194,366)"/>
<path d="M0 0 C3.50325794 0.04254969 6.3361133 0.95103772 9.625 2.125 C15.14599798 4.08986645 20.54894885 5.23191424 26.29858398 6.23095703 C32.04170278 7.24130122 37.60371393 8.64446221 43.1875 10.3125 C43.6825 12.2925 43.6825 12.2925 44.1875 14.3125 C36.27633094 12.56050795 28.42197937 10.69412331 20.6328125 8.453125 C19.51511475 8.13158447 18.39741699 7.81004395 17.24584961 7.47875977 C15.01754153 6.83174832 12.79171378 6.17612598 10.56860352 5.51147461 C9.53920654 5.21249268 8.50980957 4.91351074 7.44921875 4.60546875 C6.53100342 4.3324292 5.61278809 4.05938965 4.66674805 3.77807617 C2.06491013 3.28947894 0.62850497 3.32212994 -1.8125 4.3125 C-3.09686734 6.2962767 -3.09686734 6.2962767 -3.8125 8.3125 C-3.85491723 5.97955225 -3.85342937 3.64547433 -3.8125 1.3125 C-2.8125 0.3125 -2.8125 0.3125 0 0 Z " fill="#929292" transform="translate(103.8125,109.6875)"/>
<path d="M0 0 C1.4540625 0.2165625 1.4540625 0.2165625 2.9375 0.4375 C5.01108419 3.54787628 5.23237123 4.43311252 5.25 8 C5.27513672 9.17755859 5.27513672 9.17755859 5.30078125 10.37890625 C5.12095703 11.39791016 5.12095703 11.39791016 4.9375 12.4375 C1.71606724 14.58512184 0.6779533 14.998568 -3.0625 14.4375 C-5.57157308 12.18798621 -6.01906309 10.78499528 -6.4375 7.4375 C-5.8488939 2.72865123 -4.85535911 0.69362273 0 0 Z " fill="#1E1E1E" transform="translate(138.0625,435.5625)"/>
<path d="M0 0 C0.99 0 1.98 0 3 0 C3.06058594 1.07121094 3.12117187 2.14242188 3.18359375 3.24609375 C3.26798537 4.64324391 3.35263406 6.04037857 3.4375 7.4375 C3.47681641 8.14455078 3.51613281 8.85160156 3.55664062 9.58007812 C3.47624438 13.08690419 3.47624438 13.08690419 5 16 C7.45809998 16.2500773 7.45809998 16.2500773 10 16 C12.77042109 13.22957891 12.39796106 11.23466195 12.625 7.375 C12.69976562 6.18648438 12.77453125 4.99796875 12.8515625 3.7734375 C12.90054688 2.85820312 12.94953125 1.94296875 13 1 C13.66 1 14.32 1 15 1 C15 7.27 15 13.54 15 20 C13.68 19.67 12.36 19.34 11 19 C10.34 19.33 9.68 19.66 9 20 C6.0625 20.3125 6.0625 20.3125 3 20 C0.1652292 17.46189126 -0.00370736 15.95076629 -0.29296875 12.109375 C-0.27314945 10.65595991 -0.23754845 9.20268833 -0.1875 7.75 C-0.17396484 7.00492187 -0.16042969 6.25984375 -0.14648438 5.4921875 C-0.11127204 3.66114584 -0.05746851 1.83047831 0 0 Z " fill="#EBEBEB" transform="translate(236,433)"/>
<path d="M0 0 C2 2 2 2 2.35546875 5.69140625 C2.19307535 12.64378707 0.12507216 19.27129573 -1.6875 25.9375 C-2.05490959 27.32016216 -2.42144128 28.70305789 -2.78710938 30.08618164 C-3.84222093 34.0618511 -4.91846292 38.03143586 -6 42 C-6.28697754 43.05445313 -6.57395508 44.10890625 -6.86962891 45.1953125 C-8.22014126 50.1378303 -9.59419656 55.07292931 -11 60 C-11.91145054 57.02977779 -12.01801972 54.93514414 -11.44140625 51.890625 C-11.23354492 50.75947266 -11.23354492 50.75947266 -11.02148438 49.60546875 C-10.87001953 48.82816406 -10.71855469 48.05085938 -10.5625 47.25 C-10.41490234 46.45722656 -10.26730469 45.66445312 -10.11523438 44.84765625 C-9.75096034 42.89702754 -9.37647488 40.9483107 -9 39 C-8.34 39 -7.68 39 -7 39 C-6.95681641 38.40791748 -6.91363281 37.81583496 -6.86914062 37.20581055 C-6.305763 30.57255583 -5.06134557 24.27647064 -3.5 17.8125 C-2.0863339 11.88721954 -0.7365066 6.05107129 0 0 Z " fill="#949494" transform="translate(172,96)"/>
<path d="M0 0 C1.44715727 3.87186448 0.5441918 6.8232328 -0.4375 10.75 C-0.72496094 11.92046875 -1.01242188 13.0909375 -1.30859375 14.296875 C-1.53675781 15.18890625 -1.76492187 16.0809375 -2 17 C-2.66 17 -3.32 17 -4 17 C-4.03738281 17.82242188 -4.07476562 18.64484375 -4.11328125 19.4921875 C-4.5431577 26.79165823 -5.61304716 33.11253695 -8 40 C-8.32355469 41.06089844 -8.64710938 42.12179688 -8.98046875 43.21484375 C-9.31691406 44.29894531 -9.65335938 45.38304687 -10 46.5 C-10.4640625 48.00046875 -10.4640625 48.00046875 -10.9375 49.53125 C-12 52 -12 52 -15 54 C-8.69359756 26.69359756 -8.69359756 26.69359756 -7 25 C-6.531566 22.88160418 -6.10098666 20.75480281 -5.6875 18.625 C-4.34752762 12.150678 -2.46341259 6.12726989 0 0 Z " fill="#CFCFCF" transform="translate(167,118)"/>
<path d="M0 0 C11.62700452 -0.71185742 23.01192955 2.05416042 33 8 C32.67 8.66 32.34 9.32 32 10 C31.23856689 9.7827124 30.47713379 9.5654248 29.69262695 9.34155273 C26.23572486 8.3620313 22.77428474 7.39961593 19.3125 6.4375 C18.11431641 6.09525391 16.91613281 5.75300781 15.68164062 5.40039062 C14.52470703 5.08134766 13.36777344 4.76230469 12.17578125 4.43359375 C11.11270752 4.13509521 10.04963379 3.83659668 8.9543457 3.52905273 C5.85919452 2.9747851 3.96289249 2.97166211 1 4 C0.34 4.99 -0.32 5.98 -1 7 C-0.67 4.69 -0.34 2.38 0 0 Z " fill="#9C9C9C" transform="translate(96,128)"/>
<path d="M0 0 C1.32 0 2.64 0 4 0 C4 6.6 4 13.2 4 20 C2.68 20 1.36 20 0 20 C0 13.4 0 6.8 0 0 Z " fill="#BEBEBE" transform="translate(100,433)"/>
<path d="M0 0 C1.32 0.33 2.64 0.66 4 1 C6.00946222 0.72949547 8.01354224 0.40632091 10 0 C10 0.99 10 1.98 10 3 C8.02 3.66 6.04 4.32 4 5 C3.67 9.95 3.34 14.9 3 20 C2.01 20 1.02 20 0 20 C0 13.4 0 6.8 0 0 Z " fill="#F4F4F4" transform="translate(257,433)"/>
<path d="M0 0 C1 3 1 3 0.14453125 4.9375 C-4.96479543 12.84871551 -4.96479543 12.84871551 -9.8125 14.6875 C-15.91458846 15.55922692 -21.12362838 14.68881845 -26.9375 13 C-27.62134766 12.80921875 -28.30519531 12.6184375 -29.00976562 12.421875 C-30.67544526 11.95595063 -32.33806675 11.47911589 -34 11 C-34 10.67 -34 10.34 -34 10 C-32.18706911 10.14037521 -30.3746557 10.28744889 -28.5625 10.4375 C-27.04849609 10.55931641 -27.04849609 10.55931641 -25.50390625 10.68359375 C-23 11 -23 11 -22 12 C-16.28202718 12.41886343 -10.15432986 12.77540839 -5 10 C-3.72412505 7.6859613 -3.72412505 7.6859613 -3 5 C-2.02763513 3.3170608 -1.03435556 1.64556566 0 0 Z " fill="#808080" transform="translate(155,171)"/>
<path d="M0 0 C6.19240462 0.68804496 12.01955594 2.28048715 18 4 C18 4.66 18 5.32 18 6 C19.12148437 6.14695312 19.12148437 6.14695312 20.265625 6.296875 C21.25046875 6.44640625 22.2353125 6.5959375 23.25 6.75 C24.71179688 6.95882812 24.71179688 6.95882812 26.203125 7.171875 C29.45006821 8.13326042 30.82722029 9.45474377 33 12 C30.76856035 11.57424494 28.53990225 11.13389613 26.3125 10.6875 C25.07113281 10.44386719 23.82976562 10.20023438 22.55078125 9.94921875 C19.12384473 9.03310701 16.97539314 7.85962071 14 6 C11.58102186 5.05529456 9.1418131 4.16118771 6.6875 3.3125 C6.04232422 3.08755859 5.39714844 2.86261719 4.73242188 2.63085938 C3.15667113 2.08226467 1.57856946 1.54043041 0 1 C0 0.67 0 0.34 0 0 Z " fill="#BEBEBE" transform="translate(119,94)"/>
<path d="M0 0 C0 0.66 0 1.32 0 2 C-2.31 2.66 -4.62 3.32 -7 4 C-7.33 5.32 -7.66 6.64 -8 8 C-5.03 8.495 -5.03 8.495 -2 9 C-2 9.66 -2 10.32 -2 11 C-7.42857143 11.36190476 -7.42857143 11.36190476 -9.875 9.8125 C-11.40659584 7.34492892 -11.42822025 5.85480169 -11 3 C-8.63169142 -1.2925593 -4.30785219 -0.21186158 0 0 Z " fill="#ECECEC" transform="translate(226,442)"/>
<path d="M0 0 C6.54590818 0.53264349 12.72399243 1.15704148 19.0234375 3.046875 C19.0234375 3.706875 19.0234375 4.366875 19.0234375 5.046875 C11.99577813 4.22009155 5.01345397 3.14439283 -1.9765625 2.046875 C-2.3065625 4.356875 -2.6365625 6.666875 -2.9765625 9.046875 C-4.9765625 7.046875 -4.9765625 7.046875 -5.2265625 4.546875 C-4.84267843 0.70803429 -3.80074186 0.0598542 0 0 Z " fill="#CFCFCF" transform="translate(97.9765625,125.953125)"/>
<path d="M0 0 C1.134375 0.020625 2.26875 0.04125 3.4375 0.0625 C3.625 2.4375 3.625 2.4375 3.4375 5.0625 C0.4375 7.0625 0.4375 7.0625 -2.75 6.6875 C-3.678125 6.48125 -4.60625 6.275 -5.5625 6.0625 C-4.48849278 0.07874549 -4.48849278 0.07874549 0 0 Z " fill="#252525" transform="translate(223.5625,443.9375)"/>
<path d="M0 0 C2.4375 0.75 2.4375 0.75 4.4375 2.75 C4.4375 3.74 4.4375 4.73 4.4375 5.75 C0.8075 5.75 -2.8225 5.75 -6.5625 5.75 C-5.47734541 1.40938165 -4.74860253 -0.4632783 0 0 Z " fill="#212121" transform="translate(357.5625,374.25)"/>
<path d="M0 0 C2.4375 0.75 2.4375 0.75 4.4375 2.75 C4.4375 3.74 4.4375 4.73 4.4375 5.75 C0.8075 5.75 -2.8225 5.75 -6.5625 5.75 C-5.47734541 1.40938165 -4.74860253 -0.4632783 0 0 Z " fill="#212121" transform="translate(230.5625,374.25)"/>
<path d="M0 0 C2 2 2 2 2.4375 5.75 C2.33755375 12.53524012 -0.52298987 18.78093529 -3 25 C-3.33 25 -3.66 25 -4 25 C-3.24595285 16.55467195 -1.62171958 8.31258777 0 0 Z " fill="#ABABAB" transform="translate(172,96)"/>
<path d="M0 0 C1.10265179 3.30045433 0.89054977 5.21659969 -0.1875 8.5 C-0.46980469 9.36625 -0.75210938 10.2325 -1.04296875 11.125 C-1.35878906 12.07375 -1.67460937 13.0225 -2 14 C-2.32613281 15.0725 -2.65226563 16.145 -2.98828125 17.25 C-3.32214844 18.3225 -3.65601563 19.395 -4 20.5 C-4.4640625 22.00046875 -4.4640625 22.00046875 -4.9375 23.53125 C-6 26 -6 26 -9 28 C-8.01 23.71 -7.02 19.42 -6 15 C-5.34 15 -4.68 15 -4 15 C-3.87882813 14.41992188 -3.75765625 13.83984375 -3.6328125 13.2421875 C-2.66264526 8.71971558 -1.56602217 4.36249034 0 0 Z " fill="#B1B1B1" transform="translate(161,144)"/>
<path d="M0 0 C3.0625 0.1875 3.0625 0.1875 5.0625 2.1875 C5.0625 3.1775 5.0625 4.1675 5.0625 5.1875 C1.7625 5.1875 -1.5375 5.1875 -4.9375 5.1875 C-3.69966216 0.23614865 -3.69966216 0.23614865 0 0 Z " fill="#1E1E1E" transform="translate(116.9375,435.8125)"/>
<path d="M0 0 C0.66 0 1.32 0 2 0 C2 6.27 2 12.54 2 19 C1.34 19 0.68 19 0 19 C0 17.68 0 16.36 0 15 C-0.66 14.67 -1.32 14.34 -2 14 C-1.67 13.67 -1.34 13.34 -1 13 C-0.76518307 10.81707226 -0.58636677 8.62796826 -0.4375 6.4375 C-0.35371094 5.23996094 -0.26992187 4.04242188 -0.18359375 2.80859375 C-0.12300781 1.88175781 -0.06242188 0.95492188 0 0 Z " fill="#FAFAFA" transform="translate(249,434)"/>
<path d="M0 0 C5.95507399 0.3916035 10.62819824 1.37124595 16 4 C16 4.99 16 5.98 16 7 C11.545 6.01 11.545 6.01 7 5 C7 4.01 7 3.02 7 2 C5.02 2 3.04 2 1 2 C0.67 1.34 0.34 0.68 0 0 Z " fill="#ABABAB" transform="translate(132,117)"/>
<path d="M0 0 C0.66 0.33 1.32 0.66 2 1 C1.34 2.98 0.68 4.96 0 7 C5.445 6.505 5.445 6.505 11 6 C11 6.66 11 7.32 11 8 C7.04 8 3.08 8 -1 8 C-1.33 7.34 -1.66 6.68 -2 6 C-2.33 8.31 -2.66 10.62 -3 13 C-3.33 13 -3.66 13 -4 13 C-4.49230769 5.73846154 -4.49230769 5.73846154 -2 2 C-1.34 1.34 -0.68 0.68 0 0 Z " fill="#ACACAC" transform="translate(112,434)"/>
<path d="M0 0 C8.9565432 0.17468435 15.93994364 2.1271715 24 6 C21.22930155 7.38534923 19.94727925 6.61733726 16.9921875 5.78515625 C15.51298828 5.37426758 15.51298828 5.37426758 14.00390625 4.95507812 C12.97136719 4.66052734 11.93882813 4.36597656 10.875 4.0625 C9.83472656 3.77181641 8.79445313 3.48113281 7.72265625 3.18164062 C5.14657073 2.46080936 2.57254641 1.73334318 0 1 C0 0.67 0 0.34 0 0 Z " fill="#8A8A8A" transform="translate(113,95)"/>
<path d="M0 0 C1 3 1 3 0.14453125 4.9375 C-4.50423729 12.13559322 -4.50423729 12.13559322 -8 14 C-8.99 14 -9.98 14 -11 14 C-11 13.34 -11 12.68 -11 12 C-9.576875 11.6596875 -9.576875 11.6596875 -8.125 11.3125 C-4.85859083 10.33474826 -4.85859083 10.33474826 -3.8125 7.6875 C-3.4103125 6.3571875 -3.4103125 6.3571875 -3 5 C-2.02763513 3.3170608 -1.03435556 1.64556566 0 0 Z " fill="#878787" transform="translate(155,171)"/>
<path d="M0 0 C2.0836309 0.14151828 4.16689938 0.28837936 6.25 0.4375 C7.99023438 0.55931641 7.99023438 0.55931641 9.765625 0.68359375 C14.96961326 1.19267956 14.96961326 1.19267956 17 2 C17.33 2.99 17.66 3.98 18 5 C14.04095497 4.23204965 10.11559159 3.35008694 6.1875 2.4375 C5.02605469 2.16808594 3.86460938 1.89867187 2.66796875 1.62109375 C1.34732422 1.31365234 1.34732422 1.31365234 0 1 C0 0.67 0 0.34 0 0 Z " fill="#B6B6B6" transform="translate(102,174)"/>
<path d="M0 0 C6.19887485 -0.37952295 10.4477112 0.1647887 16 3 C15.67 3.66 15.34 4.32 15 5 C10.05 3.68 5.1 2.36 0 1 C0 0.67 0 0.34 0 0 Z " fill="#8D8D8D" transform="translate(113,133)"/>
<path d="M0 0 C3.63 0.66 7.26 1.32 11 2 C11 2.66 11 3.32 11 4 C12.32 4.66 13.64 5.32 15 6 C10.10809102 5.38851138 5.42446714 4.20695378 1 2 C0.67 1.34 0.34 0.68 0 0 Z " fill="#B8B8B8" transform="translate(75,165)"/>
<path d="M0 0 C4.59913007 0.7884223 8.63430605 1.63430605 12 5 C12.125 8.625 12.125 8.625 12 12 C11.67 12 11.34 12 11 12 C10.855625 10.9275 10.71125 9.855 10.5625 8.75 C9.82277106 6.00799724 9.30028494 5.19049155 6.86328125 3.64453125 C4.59881623 2.65982668 2.34355399 1.77636254 0 1 C0 0.67 0 0.34 0 0 Z " fill="#C6C6C6" transform="translate(119,131)"/>
<path d="M0 0 C0.99 0 1.98 0 3 0 C2.01 3.3 1.02 6.6 0 10 C-0.99 9.67 -1.98 9.34 -3 9 C-2.01 6.03 -1.02 3.06 0 0 Z " fill="#DFDFDF" transform="translate(284,433)"/>
<path d="M0 0 C6.75 2.625 6.75 2.625 9 6 C5.05272412 6.17942163 2.4019487 6.09350689 -1 4 C-0.67 2.68 -0.34 1.36 0 0 Z " fill="#D9D9D9" transform="translate(132,455)"/>
<path d="M0 0 C1.670625 0.061875 1.670625 0.061875 3.375 0.125 C3.375 0.785 3.375 1.445 3.375 2.125 C2.4675 2.41375 1.56 2.7025 0.625 3 C-1.94702908 3.89031776 -4.23846766 4.83994413 -6.625 6.125 C-5.71577947 1.57889733 -4.95184304 0.17075321 0 0 Z " fill="#ECECEC" transform="translate(158.625,433.875)"/>
<path d="M0 0 C0.5775 0.639375 1.155 1.27875 1.75 1.9375 C3.98062401 3.98223868 5.07436391 4.58205199 8 5 C8 5.66 8 6.32 8 7 C2.56193353 7.36253776 2.56193353 7.36253776 0.0625 5.75 C-1 4 -1 4 -0.6875 1.8125 C-0.460625 1.214375 -0.23375 0.61625 0 0 Z " fill="#F3F3F3" transform="translate(216,446)"/>
<path d="M0 0 C1.58179615 -0.10867302 3.16577153 -0.18589827 4.75 -0.25 C5.63171875 -0.29640625 6.5134375 -0.3428125 7.421875 -0.390625 C10 0 10 0 14 4 C9.38 3.01 4.76 2.02 0 1 C0 0.67 0 0.34 0 0 Z " fill="#909090" transform="translate(138,102)"/>
<path d="M0 0 C0.33 0 0.66 0 1 0 C1.27429625 5.39449293 1.36055646 8.51925805 -2 13 C-3.45047396 10.09905209 -2.45356803 8.44027404 -1.5625 5.375 C-1.27503906 4.37210938 -0.98757812 3.36921875 -0.69140625 2.3359375 C-0.46324219 1.56507813 -0.23507813 0.79421875 0 0 Z " fill="#CACACA" transform="translate(155,159)"/>
<path d="M0 0 C0.53625 0.185625 1.0725 0.37125 1.625 0.5625 C4.61990614 1.11419324 7.03745829 0.60597444 10 0 C10 0.99 10 1.98 10 3 C7.36 3 4.72 3 2 3 C2 2.34 2 1.68 2 1 C1.34 0.67 0.68 0.34 0 0 Z " fill="#D5D5D5" transform="translate(257,433)"/>
<path d="M0 0 C0.33 0.99 0.66 1.98 1 3 C-1 5 -1 5 -3.625 5.125 C-4.40875 5.08375 -5.1925 5.0425 -6 5 C-6 4.34 -6 3.68 -6 3 C-4.02 2.01 -2.04 1.02 0 0 Z " fill="#F1F1F1" transform="translate(277,455)"/>
<path d="M0 0 C2.31 0 4.62 0 7 0 C1 4 1 4 -2 4 C-1.34 2.68 -0.68 1.36 0 0 Z " fill="#F2F2F2" transform="translate(218,434)"/>
<path d="M0 0 C1.4540625 0.0309375 1.4540625 0.0309375 2.9375 0.0625 C-2.20535714 4.49107143 -2.20535714 4.49107143 -6.0625 5.0625 C-3.64893617 0.07446809 -3.64893617 0.07446809 0 0 Z " fill="#EDEDED" transform="translate(136.0625,433.9375)"/>
<path d="M0 0 C1.98 0 3.96 0 6 0 C6 0.66 6 1.32 6 2 C5.21625 2.309375 4.4325 2.61875 3.625 2.9375 C1.07669872 3.92875038 1.07669872 3.92875038 -1 5 C-0.67 3.35 -0.34 1.7 0 0 Z " fill="#989898" transform="translate(105,93)"/>
</svg>
