<?xml version="1.0" encoding="UTF-8"?>
<svg version="1.1" xmlns="http://www.w3.org/2000/svg" width="183" height="183">
<path d="M0 0 C60.39 0 120.78 0 183 0 C183 60.39 183 120.78 183 183 C122.61 183 62.22 183 0 183 C0 122.61 0 62.22 0 0 Z " fill="#FE9D6A" transform="translate(0,0)"/>
<path d="M0 0 C0.99 0 1.98 0 3 0 C4.46822799 2.93645598 4.12262765 5.52859075 4.12025452 8.80825806 C4.12111053 9.51470963 4.12196655 10.22116119 4.12284851 10.94902039 C4.12451016 13.33534224 4.11896962 15.72159467 4.11352539 18.10791016 C4.11321922 19.84028305 4.11335227 21.57265608 4.11389065 23.30502892 C4.11411698 27.95626741 4.10830911 32.60748032 4.10128021 37.25871277 C4.09559734 41.61868371 4.09531775 45.97864834 4.09460449 50.33862305 C4.08935118 63.1007521 4.07539011 75.86287637 4.0625 88.625 C4.041875 117.12875 4.02125 145.6325 4 175 C61.75 175 119.5 175 179 175 C179 117.58 179 60.16 179 1 C180.32 0.67 181.64 0.34 183 0 C183 60.39 183 120.78 183 183 C122.61 183 62.22 183 0 183 C0 122.61 0 62.22 0 0 Z " fill="#040404" transform="translate(0,0)"/>
<path d="M0 0 C0.99 0 1.98 0 3 0 C3 55.44 3 110.88 3 168 C2.01 168.33 1.02 168.66 0 169 C-1.43567485 166.12865031 -1.12599233 163.67458211 -1.12698364 160.46421814 C-1.12854363 159.78534516 -1.13010362 159.10647219 -1.13171089 158.4070273 C-1.13571457 156.1215088 -1.13253369 153.83605616 -1.12939453 151.55053711 C-1.13074884 149.91641704 -1.13252894 148.28229728 -1.13470459 146.6481781 C-1.13927505 142.20208262 -1.13749104 137.75601026 -1.1343255 133.30991435 C-1.13180034 128.66588321 -1.13413984 124.02185409 -1.13571167 119.37782288 C-1.13753272 111.57894534 -1.13512854 103.78007727 -1.13037109 95.98120117 C-1.12492669 86.9516518 -1.12669268 77.92212499 -1.1321975 68.89257616 C-1.13672818 61.15245493 -1.13737946 53.41234051 -1.13475883 45.67221838 C-1.13319605 41.0438494 -1.13300235 36.41549104 -1.13629532 31.78712273 C-1.13917344 27.43779119 -1.13719944 23.0884889 -1.13140106 18.73916054 C-1.13007323 17.13830997 -1.13046797 15.53745697 -1.13266373 13.93660736 C-1.13537428 11.76063718 -1.13199533 9.58476224 -1.12698364 7.40879822 C-1.12660662 6.18817657 -1.12622959 4.96755491 -1.12584114 3.70994473 C-1 1 -1 1 0 0 Z " fill="#131313" transform="translate(180,0)"/>
<path d="M0 0 C10.23 0 20.46 0 31 0 C31 6.27 31 12.54 31 19 C26.689183 17.2756732 23.17843597 15.36152248 19.28125 12.92578125 C16.32298745 11.72525347 15.02707123 12.03169919 12 13 C9.86962668 13.96494952 7.76543591 14.98928035 5.6875 16.0625 C3.810625 17.031875 1.93375 18.00125 0 19 C0 12.73 0 6.46 0 0 Z " fill="#FA7800" transform="translate(18,36)"/>
<path d="M0 0 C3.3556568 5.0334852 4.2845268 7.80815576 4.22705078 13.77612305 C4.22734283 14.56660034 4.22763489 15.35707764 4.22793579 16.17150879 C4.22654214 18.78502366 4.21097938 21.39825366 4.1953125 24.01171875 C4.19158249 25.82346948 4.18873546 27.63522224 4.18673706 29.44697571 C4.17909964 34.21621263 4.1594502 38.9853278 4.1373291 43.7545166 C4.11687303 48.62083285 4.10773585 53.48716877 4.09765625 58.35351562 C4.07620442 67.90239725 4.04206714 77.4511885 4 87 C2.515 87.495 2.515 87.495 1 88 C-0.59231101 84.81537798 -0.12929857 81.37489467 -0.11352539 77.87841797 C-0.11367142 77.03931885 -0.11381744 76.20021973 -0.1139679 75.33569336 C-0.11326968 72.55449869 -0.10548155 69.77337051 -0.09765625 66.9921875 C-0.09579175 65.06690508 -0.094368 63.14162218 -0.09336853 61.21633911 C-0.08954591 56.1429921 -0.07971779 51.06967361 -0.06866455 45.99633789 C-0.05844495 40.82178127 -0.05386973 35.64722005 -0.04882812 30.47265625 C-0.03809531 20.31509162 -0.02102193 10.15754818 0 0 Z " fill="#0A0A0A" transform="translate(179,81)"/>
<path d="M0 0 C10.23 0 20.46 0 31 0 C31 1.32 31 2.64 31 4 C20.77 4 10.54 4 0 4 C0 2.68 0 1.36 0 0 Z " fill="#FA7800" transform="translate(18,28)"/>
<path d="M0 0 C10.23 0 20.46 0 31 0 C31 1.32 31 2.64 31 4 C20.77 4 10.54 4 0 4 C0 2.68 0 1.36 0 0 Z " fill="#FA7800" transform="translate(18,20)"/>
<path d="M0 0 C3.48845655 5.23268482 4.31230583 8.27980095 4.25 14.5 C4.25773438 15.27214844 4.26546875 16.04429688 4.2734375 16.83984375 C4.25993153 20.73631468 4.20675169 22.68987247 2 26 C1.34 26 0.68 26 0 26 C0 17.42 0 8.84 0 0 Z " fill="#060606" transform="translate(179,81)"/>
<path d="M0 0 C0.66 0 1.32 0 2 0 C2 1.32 2 2.64 2 4 C2.61875 3.79375 3.2375 3.5875 3.875 3.375 C4.926875 3.189375 4.926875 3.189375 6 3 C8 5 8 5 8.125 8.125 C8.08375 9.07375 8.0425 10.0225 8 11 C5.23735711 11.59732819 2.83967231 12 0 12 C0 8.04 0 4.08 0 0 Z " fill="#FFEADF" transform="translate(49,120)"/>
<path d="M0 0 C1.32 0.33 2.64 0.66 4 1 C4 5.95 4 10.9 4 16 C3.01 16.33 2.02 16.66 1 17 C-0.53266582 13.93466836 -0.10276471 10.73245728 -0.0625 7.375 C-0.05798828 6.66859375 -0.05347656 5.9621875 -0.04882812 5.234375 C-0.03703875 3.48954725 -0.01910324 1.744763 0 0 Z " fill="#0E0E0E" transform="translate(179,152)"/>
<path d="M0 0 C0.99 0 1.98 0 3 0 C3 5.28 3 10.56 3 16 C1.68 15.67 0.36 15.34 -1 15 C-1.02685412 12.68756208 -1.04632841 10.3750373 -1.0625 8.0625 C-1.07410156 6.77472656 -1.08570313 5.48695312 -1.09765625 4.16015625 C-1 1 -1 1 0 0 Z " fill="#353535" transform="translate(180,0)"/>
<path d="M0 0 C0.33 0 0.66 0 1 0 C1 5.61 1 11.22 1 17 C-0.32 16.67 -1.64 16.34 -3 16 C-3 11.38 -3 6.76 -3 2 C-2.01 2 -1.02 2 0 2 C0 1.34 0 0.68 0 0 Z " fill="#282828" transform="translate(182,136)"/>
<path d="M0 0 C0.66 0.33 1.32 0.66 2 1 C2 5.95 2 10.9 2 16 C0.68 16 -0.64 16 -2 16 C-2.05389087 14.04196493 -2.09274217 12.08351091 -2.125 10.125 C-2.14820313 9.03445312 -2.17140625 7.94390625 -2.1953125 6.8203125 C-2 4 -2 4 0 2 C0 1.34 0 0.68 0 0 Z " fill="#171717" transform="translate(181,103)"/>
<path d="M0 0 C1.875 0.75 1.875 0.75 2.875 2.75 C1.225 2.75 -0.425 2.75 -2.125 2.75 C0.64760299 4.68798263 0.64760299 4.68798263 2.875 5.75 C2.917721 7.41611905 2.91563832 9.08382885 2.875 10.75 C2.545 11.08 2.215 11.41 1.875 11.75 C-0.46444736 11.46269945 -2.7989143 11.13063221 -5.125 10.75 C-5.125 10.09 -5.125 9.43 -5.125 8.75 C-2.155 9.245 -2.155 9.245 0.875 9.75 C0.875 8.76 0.875 7.77 0.875 6.75 C-0.775 6.42 -2.425 6.09 -4.125 5.75 C-4.455 4.43 -4.785 3.11 -5.125 1.75 C-2.125 -0.25 -2.125 -0.25 0 0 Z " fill="#FFEDE4" transform="translate(34.125,120.25)"/>
<path d="M0 0 C0.99 0 1.98 0 3 0 C4.32229189 2.64458379 4.09677194 4.67761301 4.0625 7.625 C4.05347656 8.62789062 4.04445313 9.63078125 4.03515625 10.6640625 C4.02355469 11.43492188 4.01195312 12.20578125 4 13 C3.01 13.495 3.01 13.495 2 14 C1.34 13.67 0.68 13.34 0 13 C0 8.71 0 4.42 0 0 Z " fill="#101010" transform="translate(0,0)"/>
<path d="M0 0 C0.66 0.33 1.32 0.66 2 1 C2 5.62 2 10.24 2 15 C1.34 15 0.68 15 0 15 C-2.32590854 11.36576791 -2.16265833 8.22911669 -2 4 C-1.34 4 -0.68 4 0 4 C0 2.68 0 1.36 0 0 Z " fill="#2B2B2B" transform="translate(181,38)"/>
<path d="M0 0 C0.99 0.495 0.99 0.495 2 1 C2 4 2 4 1 6 C1.99 5.67 2.98 5.34 4 5 C4.25 12.625 4.25 12.625 2 16 C1.34 16 0.68 16 0 16 C0 10.72 0 5.44 0 0 Z " fill="#0C0C0C" transform="translate(179,26)"/>
<path d="M0 0 C0.66 0 1.32 0 2 0 C2.33 1.65 2.66 3.3 3 5 C4.32 4.34 5.64 3.68 7 3 C6.62875 3.7425 6.2575 4.485 5.875 5.25 C4.70484137 7.94283647 4.70484137 7.94283647 5.875 10.3125 C6.431875 11.1478125 6.431875 11.1478125 7 12 C5 11 3 10 1 9 C0.67 9.99 0.34 10.98 0 12 C0 8.04 0 4.08 0 0 Z " fill="#FFEBE1" transform="translate(93,120)"/>
<path d="M0 0 C0 2.64 0 5.28 0 8 C-0.66 7.67 -1.32 7.34 -2 7 C-2 6.01 -2 5.02 -2 4 C-2.99 4 -3.98 4 -5 4 C-5 4.99 -5 5.98 -5 7 C-4.34 7.33 -3.68 7.66 -3 8 C-4.32 7.67 -5.64 7.34 -7 7 C-6.67 5.68 -6.34 4.36 -6 3 C-4.68 3 -3.36 3 -2 3 C-2 2.34 -2 1.68 -2 1 C-3.65 1.33 -5.3 1.66 -7 2 C-7 1.34 -7 0.68 -7 0 C-4.3333581 -1.33332095 -2.83319697 -0.67102033 0 0 Z " fill="#FFF1EA" transform="translate(81,124)"/>
<path d="M0 0 C0.99 0 1.98 0 3 0 C3 3.96 3 7.92 3 12 C-0.91309271 8.08690729 -0.65319567 6.37546719 -1 1 C-0.67 0.67 -0.34 0.34 0 0 Z " fill="#222222" transform="translate(180,75)"/>
<path d="M0 0 C1.875 0.8125 1.875 0.8125 2.875 2.8125 C1.225 2.8125 -0.425 2.8125 -2.125 2.8125 C-2.125 3.8025 -2.125 4.7925 -2.125 5.8125 C-0.475 5.8125 1.175 5.8125 2.875 5.8125 C1.885 7.2975 1.885 7.2975 0.875 8.8125 C-0.775 8.4825 -2.425 8.1525 -4.125 7.8125 C-4.8125 5.5 -4.8125 5.5 -5.125 2.8125 C-3.58064257 0.3740409 -2.91512836 -0.25721721 0 0 Z " fill="#FFECE2" transform="translate(88.125,123.1875)"/>
<path d="M0 0 C0.33 0 0.66 0 1 0 C1 2.31 1 4.62 1 7 C2.32 7 3.64 7 5 7 C5 4.69 5 2.38 5 0 C5.66 0 6.32 0 7 0 C7 2.97 7 5.94 7 9 C5.00045254 9.04254356 2.99958364 9.04080783 1 9 C0 8 0 8 -0.09765625 6.15234375 C-0.06510417 4.1015625 -0.03255208 2.05078125 0 0 Z " fill="#FFF8F4" transform="translate(40,123)"/>
<path d="M0 0 C1.65 0.33 3.3 0.66 5 1 C5 1.66 5 2.32 5 3 C3.68 3 2.36 3 1 3 C2.32 3.66 3.64 4.32 5 5 C4.67 6.32 4.34 7.64 4 9 C2.68 8.67 1.36 8.34 0 8 C0.99 8 1.98 8 3 8 C1.74458443 5.48916886 0.49936512 5.12874554 -2 4 C-1.34 2.68 -0.68 1.36 0 0 Z " fill="#FFECE3" transform="translate(61,123)"/>
<path d="M0 0 C1.4540625 0.0309375 1.4540625 0.0309375 2.9375 0.0625 C2.9375 1.7125 2.9375 3.3625 2.9375 5.0625 C0.9575 5.0625 -1.0225 5.0625 -3.0625 5.0625 C-3.625 3.125 -3.625 3.125 -4.0625 1.0625 C-3.0625 0.0625 -3.0625 0.0625 0 0 Z " fill="#FF6C21" transform="translate(89.0625,124.9375)"/>
<path d="M0 0 C2 1 2 1 3 2 C3.33 2 3.66 2 4 2 C4.20086443 5.71599191 4.1519437 6.77208445 2 10 C1.01 10.495 1.01 10.495 0 11 C0 7.37 0 3.74 0 0 Z " fill="#010101" transform="translate(0,147)"/>
<path d="M0 0 C0.33 0.66 0.66 1.32 1 2 C2.65 1.67 4.3 1.34 6 1 C6 1.66 6 2.32 6 3 C5.360625 3.103125 4.72125 3.20625 4.0625 3.3125 C3.381875 3.539375 2.70125 3.76625 2 4 C1.67 4.99 1.34 5.98 1 7 C0.01 6.67 -0.98 6.34 -2 6 C-2 4.35 -2 2.7 -2 1 C-1.34 0.67 -0.68 0.34 0 0 Z " fill="#FF7027" transform="translate(73,124)"/>
<path d="M0 0 C0.99 0 1.98 0 3 0 C3.125 2.875 3.125 2.875 3 6 C2.34 6.66 1.68 7.32 1 8 C0.34 7.67 -0.32 7.34 -1 7 C-1.04254356 5.00045254 -1.04080783 2.99958364 -1 1 C-0.67 0.67 -0.34 0.34 0 0 Z " fill="#1A1A1A" transform="translate(180,0)"/>
<path d="M0 0 C0.33 0 0.66 0 1 0 C1 2.97 1 5.94 1 9 C0.67 8.34 0.34 7.68 0 7 C-1.32 7.33 -2.64 7.66 -4 8 C-4.33 6.68 -4.66 5.36 -5 4 C-4.0409375 3.8453125 -4.0409375 3.8453125 -3.0625 3.6875 C-2.381875 3.460625 -1.70125 3.23375 -1 3 C-0.67 2.01 -0.34 1.02 0 0 Z " fill="#FF6E25" transform="translate(129,142)"/>
<path d="M0 0 C0.99 0.33 1.98 0.66 3 1 C3.125 4.375 3.125 4.375 3 8 C2.34 8.66 1.68 9.32 1 10 C-0.80411967 7.24075815 -1.0127245 6.11027897 -0.625 2.75 C-0.41875 1.8425 -0.2125 0.935 0 0 Z " fill="#0E0E0E" transform="translate(1,141)"/>
<path d="M0 0 C0.33 0.66 0.66 1.32 1 2 C1.66 2 2.32 2 3 2 C3 4.97 3 7.94 3 11 C2.01 10.67 1.02 10.34 0 10 C-1.125 2.25 -1.125 2.25 0 0 Z " fill="#FFECE2" transform="translate(69,121)"/>
<path d="M0 0 C1.485 0.99 1.485 0.99 3 2 C2.67 4.31 2.34 6.62 2 9 C1.01 9.33 0.02 9.66 -1 10 C-1.125 2.25 -1.125 2.25 0 0 Z " fill="#0E0E0E" transform="translate(1,97)"/>
<path d="M0 0 C0.99 0 1.98 0 3 0 C3 0.66 3 1.32 3 2 C4.32 1.67 5.64 1.34 7 1 C7 3.31 7 5.62 7 8 C6.13375 7.071875 6.13375 7.071875 5.25 6.125 C3.19750179 4.18652947 1.56633418 3.09985751 -1 2 C-0.67 1.34 -0.34 0.68 0 0 Z " fill="#FF6D22" transform="translate(32,122)"/>
<path d="M0 0 C0.99 0.495 0.99 0.495 2 1 C2 1.99 2 2.98 2 4 C2.66 4.33 3.32 4.66 4 5 C3.34 6.65 2.68 8.3 2 10 C1.34 10 0.68 10 0 10 C0 6.7 0 3.4 0 0 Z " fill="#060606" transform="translate(179,49)"/>
<path d="M0 0 C0.66 0 1.32 0 2 0 C2 2.31 2 4.62 2 7 C1.01 7.495 1.01 7.495 0 8 C0 7.34 0 6.68 0 6 C-1.32 5.67 -2.64 5.34 -4 5 C-3.67 3.68 -3.34 2.36 -3 1 C-2.67 1.99 -2.34 2.98 -2 4 C-1.34 4.33 -0.68 4.66 0 5 C0 3.35 0 1.7 0 0 Z " fill="#FFCCB1" transform="translate(36,145)"/>
<path d="M0 0 C1.98 0.99 1.98 0.99 4 2 C3.34 3.65 2.68 5.3 2 7 C2.99 7.33 3.98 7.66 5 8 C3.35 8 1.7 8 0 8 C0 5.36 0 2.72 0 0 Z " fill="#FFC0A0" transform="translate(98,143)"/>
<path d="M0 0 C0.33 0 0.66 0 1 0 C1 1.98 1 3.96 1 6 C-0.65 5.67 -2.3 5.34 -4 5 C-3.67 4.01 -3.34 3.02 -3 2 C-2.01 2 -1.02 2 0 2 C0 1.34 0 0.68 0 0 Z " fill="#FFC3A5" transform="translate(120,145)"/>
<path d="M0 0 C1.98 0.495 1.98 0.495 4 1 C3.67 2.32 3.34 3.64 3 5 C1.68 5 0.36 5 -1 5 C-0.67 3.35 -0.34 1.7 0 0 Z " fill="#FF6F25" transform="translate(142,145)"/>
<path d="M0 0 C0.99 0 1.98 0 3 0 C3 1.65 3 3.3 3 5 C1.68 4.67 0.36 4.34 -1 4 C-0.67 2.68 -0.34 1.36 0 0 Z " fill="#FF742D" transform="translate(52,125)"/>
</svg>
