<?xml version="1.0" encoding="UTF-8"?>
<svg version="1.1" xmlns="http://www.w3.org/2000/svg" width="525" height="525">
<path d="M0 0 C173.25 0 346.5 0 525 0 C525 173.25 525 346.5 525 525 C351.75 525 178.5 525 0 525 C0 351.75 0 178.5 0 0 Z " fill="#23282C" transform="translate(0,0)"/>
<path d="M0 0 C3.14581423 -0.02888514 6.29159469 -0.04675923 9.4375 -0.0625 C10.33533203 -0.07087891 11.23316406 -0.07925781 12.15820312 -0.08789062 C13.01220703 -0.09111328 13.86621094 -0.09433594 14.74609375 -0.09765625 C15.53685303 -0.10289307 16.3276123 -0.10812988 17.14233398 -0.11352539 C19 0 19 0 20 1 C20.061875 2.134375 20.12375 3.26875 20.1875 4.4375 C20.9450951 11.11155205 24.76709508 16.70833443 29.375 21.4375 C34.78770058 24.65934559 39.76817542 25.96136257 46 27 C46 33.27 46 39.54 46 46 C36.90055249 46 36.90055249 46 33.0625 44.8125 C31.93521484 44.48185547 31.93521484 44.48185547 30.78515625 44.14453125 C28.15850537 43.06513615 25.79952875 41.81708406 23.32592773 40.4284668 C22.51574692 39.9747319 21.7055661 39.52099701 20.87083435 39.05351257 C20.25345901 38.70585342 19.63608368 38.35819427 19 38 C19.01332367 38.56217224 19.02664734 39.12434448 19.04037476 39.70355225 C19.17417913 45.60926183 19.26404554 51.514534 19.32958984 57.42138672 C19.35957261 59.61915608 19.40037359 61.81680773 19.45263672 64.01416016 C19.99274285 87.32344649 19.99274285 87.32344649 13 97 C12.43176514 97.89936279 12.43176514 97.89936279 11.85205078 98.81689453 C7.40475067 105.10459264 -0.74830895 109.02884208 -8 111 C-18.38873991 112.0027291 -27.77317461 111.3101307 -36.5 105.26953125 C-41.80545136 100.89776952 -45.19377691 96.23971957 -48 90 C-48.31839844 89.34128906 -48.63679688 88.68257813 -48.96484375 88.00390625 C-52.47421108 79.96632302 -51.52661928 71.82918459 -49.03515625 63.6015625 C-45.51277814 54.74909525 -37.78363489 47.50442451 -29.1875 43.625 C-22.81537758 41.03103866 -17.88701714 40.91897627 -11 41 C-11 47.6 -11 54.2 -11 61 C-13.64 61 -16.28 61 -19 61 C-24.086453 62.95632808 -27.50221861 65.50369769 -30.3125 70.1875 C-31.65135995 75.66465435 -30.81440902 80.37118197 -28.3125 85.375 C-25.2014316 88.90648305 -22.55784169 90.66936337 -17.82421875 91.28125 C-12.83717553 91.48240805 -9.19223247 90.92481335 -5 88 C-1.19499135 83.35635704 -0.41466507 79.63355195 -0.45410156 73.79150391 C-0.44376389 72.99083496 -0.43342621 72.19016602 -0.42277527 71.36523438 C-0.39342684 68.73546986 -0.39184982 66.10647766 -0.390625 63.4765625 C-0.37563794 61.64666279 -0.35890968 59.81677659 -0.34051514 57.98690796 C-0.29688837 53.18324144 -0.27685289 48.37975739 -0.26177979 43.57592773 C-0.24219185 38.66899854 -0.20022372 33.7622659 -0.16015625 28.85546875 C-0.08490478 19.23703987 -0.03458264 9.61865509 0 0 Z " fill="#EDEEEE" transform="translate(130,72)"/>
<path d="M0 0 C1.98 0 3.96 0 6 0 C6 6.27 6 12.54 6 19 C-3.09944751 19 -3.09944751 19 -6.9375 17.8125 C-7.68902344 17.59207031 -8.44054687 17.37164062 -9.21484375 17.14453125 C-11.84149463 16.06513615 -14.20047125 14.81708406 -16.67407227 13.4284668 C-17.48425308 12.9747319 -18.2944339 12.52099701 -19.12916565 12.05351257 C-19.74654099 11.70585342 -20.36391632 11.35819427 -21 11 C-20.98428955 12.25022949 -20.9685791 13.50045898 -20.95239258 14.78857422 C-20.89772816 19.46640475 -20.86351805 24.14420755 -20.83520508 28.82226562 C-20.82020116 30.83956667 -20.79979145 32.85683556 -20.77368164 34.87402344 C-20.73692647 37.78849263 -20.72018932 40.70252726 -20.70703125 43.6171875 C-20.69154739 44.50614716 -20.67606354 45.39510681 -20.66011047 46.31100464 C-20.65718743 57.40675371 -24.10040398 66.49417982 -31.55859375 74.71875 C-38.44489525 81.19220369 -46.21014718 84.29245815 -55.625 84.5 C-65.23519724 84.13937394 -71.49525103 81.90799387 -79 76 C-76 76 -76 76 -72.76171875 76.97265625 C-61.9049252 79.93769956 -51.73828326 78.43532089 -42 73 C-34.87208314 68.81589786 -30.69117615 60.59272072 -28 53 C-27.67975094 50.60133665 -27.67975094 50.60133665 -27.68115234 48.11791992 C-27.66128265 47.17732224 -27.64141296 46.23672455 -27.62094116 45.2676239 C-27.60938995 44.2653627 -27.59783875 43.2631015 -27.5859375 42.23046875 C-27.56657135 41.19432938 -27.5472052 40.15819 -27.5272522 39.09065247 C-27.46759643 35.78968471 -27.42112669 32.48868181 -27.375 29.1875 C-27.33680737 26.94594855 -27.29775489 24.70441158 -27.2578125 22.46289062 C-27.16190642 16.97538914 -27.07681801 11.48780009 -27 6 C-23.91891971 7.2162159 -20.96102604 8.51948698 -18 10 C-12.2032962 12.62862372 -6.27930454 13.20682469 0 14 C0 9.38 0 4.76 0 0 Z " fill="#C6013E" transform="translate(176,104)"/>
<path d="M0 0 C6.27 0 12.54 0 19 0 C19.495 2.475 19.495 2.475 20 5 C15.38 5 10.76 5 6 5 C6.00666183 5.98892242 6.01332367 6.97784485 6.02018738 7.99673462 C6.0810516 17.32486573 6.12599815 26.65295646 6.15543652 35.98124123 C6.17107997 40.77680372 6.19229416 45.57220567 6.22631836 50.36767578 C6.25895885 54.99719187 6.27686295 59.6265537 6.28463173 64.25617599 C6.29016681 66.02079063 6.30097554 67.78539701 6.31719017 69.54994583 C6.33902695 72.02518078 6.34196434 74.49978159 6.34057617 76.97509766 C6.351362 77.70158508 6.36214783 78.42807251 6.3732605 79.17657471 C6.3408046 84.53905006 5.17015597 88.67522732 1.46484375 92.64453125 C-4.2116783 96.98540106 -7.88590669 97.81708576 -15 97 C-18.11326625 95.68882399 -20.45304576 94.09390848 -22 91 C-21.27554688 91.03480469 -20.55109375 91.06960937 -19.8046875 91.10546875 C-11.9466821 91.36556212 -11.9466821 91.36556212 -5 88 C-1.20298747 83.34908749 -0.41464779 79.63611212 -0.45410156 73.79150391 C-0.44376389 72.99083496 -0.43342621 72.19016602 -0.42277527 71.36523438 C-0.39342684 68.73546986 -0.39184982 66.10647766 -0.390625 63.4765625 C-0.37563794 61.64666279 -0.35890968 59.81677659 -0.34051514 57.98690796 C-0.29688837 53.18324144 -0.27685289 48.37975739 -0.26177979 43.57592773 C-0.24219185 38.66899854 -0.20022372 33.7622659 -0.16015625 28.85546875 C-0.08490452 19.23700659 -0.03665225 9.61868678 0 0 Z " fill="#03EBE7" transform="translate(130,72)"/>
<path d="M0 0 C3.0625 2.25 3.0625 2.25 5 5 C5.433125 5.598125 5.86625 6.19625 6.3125 6.8125 C7.61814701 10.96683141 7.77900992 14.94004079 6.2421875 19.00390625 C4.34212912 22.5870872 2.75757154 24.56467538 -1 26 C-5.84496025 26.67750664 -9.76404182 26.74672474 -14 24.1875 C-18.33729136 19.44358758 -18.47738587 16.18256626 -18.39453125 9.9609375 C-17.80415033 5.53015789 -16.31100765 3.91684007 -13 1 C-9.04139683 -0.97930159 -4.30430763 -0.5598088 0 0 Z " fill="#F1F1F2" transform="translate(189,370)"/>
<path d="M0 0 C0.99386719 0.00902344 1.98773438 0.01804687 3.01171875 0.02734375 C4.15060547 0.04474609 4.15060547 0.04474609 5.3125 0.0625 C5.3125 1.7125 5.3125 3.3625 5.3125 5.0625 C4.18714844 5.28292969 4.18714844 5.28292969 3.0390625 5.5078125 C-7.55718299 7.82991164 -16.49836027 11.82729463 -22.6875 21.0625 C-27.59886597 29.33759894 -28.70109361 37.48137306 -27.6875 47.0625 C-26.56387246 50.42195589 -25.23804691 53.51869806 -23.68359375 56.69921875 C-23.35488281 57.47910156 -23.02617188 58.25898438 -22.6875 59.0625 C-23.0175 59.7225 -23.3475 60.3825 -23.6875 61.0625 C-30.74400072 53.03473935 -35.54368107 44.57117981 -35.00390625 33.6015625 C-33.53422044 21.80778747 -28.86011584 14.1961168 -19.84375 6.6015625 C-13.89829127 2.35788362 -7.27936994 -0.08563965 0 0 Z " fill="#06EEEB" transform="translate(113.6875,112.9375)"/>
<path d="M0 0 C4.45411364 2.1098433 7.19291449 4.38189258 9 9 C9.54268159 13.56757002 9.58008721 17.43177946 7.97265625 21.77734375 C6 24 6 24 2.34765625 24.62890625 C0.91910487 24.6328855 -0.50972616 24.60979421 -1.9375 24.5625 C-2.65357422 24.57345703 -3.36964844 24.58441406 -4.10742188 24.59570312 C-7.56364707 24.54765551 -9.64286823 24.25921767 -12.46484375 22.2109375 C-14.34142567 19.50827754 -14.6941525 17.25370755 -14.50390625 13.9765625 C-13.78763779 11.16701335 -12.26509118 9.44296128 -9.93359375 7.765625 C-6.20188014 6.28801719 -2.85596294 7.24049215 1 8 C1.33 12.29 1.66 16.58 2 21 C2.99 21.33 3.98 21.66 5 22 C5.82339648 14.30689326 5.82339648 14.30689326 3.95703125 7.05859375 C0.84507952 4.00139777 -1.51505248 3.03179984 -5.8125 2.75 C-9.64603185 2.79870186 -11.93908073 3.56926999 -15 6 C-17.36543381 9.54815071 -17.26923313 11.17256132 -17.25 15.375 C-17.25515625 16.49648438 -17.2603125 17.61796875 -17.265625 18.7734375 C-16.99994782 22.00063381 -16.6124033 24.19360186 -15 27 C-11.69395227 28.5696144 -7.84668813 28.09846688 -4.25 28.0625 C-3.07953125 28.05347656 -1.9090625 28.04445313 -0.703125 28.03515625 C0.18890625 28.02355469 1.0809375 28.01195312 2 28 C2 28.99 2 29.98 2 31 C-1.94650367 32.97325184 -6.69866713 32.44349901 -11 32 C-16.14853681 29.4257316 -19.182008 26.45397599 -21 21 C-21.66705142 15.88341241 -22.19908926 11.03405718 -19.5078125 6.46875 C-13.57995893 -0.31999516 -8.89793517 -0.83745272 0 0 Z " fill="#E2E2E3" transform="translate(95,428)"/>
<path d="M0 0 C1.98 0 3.96 0 6 0 C6 6.27 6 12.54 6 19 C6.66 19 7.32 19 8 19 C8.20625 18.46375 8.4125 17.9275 8.625 17.375 C10.57424818 14.00811678 12.7779648 11.22560445 16 9 C19.875 8.625 19.875 8.625 23 9 C22.04270084 10.12588014 21.08412105 11.2506715 20.125 12.375 C19.59132812 13.00148438 19.05765625 13.62796875 18.5078125 14.2734375 C17.38567993 15.55836651 16.20628025 16.79371975 15 18 C15.24190087 22.52588722 17.36517936 25.22968734 20.0625 28.75 C24 33.92618629 24 33.92618629 24 35 C18.97927461 35.88082902 18.97927461 35.88082902 16 35 C13.15152076 31.96517165 11.06006583 28.6051152 9 25 C8.34 25.33 7.68 25.66 7 26 C6.53348793 28.12576782 6.53348793 28.12576782 6.375 30.5625 C6.30023438 31.38878906 6.22546875 32.21507812 6.1484375 33.06640625 C6.09945312 33.70449219 6.05046875 34.34257812 6 35 C4.02 35 2.04 35 0 35 C0 23.45 0 11.9 0 0 Z " fill="#F4F4F4" transform="translate(201,361)"/>
<path d="M0 0 C1.98 0 3.96 0 6 0 C6 6.27 6 12.54 6 19 C8.53230002 16.46769998 11.06447004 13.92365389 13.375 11.1875 C16 9 16 9 19.8125 8.6875 C20.864375 8.790625 21.91625 8.89375 23 9 C22.04367001 10.29315061 21.08486149 11.58446853 20.125 12.875 C19.59132812 13.59429687 19.05765625 14.31359375 18.5078125 15.0546875 C17 17 17 17 15 19 C15.27038894 22.95116735 17.74434144 25.62524117 20.0625 28.6875 C24 33.91212654 24 33.91212654 24 35 C18.97927461 35.88082902 18.97927461 35.88082902 16 35 C13.15152076 31.96517165 11.06006583 28.6051152 9 25 C8.34 25.33 7.68 25.66 7 26 C6.53348793 28.12576782 6.53348793 28.12576782 6.375 30.5625 C6.30023438 31.38878906 6.22546875 32.21507812 6.1484375 33.06640625 C6.09945312 33.70449219 6.05046875 34.34257812 6 35 C4.02 35 2.04 35 0 35 C0 23.45 0 11.9 0 0 Z " fill="#F0F0F0" transform="translate(119,361)"/>
<path d="M0 0 C3.25 0.875 3.25 0.875 4.25 1.875 C4.58 1.215 4.91 0.555 5.25 -0.125 C6.24 -0.125 7.23 -0.125 8.25 -0.125 C8.36622939 3.62473906 8.4372595 7.37401464 8.5 11.125 C8.55027344 12.72021484 8.55027344 12.72021484 8.6015625 14.34765625 C8.61445313 15.37246094 8.62734375 16.39726562 8.640625 17.453125 C8.66157227 18.39575195 8.68251953 19.33837891 8.70410156 20.30957031 C8.11631417 23.63025307 6.81794931 24.76787283 4.25 26.875 C1.4701184 28.2649408 -0.6686326 28.05988204 -3.75 27.875 C-6.125 26.875 -6.125 26.875 -7.75 25.875 C-7.42 24.555 -7.09 23.235 -6.75 21.875 C-5.76 22.535 -4.77 23.195 -3.75 23.875 C-1.69290404 24.11555468 -1.69290404 24.11555468 0.4375 24 C1.695625 23.95875 2.95375 23.9175 4.25 23.875 C4.25 21.895 4.25 19.915 4.25 17.875 C3.26 18.535 2.27 19.195 1.25 19.875 C-4.99925521 19.65181231 -4.99925521 19.65181231 -7.4375 17.12890625 C-9.72171809 13.20630555 -9.49379987 9.26696116 -8.75 4.875 C-6.0568624 0.71287825 -4.99409515 -0.16646984 0 0 Z " fill="#E3E3E4" transform="translate(168.75,433.125)"/>
<path d="M0 0 C1.98 0 3.96 0 6 0 C6 6.6 6 13.2 6 20 C4.14375 20.061875 2.2875 20.12375 0.375 20.1875 C-5.51507018 20.67370862 -8.10081235 21.58776135 -12 26 C-13.89661655 29.09585175 -14.2480449 31.38932244 -14.1875 35 C-14.18105469 35.845625 -14.17460938 36.69125 -14.16796875 37.5625 C-14.01154076 39.83252477 -13.63089814 41.81961604 -13 44 C-17.51924273 40.94645762 -19.30546917 38.17277831 -21 33 C-21.5976327 28.11933294 -20.66012945 25.11891011 -18 21 C-14.55333787 16.99290501 -11.50451221 14.73033728 -6.1875 14.0625 C-3.57362031 13.88704164 -2.3589409 13.82052955 0 15 C0 10.05 0 5.1 0 0 Z " fill="#FB0652" transform="translate(119,118)"/>
<path d="M0 0 C9.24 0 18.48 0 28 0 C28 1.98 28 3.96 28 6 C24.37 6 20.74 6 17 6 C17 15.57 17 25.14 17 35 C15.02 35 13.04 35 11 35 C11 25.1 11 15.2 11 5 C7.37 5 3.74 5 0 5 C0 3.35 0 1.7 0 0 Z " fill="#EDEEEE" transform="translate(143,361)"/>
<path d="M0 0 C0.99 0 1.98 0 3 0 C3 8.58 3 17.16 3 26 C2.01 26 1.02 26 0 26 C-0.33 25.34 -0.66 24.68 -1 24 C-1.66 24.66 -2.32 25.32 -3 26 C-6.71480543 26.41275616 -9.11461964 26.47674327 -12.4375 24.6875 C-14.98426115 20.30707083 -14.82930461 15.92490542 -14 11 C-11.9375 7.75 -11.9375 7.75 -9 6 C-2.79310345 6.20689655 -2.79310345 6.20689655 -1 8 C-0.67 5.36 -0.34 2.72 0 0 Z " fill="#EFEFEF" transform="translate(122,427)"/>
<path d="M0 0 C9.24 0 18.48 0 28 0 C28 1.65 28 3.3 28 5 C24.37 5 20.74 5 17 5 C17 14.9 17 24.8 17 35 C15.02 35 13.04 35 11 35 C11 25.1 11 15.2 11 5 C7.37 5 3.74 5 0 5 C0 3.35 0 1.7 0 0 Z " fill="#F7F7F7" transform="translate(74,361)"/>
<path d="M0 0 C3 1.625 3 1.625 5 5 C5.80569252 10.91078848 6.50389486 17.62510334 3.0625 22.8125 C0.06192893 25.99492386 0.06192893 25.99492386 -3.8125 26.3125 C-7.00451891 26.2781156 -7.81111803 26.13693943 -10.5 24.1875 C-12 22 -12 22 -12 19 C-11.01 19 -10.02 19 -9 19 C-8.34 19.99 -7.68 20.98 -7 22 C-3.91634129 22.2502157 -3.91634129 22.2502157 -1 22 C-0.01 19.69 0.98 17.38 2 15 C1.01 15.66 0.02 16.32 -1 17 C-4.99800164 17.60839155 -6.52201252 17.33251303 -9.875 15 C-12.81148802 10.85436985 -12.7152453 9.00671711 -12 4 C-9.19567451 -0.67387582 -5.06219495 -1.07258388 0 0 Z " fill="#EAEAEB" transform="translate(334,427)"/>
<path d="M0 0 C0.99 0.33 1.98 0.66 3 1 C3.09972662 7.04650192 3.17187016 13.09251309 3.21972656 19.13964844 C3.23970057 21.19181674 3.26688947 23.24392917 3.30175781 25.29589844 C3.58550085 42.43731604 2.59398137 54.3400207 -9.25 67.5 C-11 69 -11 69 -13 69 C-13.66 70.32 -14.32 71.64 -15 73 C-16.98 73 -18.96 73 -21 73 C-21 73.66 -21 74.32 -21 75 C-23.52113092 75.05447822 -26.0410585 75.09389852 -28.5625 75.125 C-29.26697266 75.14175781 -29.97144531 75.15851563 -30.69726562 75.17578125 C-35.51891822 75.22022044 -39.42297438 74.52768004 -44 73 C-41.03787259 71.5189363 -38.41805257 72.10184631 -35.125 72.25 C-26.3325108 72.43108101 -18.81552005 70.01494345 -11.625 64.8125 C-5.91283413 58.69232228 -0.81960591 50.6789654 -0.68115234 42.11791992 C-0.66128265 41.17732224 -0.64141296 40.23672455 -0.62094116 39.2676239 C-0.60938995 38.2653627 -0.59783875 37.2631015 -0.5859375 36.23046875 C-0.56657135 35.19432938 -0.5472052 34.15819 -0.5272522 33.09065247 C-0.46759643 29.78968471 -0.42112669 26.48868181 -0.375 23.1875 C-0.33680737 20.94594855 -0.29775489 18.70441158 -0.2578125 16.46289062 C-0.16190642 10.97538914 -0.07681801 5.48780009 0 0 Z " fill="#F6014D" transform="translate(149,110)"/>
<path d="M0 0 C2.69990662 1.79993774 4.5418865 3.083773 6 6 C6.3506291 11.34709374 6.44403637 14.62872307 3 19 C-0.20487969 20.60243984 -3.53309837 20.63159396 -7 20 C-10.03715967 17.04071622 -11.83251325 14.47388343 -12.3125 10.25 C-11.92220973 6.19098115 -10.50412622 4.16698316 -8 1 C-5.14675563 -0.42662219 -3.16545451 -0.31033868 0 0 Z " fill="#292A2E" transform="translate(193,433)"/>
<path d="M0 0 C2.6796875 1.50390625 2.6796875 1.50390625 5 4 C5.37233017 6.96672677 5.4808246 9.31856241 5.3125 12.25 C5.28994141 12.99507813 5.26738281 13.74015625 5.24414062 14.5078125 C5.18543561 16.339409 5.09575757 18.16996653 5 20 C4.38125 19.814375 3.7625 19.62875 3.125 19.4375 C0.95839822 18.76313824 0.95839822 18.76313824 -1 20 C-7.25748503 20.45508982 -7.25748503 20.45508982 -9.9375 18.8125 C-11.38718434 16.33950907 -11.42317323 14.82115488 -11 12 C-9.29868896 9.7112656 -8.34097902 9.0703437 -5.51953125 8.48828125 C-4.62621094 8.43027344 -3.73289063 8.37226563 -2.8125 8.3125 C-1.91144531 8.24675781 -1.01039063 8.18101562 -0.08203125 8.11328125 C0.94857422 8.05720703 0.94857422 8.05720703 2 8 C1.34 6.68 0.68 5.36 0 4 C-3.3 4.33 -6.6 4.66 -10 5 C-7.33379412 -0.33241175 -5.7738804 -0.56606671 0 0 Z " fill="#EFEFEF" transform="translate(245,433)"/>
<path d="M0 0 C2.8125 1.5625 2.8125 1.5625 5 4 C5.8125 7.75 5.8125 7.75 6 11 C1.38 11 -3.24 11 -8 11 C-6.54711014 15.5841963 -6.54711014 15.5841963 -5 17 C-2.54190002 17.2500773 -2.54190002 17.2500773 0 17 C0.66 16.34 1.32 15.68 2 15 C2.99 15 3.98 15 5 15 C3.125 18.875 3.125 18.875 2 20 C-2.44100541 20.63056872 -5.87307209 20.82458139 -9.5625 18.125 C-11.60561759 13.68344003 -11.9055739 9.80347893 -11 5 C-7.92883052 0.48357429 -5.43434422 -1.01893954 0 0 Z " fill="#EFF0F0" transform="translate(150,433)"/>
<path d="M0 0 C1.32 0.33 2.64 0.66 4 1 C4.99 0.814375 5.98 0.62875 7 0.4375 C10.22874882 -0.0333592 11.3275479 0.25262747 14 2 C14.99 1.34 15.98 0.68 17 0 C19.8437583 -0.35546979 21.33423617 -0.51572136 23.63793945 1.26879883 C25.29594242 3.37614764 25.35273272 4.36218274 25.29296875 7.01171875 C25.28330078 7.76904297 25.27363281 8.52636719 25.26367188 9.30664062 C25.23853516 10.09232422 25.21339844 10.87800781 25.1875 11.6875 C25.16719727 12.88342773 25.16719727 12.88342773 25.14648438 14.10351562 C25.11117089 16.06929967 25.05736447 18.03473582 25 20 C24.34 20 23.68 20 23 20 C22.93941406 18.92878906 22.87882812 17.85757812 22.81640625 16.75390625 C22.73201463 15.35675609 22.64736594 13.95962143 22.5625 12.5625 C22.52318359 11.85544922 22.48386719 11.14839844 22.44335938 10.41992188 C22.52375562 6.91309581 22.52375562 6.91309581 21 4 C18.5 3.83333333 18.5 3.83333333 16 4 C14.00383446 5.99616554 14.59016573 9.81701963 14.4375 12.5625 C14.39431641 13.27341797 14.35113281 13.98433594 14.30664062 14.71679688 C14.20028223 16.47761912 14.09961154 18.2387832 14 20 C13.01 20 12.02 20 11 20 C10.67 14.72 10.34 9.44 10 4 C8.35 4 6.7 4 5 4 C3.00383446 5.99616554 3.59016573 9.81701963 3.4375 12.5625 C3.39431641 13.27341797 3.35113281 13.98433594 3.30664062 14.71679688 C3.20028223 16.47761912 3.09961154 18.2387832 3 20 C2.01 20 1.02 20 0 20 C0 13.4 0 6.8 0 0 Z " fill="#EBEBEB" transform="translate(204,433)"/>
<path d="M0 0 C0 3.96 0 7.92 0 12 C-0.66 11.34 -1.32 10.68 -2 10 C-2.99 11.485 -2.99 11.485 -4 13 C-4.66 13 -5.32 13 -6 13 C-5.67 13.99 -5.34 14.98 -5 16 C-8.45669582 16.31424507 -10.39901677 16.37956836 -13.375 14.5 C-15.2341853 11.63971492 -15.70217793 9.39195205 -15.50390625 5.9765625 C-14.78763779 3.16701335 -13.26509118 1.44296128 -10.93359375 -0.234375 C-7.20188014 -1.71198281 -3.85596294 -0.75950785 0 0 Z " fill="#DDDDDE" transform="translate(96,436)"/>
<path d="M0 0 C3.58896411 0.23926427 5.42703402 0.39006847 7.9375 3.0625 C9.43621766 7.20601353 8.90474993 9.68503878 8 14 C7.01 15.485 7.01 15.485 6 17 C2.5625 17.5 2.5625 17.5 -1 17 C-3.6099322 14.22168508 -3.96617917 12.27056665 -4.4375 8.5 C-3.93351879 4.4681503 -2.790071 2.87726072 0 0 Z " fill="#292B2F" transform="translate(181,374)"/>
<path d="M0 0 C0.78246094 -0.02578125 1.56492187 -0.0515625 2.37109375 -0.078125 C5.09232616 0.32933226 5.94168623 1.05984974 7.5625 3.25 C7.98348999 7.20730595 7.65315618 9.85268371 5.5625 13.25 C6.0575 13.62125 6.5525 13.9925 7.0625 14.375 C8.5625 16.25 8.5625 16.25 9.0625 19.1875 C8.5625 22.25 8.5625 22.25 6.5625 24.625 C2.44111107 26.857419 0.22496084 26.7680512 -4.4375 26.25 C-6.9375 24.9375 -6.9375 24.9375 -8.4375 23.25 C-8.4375 22.26 -8.4375 21.27 -8.4375 20.25 C-7.4475 20.25 -6.4575 20.25 -5.4375 20.25 C-5.1075 20.91 -4.7775 21.57 -4.4375 22.25 C-1.7975 22.25 0.8425 22.25 3.5625 22.25 C4.31207157 18.77852158 4.31207157 18.77852158 4.5625 15.25 C2.2525 14.92 -0.0575 14.59 -2.4375 14.25 C-2.4375 13.26 -2.4375 12.27 -2.4375 11.25 C-0.4575 10.59 1.5225 9.93 3.5625 9.25 C3.605221 7.58388095 3.60313832 5.91617115 3.5625 4.25 C2.51546435 2.99323161 2.51546435 2.99323161 0.1875 3 C-2.92340355 3.29627653 -3.4017575 4.02919 -5.4375 6.25 C-6.4275 6.25 -7.4175 6.25 -8.4375 6.25 C-6.57623854 1.06505736 -5.47464756 0.10787483 0 0 Z " fill="#F0F0F0" transform="translate(353.4375,426.75)"/>
<path d="M0 0 C1.32 0 2.64 0 4 0 C4.33 5.28 4.66 10.56 5 16 C7.31 16 9.62 16 12 16 C12.33 10.72 12.66 5.44 13 0 C13.99 0 14.98 0 16 0 C16 6.6 16 13.2 16 20 C15.01 20 14.02 20 13 20 C12.67 19.34 12.34 18.68 12 18 C11.34 18.66 10.68 19.32 10 20 C6.5625 20.375 6.5625 20.375 3 20 C0.14000813 17.47955055 -0.00347161 15.95389702 -0.29296875 12.109375 C-0.27314945 10.65595991 -0.23754845 9.20268833 -0.1875 7.75 C-0.17396484 7.00492187 -0.16042969 6.25984375 -0.14648438 5.4921875 C-0.11127204 3.66114584 -0.05746851 1.83047831 0 0 Z " fill="#CDCDCE" transform="translate(255,433)"/>
<path d="M0 0 C1.98 0 3.96 0 6 0 C6 8.58 6 17.16 6 26 C4.02 26 2.04 26 0 26 C0 17.42 0 8.84 0 0 Z " fill="#FBFBFB" transform="translate(107,370)"/>
<path d="M0 0 C-3.21637353 7.15604638 -9.80505592 11.08377044 -16.8359375 14.0859375 C-25.55711119 16.60538768 -35.84513721 16.20049271 -44 12 C-46.47433054 10.45181553 -48.70033107 8.81037766 -51 7 C-48 7 -48 7 -45.1875 8.4375 C-39.63060721 11.16146706 -33.71039034 11.22686816 -27.625 11.5625 C-26.88894531 11.60568359 -26.15289062 11.64886719 -25.39453125 11.69335938 C-23.59651932 11.79843799 -21.79828042 11.89962093 -20 12 C-20 11.34 -20 10.68 -20 10 C-18.96875 9.7525 -17.9375 9.505 -16.875 9.25 C-12.013019 7.8552499 -8.33812899 5.37636125 -4.8125 1.75 C-3 0 -3 0 0 0 Z " fill="#A20032" transform="translate(148,173)"/>
<path d="M0 0 C2.69990662 1.79993774 4.5418865 3.083773 6 6 C6.3506291 11.34709374 6.44403637 14.62872307 3 19 C-0.20487969 20.60243984 -3.53309837 20.63159396 -7 20 C-10.03715967 17.04071622 -11.83251325 14.47388343 -12.3125 10.25 C-11.92220973 6.19098115 -10.50412622 4.16698316 -8 1 C-5.14675563 -0.42662219 -3.16545451 -0.31033868 0 0 Z M-7.9375 5.0625 C-9.30258643 8.83656247 -9.00096139 11.13914892 -8 15 C-6.97578739 17.10938785 -6.97578739 17.10938785 -5 18 C-1.91666667 18 -1.91666667 18 1 17 C3.54014875 13.18977687 3.58606955 10.46529184 3 6 C2.03882095 3.87129307 2.03882095 3.87129307 0 3 C-3.77206103 2.37132316 -5.26406635 2.21658676 -7.9375 5.0625 Z " fill="#EAEAEB" transform="translate(193,433)"/>
<path d="M0 0 C0.99 0 1.98 0 3 0 C4.65 4.29 6.3 8.58 8 13 C10.40804568 10.59195432 11.00768759 8.57796225 12.125 5.375 C12.47820312 4.37210937 12.83140625 3.36921875 13.1953125 2.3359375 C13.46085937 1.56507813 13.72640625 0.79421875 14 0 C14.99 0 15.98 0 17 0 C11.33318078 22.98977879 11.33318078 22.98977879 6 27 C3.3125 27.1875 3.3125 27.1875 1 27 C1 26.34 1 25.68 1 25 C2.65 24.67 4.3 24.34 6 24 C6.40939107 18.57556836 5.00096303 14.67128744 3 9.75 C0 2.20945946 0 2.20945946 0 0 Z " fill="#E7E7E7" transform="translate(289,433)"/>
<path d="M0 0 C0.99 0.33 1.98 0.66 3 1 C3.02469492 7.21134144 3.04285758 13.42265438 3.05493164 19.6340332 C3.05996444 21.74764504 3.0667912 23.86125338 3.07543945 25.97485352 C3.08755104 29.01058818 3.09323881 32.04627686 3.09765625 35.08203125 C3.10281754 36.02899368 3.10797882 36.97595612 3.11329651 37.95161438 C3.11337204 38.83230087 3.11344757 39.71298737 3.11352539 40.62036133 C3.115746 41.39535477 3.11796661 42.17034821 3.12025452 42.96882629 C3 45 3 45 2 48 C0.515 48.495 0.515 48.495 -1 49 C-0.67 32.83 -0.34 16.66 0 0 Z " fill="#FA2466" transform="translate(149,110)"/>
<path d="M0 0 C2.52222236 2.2613028 2.96098598 3.62546543 3.3125 7 C2.81541802 11.77198697 2.81541802 11.77198697 1 14 C-2.125 14.75 -2.125 14.75 -5 15 C-7.56417383 12.43582617 -8.25787287 10.47083523 -8.375 6.9375 C-8 3 -8 3 -6.8125 1 C-4.30538007 -0.38323858 -2.8180173 -0.49315303 0 0 Z " fill="#24252A" transform="translate(119,436)"/>
<path d="M0 0 C3.0625 0.375 3.0625 0.375 4.9375 2 C6.39736373 5.08193454 6.55464954 7.00026031 6.0625 10.375 C4.4375 12.8125 4.4375 12.8125 2.0625 14.375 C-1.125 14.25 -1.125 14.25 -3.9375 13.375 C-5.11423198 11.02153604 -5.10373866 9.4943967 -5.125 6.875 C-5.13917969 6.0809375 -5.15335938 5.286875 -5.16796875 4.46875 C-4.77723033 0.91899079 -3.38336304 0.43191869 0 0 Z " fill="#26272B" transform="translate(167.9375,435.625)"/>
<path d="M0 0 C5.01319327 -0.35666988 8.85303903 -0.56305357 13.4375 1.6875 C16.80435364 4.72588012 18.73218541 6.74589384 19.28125 11.3671875 C19.42054505 15.27905674 19.2026574 18.40394881 17.9375 22.125 C16 24 16 24 12.5625 24.375 C9.90667157 24.09543911 7.53158901 23.81010848 5 23 C5 22.34 5 21.68 5 21 C5.66 21 6.32 21 7 21 C7.66 19.68 8.32 18.36 9 17 C9.433125 17.639375 9.86625 18.27875 10.3125 18.9375 C11.91239177 21.26746003 11.91239177 21.26746003 15 22 C15.75468441 13.5688976 15.75468441 13.5688976 13.125 5.8125 C8.90627443 3.36563917 4.79872357 2.62429996 0 2 C0 1.34 0 0.68 0 0 Z " fill="#E7E8E8" transform="translate(85,428)"/>
<path d="M0 0 C0.33 0 0.66 0 1 0 C1 6.6 1 13.2 1 20 C-0.85625 20.061875 -2.7125 20.12375 -4.625 20.1875 C-10.51507018 20.67370862 -13.10081235 21.58776135 -17 26 C-19.34788855 29.3541265 -19.53730704 32.98999433 -20 37 C-20.33 37 -20.66 37 -21 37 C-21.57561239 28.94142649 -19.67379936 24.13030169 -14.4375 18 C-9.44599082 15.0958492 -5.72025136 15.65120419 0 16 C0 10.72 0 5.44 0 0 Z " fill="#930230" transform="translate(124,118)"/>
<path d="M0 0 C2.9375 0.875 2.9375 0.875 4.9375 3.875 C4.49305556 9.31944444 4.49305556 9.31944444 1.9375 11.875 C-1.625 11.625 -1.625 11.625 -5.0625 10.875 C-6.46185013 8.07629973 -6.31515405 5.97001208 -6.0625 2.875 C-4.31924047 -0.1272803 -3.48919154 -0.14241598 0 0 Z " fill="#26282C" transform="translate(331.0625,429.125)"/>
<path d="M0 0 C2.5 0.25 2.5 0.25 4.5 2.25 C5.05776892 8.38545817 5.05776892 8.38545817 3.25 11.1875 C1.5 12.25 1.5 12.25 -2.5 12.25 C-4.94897847 8.57653229 -4.81537716 6.58643601 -4.5 2.25 C-2.5 0.25 -2.5 0.25 0 0 Z " fill="#26272C" transform="translate(88.5,437.75)"/>
<path d="M0 0 C1.65 0 3.3 0 5 0 C5 5.28 5 10.56 5 16 C2.69 16 0.38 16 -2 16 C-1.34 15.67 -0.68 15.34 0 15 C0 10.05 0 5.1 0 0 Z " fill="#E6054E" transform="translate(119,118)"/>
<path d="M0 0 C0.99 0 1.98 0 3 0 C3.33 0.66 3.66 1.32 4 2 C4.66 1.34 5.32 0.68 6 0 C7.32 0 8.64 0 10 0 C10 0.99 10 1.98 10 3 C8.7934375 3.4640625 8.7934375 3.4640625 7.5625 3.9375 C5.10919595 4.76335345 5.10919595 4.76335345 4 6 C3.76472227 8.34987262 3.58613583 10.70556039 3.4375 13.0625 C3.35371094 14.35285156 3.26992188 15.64320313 3.18359375 16.97265625 C3.12300781 17.97167969 3.06242187 18.97070312 3 20 C2.01 20 1.02 20 0 20 C0 13.4 0 6.8 0 0 Z " fill="#E4E4E5" transform="translate(276,433)"/>
<path d="M0 0 C0.99 0 1.98 0 3 0 C3 6.6 3 13.2 3 20 C2.01 20 1.02 20 0 20 C-0.95946595 15.38034912 -0.96102244 11.31870875 -0.5625 6.625 C-0.46066406 5.37976563 -0.35882813 4.13453125 -0.25390625 2.8515625 C-0.17011719 1.91054688 -0.08632813 0.96953125 0 0 Z " fill="#E4E5E5" transform="translate(268,433)"/>
<path d="M0 0 C-2 2 -2 2 -5.125 2.125 C-6.07375 2.08375 -7.0225 2.0425 -8 2 C-8 2.66 -8 3.32 -8 4 C-10.52113092 4.05447822 -13.0410585 4.09389852 -15.5625 4.125 C-16.26697266 4.14175781 -16.97144531 4.15851563 -17.69726562 4.17578125 C-22.51891822 4.22022044 -26.42297438 3.52768004 -31 2 C-28.04504332 0.52252166 -25.4143676 0.98514268 -22.125 1.0625 C-15.99893909 1.15809234 -10.31442411 0.5831402 -4.29296875 -0.66015625 C-2 -1 -2 -1 0 0 Z " fill="#DA0043" transform="translate(136,181)"/>
<path d="M0 0 C0.99 0 1.98 0 3 0 C3 6.6 3 13.2 3 20 C2.01 20 1.02 20 0 20 C0 13.4 0 6.8 0 0 Z " fill="#EDEDEE" transform="translate(131,433)"/>
<path d="M0 0 C0.36075949 4.44936709 0.36075949 4.44936709 -1.1875 6.8125 C-3.6135694 8.40199375 -5.15397406 8.36487512 -8 8 C-8.66 7.34 -9.32 6.68 -10 6 C-9.625 3.875 -9.625 3.875 -9 2 C-2.25 0 -2.25 0 0 0 Z " fill="#35363A" transform="translate(247,443)"/>
<path d="M0 0 C3.125 0.25 3.125 0.25 5 1.5625 C6.125 3.25 6.125 3.25 6.125 6.25 C2.495 6.25 -1.135 6.25 -4.875 6.25 C-3.68915929 0.32079646 -3.68915929 0.32079646 0 0 Z " fill="#38393D" transform="translate(146.875,435.75)"/>
<path d="M0 0 C0.66 0.33 1.32 0.66 2 1 C1.0409375 2.3921875 1.0409375 2.3921875 0.0625 3.8125 C-3.00131365 8.54748473 -3.43366817 12.4732521 -3 18 C-2.4782313 20.41374737 -1.78289167 22.65132499 -1 25 C-3.38958004 23.53541868 -4.7766284 22.61427191 -5.75 19.9375 C-6.71246819 8.62849873 -6.71246819 8.62849873 -4.6875 4 C-3 2 -3 2 0 0 Z " fill="#DD0346" transform="translate(107,137)"/>
<path d="M0 0 C0.33 0 0.66 0 1 0 C1 6.27 1 12.54 1 19 C-8 19 -8 19 -12.5 17.5 C-13.3559375 17.2215625 -14.211875 16.943125 -15.09375 16.65625 C-15.7228125 16.4396875 -16.351875 16.223125 -17 16 C-13.31599416 14.76895845 -10.08525024 15.09232748 -6.25 15.4375 C-4.1875 15.623125 -2.125 15.80875 0 16 C0 10.72 0 5.44 0 0 Z " fill="#85022C" transform="translate(181,104)"/>
<path d="M0 0 C0.99 0 1.98 0 3 0 C3.66 0.99 4.32 1.98 5 3 C7.95769177 3.50010524 7.95769177 3.50010524 11 3 C12.87890434 1.62493901 12.87890434 1.62493901 14 0 C14.6875 1.8125 14.6875 1.8125 15 4 C14.0625 5.75 14.0625 5.75 12 7 C5.06312292 7.77076412 5.06312292 7.77076412 1.5 5.1875 C0 3 0 3 0 0 Z " fill="#E9E9E9" transform="translate(322,446)"/>
<path d="M0 0 C1.65 0 3.3 0 5 0 C4.67 0.99 4.34 1.98 4 3 C3.77674186 5.05893621 3.59294241 7.12233653 3.4375 9.1875 C3.35371094 10.27417969 3.26992187 11.36085938 3.18359375 12.48046875 C3.12300781 13.31191406 3.06242188 14.14335938 3 15 C1.02 15 -0.96 15 -3 15 C-2.01 14.67 -1.02 14.34 0 14 C0 9.38 0 4.76 0 0 Z " fill="#FD004F" transform="translate(176,104)"/>
<path d="M0 0 C1.65 0 3.3 0 5 0 C5.67184618 2.10251861 6.33730968 4.20707763 7 6.3125 C7.37125 7.48425781 7.7425 8.65601562 8.125 9.86328125 C9 13 9 13 9 16 C7.87064804 14.58680023 6.74669374 13.16928595 5.625 11.75 C4.99851563 10.96109375 4.37203125 10.1721875 3.7265625 9.359375 C1.33865025 6.09625509 0 4.08534222 0 0 Z " fill="#D61352" transform="translate(150,78)"/>
<path d="M0 0 C3.3125 1 3.3125 1 5.3125 4 C1.97916667 4 -1.35416667 4 -4.6875 4 C-5.0175 6.97 -5.3475 9.94 -5.6875 13 C-6.0175 13 -6.3475 13 -6.6875 13 C-6.831875 12.236875 -6.97625 11.47375 -7.125 10.6875 C-7.6507594 7.91827092 -7.6507594 7.91827092 -8.6875 5 C-4.66310976 0 -4.66310976 0 0 0 Z " fill="#DFDFE0" transform="translate(116.6875,433)"/>
<path d="M0 0 C5.28 0 10.56 0 16 0 C16 0.99 16 1.98 16 3 C10.72 3 5.44 3 0 3 C0 2.01 0 1.02 0 0 Z " fill="#E8E8E8" transform="translate(305,453)"/>
<path d="M0 0 C0 0.99 0 1.98 0 3 C-1.64333504 4.03789581 -3.31243867 5.03567924 -5 6 C-7.10827055 9.16240582 -7.33817465 10.50657469 -7.625 14.1875 C-7.69976562 15.08855469 -7.77453125 15.98960937 -7.8515625 16.91796875 C-7.90054688 17.60503906 -7.94953125 18.29210937 -8 19 C-8.33 19 -8.66 19 -9 19 C-9.144375 18.0925 -9.28875 17.185 -9.4375 16.25 C-9.86277759 13.17214541 -9.86277759 13.17214541 -10.7421875 11.05859375 C-11 9 -11 9 -9.63671875 6.89453125 C-8.99347656 6.20746094 -8.35023437 5.52039063 -7.6875 4.8125 C-7.05199219 4.11769531 -6.41648437 3.42289062 -5.76171875 2.70703125 C-3.7715833 0.77867384 -2.78961103 0 0 0 Z " fill="#DCDCDD" transform="translate(85,428)"/>
<path d="M0 0 C3.875 0.875 3.875 0.875 5 2 C5.07325168 4.86267567 5.09238205 7.700719 5.0625 10.5625 C5.05798828 11.36880859 5.05347656 12.17511719 5.04882812 13.00585938 C5.03700518 15.00393756 5.01906914 17.00197783 5 19 C4.34 19 3.68 19 3 19 C2.95101562 17.96359375 2.90203125 16.9271875 2.8515625 15.859375 C2.77650403 14.48955792 2.70095753 13.11976752 2.625 11.75 C2.57859375 10.72712891 2.57859375 10.72712891 2.53125 9.68359375 C2.31740626 6.01260962 1.98922945 3.13748384 0 0 Z " fill="#F9F9F9" transform="translate(224,434)"/>
<path d="M0 0 C1 2 1 2 0.3984375 4.05859375 C-1.702719 8.94257965 -3.03262878 11.64049867 -8 14 C-9.36984198 15.29579647 -10.7151049 16.61992749 -12 18 C-12.99 17.67 -13.98 17.34 -15 17 C-14.45730469 16.55269531 -13.91460937 16.10539062 -13.35546875 15.64453125 C-9.46157624 12.35401668 -6.4151504 9.56195075 -4 5 C-3.34 4.67 -2.68 4.34 -2 4 C-0.86649466 1.98330173 -0.86649466 1.98330173 0 0 Z " fill="#CE003F" transform="translate(151,162)"/>
<path d="M0 0 C1.32 0.66 2.64 1.32 4 2 C3.67 3.65 3.34 5.3 3 7 C1.35 6.67 -0.3 6.34 -2 6 C-2.33 4.68 -2.66 3.36 -3 2 C-2.01 1.34 -1.02 0.68 0 0 Z " fill="#E7E8E8" transform="translate(109,359)"/>
<path d="M0 0 C0.99 0 1.98 0 3 0 C3.33 0.66 3.66 1.32 4 2 C5.89533342 2.46523063 5.89533342 2.46523063 8.0625 2.625 C9.361875 2.74875 10.66125 2.8725 12 3 C11.67 3.99 11.34 4.98 11 6 C4.67741935 6.36476427 4.67741935 6.36476427 1.5625 4.6875 C0 3 0 3 0 0 Z " fill="#E8E9E9" transform="translate(345,447)"/>
<path d="M0 0 C3.44216672 2.6598561 3.99504674 5.90288286 5 10 C6.65 10.33 8.3 10.66 10 11 C10 11.33 10 11.66 10 12 C6.54330418 12.31424507 4.60098323 12.37956836 1.625 10.5 C-0.73613198 6.86748926 -0.2854378 4.28156703 0 0 Z " fill="#D9DADA" transform="translate(81,440)"/>
<path d="M0 0 C1.166878 3.50063401 0.59536546 4.98650702 -0.8984375 8.28125 C-2.72980534 11.13870337 -5.06180017 12.36766676 -8 14 C-7.71125 13.43667969 -7.4225 12.87335938 -7.125 12.29296875 C-5.61960598 9.22468301 -4.32044145 6.07730362 -3 2.92578125 C-2 1 -2 1 0 0 Z " fill="#FB155C" transform="translate(149,158)"/>
<path d="M0 0 C4.29 0.99 8.58 1.98 13 3 C13 4.32 13 5.64 13 7 C7.53228436 6.59992325 4.04064621 4.53855408 0 1 C0 0.67 0 0.34 0 0 Z " fill="#0FECE9" transform="translate(163,96)"/>
<path d="M0 0 C3.37425632 -0.38562929 4.66116909 -0.25195119 7.4375 1.8125 C8.283125 2.534375 9.12875 3.25625 10 4 C11.97711651 5.04451438 13.97250996 6.05698138 16 7 C13.66266335 7.80867674 12.38955431 8.12401827 10 7.36328125 C6.09156665 5.30982701 2.92030237 3.40701943 0 0 Z " fill="#C0BCBF" transform="translate(91,174)"/>
<path d="M0 0 C-0.94875 0.7425 -1.8975 1.485 -2.875 2.25 C-7.67541753 6.29364582 -8.28184772 9.77601357 -9 16 C-9.33 16 -9.66 16 -10 16 C-10.44051769 9.83275229 -9.78605971 5.07762523 -6 0 C-3 -1 -3 -1 0 0 Z " fill="#A30033" transform="translate(113,139)"/>
<path d="M0 0 C0.33 4.62 0.66 9.24 1 14 C-2.375 9.5 -2.375 9.5 -2.6875 5.25 C-2.75324219 4.45078125 -2.81898437 3.6515625 -2.88671875 2.828125 C-2.92410156 2.22484375 -2.96148437 1.6215625 -3 1 C-1 0 -1 0 0 0 Z " fill="#FA1B60" transform="translate(101,144)"/>
<path d="M0 0 C0.185625 0.61875 0.37125 1.2375 0.5625 1.875 C2.71437233 5.05602866 5.37533763 5.19451947 9 6 C8.67 6.66 8.34 7.32 8 8 C4.625 8.125 4.625 8.125 1 8 C-1 6 -1 6 -1.1875 3.4375 C-1 1 -1 1 0 0 Z " fill="#F6F6F6" transform="translate(236,445)"/>
<path d="M0 0 C-0.33 0.99 -0.66 1.98 -1 3 C-3.06640625 3.73046875 -3.06640625 3.73046875 -5.5625 4.1875 C-6.38878906 4.34605469 -7.21507812 4.50460937 -8.06640625 4.66796875 C-9.02353516 4.83232422 -9.02353516 4.83232422 -10 5 C-7.62417533 -0.26075462 -5.61350876 -0.1220328 0 0 Z " fill="#DFDFE0" transform="translate(245,433)"/>
<path d="M0 0 C-0.33 0.99 -0.66 1.98 -1 3 C-7.6 3 -14.2 3 -21 3 C-21.33 2.34 -21.66 1.68 -22 1 C-20.21142578 1.01740234 -20.21142578 1.01740234 -18.38671875 1.03515625 C-16.82031406 1.04453592 -15.25390769 1.05363593 -13.6875 1.0625 C-12.50897461 1.07506836 -12.50897461 1.07506836 -11.30664062 1.08789062 C-10.1706543 1.09272461 -10.1706543 1.09272461 -9.01171875 1.09765625 C-7.96697388 1.10551147 -7.96697388 1.10551147 -6.90112305 1.11352539 C-4.45785586 0.96762591 -2.46000489 0 0 0 Z " fill="#E62561" transform="translate(127,181)"/>
<path d="M0 0 C0.99 0 1.98 0 3 0 C3.29296875 6.0546875 3.29296875 6.0546875 3 8 C2.01 8.66 1.02 9.32 0 10 C0 6.7 0 3.4 0 0 Z " fill="#E1E1E2" transform="translate(101,437)"/>
<path d="M0 0 C0 0.66 0 1.32 0 2 C-4.455 3.485 -4.455 3.485 -9 5 C-9 4.34 -9 3.68 -9 3 C-9.66 2.67 -10.32 2.34 -11 2 C-7.17010894 0.19769832 -4.21878192 -0.19622241 0 0 Z " fill="#F02161" transform="translate(117,132)"/>
<path d="M0 0 C0 0.33 0 0.66 0 1 C-0.763125 1.020625 -1.52625 1.04125 -2.3125 1.0625 C-5.41389118 1.79660949 -5.41389118 1.79660949 -6.8125 5.5625 C-7.204375 6.696875 -7.59625 7.83125 -8 9 C-8.99 8.34 -9.98 7.68 -11 7 C-8.87296567 0.78251503 -6.45381515 -0.28683623 0 0 Z " fill="#DADADB" transform="translate(150,433)"/>
<path d="M0 0 C0.99 0 1.98 0 3 0 C2.67 0.99 2.34 1.98 2 3 C1.77674186 5.05893621 1.59294241 7.12233653 1.4375 9.1875 C1.35371094 10.27417969 1.26992187 11.36085938 1.18359375 12.48046875 C1.12300781 13.31191406 1.06242188 14.14335938 1 15 C-0.98 15 -2.96 15 -5 15 C-5 14.67 -5 14.34 -5 14 C-3.35 14 -1.7 14 0 14 C0 9.38 0 4.76 0 0 Z " fill="#ED0351" transform="translate(178,104)"/>
<path d="M0 0 C1.65 0 3.3 0 5 0 C4.67 2.97 4.34 5.94 4 9 C2.01388388 7.01388388 1.08545288 5.55856751 0 3 C0 2.01 0 1.02 0 0 Z " fill="#F51261" transform="translate(150,78)"/>
<path d="M0 0 C0.66 0.33 1.32 0.66 2 1 C1.75 2.875 1.75 2.875 1 5 C-1.0625 6.25 -1.0625 6.25 -3 7 C-3 6.34 -3 5.68 -3 5 C-4.32 4.67 -5.64 4.34 -7 4 C-6.030625 3.71125 -5.06125 3.4225 -4.0625 3.125 C-0.89335797 2.35785318 -0.89335797 2.35785318 0 0 Z " fill="#D8D8D9" transform="translate(335,446)"/>
<path d="M0 0 C0 0.66 0 1.32 0 2 C-0.928125 2.3403125 -0.928125 2.3403125 -1.875 2.6875 C-4.61410209 4.37929835 -5.05024472 5.99244161 -6 9 C-6.33 9 -6.66 9 -7 9 C-7.36363636 3.54545455 -7.36363636 3.54545455 -5.75 1.125 C-4 0 -4 0 0 0 Z " fill="#F5F5F5" transform="translate(89,436)"/>
<path d="M0 0 C4.03321763 1.21934486 7.54269479 2.55954927 11 5 C11 5.66 11 6.32 11 7 C6.00724943 5.72278474 3.42388092 3.82669043 0 0 Z " fill="#A50B3D" transform="translate(97,179)"/>
<path d="M0 0 C0.66 0.33 1.32 0.66 2 1 C1.25 2.9375 1.25 2.9375 0 5 C-2.125 5.75 -2.125 5.75 -4 6 C-2.25 1.125 -2.25 1.125 0 0 Z " fill="#DFE0E0" transform="translate(349,427)"/>
<path d="M0 0 C0.598125 0.226875 1.19625 0.45375 1.8125 0.6875 C0.4375 2.1875 0.4375 2.1875 -1.1875 3.6875 C-1.8475 3.6875 -2.5075 3.6875 -3.1875 3.6875 C-3.8475 5.0075 -4.5075 6.3275 -5.1875 7.6875 C-5.41803497 4.84423536 -5.54653101 3.22604651 -3.9375 0.8125 C-2.1875 -0.3125 -2.1875 -0.3125 0 0 Z " fill="#DCDCDD" transform="translate(239.1875,442.3125)"/>
<path d="M0 0 C-0.625 1.875 -0.625 1.875 -2 4 C-5.125 5.25 -5.125 5.25 -8 6 C-3.375 0 -3.375 0 0 0 Z " fill="#A40033" transform="translate(148,173)"/>
<path d="M0 0 C3.71888239 0.50712033 6.73454239 1.11608215 10 3 C10 3.66 10 4.32 10 5 C6.08788267 3.84414715 3.1254959 2.64465038 0 0 Z " fill="#DBC9CE" transform="translate(152,111)"/>
<path d="M0 0 C1.32 0 2.64 0 4 0 C4 0.99 4 1.98 4 3 C2.02 3.66 0.04 4.32 -2 5 C-1.125 1.125 -1.125 1.125 0 0 Z " fill="#E7E7E8" transform="translate(282,433)"/>
<path d="M0 0 C0.66 0.33 1.32 0.66 2 1 C0.625 2.5 0.625 2.5 -1 4 C-1.66 4 -2.32 4 -3 4 C-3 4.66 -3 5.32 -3 6 C-3.99 6.33 -4.98 6.66 -6 7 C-6.66 6.34 -7.32 5.68 -8 5 C-6.71475739 4.13619741 -5.42157581 3.28419631 -4.125 2.4375 C-3.04605469 1.72400391 -3.04605469 1.72400391 -1.9453125 0.99609375 C-1.30335938 0.66738281 -0.66140625 0.33867187 0 0 Z " fill="#F81E62" transform="translate(136,175)"/>
<path d="M0 0 C-0.99 0.495 -0.99 0.495 -2 1 C-2 1.66 -2 2.32 -2 3 C-3.65 3.33 -5.3 3.66 -7 4 C-7 3.01 -7 2.02 -7 1 C-4.53721199 -0.231394 -2.7204945 -0.07159196 0 0 Z " fill="#E0E0E0" transform="translate(226,433)"/>
</svg>
