<?xml version="1.0" encoding="UTF-8"?>
<svg version="1.1" xmlns="http://www.w3.org/2000/svg" width="525" height="525">
<path d="M0 0 C173.25 0 346.5 0 525 0 C525 173.25 525 346.5 525 525 C351.75 525 178.5 525 0 525 C0 351.75 0 178.5 0 0 Z " fill="#2EA8F4" transform="translate(0,0)"/>
<path d="M0 0 C0.680625 0.5775 1.36125 1.155 2.0625 1.75 C4.7141178 3.46072116 6.80234542 3.0335362 9.828125 2.52734375 C13.36553867 1.66843935 16.63404279 0.38244671 20 -1 C18.47006021 4.04880132 15.47384336 7.14856497 12 11 C17.445 10.01 17.445 10.01 23 9 C19.8790306 13.1018455 18.00563592 15.37655051 13 17 C10.57274039 19.42725961 10.70778642 20.89399347 10.47021484 24.20458984 C8.97109911 44.83483583 0.82071186 60.43789191 -13.60546875 75.00390625 C-16.01286798 77.01072682 -18.04038217 78.02747904 -21 79 C-21 79.66 -21 80.32 -21 81 C-40.06541578 90.7860689 -61.32138212 93.56773712 -82 87 C-84.38196338 86.50791775 -86.7659564 86.05301338 -89.16015625 85.625 C-91.39055168 84.86732852 -92.46753999 83.75683889 -94 82 C-92.63681641 81.99613281 -92.63681641 81.99613281 -91.24609375 81.9921875 C-80.18423931 81.65182275 -70.33295908 79.22197272 -61 73 C-61.6290625 72.79246094 -62.258125 72.58492188 -62.90625 72.37109375 C-69.34660173 70.0529551 -74.48911687 67.24390164 -79 62 C-80.5 58.5625 -80.5 58.5625 -81 56 C-78.36 55.67 -75.72 55.34 -73 55 C-73.97839844 54.50693359 -73.97839844 54.50693359 -74.9765625 54.00390625 C-82.38724357 49.97065947 -86.25915387 45.48169225 -90 38 C-90.04022391 35.6670134 -90.04320247 33.33293334 -90 31 C-87.03 31.66 -84.06 32.32 -81 33 C-81.928125 31.96875 -82.85625 30.9375 -83.8125 29.875 C-89.3200311 23.31283529 -90.33090608 18.64642035 -90.30078125 10.12109375 C-90.00362616 7.03762732 -89.30472586 4.79138561 -88 2 C-85.01762237 3.32122536 -83.20258764 4.68405123 -81.0625 7.125 C-69.31377723 19.14927917 -53.30995822 24.36166836 -37 26 C-37.10441406 24.87464844 -37.10441406 24.87464844 -37.2109375 23.7265625 C-37.6394319 15.62597797 -36.40422594 10.18410408 -31 4 C-21.48491169 -3.94542238 -11.32374459 -5.22814709 0 0 Z " fill="#E5F4FE" transform="translate(167,75)"/>
<path d="M0 0 C1.98 0 3.96 0 6 0 C7.65 5.28 9.3 10.56 11 16 C12.32 10.72 13.64 5.44 15 0 C17.31 0 19.62 0 22 0 C24.475 8.415 24.475 8.415 27 17 C28.32 11.39 29.64 5.78 31 0 C32.98 0 34.96 0 37 0 C36.33558048 5.63246551 35.04619345 10.92356365 33.5 16.375 C33.27441406 17.19355469 33.04882812 18.01210938 32.81640625 18.85546875 C31.13103039 24.86896961 31.13103039 24.86896961 30 26 C28.02 26 26.04 26 24 26 C21.525 18.08 21.525 18.08 19 10 C17.35 15.28 15.7 20.56 14 26 C11.69 26 9.38 26 7 26 C6.01754027 22.60511062 5.03961667 19.20893071 4.0625 15.8125 C3.78470703 14.85279297 3.50691406 13.89308594 3.22070312 12.90429688 C2.95322266 11.97294922 2.68574219 11.04160156 2.41015625 10.08203125 C2.16402588 9.22843018 1.91789551 8.3748291 1.66430664 7.49536133 C1.0028046 5.01053504 0.47674908 2.52617668 0 0 Z " fill="#F3F8FA" transform="translate(102,370)"/>
<path d="M0 0 C3.62531608 1.8741654 5.69121639 4.07364917 7 8 C7 10.31 7 12.62 7 15 C1.06 15 -4.88 15 -11 15 C-10.34 16.65 -9.68 18.3 -9 20 C-5.59679066 20.67673447 -5.59679066 20.67673447 -2 21 C-1.34 20.34 -0.68 19.68 0 19 C3.625 18.875 3.625 18.875 7 19 C5.19587357 22.26460973 4.16605307 23.88929795 1 26 C-3.37132214 26.65192402 -7.99201428 27.00981874 -12.01953125 24.984375 C-15.44793213 22.21496115 -16.79462936 19.86887279 -17.2734375 15.51171875 C-17.58137334 6.94873366 -17.58137334 6.94873366 -14.625 3.375 C-10.10738872 -0.71236258 -5.93173852 -0.82662819 0 0 Z " fill="#EFF6FA" transform="translate(209,370)"/>
<path d="M0 0 C0.33 0.33 0.66 0.66 1 1 C1.33 0.34 1.66 -0.32 2 -1 C2.99 -1 3.98 -1 5 -1 C5.11622939 2.74973906 5.1872595 6.49901464 5.25 10.25 C5.30027344 11.84521484 5.30027344 11.84521484 5.3515625 13.47265625 C5.36445313 14.49746094 5.37734375 15.52226562 5.390625 16.578125 C5.41157227 17.52075195 5.43251953 18.46337891 5.45410156 19.43457031 C4.86631417 22.75525307 3.56794931 23.89287283 1 26 C-1.7798816 27.3899408 -3.9186326 27.18488204 -7 27 C-9.375 26 -9.375 26 -11 25 C-10.67 23.68 -10.34 22.36 -10 21 C-9.01 21.66 -8.02 22.32 -7 23 C-4.94290404 23.24055468 -4.94290404 23.24055468 -2.8125 23.125 C-1.554375 23.08375 -0.29625 23.0425 1 23 C1 21.02 1 19.04 1 17 C0.01 17.66 -0.98 18.32 -2 19 C-8.05970149 18.78358209 -8.05970149 18.78358209 -10.875 16.4375 C-12.45785064 13.00799028 -13.25977724 9.75955391 -13 6 C-9.39295696 -0.8409437 -7.3966857 -1.34485195 0 0 Z " fill="#E1F0F9" transform="translate(172,434)"/>
<path d="M0 0 C0.99 0 1.98 0 3 0 C3 8.58 3 17.16 3 26 C2.01 26 1.02 26 0 26 C-0.33 25.34 -0.66 24.68 -1 24 C-1.66 24.66 -2.32 25.32 -3 26 C-6.71480543 26.41275616 -9.11461964 26.47674327 -12.4375 24.6875 C-14.98426115 20.30707083 -14.82930461 15.92490542 -14 11 C-11.9375 7.75 -11.9375 7.75 -9 6 C-2.79310345 6.20689655 -2.79310345 6.20689655 -1 8 C-0.67 5.36 -0.34 2.72 0 0 Z " fill="#F0F6FA" transform="translate(122,427)"/>
<path d="M0 0 C9.24 0 18.48 0 28 0 C28 1.65 28 3.3 28 5 C24.37 5 20.74 5 17 5 C17 14.9 17 24.8 17 35 C15.02 35 13.04 35 11 35 C11 25.1 11 15.2 11 5 C7.37 5 3.74 5 0 5 C0 3.35 0 1.7 0 0 Z " fill="#F7F9FA" transform="translate(74,361)"/>
<path d="M0 0 C3 1.625 3 1.625 5 5 C5.80569252 10.91078848 6.50389486 17.62510334 3.0625 22.8125 C0.06192893 25.99492386 0.06192893 25.99492386 -3.8125 26.3125 C-7.00451891 26.2781156 -7.81111803 26.13693943 -10.5 24.1875 C-12 22 -12 22 -12 19 C-11.01 19 -10.02 19 -9 19 C-8.34 19.99 -7.68 20.98 -7 22 C-3.91634129 22.2502157 -3.91634129 22.2502157 -1 22 C-0.01 19.69 0.98 17.38 2 15 C1.484375 15.350625 0.96875 15.70125 0.4375 16.0625 C-3.05826706 17.40702579 -5.41014435 16.91378144 -9 16 C-11.23918419 14.1942063 -11.84945187 12.91646172 -12.3125 10.09765625 C-12.52133602 6.59312677 -12.32891469 4.54819116 -10.5 1.5 C-6.98899502 -0.60660299 -3.92184081 -0.83096429 0 0 Z " fill="#EBF4FA" transform="translate(334,427)"/>
<path d="M0 0 C0.5775 0.2475 1.155 0.495 1.75 0.75 C0.780625 1.28625 -0.18875 1.8225 -1.1875 2.375 C-3.62195492 4.40182526 -4.19965568 5.42761969 -4.6953125 8.6015625 C-4.77720616 10.97647873 -4.85641629 13.35148833 -4.93359375 15.7265625 C-5.87700807 32.86032033 -15.34489789 49.22519849 -27.48828125 60.90234375 C-40.94302642 72.37521156 -56.46583238 77.3445663 -74 77.25 C-75.12583496 77.24935547 -76.25166992 77.24871094 -77.41162109 77.24804688 C-86.72030719 77.08270135 -94.70653373 75.36355069 -103.25 71.75 C-103.25 71.42 -103.25 71.09 -103.25 70.75 C-99.32870144 71.26147373 -95.51233149 71.9051207 -91.65234375 72.765625 C-86.30225282 73.83936942 -81.13543141 74.13476857 -75.6875 74.125 C-74.7372998 74.12338867 -73.78709961 74.12177734 -72.80810547 74.12011719 C-60.92795448 73.91703768 -49.64883525 71.69219157 -39.25 65.75 C-38.59 65.75 -37.93 65.75 -37.25 65.75 C-37.25 65.09 -37.25 64.43 -37.25 63.75 C-35.78125 62.5234375 -35.78125 62.5234375 -33.75 61.125 C-23.1286973 53.37482683 -16.00481285 44.48177426 -12.20703125 31.83984375 C-11.46656798 29.44920519 -10.63738727 27.2347043 -9.6953125 24.92578125 C-7.80151693 19.95656087 -7.50945211 15.0199324 -7.16601562 9.75390625 C-6.85235508 6.22443301 -6.4945348 4.07141693 -4.32421875 1.21875 C-2.25 -0.25 -2.25 -0.25 0 0 Z " fill="#85C2E8" transform="translate(183.25,90.25)"/>
<path d="M0 0 C1 2 1 2 0.46875 4.03125 C-3.80897572 14.93255103 -11.76329778 28.23727252 -22.8046875 33.28125 C-23.52914062 33.5184375 -24.25359375 33.755625 -25 34 C-25 34.66 -25 35.32 -25 36 C-44.06541578 45.7860689 -65.32138212 48.56773712 -86 42 C-88.38196338 41.50791775 -90.7659564 41.05301338 -93.16015625 40.625 C-95 40 -95 40 -98 37 C-94.7 37 -91.4 37 -88 37 C-87.67 37.66 -87.34 38.32 -87 39 C-69.18105014 44.52564875 -49.40552034 43.58811857 -32.5 35.625 C-28.65668836 33.53511842 -25.19200136 31.07610323 -21.7890625 28.33203125 C-19.94135328 26.95633508 -18.08528639 25.96915292 -16 25 C-16 24.34 -16 23.68 -16 23 C-15.34 23 -14.68 23 -14 23 C-13.7421875 22.44183594 -13.484375 21.88367188 -13.21875 21.30859375 C-11.37158436 17.80963576 -8.98453595 14.72668381 -6.65625 11.53515625 C-5.05218451 9.07987677 -3.98527243 6.75383644 -3 4 C-2.34 4 -1.68 4 -1 4 C-0.67 2.68 -0.34 1.36 0 0 Z " fill="#B7DEF6" transform="translate(171,120)"/>
<path d="M0 0 C1.98 0 3.96 0 6 0 C6 2.31 6 4.62 6 7 C7.65 7 9.3 7 11 7 C11 8.65 11 10.3 11 12 C9.35 12 7.7 12 6 12 C6 17.28 6 22.56 6 28 C7.65 28 9.3 28 11 28 C11 29.65 11 31.3 11 33 C3.4749964 33.37008214 3.4749964 33.37008214 1.390625 31.74609375 C-0.33764951 29.5760412 -0.35134597 28.51326066 -0.29296875 25.76953125 C-0.28330078 24.96708984 -0.27363281 24.16464844 -0.26367188 23.33789062 C-0.23853516 22.50451172 -0.21339844 21.67113281 -0.1875 20.8125 C-0.17396484 19.96751953 -0.16042969 19.12253906 -0.14648438 18.25195312 C-0.11115799 16.16769616 -0.05735139 14.08376723 0 12 C-1.32 12 -2.64 12 -4 12 C-4 10.35 -4 8.7 -4 7 C-2.68 7 -1.36 7 0 7 C0 4.69 0 2.38 0 0 Z " fill="#EFF6FA" transform="translate(177,363)"/>
<path d="M0 0 C1.98 0 3.96 0 6 0 C6 2.31 6 4.62 6 7 C7.98 7 9.96 7 12 7 C12 8.65 12 10.3 12 12 C10.02 12 8.04 12 6 12 C6.33 16.95 6.66 21.9 7 27 C9.475 27.99 9.475 27.99 12 29 C12 30.32 12 31.64 12 33 C4.75590551 33.48293963 4.75590551 33.48293963 1.75 31.5625 C-0.86869817 27.72797768 -0.43386107 24.27581091 -0.25 19.75 C-0.23195312 18.90953125 -0.21390625 18.0690625 -0.1953125 17.203125 C-0.14830798 15.13492605 -0.07656724 13.06731559 0 11 C-0.99 11 -1.98 11 -3 11 C-3 9.68 -3 8.36 -3 7 C-2.01 7 -1.02 7 0 7 C0 4.69 0 2.38 0 0 Z " fill="#EEF5FA" transform="translate(158,363)"/>
<path d="M0 0 C3.36685364 3.03838012 5.29468541 5.05839384 5.84375 9.6796875 C5.98420204 13.62404887 5.78095462 16.7056816 4.4375 20.4375 C2.5625 22.3125 2.5625 22.3125 -0.375 22.625 C-1.385625 22.521875 -2.39625 22.41875 -3.4375 22.3125 C-4.7575 22.3125 -6.0775 22.3125 -7.4375 22.3125 C-7.7675 21.3225 -8.0975 20.3325 -8.4375 19.3125 C-7.7775 19.3125 -7.1175 19.3125 -6.4375 19.3125 C-5.7775 17.9925 -5.1175 16.6725 -4.4375 15.3125 C-4.004375 15.951875 -3.57125 16.59125 -3.125 17.25 C-1.52510823 19.57996003 -1.52510823 19.57996003 1.5625 20.3125 C2.38589648 12.61939326 2.38589648 12.61939326 0.51953125 5.37109375 C-2.59242048 2.31389777 -4.95255248 1.34429984 -9.25 1.0625 C-13.08624143 1.11819861 -15.40886796 1.81833244 -18.4375 4.3125 C-20.56555089 7.62362814 -20.70712745 10.35885815 -20.6875 14.25 C-20.69523437 15.77947266 -20.69523437 15.77947266 -20.703125 17.33984375 C-20.42556942 20.44601722 -19.97322982 22.59581338 -18.4375 25.3125 C-15.13145227 26.8821144 -11.28418813 26.41096688 -7.6875 26.375 C-6.51703125 26.36597656 -5.3465625 26.35695313 -4.140625 26.34765625 C-3.24859375 26.33605469 -2.3565625 26.32445312 -1.4375 26.3125 C-1.4375 27.3025 -1.4375 28.2925 -1.4375 29.3125 C-6.05391753 31.62070876 -11.51476982 30.59990776 -16.25 29.125 C-20.64217342 26.62748962 -22.84318871 24.09543388 -24.4375 19.3125 C-24.82686949 14.47533288 -25.08519377 9.91468985 -23.25 5.375 C-16.98959915 -1.74890441 -8.76026586 -4.30049415 0 0 Z " fill="#E6F2F9" transform="translate(98.4375,429.6875)"/>
<path d="M0 0 C2.6796875 1.50390625 2.6796875 1.50390625 5 4 C5.37233017 6.96672677 5.4808246 9.31856241 5.3125 12.25 C5.28994141 12.99507813 5.26738281 13.74015625 5.24414062 14.5078125 C5.18543561 16.339409 5.09575757 18.16996653 5 20 C4.38125 19.814375 3.7625 19.62875 3.125 19.4375 C0.95839822 18.76313824 0.95839822 18.76313824 -1 20 C-7.25748503 20.45508982 -7.25748503 20.45508982 -9.9375 18.8125 C-11.38718434 16.33950907 -11.42317323 14.82115488 -11 12 C-9.29868896 9.7112656 -8.34097902 9.0703437 -5.51953125 8.48828125 C-4.62621094 8.43027344 -3.73289063 8.37226563 -2.8125 8.3125 C-1.91144531 8.24675781 -1.01039063 8.18101562 -0.08203125 8.11328125 C0.94857422 8.05720703 0.94857422 8.05720703 2 8 C1.34 6.68 0.68 5.36 0 4 C-3.3 4.33 -6.6 4.66 -10 5 C-7.33379412 -0.33241175 -5.7738804 -0.56606671 0 0 Z " fill="#EFF6FA" transform="translate(245,433)"/>
<path d="M0 0 C2.8125 1.5625 2.8125 1.5625 5 4 C5.8125 7.75 5.8125 7.75 6 11 C1.38 11 -3.24 11 -8 11 C-6.54711014 15.5841963 -6.54711014 15.5841963 -5 17 C-2.54190002 17.2500773 -2.54190002 17.2500773 0 17 C0.66 16.34 1.32 15.68 2 15 C2.99 15 3.98 15 5 15 C3.125 18.875 3.125 18.875 2 20 C-2.44100541 20.63056872 -5.87307209 20.82458139 -9.5625 18.125 C-11.60561759 13.68344003 -11.9055739 9.80347893 -11 5 C-7.92883052 0.48357429 -5.43434422 -1.01893954 0 0 Z " fill="#EFF6FA" transform="translate(150,433)"/>
<path d="M0 0 C1.98 0 3.96 0 6 0 C6.33 0.66 6.66 1.32 7 2 C7.66 1.34 8.32 0.68 9 0 C12.125 -0.125 12.125 -0.125 15 0 C15 1.65 15 3.3 15 5 C13.865625 5.28875 12.73125 5.5775 11.5625 5.875 C10.386875 6.24625 9.21125 6.6175 8 7 C6.3501993 10.29960141 6.61741639 13.99127884 6.4375 17.625 C6.37272461 18.82769531 6.37272461 18.82769531 6.30664062 20.0546875 C6.20048543 22.0362511 6.09973145 24.01810271 6 26 C4.02 26 2.04 26 0 26 C0 17.42 0 8.84 0 0 Z " fill="#F6F9FA" transform="translate(221,370)"/>
<path d="M0 0 C1.32 0.33 2.64 0.66 4 1 C4.99 0.814375 5.98 0.62875 7 0.4375 C10.22874882 -0.0333592 11.3275479 0.25262747 14 2 C14.99 1.34 15.98 0.68 17 0 C19.8437583 -0.35546979 21.33423617 -0.51572136 23.63793945 1.26879883 C25.29594242 3.37614764 25.35273272 4.36218274 25.29296875 7.01171875 C25.28330078 7.76904297 25.27363281 8.52636719 25.26367188 9.30664062 C25.23853516 10.09232422 25.21339844 10.87800781 25.1875 11.6875 C25.16719727 12.88342773 25.16719727 12.88342773 25.14648438 14.10351562 C25.11117089 16.06929967 25.05736447 18.03473582 25 20 C24.34 20 23.68 20 23 20 C22.93941406 18.92878906 22.87882812 17.85757812 22.81640625 16.75390625 C22.73201463 15.35675609 22.64736594 13.95962143 22.5625 12.5625 C22.52318359 11.85544922 22.48386719 11.14839844 22.44335938 10.41992188 C22.52375562 6.91309581 22.52375562 6.91309581 21 4 C18.5 3.83333333 18.5 3.83333333 16 4 C14.00383446 5.99616554 14.59016573 9.81701963 14.4375 12.5625 C14.39431641 13.27341797 14.35113281 13.98433594 14.30664062 14.71679688 C14.20028223 16.47761912 14.09961154 18.2387832 14 20 C13.01 20 12.02 20 11 20 C10.67 14.72 10.34 9.44 10 4 C8.35 4 6.7 4 5 4 C3.00383446 5.99616554 3.59016573 9.81701963 3.4375 12.5625 C3.39431641 13.27341797 3.35113281 13.98433594 3.30664062 14.71679688 C3.20028223 16.47761912 3.09961154 18.2387832 3 20 C2.01 20 1.02 20 0 20 C0 13.4 0 6.8 0 0 Z " fill="#E9F3FA" transform="translate(204,433)"/>
<path d="M0 0 C0 3.96 0 7.92 0 12 C-0.66 11.34 -1.32 10.68 -2 10 C-2.99 11.485 -2.99 11.485 -4 13 C-4.66 13 -5.32 13 -6 13 C-6 13.99 -6 14.98 -6 16 C-8.64213132 16.21422686 -10.41516867 16.33418933 -12.75 15 C-14.70963661 11.86458142 -15.2551032 8.63522065 -15 5 C-10.71282884 -1.94817394 -7.41245618 -0.95303008 0 0 Z " fill="#E6F2F9" transform="translate(96,436)"/>
<path d="M0 0 C2.125 1.5625 2.125 1.5625 3 4 C2.6875 7.5625 2.6875 7.5625 2 11 C2 11.99 2 12.98 2 14 C2.66 14.66 3.32 15.32 4 16 C4.4375 18.875 4.4375 18.875 4 22 C1.8888112 24.5070367 0.29832538 25.77118622 -2.97265625 26.34765625 C-6.21990217 26.48725748 -8.61598673 26.20160697 -11.5 24.6875 C-13 23 -13 23 -13 20 C-12.01 20 -11.02 20 -10 20 C-9.67 20.66 -9.34 21.32 -9 22 C-6.36 22 -3.72 22 -1 22 C-0.25042843 18.52852158 -0.25042843 18.52852158 0 15 C-2.31 14.67 -4.62 14.34 -7 14 C-7 13.01 -7 12.02 -7 11 C-5.02 10.34 -3.04 9.68 -1 9 C-0.957279 7.33388095 -0.95936168 5.66617115 -1 4 C-2.04703565 2.74323161 -2.04703565 2.74323161 -4.375 2.75 C-7.48590355 3.04627653 -7.9642575 3.77919 -10 6 C-10.99 6 -11.98 6 -13 6 C-10.55270545 -0.81746338 -6.82843218 -0.87383958 0 0 Z " fill="#EFF6FA" transform="translate(358,427)"/>
<path d="M0 0 C1.98 0 3.96 0 6 0 C6 8.58 6 17.16 6 26 C4.02 26 2.04 26 0 26 C0 17.42 0 8.84 0 0 Z " fill="#FBFBFB" transform="translate(144,370)"/>
<path d="M0 0 C0.99 0 1.98 0 3 0 C4.65 4.29 6.3 8.58 8 13 C10.40804568 10.59195432 11.00768759 8.57796225 12.125 5.375 C12.47820312 4.37210937 12.83140625 3.36921875 13.1953125 2.3359375 C13.46085937 1.56507813 13.72640625 0.79421875 14 0 C14.99 0 15.98 0 17 0 C11.33318078 22.98977879 11.33318078 22.98977879 6 27 C3.3125 27.1875 3.3125 27.1875 1 27 C1 26.34 1 25.68 1 25 C2.65 24.67 4.3 24.34 6 24 C6.40939107 18.57556836 5.00096303 14.67128744 3 9.75 C0 2.20945946 0 2.20945946 0 0 Z " fill="#E7F2F9" transform="translate(289,433)"/>
<path d="M0 0 C1.8125 1.0625 1.8125 1.0625 3 3 C3.30540859 6.35949454 3.23408114 9.11049167 2.375 12.375 C0.29502726 14.83314961 -1.9029628 14.73069242 -5 15 C-7.56417383 12.43582617 -8.25787287 10.47083523 -8.375 6.9375 C-8 3 -8 3 -6.8125 1 C-4.33474158 -0.36703913 -2.78844081 -0.41826612 0 0 Z " fill="#23A2F0" transform="translate(119,436)"/>
<path d="M0 0 C2.69990662 1.79993774 4.5418865 3.083773 6 6 C6.3506291 11.34709374 6.44403637 14.62872307 3 19 C-0.22562656 20.61281328 -3.51182363 20.57906485 -7 20 C-9.90976129 17.81767904 -10.79527376 16.18936195 -11.41015625 12.6171875 C-11.6742089 8.08089835 -11.4743109 5.69751604 -8.875 1.875 C-5.46480804 -0.34903824 -3.99001861 -0.74812849 0 0 Z M-7.875 4.625 C-9.34307183 7.72426275 -9.48550505 9.60146464 -9 13 C-7.12230858 15.84920053 -7.12230858 15.84920053 -5 18 C-2.06556598 17.73343428 -2.06556598 17.73343428 1 17 C3.54014875 13.18977687 3.58606955 10.46529184 3 6 C2.03882095 3.87129307 2.03882095 3.87129307 0 3 C-3.45460302 2.49620373 -5.18371416 2.29255227 -7.875 4.625 Z " fill="#EEF5FA" transform="translate(193,433)"/>
<path d="M0 0 C3.0625 0.375 3.0625 0.375 4.9375 2 C6.39736373 5.08193454 6.55464954 7.00026031 6.0625 10.375 C4.4375 12.8125 4.4375 12.8125 2.0625 14.375 C-1.125 14.25 -1.125 14.25 -3.9375 13.375 C-5.11423198 11.02153604 -5.10373866 9.4943967 -5.125 6.875 C-5.13917969 6.0809375 -5.15335938 5.286875 -5.16796875 4.46875 C-4.77723033 0.91899079 -3.38336304 0.43191869 0 0 Z " fill="#23A2F0" transform="translate(167.9375,435.625)"/>
<path d="M0 0 C0.99 0 1.98 0 3 0 C3 6.6 3 13.2 3 20 C2.01 20 1.02 20 0 20 C-0.33 19.34 -0.66 18.68 -1 18 C-1.66 18.66 -2.32 19.32 -3 20 C-6.5 20.25 -6.5 20.25 -10 20 C-12 18 -12 18 -12.1953125 14.0859375 C-12.18200376 12.51550649 -12.15813602 10.94513779 -12.125 9.375 C-12.11597656 8.57320313 -12.10695312 7.77140625 -12.09765625 6.9453125 C-12.07406223 4.96341477 -12.03819065 2.98167019 -12 1 C-11.34 1 -10.68 1 -10 1 C-9.93941406 1.99902344 -9.87882812 2.99804688 -9.81640625 4.02734375 C-9.73261719 5.31769531 -9.64882813 6.60804688 -9.5625 7.9375 C-9.48128906 9.22527344 -9.40007812 10.51304687 -9.31640625 11.83984375 C-9.35080812 14.86023957 -9.35080812 14.86023957 -8 16 C-5.69 16 -3.38 16 -1 16 C-0.67 10.72 -0.34 5.44 0 0 Z " fill="#EFF6FA" transform="translate(268,433)"/>
<path d="M0 0 C2.9375 0.875 2.9375 0.875 4.9375 3.875 C4.49305556 9.31944444 4.49305556 9.31944444 1.9375 11.875 C-1.625 11.625 -1.625 11.625 -5.0625 10.875 C-6.46185013 8.07629973 -6.31515405 5.97001208 -6.0625 2.875 C-4.31924047 -0.1272803 -3.48919154 -0.14241598 0 0 Z " fill="#24A3F0" transform="translate(331.0625,429.125)"/>
<path d="M0 0 C2.5 0.25 2.5 0.25 4.5 2.25 C5.05776892 8.38545817 5.05776892 8.38545817 3.25 11.1875 C1.5 12.25 1.5 12.25 -2.5 12.25 C-4.94897847 8.57653229 -4.81537716 6.58643601 -4.5 2.25 C-2.5 0.25 -2.5 0.25 0 0 Z " fill="#23A2F0" transform="translate(88.5,437.75)"/>
<path d="M0 0 C0.5775 0.2475 1.155 0.495 1.75 0.75 C0.780625 1.28625 -0.18875 1.8225 -1.1875 2.375 C-3.62195492 4.40182526 -4.19965568 5.42761969 -4.6953125 8.6015625 C-4.77679531 10.96456391 -4.84903467 13.32789478 -4.9140625 15.69140625 C-5.1626148 20.29874507 -6.35670753 24.537641 -7.6875 28.9375 C-7.90543213 29.66807617 -8.12336426 30.39865234 -8.34790039 31.15136719 C-9.3546421 34.3805244 -10.36179544 36.91769317 -12.25 39.75 C-12.91 39.75 -13.57 39.75 -14.25 39.75 C-13.81766547 38.08198595 -13.37880988 36.41566192 -12.9375 34.75 C-12.69386719 33.821875 -12.45023438 32.89375 -12.19921875 31.9375 C-11.47229578 29.49647473 -10.65957924 27.26935081 -9.703125 24.921875 C-7.79998402 19.95397393 -7.50956551 15.02167118 -7.16601562 9.75390625 C-6.85235508 6.22443301 -6.4945348 4.07141693 -4.32421875 1.21875 C-2.25 -0.25 -2.25 -0.25 0 0 Z " fill="#97CBEB" transform="translate(183.25,90.25)"/>
<path d="M0 0 C0.99 0 1.98 0 3 0 C3.33 0.66 3.66 1.32 4 2 C4.66 1.34 5.32 0.68 6 0 C7.32 0 8.64 0 10 0 C10 0.99 10 1.98 10 3 C8.7934375 3.4640625 8.7934375 3.4640625 7.5625 3.9375 C5.10919595 4.76335345 5.10919595 4.76335345 4 6 C3.76472227 8.34987262 3.58613583 10.70556039 3.4375 13.0625 C3.35371094 14.35285156 3.26992188 15.64320313 3.18359375 16.97265625 C3.12300781 17.97167969 3.06242187 18.97070312 3 20 C2.01 20 1.02 20 0 20 C0 13.4 0 6.8 0 0 Z " fill="#E5F2F9" transform="translate(276,433)"/>
<path d="M0 0 C6 2 12 4 18 6 C18 7.32 18 8.64 18 10 C18.66 10 19.32 10 20 10 C19.67 10.66 19.34 11.32 19 12 C11.32214514 9.72769369 5.47053556 6.97213195 0 1 C0 0.67 0 0.34 0 0 Z " fill="#BEE2F7" transform="translate(88,136)"/>
<path d="M0 0 C0.99 0 1.98 0 3 0 C3 6.6 3 13.2 3 20 C2.01 20 1.02 20 0 20 C-0.95946595 15.38034912 -0.96102244 11.31870875 -0.5625 6.625 C-0.46066406 5.37976563 -0.35882813 4.13453125 -0.25390625 2.8515625 C-0.17011719 1.91054688 -0.08632813 0.96953125 0 0 Z " fill="#E4F1F9" transform="translate(268,433)"/>
<path d="M0 0 C0.99 0 1.98 0 3 0 C3 6.6 3 13.2 3 20 C2.01 20 1.02 20 0 20 C0 13.4 0 6.8 0 0 Z " fill="#EDF5FA" transform="translate(131,433)"/>
<path d="M0 0 C0.36075949 4.44936709 0.36075949 4.44936709 -1.1875 6.8125 C-3.6135694 8.40199375 -5.15397406 8.36487512 -8 8 C-8.66 7.34 -9.32 6.68 -10 6 C-9.625 3.875 -9.625 3.875 -9 2 C-2.25 0 -2.25 0 0 0 Z " fill="#32A8F0" transform="translate(247,443)"/>
<path d="M0 0 C3.125 0.25 3.125 0.25 5 1.5625 C6.125 3.25 6.125 3.25 6.125 6.25 C2.495 6.25 -1.135 6.25 -4.875 6.25 C-3.68915929 0.32079646 -3.68915929 0.32079646 0 0 Z " fill="#36AAF1" transform="translate(146.875,435.75)"/>
<path d="M0 0 C0.66 1.65 1.32 3.3 2 5 C-1.96 5 -5.92 5 -10 5 C-7.47551889 -1.31120278 -6.36969672 -1.85782821 0 0 Z " fill="#2EA7F2" transform="translate(208,375)"/>
<path d="M0 0 C0.99 0 1.98 0 3 0 C3.66 0.99 4.32 1.98 5 3 C7.95769177 3.50010524 7.95769177 3.50010524 11 3 C12.87890434 1.62493901 12.87890434 1.62493901 14 0 C14.6875 1.8125 14.6875 1.8125 15 4 C14.0625 5.75 14.0625 5.75 12 7 C5.06312292 7.77076412 5.06312292 7.77076412 1.5 5.1875 C0 3 0 3 0 0 Z " fill="#E9F3FA" transform="translate(322,446)"/>
<path d="M0 0 C3.3125 1 3.3125 1 5.3125 4 C1.97916667 4 -1.35416667 4 -4.6875 4 C-5.0175 6.97 -5.3475 9.94 -5.6875 13 C-6.0175 13 -6.3475 13 -6.6875 13 C-6.831875 12.236875 -6.97625 11.47375 -7.125 10.6875 C-7.6507594 7.91827092 -7.6507594 7.91827092 -8.6875 5 C-4.66310976 0 -4.66310976 0 0 0 Z " fill="#DFEFF9" transform="translate(116.6875,433)"/>
<path d="M0 0 C5.28 0 10.56 0 16 0 C16 0.99 16 1.98 16 3 C10.72 3 5.44 3 0 3 C0 2.01 0 1.02 0 0 Z " fill="#E8F3FA" transform="translate(305,453)"/>
<path d="M0 0 C-3.16774614 3.43926724 -5.59805186 5.45336957 -10 7 C-12.29575603 9.29575603 -12.32339599 10.00842525 -12.625 13.125 C-12.74875 14.40375 -12.8725 15.6825 -13 17 C-13.33 17 -13.66 17 -14 17 C-14.78482206 8.01814754 -14.78482206 8.01814754 -11.6875 4 C-4.35971223 -1.45323741 -4.35971223 -1.45323741 0 0 Z " fill="#BBE0F5" transform="translate(190,85)"/>
<path d="M0 0 C2.97 0.33 5.94 0.66 9 1 C9 4.96 9 8.92 9 13 C5.12328873 10.41552582 5.19213805 8.37117286 4 4 C3.34 3.67 2.68 3.34 2 3 C2 2.34 2 1.68 2 1 C1.34 0.67 0.68 0.34 0 0 Z " fill="#DDEEF9" transform="translate(87,435)"/>
<path d="M0 0 C3.875 0.875 3.875 0.875 5 2 C5.07325168 4.86267567 5.09238205 7.700719 5.0625 10.5625 C5.05798828 11.36880859 5.05347656 12.17511719 5.04882812 13.00585938 C5.03700518 15.00393756 5.01906914 17.00197783 5 19 C4.34 19 3.68 19 3 19 C2.95101562 17.96359375 2.90203125 16.9271875 2.8515625 15.859375 C2.77650403 14.48955792 2.70095753 13.11976752 2.625 11.75 C2.57859375 10.72712891 2.57859375 10.72712891 2.53125 9.68359375 C2.31740626 6.01260962 1.98922945 3.13748384 0 0 Z " fill="#F9FAFA" transform="translate(224,434)"/>
<path d="M0 0 C3.3 0 6.6 0 10 0 C10.33 0.66 10.66 1.32 11 2 C13.57951874 2.69093896 13.57951874 2.69093896 16.5625 3.125 C17.57441406 3.29257813 18.58632812 3.46015625 19.62890625 3.6328125 C20.80259766 3.81457031 20.80259766 3.81457031 22 4 C22 4.33 22 4.66 22 5 C19.26935053 4.91269147 16.5418381 4.80577876 13.8125 4.6875 C12.65911133 4.65366211 12.65911133 4.65366211 11.48242188 4.61914062 C6.89044673 4.4023521 3.75516558 3.92737357 0 1 C0 0.67 0 0.34 0 0 Z " fill="#B9E2F8" transform="translate(73,157)"/>
<path d="M0 0 C0.66 0 1.32 0 2 0 C1.67 2.64 1.34 5.28 1 8 C-5.28571429 10.42857143 -5.28571429 10.42857143 -9 9 C-7.6078125 7.88625 -7.6078125 7.88625 -6.1875 6.75 C-3.71061648 4.70438561 -1.913529 2.58326416 0 0 Z " fill="#3793DF" transform="translate(186,77)"/>
<path d="M0 0 C1.8871875 0.0309375 1.8871875 0.0309375 3.8125 0.0625 C4.1425 0.7225 4.4725 1.3825 4.8125 2.0625 C4.22082031 2.09988281 3.62914063 2.13726562 3.01953125 2.17578125 C-2.97065503 2.67414911 -6.82359267 3.69859267 -11.1875 8.0625 C-11.8475 8.0625 -12.5075 8.0625 -13.1875 8.0625 C-11.79165208 4.68920085 -10.26384389 3.02017338 -7.1875 1.0625 C-4.43671116 0.14557039 -2.82801087 -0.04636083 0 0 Z " fill="#F5F8FA" transform="translate(89.1875,427.9375)"/>
<path d="M0 0 C0.33 0.66 0.66 1.32 1 2 C0.07456291 3.34173403 -0.86577405 4.67320159 -1.8125 6 C-2.33457031 6.7425 -2.85664063 7.485 -3.39453125 8.25 C-3.92433594 8.8275 -4.45414063 9.405 -5 10 C-5.99 10 -6.98 10 -8 10 C-7 8 -6 6 -5 4 C-5.66 3.67 -6.32 3.34 -7 3 C-4.69 2.01 -2.38 1.02 0 0 Z " fill="#C3E7F8" transform="translate(186,74)"/>
<path d="M0 0 C1.65 0 3.3 0 5 0 C5.625 1.875 5.625 1.875 6 4 C5.34 4.66 4.68 5.32 4 6 C1.375 5.625 1.375 5.625 -1 5 C-0.67 3.35 -0.34 1.7 0 0 Z " fill="#EFF6FA" transform="translate(145,360)"/>
<path d="M0 0 C0.66 0.33 1.32 0.66 2 1 C1.01 1.33 0.02 1.66 -1 2 C-1 2.66 -1 3.32 -1 4 C-3.12040742 5.03033882 -5.24647908 6.04902854 -7.375 7.0625 C-9.15003906 7.91521484 -9.15003906 7.91521484 -10.9609375 8.78515625 C-11.96382812 9.18605469 -12.96671875 9.58695313 -14 10 C-14.66 9.67 -15.32 9.34 -16 9 C-11.25 6 -11.25 6 -9 6 C-9 5.34 -9 4.68 -9 4 C-7.88625 3.525625 -6.7725 3.05125 -5.625 2.5625 C-3.73289006 1.74693537 -1.84287291 0.92143645 0 0 Z " fill="#A2D3F0" transform="translate(147,152)"/>
<path d="M0 0 C0.185625 0.61875 0.37125 1.2375 0.5625 1.875 C2.71437233 5.05602866 5.37533763 5.19451947 9 6 C8.67 6.66 8.34 7.32 8 8 C4.625 8.125 4.625 8.125 1 8 C-1 6 -1 6 -1.1875 3.4375 C-1 1 -1 1 0 0 Z " fill="#F6F9FA" transform="translate(236,445)"/>
<path d="M0 0 C-0.33 0.99 -0.66 1.98 -1 3 C-3.06640625 3.73046875 -3.06640625 3.73046875 -5.5625 4.1875 C-6.38878906 4.34605469 -7.21507812 4.50460937 -8.06640625 4.66796875 C-9.02353516 4.83232422 -9.02353516 4.83232422 -10 5 C-7.62417533 -0.26075462 -5.61350876 -0.1220328 0 0 Z " fill="#DFEFF9" transform="translate(245,433)"/>
<path d="M0 0 C4.51478398 0.53115106 7.34666857 2.36620292 11 5 C10.67 5.99 10.34 6.98 10 8 C8.51714758 7.04737966 7.03881799 6.08771595 5.5625 5.125 C4.73878906 4.59132813 3.91507812 4.05765625 3.06640625 3.5078125 C1 2 1 2 0 0 Z " fill="#ADD7F2" transform="translate(82,121)"/>
<path d="M0 0 C0.99 0 1.98 0 3 0 C3.928125 1.175625 3.928125 1.175625 4.875 2.375 C6.7795925 5.16741098 6.7795925 5.16741098 9.6875 6.0625 C10.450625 6.371875 11.21375 6.68125 12 7 C12.8125 9.125 12.8125 9.125 13 11 C7.3373174 8.1686587 3.84380901 5.01243959 0 0 Z " fill="#3DA0EA" transform="translate(83,79)"/>
<path d="M0 0 C0 0.33 0 0.66 0 1 C-0.763125 1.020625 -1.52625 1.04125 -2.3125 1.0625 C-5.41389118 1.79660949 -5.41389118 1.79660949 -6.8125 5.5625 C-7.204375 6.696875 -7.59625 7.83125 -8 9 C-8.99 8.34 -9.98 7.68 -11 7 C-8.87296567 0.78251503 -6.45381515 -0.28683623 0 0 Z " fill="#DDEEF9" transform="translate(150,433)"/>
<path d="M0 0 C0.66 0.33 1.32 0.66 2 1 C1.75 2.875 1.75 2.875 1 5 C-1.0625 6.25 -1.0625 6.25 -3 7 C-3 6.34 -3 5.68 -3 5 C-4.32 4.67 -5.64 4.34 -7 4 C-6.030625 3.71125 -5.06125 3.4225 -4.0625 3.125 C-0.89335797 2.35785318 -0.89335797 2.35785318 0 0 Z " fill="#D8ECF9" transform="translate(335,446)"/>
<path d="M0 0 C0 0.66 0 1.32 0 2 C-0.928125 2.3403125 -0.928125 2.3403125 -1.875 2.6875 C-4.61410209 4.37929835 -5.05024472 5.99244161 -6 9 C-6.33 9 -6.66 9 -7 9 C-7.36363636 3.54545455 -7.36363636 3.54545455 -5.75 1.125 C-4 0 -4 0 0 0 Z " fill="#F5F8FA" transform="translate(89,436)"/>
<path d="M0 0 C0.99 0 1.98 0 3 0 C2.67 3.96 2.34 7.92 2 12 C1.67 12 1.34 12 1 12 C0.7834375 10.6078125 0.7834375 10.6078125 0.5625 9.1875 C0.07899889 5.99274889 0.07899889 5.99274889 -1 3 C-0.67 2.01 -0.34 1.02 0 0 Z " fill="#D3EAF9" transform="translate(75,435)"/>
<path d="M0 0 C3.3 0 6.6 0 10 0 C10.33 0.99 10.66 1.98 11 3 C9.35333797 2.8864371 7.70763918 2.75882619 6.0625 2.625 C5.14597656 2.55539063 4.22945313 2.48578125 3.28515625 2.4140625 C2.15400391 2.20910156 2.15400391 2.20910156 1 2 C0.67 1.34 0.34 0.68 0 0 Z " fill="#C6EBFB" transform="translate(73,157)"/>
<path d="M0 0 C0.66 0.33 1.32 0.66 2 1 C1.25 2.9375 1.25 2.9375 0 5 C-2.125 5.75 -2.125 5.75 -4 6 C-2.25 1.125 -2.25 1.125 0 0 Z " fill="#DFEFF9" transform="translate(349,427)"/>
<path d="M0 0 C2.64 0.66 5.28 1.32 8 2 C8 2.66 8 3.32 8 4 C8.66 4 9.32 4 10 4 C10 4.66 10 5.32 10 6 C5.56909529 4.79157144 3.01887244 3.48331435 0 0 Z " fill="#95CBEC" transform="translate(92,140)"/>
<path d="M0 0 C2.97 0.99 5.94 1.98 9 3 C9 3.33 9 3.66 9 4 C6.03 4 3.06 4 0 4 C0 2.68 0 1.36 0 0 Z " fill="#2F90DF" transform="translate(86,126)"/>
<path d="M0 0 C0.598125 0.226875 1.19625 0.45375 1.8125 0.6875 C0.4375 2.1875 0.4375 2.1875 -1.1875 3.6875 C-1.8475 3.6875 -2.5075 3.6875 -3.1875 3.6875 C-3.8475 5.0075 -4.5075 6.3275 -5.1875 7.6875 C-5.41803497 4.84423536 -5.54653101 3.22604651 -3.9375 0.8125 C-2.1875 -0.3125 -2.1875 -0.3125 0 0 Z " fill="#DCEEF9" transform="translate(239.1875,442.3125)"/>
<path d="M0 0 C0 0.66 0 1.32 0 2 C-3.47325181 3.1577506 -6.36067448 3.06866652 -10 3 C-9.67 2.34 -9.34 1.68 -9 1 C-5.85554549 0.15014743 -3.29227921 0 0 0 Z " fill="#F0FBFE" transform="translate(92,156)"/>
<path d="M0 0 C1.98 0 3.96 0 6 0 C6 0.99 6 1.98 6 3 C6.66 3 7.32 3 8 3 C7.67 3.66 7.34 4.32 7 5 C4.525 4.01 4.525 4.01 2 3 C2 2.34 2 1.68 2 1 C1.34 0.67 0.68 0.34 0 0 Z " fill="#ADD7F3" transform="translate(100,143)"/>
<path d="M0 0 C1.32 0.33 2.64 0.66 4 1 C1.69 2.65 -0.62 4.3 -3 6 C-2 2 -2 2 0 0 Z " fill="#86C1E7" transform="translate(181,90)"/>
</svg>
